# lettering: TIPPE TOP
v 8.861 3.893 0.000
v 9.885 3.893 0.000
v 9.885 3.995 0.000
v 8.861 3.995 0.000
v 8.861 3.893 0.500
v 9.885 3.893 0.500
v 9.885 3.995 0.500
v 8.861 3.995 0.500
v 11.729 3.790 0.000
v 14.188 3.790 0.000
v 14.188 3.893 0.000
v 11.729 3.893 0.000
v 11.729 3.790 0.500
v 14.188 3.790 0.500
v 14.188 3.893 0.500
v 11.729 3.893 0.500
v -5.378 3.790 0.000
v -2.920 3.790 0.000
v -2.920 3.893 0.000
v -5.378 3.893 0.000
v -5.378 3.790 0.500
v -2.920 3.790 0.500
v -2.920 3.893 0.500
v -5.378 3.893 0.500
v -9.066 3.790 0.000
v -6.607 3.790 0.000
v -6.607 3.893 0.000
v -9.066 3.893 0.000
v -9.066 3.790 0.500
v -6.607 3.790 0.500
v -6.607 3.893 0.500
v -9.066 3.893 0.500
v 8.451 3.790 0.000
v 10.193 3.790 0.000
v 10.193 3.893 0.000
v 8.451 3.893 0.000
v 8.451 3.790 0.500
v 10.193 3.790 0.500
v 10.193 3.893 0.500
v 8.451 3.893 0.500
v 8.246 3.688 0.000
v 10.398 3.688 0.000
v 10.398 3.790 0.000
v 8.246 3.790 0.000
v 8.246 3.688 0.500
v 10.398 3.688 0.500
v 10.398 3.790 0.500
v 8.246 3.790 0.500
v 11.729 3.688 0.000
v 14.495 3.688 0.000
v 14.495 3.790 0.000
v 11.729 3.790 0.000
v 11.729 3.688 0.500
v 14.495 3.688 0.500
v 14.495 3.790 0.500
v 11.729 3.790 0.500
v -9.066 3.688 0.000
v -6.300 3.688 0.000
v -6.300 3.790 0.000
v -9.066 3.790 0.000
v -9.066 3.688 0.500
v -6.300 3.688 0.500
v -6.300 3.790 0.500
v -9.066 3.790 0.500
v -5.378 3.688 0.000
v -2.612 3.688 0.000
v -2.612 3.790 0.000
v -5.378 3.790 0.000
v -5.378 3.688 0.500
v -2.612 3.688 0.500
v -2.612 3.790 0.500
v -5.378 3.790 0.500
v -11.320 3.585 0.000
v -9.476 3.585 0.000
v -9.476 3.893 0.000
v -11.320 3.893 0.000
v -11.320 3.585 0.500
v -9.476 3.585 0.500
v -9.476 3.893 0.500
v -11.320 3.893 0.500
v -1.690 3.585 0.000
v 1.588 3.585 0.000
v 1.588 3.893 0.000
v -1.690 3.893 0.000
v -1.690 3.585 0.500
v 1.588 3.585 0.500
v 1.588 3.893 0.500
v -1.690 3.893 0.500
v 3.739 3.585 0.000
v 7.222 3.585 0.000
v 7.222 3.893 0.000
v 3.739 3.893 0.000
v 3.739 3.585 0.500
v 7.222 3.585 0.500
v 7.222 3.893 0.500
v 3.739 3.893 0.500
v -15.110 3.585 0.000
v -11.627 3.585 0.000
v -11.627 3.893 0.000
v -15.110 3.893 0.000
v -15.110 3.585 0.500
v -11.627 3.585 0.500
v -11.627 3.893 0.500
v -15.110 3.893 0.500
v -5.378 3.585 0.000
v -2.407 3.585 0.000
v -2.407 3.688 0.000
v -5.378 3.688 0.000
v -5.378 3.585 0.500
v -2.407 3.585 0.500
v -2.407 3.688 0.500
v -5.378 3.688 0.500
v 9.680 3.585 0.000
v 10.602 3.585 0.000
v 10.602 3.688 0.000
v 9.680 3.688 0.000
v 9.680 3.585 0.500
v 10.602 3.585 0.500
v 10.602 3.688 0.500
v 9.680 3.688 0.500
v 8.144 3.585 0.000
v 9.066 3.585 0.000
v 9.066 3.688 0.000
v 8.144 3.688 0.000
v 8.144 3.585 0.500
v 9.066 3.585 0.500
v 9.066 3.688 0.500
v 8.144 3.688 0.500
v 11.729 3.585 0.000
v 14.700 3.585 0.000
v 14.700 3.688 0.000
v 11.729 3.688 0.000
v 11.729 3.585 0.500
v 14.700 3.585 0.500
v 14.700 3.688 0.500
v 11.729 3.688 0.500
v -9.066 3.585 0.000
v -6.095 3.585 0.000
v -6.095 3.688 0.000
v -9.066 3.688 0.000
v -9.066 3.585 0.500
v -6.095 3.585 0.500
v -6.095 3.688 0.500
v -9.066 3.688 0.500
v 8.041 3.483 0.000
v 8.861 3.483 0.000
v 8.861 3.585 0.000
v 8.041 3.585 0.000
v 8.041 3.483 0.500
v 8.861 3.483 0.500
v 8.861 3.585 0.500
v 8.041 3.585 0.500
v 13.676 3.483 0.000
v 14.802 3.483 0.000
v 14.802 3.585 0.000
v 13.676 3.585 0.000
v 13.676 3.483 0.500
v 14.802 3.483 0.500
v 14.802 3.585 0.500
v 13.676 3.585 0.500
v -3.432 3.483 0.000
v -2.305 3.483 0.000
v -2.305 3.585 0.000
v -3.432 3.585 0.000
v -3.432 3.483 0.500
v -2.305 3.483 0.500
v -2.305 3.585 0.500
v -3.432 3.585 0.500
v 9.783 3.483 0.000
v 10.705 3.483 0.000
v 10.705 3.585 0.000
v 9.783 3.585 0.000
v 9.783 3.483 0.500
v 10.705 3.483 0.500
v 10.705 3.585 0.500
v 9.783 3.585 0.500
v -7.120 3.483 0.000
v -5.993 3.483 0.000
v -5.993 3.585 0.000
v -7.120 3.585 0.000
v -7.120 3.483 0.500
v -5.993 3.483 0.500
v -5.993 3.585 0.500
v -7.120 3.585 0.500
v 7.939 3.380 0.000
v 8.759 3.380 0.000
v 8.759 3.483 0.000
v 7.939 3.483 0.000
v 7.939 3.380 0.500
v 8.759 3.380 0.500
v 8.759 3.483 0.500
v 7.939 3.483 0.500
v 13.880 3.380 0.000
v 14.905 3.380 0.000
v 14.905 3.483 0.000
v 13.880 3.483 0.000
v 13.880 3.380 0.500
v 14.905 3.380 0.500
v 14.905 3.483 0.500
v 13.880 3.483 0.500
v -3.227 3.380 0.000
v -2.202 3.380 0.000
v -2.202 3.483 0.000
v -3.227 3.483 0.000
v -3.227 3.380 0.500
v -2.202 3.380 0.500
v -2.202 3.483 0.500
v -3.227 3.483 0.500
v -6.915 3.380 0.000
v -5.890 3.380 0.000
v -5.890 3.483 0.000
v -6.915 3.483 0.000
v -6.915 3.380 0.500
v -5.890 3.380 0.500
v -5.890 3.483 0.500
v -6.915 3.483 0.500
v 9.988 3.380 0.000
v 10.807 3.380 0.000
v 10.807 3.483 0.000
v 9.988 3.483 0.000
v 9.988 3.380 0.500
v 10.807 3.380 0.500
v 10.807 3.483 0.500
v 9.988 3.483 0.500
v 7.837 3.278 0.000
v 8.759 3.278 0.000
v 8.759 3.380 0.000
v 7.837 3.380 0.000
v 7.837 3.278 0.500
v 8.759 3.278 0.500
v 8.759 3.380 0.500
v 7.837 3.380 0.500
v 9.988 3.278 0.000
v 10.910 3.278 0.000
v 10.910 3.380 0.000
v 9.988 3.380 0.000
v 9.988 3.278 0.500
v 10.910 3.278 0.500
v 10.910 3.380 0.500
v 9.988 3.380 0.500
v -6.812 3.176 0.000
v -5.788 3.176 0.000
v -5.788 3.380 0.000
v -6.812 3.380 0.000
v -6.812 3.176 0.500
v -5.788 3.176 0.500
v -5.788 3.380 0.500
v -6.812 3.380 0.500
v 13.983 3.176 0.000
v 15.007 3.176 0.000
v 15.007 3.380 0.000
v 13.983 3.380 0.000
v 13.983 3.176 0.500
v 15.007 3.176 0.500
v 15.007 3.380 0.500
v 13.983 3.380 0.500
v -3.124 3.176 0.000
v -2.100 3.176 0.000
v -2.100 3.380 0.000
v -3.124 3.380 0.000
v -3.124 3.176 0.500
v -2.100 3.176 0.500
v -2.100 3.380 0.500
v -3.124 3.380 0.500
v 7.734 3.176 0.000
v 8.656 3.176 0.000
v 8.656 3.278 0.000
v 7.734 3.278 0.000
v 7.734 3.176 0.500
v 8.656 3.176 0.500
v 8.656 3.278 0.500
v 7.734 3.278 0.500
v 1.178 3.073 0.000
v 1.588 3.073 0.000
v 1.588 3.585 0.000
v 1.178 3.585 0.000
v 1.178 3.073 0.500
v 1.588 3.073 0.500
v 1.588 3.585 0.500
v 1.178 3.585 0.500
v 3.739 3.073 0.000
v 4.046 3.073 0.000
v 4.046 3.585 0.000
v 3.739 3.585 0.000
v 3.739 3.073 0.500
v 4.046 3.073 0.500
v 4.046 3.585 0.500
v 3.739 3.585 0.500
v -15.110 3.073 0.000
v -14.802 3.073 0.000
v -14.802 3.585 0.000
v -15.110 3.585 0.000
v -15.110 3.073 0.500
v -14.802 3.073 0.500
v -14.802 3.585 0.500
v -15.110 3.585 0.500
v 10.090 3.073 0.000
v 11.012 3.073 0.000
v 11.012 3.278 0.000
v 10.090 3.278 0.000
v 10.090 3.073 0.500
v 11.012 3.073 0.500
v 11.012 3.278 0.500
v 10.090 3.278 0.500
v -6.710 3.073 0.000
v -5.788 3.073 0.000
v -5.788 3.176 0.000
v -6.710 3.176 0.000
v -6.710 3.073 0.500
v -5.788 3.073 0.500
v -5.788 3.176 0.500
v -6.710 3.176 0.500
v 7.632 3.073 0.000
v 8.656 3.073 0.000
v 8.656 3.176 0.000
v 7.632 3.176 0.000
v 7.632 3.073 0.500
v 8.656 3.073 0.500
v 8.656 3.176 0.500
v 7.632 3.176 0.500
v 14.085 3.073 0.000
v 15.007 3.073 0.000
v 15.007 3.176 0.000
v 14.085 3.176 0.000
v 14.085 3.073 0.500
v 15.007 3.073 0.500
v 15.007 3.176 0.500
v 14.085 3.176 0.500
v -3.022 3.073 0.000
v -2.100 3.073 0.000
v -2.100 3.176 0.000
v -3.022 3.176 0.000
v -3.022 3.073 0.500
v -2.100 3.073 0.500
v -2.100 3.176 0.500
v -3.022 3.176 0.500
v -11.934 2.971 0.000
v -11.627 2.971 0.000
v -11.627 3.585 0.000
v -11.934 3.585 0.000
v -11.934 2.971 0.500
v -11.627 2.971 0.500
v -11.627 3.585 0.500
v -11.934 3.585 0.500
v 6.915 2.971 0.000
v 7.222 2.971 0.000
v 7.222 3.585 0.000
v 6.915 3.585 0.000
v 6.915 2.971 0.500
v 7.222 2.971 0.500
v 7.222 3.585 0.500
v 6.915 3.585 0.500
v 3.739 2.971 0.000
v 3.944 2.971 0.000
v 3.944 3.073 0.000
v 3.739 3.073 0.000
v 3.739 2.971 0.500
v 3.944 2.971 0.500
v 3.944 3.073 0.500
v 3.739 3.073 0.500
v 7.632 2.971 0.000
v 8.554 2.971 0.000
v 8.554 3.073 0.000
v 7.632 3.073 0.000
v 7.632 2.971 0.500
v 8.554 2.971 0.500
v 8.554 3.073 0.500
v 7.632 3.073 0.500
v -15.110 2.971 0.000
v -14.905 2.971 0.000
v -14.905 3.073 0.000
v -15.110 3.073 0.000
v -15.110 2.971 0.500
v -14.905 2.971 0.500
v -14.905 3.073 0.500
v -15.110 3.073 0.500
v 10.193 2.868 0.000
v 11.115 2.868 0.000
v 11.115 3.073 0.000
v 10.193 3.073 0.000
v 10.193 2.868 0.500
v 11.115 2.868 0.500
v 11.115 3.073 0.500
v 10.193 3.073 0.500
v 7.529 2.766 0.000
v 8.554 2.766 0.000
v 8.554 2.971 0.000
v 7.529 2.971 0.000
v 7.529 2.766 0.500
v 8.554 2.766 0.500
v 8.554 2.971 0.500
v 7.529 2.971 0.500
v 14.085 2.561 0.000
v 15.110 2.561 0.000
v 15.110 3.073 0.000
v 14.085 3.073 0.000
v 14.085 2.561 0.500
v 15.110 2.561 0.500
v 15.110 3.073 0.500
v 14.085 3.073 0.500
v -3.022 2.561 0.000
v -1.998 2.561 0.000
v -1.998 3.073 0.000
v -3.022 3.073 0.000
v -3.022 2.561 0.500
v -1.998 2.561 0.500
v -1.998 3.073 0.500
v -3.022 3.073 0.500
v -6.710 2.561 0.000
v -5.685 2.561 0.000
v -5.685 3.073 0.000
v -6.710 3.073 0.000
v -6.710 2.561 0.500
v -5.685 2.561 0.500
v -5.685 3.073 0.500
v -6.710 3.073 0.500
v 10.193 2.561 0.000
v 11.217 2.561 0.000
v 11.217 2.868 0.000
v 10.193 2.868 0.000
v 10.193 2.561 0.500
v 11.217 2.561 0.500
v 11.217 2.868 0.500
v 10.193 2.868 0.500
v 7.529 2.561 0.000
v 8.451 2.561 0.000
v 8.451 2.766 0.000
v 7.529 2.766 0.000
v 7.529 2.561 0.500
v 8.451 2.561 0.500
v 8.451 2.766 0.500
v 7.529 2.766 0.500
v -6.710 2.459 0.000
v -5.788 2.459 0.000
v -5.788 2.561 0.000
v -6.710 2.561 0.000
v -6.710 2.459 0.500
v -5.788 2.459 0.500
v -5.788 2.561 0.500
v -6.710 2.561 0.500
v 10.295 2.459 0.000
v 11.217 2.459 0.000
v 11.217 2.561 0.000
v 10.295 2.561 0.000
v 10.295 2.459 0.500
v 11.217 2.459 0.500
v 11.217 2.561 0.500
v 10.295 2.561 0.500
v 14.085 2.459 0.000
v 15.007 2.459 0.000
v 15.007 2.561 0.000
v 14.085 2.561 0.000
v 14.085 2.459 0.500
v 15.007 2.459 0.500
v 15.007 2.561 0.500
v 14.085 2.561 0.500
v -3.022 2.459 0.000
v -2.100 2.459 0.000
v -2.100 2.561 0.000
v -3.022 2.561 0.000
v -3.022 2.459 0.500
v -2.100 2.459 0.500
v -2.100 2.561 0.500
v -3.022 2.561 0.500
v -1.178 2.356 0.000
v -0.256 2.356 0.000
v -0.256 3.585 0.000
v -1.178 3.585 0.000
v -1.178 2.356 0.500
v -0.256 2.356 0.500
v -0.256 3.585 0.500
v -1.178 3.585 0.500
v 0.666 2.356 0.000
v 0.973 2.356 0.000
v 0.973 2.766 0.000
v 0.666 2.766 0.000
v 0.666 2.356 0.500
v 0.973 2.356 0.500
v 0.973 2.766 0.500
v 0.666 2.766 0.500
v 13.983 2.254 0.000
v 15.007 2.254 0.000
v 15.007 2.459 0.000
v 13.983 2.459 0.000
v 13.983 2.254 0.500
v 15.007 2.254 0.500
v 15.007 2.459 0.500
v 13.983 2.459 0.500
v -6.812 2.254 0.000
v -5.788 2.254 0.000
v -5.788 2.459 0.000
v -6.812 2.459 0.000
v -6.812 2.254 0.500
v -5.788 2.254 0.500
v -5.788 2.459 0.500
v -6.812 2.459 0.500
v -3.124 2.254 0.000
v -2.100 2.254 0.000
v -2.100 2.459 0.000
v -3.124 2.459 0.000
v -3.124 2.254 0.500
v -2.100 2.254 0.500
v -2.100 2.459 0.500
v -3.124 2.459 0.500
v 13.880 2.151 0.000
v 14.905 2.151 0.000
v 14.905 2.254 0.000
v 13.880 2.254 0.000
v 13.880 2.151 0.500
v 14.905 2.151 0.500
v 14.905 2.254 0.500
v 13.880 2.254 0.500
v -3.227 2.151 0.000
v -2.202 2.151 0.000
v -2.202 2.254 0.000
v -3.227 2.254 0.000
v -3.227 2.151 0.500
v -2.202 2.151 0.500
v -2.202 2.254 0.500
v -3.227 2.254 0.500
v -6.915 2.151 0.000
v -5.890 2.151 0.000
v -5.890 2.254 0.000
v -6.915 2.254 0.000
v -6.915 2.151 0.500
v -5.890 2.151 0.500
v -5.890 2.254 0.500
v -6.915 2.254 0.500
v 12.241 2.049 0.000
v 13.163 2.049 0.000
v 13.163 3.585 0.000
v 12.241 3.585 0.000
v 12.241 2.049 0.500
v 13.163 2.049 0.500
v 13.163 3.585 0.500
v 12.241 3.585 0.500
v -8.554 2.049 0.000
v -7.632 2.049 0.000
v -7.632 3.585 0.000
v -8.554 3.585 0.000
v -8.554 2.049 0.500
v -7.632 2.049 0.500
v -7.632 3.585 0.500
v -8.554 3.585 0.500
v -4.866 2.049 0.000
v -3.944 2.049 0.000
v -3.944 3.585 0.000
v -4.866 3.585 0.000
v -4.866 2.049 0.500
v -3.944 2.049 0.500
v -3.944 3.585 0.500
v -4.866 3.585 0.500
v -1.178 2.049 0.000
v 0.973 2.049 0.000
v 0.973 2.356 0.000
v -1.178 2.356 0.000
v -1.178 2.049 0.500
v 0.973 2.049 0.500
v 0.973 2.356 0.500
v -1.178 2.356 0.500
v 13.676 2.049 0.000
v 14.802 2.049 0.000
v 14.802 2.151 0.000
v 13.676 2.151 0.000
v 13.676 2.049 0.500
v 14.802 2.049 0.500
v 14.802 2.151 0.500
v 13.676 2.151 0.500
v -3.432 2.049 0.000
v -2.305 2.049 0.000
v -2.305 2.151 0.000
v -3.432 2.151 0.000
v -3.432 2.049 0.500
v -2.305 2.049 0.500
v -2.305 2.151 0.500
v -3.432 2.151 0.500
v -7.120 2.049 0.000
v -5.993 2.049 0.000
v -5.993 2.151 0.000
v -7.120 2.151 0.000
v -7.120 2.049 0.500
v -5.993 2.049 0.500
v -5.993 2.151 0.500
v -7.120 2.151 0.500
v -4.866 1.946 0.000
v -2.407 1.946 0.000
v -2.407 2.049 0.000
v -4.866 2.049 0.000
v -4.866 1.946 0.500
v -2.407 1.946 0.500
v -2.407 2.049 0.500
v -4.866 2.049 0.500
v 12.241 1.946 0.000
v 14.700 1.946 0.000
v 14.700 2.049 0.000
v 12.241 2.049 0.000
v 12.241 1.946 0.500
v 14.700 1.946 0.500
v 14.700 2.049 0.500
v 12.241 2.049 0.500
v -8.554 1.946 0.000
v -6.095 1.946 0.000
v -6.095 2.049 0.000
v -8.554 2.049 0.000
v -8.554 1.946 0.500
v -6.095 1.946 0.500
v -6.095 2.049 0.500
v -8.554 2.049 0.500
v 12.241 1.844 0.000
v 14.495 1.844 0.000
v 14.495 1.946 0.000
v 12.241 1.946 0.000
v 12.241 1.844 0.500
v 14.495 1.844 0.500
v 14.495 1.946 0.500
v 12.241 1.946 0.500
v -8.554 1.844 0.000
v -6.300 1.844 0.000
v -6.300 1.946 0.000
v -8.554 1.946 0.000
v -8.554 1.844 0.500
v -6.300 1.844 0.500
v -6.300 1.946 0.500
v -8.554 1.946 0.500
v -4.866 1.844 0.000
v -2.612 1.844 0.000
v -2.612 1.946 0.000
v -4.866 1.946 0.000
v -4.866 1.844 0.500
v -2.612 1.844 0.500
v -2.612 1.946 0.500
v -4.866 1.946 0.500
v 10.295 1.741 0.000
v 11.320 1.741 0.000
v 11.320 2.459 0.000
v 10.295 2.459 0.000
v 10.295 1.741 0.500
v 11.320 1.741 0.500
v 11.320 2.459 0.500
v 10.295 2.459 0.500
v 12.241 1.741 0.000
v 14.188 1.741 0.000
v 14.188 1.844 0.000
v 12.241 1.844 0.000
v 12.241 1.741 0.500
v 14.188 1.741 0.500
v 14.188 1.844 0.500
v 12.241 1.844 0.500
v -4.866 1.741 0.000
v -2.920 1.741 0.000
v -2.920 1.844 0.000
v -4.866 1.844 0.000
v -4.866 1.741 0.500
v -2.920 1.741 0.500
v -2.920 1.844 0.500
v -4.866 1.844 0.500
v -8.554 1.741 0.000
v -6.607 1.741 0.000
v -6.607 1.844 0.000
v -8.554 1.844 0.000
v -8.554 1.741 0.500
v -6.607 1.741 0.500
v -6.607 1.844 0.500
v -8.554 1.844 0.500
v 7.427 1.639 0.000
v 8.451 1.639 0.000
v 8.451 2.561 0.000
v 7.427 2.561 0.000
v 7.427 1.639 0.500
v 8.451 1.639 0.500
v 8.451 2.561 0.500
v 7.427 2.561 0.500
v 0.666 1.639 0.000
v 0.973 1.639 0.000
v 0.973 2.049 0.000
v 0.666 2.049 0.000
v 0.666 1.639 0.500
v 0.973 1.639 0.500
v 0.973 2.049 0.500
v 0.666 2.049 0.500
v 10.295 1.639 0.000
v 11.217 1.639 0.000
v 11.217 1.741 0.000
v 10.295 1.741 0.000
v 10.295 1.639 0.500
v 11.217 1.639 0.500
v 11.217 1.741 0.500
v 10.295 1.741 0.500
v 7.529 1.434 0.000
v 8.451 1.434 0.000
v 8.451 1.639 0.000
v 7.529 1.639 0.000
v 7.529 1.434 0.500
v 8.451 1.434 0.500
v 8.451 1.639 0.500
v 7.529 1.639 0.500
v 10.193 1.332 0.000
v 11.217 1.332 0.000
v 11.217 1.639 0.000
v 10.193 1.639 0.000
v 10.193 1.332 0.500
v 11.217 1.332 0.500
v 11.217 1.639 0.500
v 10.193 1.639 0.500
v 7.529 1.229 0.000
v 8.554 1.229 0.000
v 8.554 1.434 0.000
v 7.529 1.434 0.000
v 7.529 1.229 0.500
v 8.554 1.229 0.500
v 8.554 1.434 0.500
v 7.529 1.434 0.500
v 10.193 1.127 0.000
v 11.115 1.127 0.000
v 11.115 1.332 0.000
v 10.193 1.332 0.000
v 10.193 1.127 0.500
v 11.115 1.127 0.500
v 11.115 1.332 0.500
v 10.193 1.332 0.500
v 7.632 1.127 0.000
v 8.554 1.127 0.000
v 8.554 1.229 0.000
v 7.632 1.229 0.000
v 7.632 1.127 0.500
v 8.554 1.127 0.500
v 8.554 1.229 0.500
v 7.632 1.229 0.500
v 7.632 1.024 0.000
v 8.656 1.024 0.000
v 8.656 1.127 0.000
v 7.632 1.127 0.000
v 7.632 1.024 0.500
v 8.656 1.024 0.500
v 8.656 1.127 0.500
v 7.632 1.127 0.500
v 10.090 0.922 0.000
v 11.012 0.922 0.000
v 11.012 1.127 0.000
v 10.090 1.127 0.000
v 10.090 0.922 0.500
v 11.012 0.922 0.500
v 11.012 1.127 0.500
v 10.090 1.127 0.500
v 7.734 0.922 0.000
v 8.656 0.922 0.000
v 8.656 1.024 0.000
v 7.734 1.024 0.000
v 7.734 0.922 0.500
v 8.656 0.922 0.500
v 8.656 1.024 0.500
v 7.734 1.024 0.500
v 7.837 0.820 0.000
v 8.656 0.820 0.000
v 8.656 0.922 0.000
v 7.837 0.922 0.000
v 7.837 0.820 0.500
v 8.656 0.820 0.500
v 8.656 0.922 0.500
v 7.837 0.922 0.500
v 9.988 0.820 0.000
v 10.910 0.820 0.000
v 10.910 0.922 0.000
v 9.988 0.922 0.000
v 9.988 0.820 0.500
v 10.910 0.820 0.500
v 10.910 0.922 0.500
v 9.988 0.922 0.500
v 7.837 0.717 0.000
v 8.759 0.717 0.000
v 8.759 0.820 0.000
v 7.837 0.820 0.000
v 7.837 0.717 0.500
v 8.759 0.717 0.500
v 8.759 0.820 0.500
v 7.837 0.820 0.500
v 9.988 0.717 0.000
v 10.807 0.717 0.000
v 10.807 0.820 0.000
v 9.988 0.820 0.000
v 9.988 0.717 0.500
v 10.807 0.717 0.500
v 10.807 0.820 0.500
v 9.988 0.820 0.500
v -13.880 0.615 0.000
v -12.959 0.615 0.000
v -12.959 3.585 0.000
v -13.880 3.585 0.000
v -13.880 0.615 0.500
v -12.959 0.615 0.500
v -12.959 3.585 0.500
v -13.880 3.585 0.500
v -10.807 0.615 0.000
v -9.885 0.615 0.000
v -9.885 3.585 0.000
v -10.807 3.585 0.000
v -10.807 0.615 0.500
v -9.885 0.615 0.500
v -9.885 3.585 0.500
v -10.807 3.585 0.500
v 4.968 0.615 0.000
v 5.890 0.615 0.000
v 5.890 3.585 0.000
v 4.968 3.585 0.000
v 4.968 0.615 0.500
v 5.890 0.615 0.500
v 5.890 3.585 0.500
v 4.968 3.585 0.500
v -1.178 0.615 0.000
v -0.256 0.615 0.000
v -0.256 2.049 0.000
v -1.178 2.049 0.000
v -1.178 0.615 0.500
v -0.256 0.615 0.500
v -0.256 2.049 0.500
v -1.178 2.049 0.500
v 12.241 0.615 0.000
v 13.163 0.615 0.000
v 13.163 1.741 0.000
v 12.241 1.741 0.000
v 12.241 0.615 0.500
v 13.163 0.615 0.500
v 13.163 1.741 0.500
v 12.241 1.741 0.500
v -4.866 0.615 0.000
v -3.944 0.615 0.000
v -3.944 1.741 0.000
v -4.866 1.741 0.000
v -4.866 0.615 0.500
v -3.944 0.615 0.500
v -3.944 1.741 0.500
v -4.866 1.741 0.500
v -8.554 0.615 0.000
v -7.632 0.615 0.000
v -7.632 1.741 0.000
v -8.554 1.741 0.000
v -8.554 0.615 0.500
v -7.632 0.615 0.500
v -7.632 1.741 0.500
v -8.554 1.741 0.500
v 1.280 0.615 0.000
v 1.588 0.615 0.000
v 1.588 1.127 0.000
v 1.280 1.127 0.000
v 1.280 0.615 0.500
v 1.588 0.615 0.500
v 1.588 1.127 0.500
v 1.280 1.127 0.500
v 8.041 0.615 0.000
v 8.861 0.615 0.000
v 8.861 0.717 0.000
v 8.041 0.717 0.000
v 8.041 0.615 0.500
v 8.861 0.615 0.500
v 8.861 0.717 0.500
v 8.041 0.717 0.500
v 9.783 0.615 0.000
v 10.705 0.615 0.000
v 10.705 0.717 0.000
v 9.783 0.717 0.000
v 9.783 0.615 0.500
v 10.705 0.615 0.500
v 10.705 0.717 0.500
v 9.783 0.717 0.500
v 9.680 0.512 0.000
v 10.602 0.512 0.000
v 10.602 0.615 0.000
v 9.680 0.615 0.000
v 9.680 0.512 0.500
v 10.602 0.512 0.500
v 10.602 0.615 0.500
v 9.680 0.615 0.500
v 8.144 0.512 0.000
v 9.066 0.512 0.000
v 9.066 0.615 0.000
v 8.144 0.615 0.000
v 8.144 0.512 0.500
v 9.066 0.512 0.500
v 9.066 0.615 0.500
v 8.144 0.615 0.500
v 8.246 0.410 0.000
v 10.398 0.410 0.000
v 10.398 0.512 0.000
v 8.246 0.512 0.000
v 8.246 0.410 0.500
v 10.398 0.410 0.500
v 10.398 0.512 0.500
v 8.246 0.512 0.500
v 4.559 0.307 0.000
v 6.402 0.307 0.000
v 6.402 0.615 0.000
v 4.559 0.615 0.000
v 4.559 0.307 0.500
v 6.402 0.307 0.500
v 6.402 0.615 0.500
v 4.559 0.615 0.500
v -5.378 0.307 0.000
v -3.432 0.307 0.000
v -3.432 0.615 0.000
v -5.378 0.615 0.000
v -5.378 0.307 0.500
v -3.432 0.307 0.500
v -3.432 0.615 0.500
v -5.378 0.615 0.500
v -11.320 0.307 0.000
v -9.476 0.307 0.000
v -9.476 0.615 0.000
v -11.320 0.615 0.000
v -11.320 0.307 0.500
v -9.476 0.307 0.500
v -9.476 0.615 0.500
v -11.320 0.615 0.500
v -14.290 0.307 0.000
v -12.446 0.307 0.000
v -12.446 0.615 0.000
v -14.290 0.615 0.000
v -14.290 0.307 0.500
v -12.446 0.307 0.500
v -12.446 0.615 0.500
v -14.290 0.615 0.500
v -9.066 0.307 0.000
v -7.120 0.307 0.000
v -7.120 0.615 0.000
v -9.066 0.615 0.000
v -9.066 0.307 0.500
v -7.120 0.307 0.500
v -7.120 0.615 0.500
v -9.066 0.615 0.500
v -1.690 0.307 0.000
v 1.588 0.307 0.000
v 1.588 0.615 0.000
v -1.690 0.615 0.000
v -1.690 0.307 0.500
v 1.588 0.307 0.500
v 1.588 0.615 0.500
v -1.690 0.615 0.500
v 11.729 0.307 0.000
v 13.676 0.307 0.000
v 13.676 0.615 0.000
v 11.729 0.615 0.000
v 11.729 0.307 0.500
v 13.676 0.307 0.500
v 13.676 0.615 0.500
v 11.729 0.615 0.500
v 8.451 0.307 0.000
v 10.193 0.307 0.000
v 10.193 0.410 0.000
v 8.451 0.410 0.000
v 8.451 0.307 0.500
v 10.193 0.307 0.500
v 10.193 0.410 0.500
v 8.451 0.410 0.500
v 8.861 0.205 0.000
v 9.885 0.205 0.000
v 9.885 0.307 0.000
v 8.861 0.307 0.000
v 8.861 0.205 0.500
v 9.885 0.205 0.500
v 9.885 0.307 0.500
v 8.861 0.307 0.500
f 5 6 7
f 5 7 8
f 1 5 8
f 1 8 4
f 2 3 7
f 2 7 6
f 4 8 7
f 4 7 3
f 1 2 6
f 1 6 5
f 13 14 15
f 13 15 16
f 9 13 16
f 9 16 12
f 10 11 15
f 10 15 14
f 12 16 15
f 12 15 11
f 9 10 14
f 9 14 13
f 21 22 23
f 21 23 24
f 17 21 24
f 17 24 20
f 18 19 23
f 18 23 22
f 20 24 23
f 20 23 19
f 17 18 22
f 17 22 21
f 29 30 31
f 29 31 32
f 25 29 32
f 25 32 28
f 26 27 31
f 26 31 30
f 28 32 31
f 28 31 27
f 25 26 30
f 25 30 29
f 37 38 39
f 37 39 40
f 33 37 40
f 33 40 36
f 34 35 39
f 34 39 38
f 36 40 39
f 36 39 35
f 33 34 38
f 33 38 37
f 45 46 47
f 45 47 48
f 41 45 48
f 41 48 44
f 42 43 47
f 42 47 46
f 44 48 47
f 44 47 43
f 41 42 46
f 41 46 45
f 53 54 55
f 53 55 56
f 49 53 56
f 49 56 52
f 50 51 55
f 50 55 54
f 52 56 55
f 52 55 51
f 49 50 54
f 49 54 53
f 61 62 63
f 61 63 64
f 57 61 64
f 57 64 60
f 58 59 63
f 58 63 62
f 60 64 63
f 60 63 59
f 57 58 62
f 57 62 61
f 69 70 71
f 69 71 72
f 65 69 72
f 65 72 68
f 66 67 71
f 66 71 70
f 68 72 71
f 68 71 67
f 65 66 70
f 65 70 69
f 77 78 79
f 77 79 80
f 73 77 80
f 73 80 76
f 74 75 79
f 74 79 78
f 76 80 79
f 76 79 75
f 73 74 78
f 73 78 77
f 85 86 87
f 85 87 88
f 81 85 88
f 81 88 84
f 82 83 87
f 82 87 86
f 84 88 87
f 84 87 83
f 81 82 86
f 81 86 85
f 93 94 95
f 93 95 96
f 89 93 96
f 89 96 92
f 90 91 95
f 90 95 94
f 92 96 95
f 92 95 91
f 89 90 94
f 89 94 93
f 101 102 103
f 101 103 104
f 97 101 104
f 97 104 100
f 98 99 103
f 98 103 102
f 100 104 103
f 100 103 99
f 97 98 102
f 97 102 101
f 109 110 111
f 109 111 112
f 105 109 112
f 105 112 108
f 106 107 111
f 106 111 110
f 108 112 111
f 108 111 107
f 105 106 110
f 105 110 109
f 117 118 119
f 117 119 120
f 113 117 120
f 113 120 116
f 114 115 119
f 114 119 118
f 116 120 119
f 116 119 115
f 113 114 118
f 113 118 117
f 125 126 127
f 125 127 128
f 121 125 128
f 121 128 124
f 122 123 127
f 122 127 126
f 124 128 127
f 124 127 123
f 121 122 126
f 121 126 125
f 133 134 135
f 133 135 136
f 129 133 136
f 129 136 132
f 130 131 135
f 130 135 134
f 132 136 135
f 132 135 131
f 129 130 134
f 129 134 133
f 141 142 143
f 141 143 144
f 137 141 144
f 137 144 140
f 138 139 143
f 138 143 142
f 140 144 143
f 140 143 139
f 137 138 142
f 137 142 141
f 149 150 151
f 149 151 152
f 145 149 152
f 145 152 148
f 146 147 151
f 146 151 150
f 148 152 151
f 148 151 147
f 145 146 150
f 145 150 149
f 157 158 159
f 157 159 160
f 153 157 160
f 153 160 156
f 154 155 159
f 154 159 158
f 156 160 159
f 156 159 155
f 153 154 158
f 153 158 157
f 165 166 167
f 165 167 168
f 161 165 168
f 161 168 164
f 162 163 167
f 162 167 166
f 164 168 167
f 164 167 163
f 161 162 166
f 161 166 165
f 173 174 175
f 173 175 176
f 169 173 176
f 169 176 172
f 170 171 175
f 170 175 174
f 172 176 175
f 172 175 171
f 169 170 174
f 169 174 173
f 181 182 183
f 181 183 184
f 177 181 184
f 177 184 180
f 178 179 183
f 178 183 182
f 180 184 183
f 180 183 179
f 177 178 182
f 177 182 181
f 189 190 191
f 189 191 192
f 185 189 192
f 185 192 188
f 186 187 191
f 186 191 190
f 188 192 191
f 188 191 187
f 185 186 190
f 185 190 189
f 197 198 199
f 197 199 200
f 193 197 200
f 193 200 196
f 194 195 199
f 194 199 198
f 196 200 199
f 196 199 195
f 193 194 198
f 193 198 197
f 205 206 207
f 205 207 208
f 201 205 208
f 201 208 204
f 202 203 207
f 202 207 206
f 204 208 207
f 204 207 203
f 201 202 206
f 201 206 205
f 213 214 215
f 213 215 216
f 209 213 216
f 209 216 212
f 210 211 215
f 210 215 214
f 212 216 215
f 212 215 211
f 209 210 214
f 209 214 213
f 221 222 223
f 221 223 224
f 217 221 224
f 217 224 220
f 218 219 223
f 218 223 222
f 220 224 223
f 220 223 219
f 217 218 222
f 217 222 221
f 229 230 231
f 229 231 232
f 225 229 232
f 225 232 228
f 226 227 231
f 226 231 230
f 228 232 231
f 228 231 227
f 225 226 230
f 225 230 229
f 237 238 239
f 237 239 240
f 233 237 240
f 233 240 236
f 234 235 239
f 234 239 238
f 236 240 239
f 236 239 235
f 233 234 238
f 233 238 237
f 245 246 247
f 245 247 248
f 241 245 248
f 241 248 244
f 242 243 247
f 242 247 246
f 244 248 247
f 244 247 243
f 241 242 246
f 241 246 245
f 253 254 255
f 253 255 256
f 249 253 256
f 249 256 252
f 250 251 255
f 250 255 254
f 252 256 255
f 252 255 251
f 249 250 254
f 249 254 253
f 261 262 263
f 261 263 264
f 257 261 264
f 257 264 260
f 258 259 263
f 258 263 262
f 260 264 263
f 260 263 259
f 257 258 262
f 257 262 261
f 269 270 271
f 269 271 272
f 265 269 272
f 265 272 268
f 266 267 271
f 266 271 270
f 268 272 271
f 268 271 267
f 265 266 270
f 265 270 269
f 277 278 279
f 277 279 280
f 273 277 280
f 273 280 276
f 274 275 279
f 274 279 278
f 276 280 279
f 276 279 275
f 273 274 278
f 273 278 277
f 285 286 287
f 285 287 288
f 281 285 288
f 281 288 284
f 282 283 287
f 282 287 286
f 284 288 287
f 284 287 283
f 281 282 286
f 281 286 285
f 293 294 295
f 293 295 296
f 289 293 296
f 289 296 292
f 290 291 295
f 290 295 294
f 292 296 295
f 292 295 291
f 289 290 294
f 289 294 293
f 301 302 303
f 301 303 304
f 297 301 304
f 297 304 300
f 298 299 303
f 298 303 302
f 300 304 303
f 300 303 299
f 297 298 302
f 297 302 301
f 309 310 311
f 309 311 312
f 305 309 312
f 305 312 308
f 306 307 311
f 306 311 310
f 308 312 311
f 308 311 307
f 305 306 310
f 305 310 309
f 317 318 319
f 317 319 320
f 313 317 320
f 313 320 316
f 314 315 319
f 314 319 318
f 316 320 319
f 316 319 315
f 313 314 318
f 313 318 317
f 325 326 327
f 325 327 328
f 321 325 328
f 321 328 324
f 322 323 327
f 322 327 326
f 324 328 327
f 324 327 323
f 321 322 326
f 321 326 325
f 333 334 335
f 333 335 336
f 329 333 336
f 329 336 332
f 330 331 335
f 330 335 334
f 332 336 335
f 332 335 331
f 329 330 334
f 329 334 333
f 341 342 343
f 341 343 344
f 337 341 344
f 337 344 340
f 338 339 343
f 338 343 342
f 340 344 343
f 340 343 339
f 337 338 342
f 337 342 341
f 349 350 351
f 349 351 352
f 345 349 352
f 345 352 348
f 346 347 351
f 346 351 350
f 348 352 351
f 348 351 347
f 345 346 350
f 345 350 349
f 357 358 359
f 357 359 360
f 353 357 360
f 353 360 356
f 354 355 359
f 354 359 358
f 356 360 359
f 356 359 355
f 353 354 358
f 353 358 357
f 365 366 367
f 365 367 368
f 361 365 368
f 361 368 364
f 362 363 367
f 362 367 366
f 364 368 367
f 364 367 363
f 361 362 366
f 361 366 365
f 373 374 375
f 373 375 376
f 369 373 376
f 369 376 372
f 370 371 375
f 370 375 374
f 372 376 375
f 372 375 371
f 369 370 374
f 369 374 373
f 381 382 383
f 381 383 384
f 377 381 384
f 377 384 380
f 378 379 383
f 378 383 382
f 380 384 383
f 380 383 379
f 377 378 382
f 377 382 381
f 389 390 391
f 389 391 392
f 385 389 392
f 385 392 388
f 386 387 391
f 386 391 390
f 388 392 391
f 388 391 387
f 385 386 390
f 385 390 389
f 397 398 399
f 397 399 400
f 393 397 400
f 393 400 396
f 394 395 399
f 394 399 398
f 396 400 399
f 396 399 395
f 393 394 398
f 393 398 397
f 405 406 407
f 405 407 408
f 401 405 408
f 401 408 404
f 402 403 407
f 402 407 406
f 404 408 407
f 404 407 403
f 401 402 406
f 401 406 405
f 413 414 415
f 413 415 416
f 409 413 416
f 409 416 412
f 410 411 415
f 410 415 414
f 412 416 415
f 412 415 411
f 409 410 414
f 409 414 413
f 421 422 423
f 421 423 424
f 417 421 424
f 417 424 420
f 418 419 423
f 418 423 422
f 420 424 423
f 420 423 419
f 417 418 422
f 417 422 421
f 429 430 431
f 429 431 432
f 425 429 432
f 425 432 428
f 426 427 431
f 426 431 430
f 428 432 431
f 428 431 427
f 425 426 430
f 425 430 429
f 437 438 439
f 437 439 440
f 433 437 440
f 433 440 436
f 434 435 439
f 434 439 438
f 436 440 439
f 436 439 435
f 433 434 438
f 433 438 437
f 445 446 447
f 445 447 448
f 441 445 448
f 441 448 444
f 442 443 447
f 442 447 446
f 444 448 447
f 444 447 443
f 441 442 446
f 441 446 445
f 453 454 455
f 453 455 456
f 449 453 456
f 449 456 452
f 450 451 455
f 450 455 454
f 452 456 455
f 452 455 451
f 449 450 454
f 449 454 453
f 461 462 463
f 461 463 464
f 457 461 464
f 457 464 460
f 458 459 463
f 458 463 462
f 460 464 463
f 460 463 459
f 457 458 462
f 457 462 461
f 469 470 471
f 469 471 472
f 465 469 472
f 465 472 468
f 466 467 471
f 466 471 470
f 468 472 471
f 468 471 467
f 465 466 470
f 465 470 469
f 477 478 479
f 477 479 480
f 473 477 480
f 473 480 476
f 474 475 479
f 474 479 478
f 476 480 479
f 476 479 475
f 473 474 478
f 473 478 477
f 485 486 487
f 485 487 488
f 481 485 488
f 481 488 484
f 482 483 487
f 482 487 486
f 484 488 487
f 484 487 483
f 481 482 486
f 481 486 485
f 493 494 495
f 493 495 496
f 489 493 496
f 489 496 492
f 490 491 495
f 490 495 494
f 492 496 495
f 492 495 491
f 489 490 494
f 489 494 493
f 501 502 503
f 501 503 504
f 497 501 504
f 497 504 500
f 498 499 503
f 498 503 502
f 500 504 503
f 500 503 499
f 497 498 502
f 497 502 501
f 509 510 511
f 509 511 512
f 505 509 512
f 505 512 508
f 506 507 511
f 506 511 510
f 508 512 511
f 508 511 507
f 505 506 510
f 505 510 509
f 517 518 519
f 517 519 520
f 513 517 520
f 513 520 516
f 514 515 519
f 514 519 518
f 516 520 519
f 516 519 515
f 513 514 518
f 513 518 517
f 525 526 527
f 525 527 528
f 521 525 528
f 521 528 524
f 522 523 527
f 522 527 526
f 524 528 527
f 524 527 523
f 521 522 526
f 521 526 525
f 533 534 535
f 533 535 536
f 529 533 536
f 529 536 532
f 530 531 535
f 530 535 534
f 532 536 535
f 532 535 531
f 529 530 534
f 529 534 533
f 541 542 543
f 541 543 544
f 537 541 544
f 537 544 540
f 538 539 543
f 538 543 542
f 540 544 543
f 540 543 539
f 537 538 542
f 537 542 541
f 549 550 551
f 549 551 552
f 545 549 552
f 545 552 548
f 546 547 551
f 546 551 550
f 548 552 551
f 548 551 547
f 545 546 550
f 545 550 549
f 557 558 559
f 557 559 560
f 553 557 560
f 553 560 556
f 554 555 559
f 554 559 558
f 556 560 559
f 556 559 555
f 553 554 558
f 553 558 557
f 565 566 567
f 565 567 568
f 561 565 568
f 561 568 564
f 562 563 567
f 562 567 566
f 564 568 567
f 564 567 563
f 561 562 566
f 561 566 565
f 573 574 575
f 573 575 576
f 569 573 576
f 569 576 572
f 570 571 575
f 570 575 574
f 572 576 575
f 572 575 571
f 569 570 574
f 569 574 573
f 581 582 583
f 581 583 584
f 577 581 584
f 577 584 580
f 578 579 583
f 578 583 582
f 580 584 583
f 580 583 579
f 577 578 582
f 577 582 581
f 589 590 591
f 589 591 592
f 585 589 592
f 585 592 588
f 586 587 591
f 586 591 590
f 588 592 591
f 588 591 587
f 585 586 590
f 585 590 589
f 597 598 599
f 597 599 600
f 593 597 600
f 593 600 596
f 594 595 599
f 594 599 598
f 596 600 599
f 596 599 595
f 593 594 598
f 593 598 597
f 605 606 607
f 605 607 608
f 601 605 608
f 601 608 604
f 602 603 607
f 602 607 606
f 604 608 607
f 604 607 603
f 601 602 606
f 601 606 605
f 613 614 615
f 613 615 616
f 609 613 616
f 609 616 612
f 610 611 615
f 610 615 614
f 612 616 615
f 612 615 611
f 609 610 614
f 609 614 613
f 621 622 623
f 621 623 624
f 617 621 624
f 617 624 620
f 618 619 623
f 618 623 622
f 620 624 623
f 620 623 619
f 617 618 622
f 617 622 621
f 629 630 631
f 629 631 632
f 625 629 632
f 625 632 628
f 626 627 631
f 626 631 630
f 628 632 631
f 628 631 627
f 625 626 630
f 625 630 629
f 637 638 639
f 637 639 640
f 633 637 640
f 633 640 636
f 634 635 639
f 634 639 638
f 636 640 639
f 636 639 635
f 633 634 638
f 633 638 637
f 645 646 647
f 645 647 648
f 641 645 648
f 641 648 644
f 642 643 647
f 642 647 646
f 644 648 647
f 644 647 643
f 641 642 646
f 641 646 645
f 653 654 655
f 653 655 656
f 649 653 656
f 649 656 652
f 650 651 655
f 650 655 654
f 652 656 655
f 652 655 651
f 649 650 654
f 649 654 653
f 661 662 663
f 661 663 664
f 657 661 664
f 657 664 660
f 658 659 663
f 658 663 662
f 660 664 663
f 660 663 659
f 657 658 662
f 657 662 661
f 669 670 671
f 669 671 672
f 665 669 672
f 665 672 668
f 666 667 671
f 666 671 670
f 668 672 671
f 668 671 667
f 665 666 670
f 665 670 669
f 677 678 679
f 677 679 680
f 673 677 680
f 673 680 676
f 674 675 679
f 674 679 678
f 676 680 679
f 676 679 675
f 673 674 678
f 673 678 677
f 685 686 687
f 685 687 688
f 681 685 688
f 681 688 684
f 682 683 687
f 682 687 686
f 684 688 687
f 684 687 683
f 681 682 686
f 681 686 685
f 693 694 695
f 693 695 696
f 689 693 696
f 689 696 692
f 690 691 695
f 690 695 694
f 692 696 695
f 692 695 691
f 689 690 694
f 689 694 693
f 701 702 703
f 701 703 704
f 697 701 704
f 697 704 700
f 698 699 703
f 698 703 702
f 700 704 703
f 700 703 699
f 697 698 702
f 697 702 701
f 709 710 711
f 709 711 712
f 705 709 712
f 705 712 708
f 706 707 711
f 706 711 710
f 708 712 711
f 708 711 707
f 705 706 710
f 705 710 709
f 717 718 719
f 717 719 720
f 713 717 720
f 713 720 716
f 714 715 719
f 714 719 718
f 716 720 719
f 716 719 715
f 713 714 718
f 713 718 717
f 725 726 727
f 725 727 728
f 721 725 728
f 721 728 724
f 722 723 727
f 722 727 726
f 724 728 727
f 724 727 723
f 721 722 726
f 721 726 725
f 733 734 735
f 733 735 736
f 729 733 736
f 729 736 732
f 730 731 735
f 730 735 734
f 732 736 735
f 732 735 731
f 729 730 734
f 729 734 733
f 741 742 743
f 741 743 744
f 737 741 744
f 737 744 740
f 738 739 743
f 738 743 742
f 740 744 743
f 740 743 739
f 737 738 742
f 737 742 741
f 749 750 751
f 749 751 752
f 745 749 752
f 745 752 748
f 746 747 751
f 746 751 750
f 748 752 751
f 748 751 747
f 745 746 750
f 745 750 749
f 757 758 759
f 757 759 760
f 753 757 760
f 753 760 756
f 754 755 759
f 754 759 758
f 756 760 759
f 756 759 755
f 753 754 758
f 753 758 757
f 765 766 767
f 765 767 768
f 761 765 768
f 761 768 764
f 762 763 767
f 762 767 766
f 764 768 767
f 764 767 763
f 761 762 766
f 761 766 765
f 773 774 775
f 773 775 776
f 769 773 776
f 769 776 772
f 770 771 775
f 770 775 774
f 772 776 775
f 772 775 771
f 769 770 774
f 769 774 773
f 781 782 783
f 781 783 784
f 777 781 784
f 777 784 780
f 778 779 783
f 778 783 782
f 780 784 783
f 780 783 779
f 777 778 782
f 777 782 781
f 789 790 791
f 789 791 792
f 785 789 792
f 785 792 788
f 786 787 791
f 786 791 790
f 788 792 791
f 788 791 787
f 785 786 790
f 785 790 789
f 797 798 799
f 797 799 800
f 793 797 800
f 793 800 796
f 794 795 799
f 794 799 798
f 796 800 799
f 796 799 795
f 793 794 798
f 793 798 797
f 805 806 807
f 805 807 808
f 801 805 808
f 801 808 804
f 802 803 807
f 802 807 806
f 804 808 807
f 804 807 803
f 801 802 806
f 801 806 805
f 813 814 815
f 813 815 816
f 809 813 816
f 809 816 812
f 810 811 815
f 810 815 814
f 812 816 815
f 812 815 811
f 809 810 814
f 809 814 813
f 821 822 823
f 821 823 824
f 817 821 824
f 817 824 820
f 818 819 823
f 818 823 822
f 820 824 823
f 820 823 819
f 817 818 822
f 817 822 821
f 829 830 831
f 829 831 832
f 825 829 832
f 825 832 828
f 826 827 831
f 826 831 830
f 828 832 831
f 828 831 827
f 825 826 830
f 825 830 829
f 837 838 839
f 837 839 840
f 833 837 840
f 833 840 836
f 834 835 839
f 834 839 838
f 836 840 839
f 836 839 835
f 833 834 838
f 833 838 837
f 845 846 847
f 845 847 848
f 841 845 848
f 841 848 844
f 842 843 847
f 842 847 846
f 844 848 847
f 844 847 843
f 841 842 846
f 841 846 845
f 853 854 855
f 853 855 856
f 849 853 856
f 849 856 852
f 850 851 855
f 850 855 854
f 852 856 855
f 852 855 851
f 849 850 854
f 849 854 853
f 861 862 863
f 861 863 864
f 857 861 864
f 857 864 860
f 858 859 863
f 858 863 862
f 860 864 863
f 860 863 859
f 857 858 862
f 857 862 861
f 869 870 871
f 869 871 872
f 865 869 872
f 865 872 868
f 866 867 871
f 866 871 870
f 868 872 871
f 868 871 867
f 865 866 870
f 865 870 869
f 877 878 879
f 877 879 880
f 873 877 880
f 873 880 876
f 874 875 879
f 874 879 878
f 876 880 879
f 876 879 875
f 873 874 878
f 873 878 877
f 885 886 887
f 885 887 888
f 881 885 888
f 881 888 884
f 882 883 887
f 882 887 886
f 884 888 887
f 884 887 883
f 881 882 886
f 881 886 885
f 893 894 895
f 893 895 896
f 889 893 896
f 889 896 892
f 890 891 895
f 890 895 894
f 892 896 895
f 892 895 891
f 889 890 894
f 889 894 893
f 901 902 903
f 901 903 904
f 897 901 904
f 897 904 900
f 898 899 903
f 898 903 902
f 900 904 903
f 900 903 899
f 897 898 902
f 897 902 901
f 909 910 911
f 909 911 912
f 905 909 912
f 905 912 908
f 906 907 911
f 906 911 910
f 908 912 911
f 908 911 907
f 905 906 910
f 905 910 909
f 917 918 919
f 917 919 920
f 913 917 920
f 913 920 916
f 914 915 919
f 914 919 918
f 916 920 919
f 916 919 915
f 913 914 918
f 913 918 917
f 925 926 927
f 925 927 928
f 921 925 928
f 921 928 924
f 922 923 927
f 922 927 926
f 924 928 927
f 924 927 923
f 921 922 926
f 921 926 925
f 933 934 935
f 933 935 936
f 929 933 936
f 929 936 932
f 930 931 935
f 930 935 934
f 932 936 935
f 932 935 931
f 929 930 934
f 929 934 933
f 941 942 943
f 941 943 944
f 937 941 944
f 937 944 940
f 938 939 943
f 938 943 942
f 940 944 943
f 940 943 939
f 937 938 942
f 937 942 941
f 949 950 951
f 949 951 952
f 945 949 952
f 945 952 948
f 946 947 951
f 946 951 950
f 948 952 951
f 948 951 947
f 945 946 950
f 945 950 949
f 957 958 959
f 957 959 960
f 953 957 960
f 953 960 956
f 954 955 959
f 954 959 958
f 956 960 959
f 956 959 955
f 953 954 958
f 953 958 957
