# ring R=30 r=0.9 (in the x-z plane)
v 30.900 0.000 0.000
v 30.728 0.529 0.000
v 30.278 0.856 0.000
v 29.722 0.856 0.000
v 29.272 0.529 0.000
v 29.100 0.000 0.000
v 29.272 -0.529 0.000
v 29.722 -0.856 0.000
v 30.278 -0.856 0.000
v 30.728 -0.529 0.000
v 30.636 0.000 4.033
v 30.465 0.529 4.011
v 30.019 0.856 3.952
v 29.468 0.856 3.879
v 29.021 0.529 3.821
v 28.851 0.000 3.798
v 29.021 -0.529 3.821
v 29.468 -0.856 3.879
v 30.019 -0.856 3.952
v 30.465 -0.529 4.011
v 29.847 0.000 7.998
v 29.681 0.529 7.953
v 29.246 0.856 7.837
v 28.709 0.856 7.693
v 28.274 0.529 7.576
v 28.108 0.000 7.532
v 28.274 -0.529 7.576
v 28.709 -0.856 7.693
v 29.246 -0.856 7.837
v 29.681 -0.529 7.953
v 28.548 0.000 11.825
v 28.389 0.529 11.759
v 27.973 0.856 11.587
v 27.459 0.856 11.374
v 27.044 0.529 11.202
v 26.885 0.000 11.136
v 27.044 -0.529 11.202
v 27.459 -0.856 11.374
v 27.973 -0.856 11.587
v 28.389 -0.529 11.759
v 26.760 0.000 15.450
v 26.611 0.529 15.364
v 26.222 0.856 15.139
v 25.740 0.856 14.861
v 25.350 0.529 14.636
v 25.201 0.000 14.550
v 25.350 -0.529 14.636
v 25.740 -0.856 14.861
v 26.222 -0.856 15.139
v 26.611 -0.529 15.364
v 24.515 0.000 18.811
v 24.378 0.529 18.706
v 24.021 0.856 18.432
v 23.580 0.856 18.094
v 23.223 0.529 17.820
v 23.087 0.000 17.715
v 23.223 -0.529 17.820
v 23.580 -0.856 18.094
v 24.021 -0.856 18.432
v 24.378 -0.529 18.706
v 21.850 0.000 21.850
v 21.728 0.529 21.728
v 21.410 0.856 21.410
v 21.017 0.856 21.017
v 20.698 0.529 20.698
v 20.577 0.000 20.577
v 20.698 -0.529 20.698
v 21.017 -0.856 21.017
v 21.410 -0.856 21.410
v 21.728 -0.529 21.728
v 18.811 0.000 24.515
v 18.706 0.529 24.378
v 18.432 0.856 24.021
v 18.094 0.856 23.580
v 17.820 0.529 23.223
v 17.715 0.000 23.087
v 17.820 -0.529 23.223
v 18.094 -0.856 23.580
v 18.432 -0.856 24.021
v 18.706 -0.529 24.378
v 15.450 0.000 26.760
v 15.364 0.529 26.611
v 15.139 0.856 26.222
v 14.861 0.856 25.740
v 14.636 0.529 25.350
v 14.550 0.000 25.201
v 14.636 -0.529 25.350
v 14.861 -0.856 25.740
v 15.139 -0.856 26.222
v 15.364 -0.529 26.611
v 11.825 0.000 28.548
v 11.759 0.529 28.389
v 11.587 0.856 27.973
v 11.374 0.856 27.459
v 11.202 0.529 27.044
v 11.136 0.000 26.885
v 11.202 -0.529 27.044
v 11.374 -0.856 27.459
v 11.587 -0.856 27.973
v 11.759 -0.529 28.389
v 7.998 0.000 29.847
v 7.953 0.529 29.681
v 7.837 0.856 29.246
v 7.693 0.856 28.709
v 7.576 0.529 28.274
v 7.532 0.000 28.108
v 7.576 -0.529 28.274
v 7.693 -0.856 28.709
v 7.837 -0.856 29.246
v 7.953 -0.529 29.681
v 4.033 0.000 30.636
v 4.011 0.529 30.465
v 3.952 0.856 30.019
v 3.879 0.856 29.468
v 3.821 0.529 29.021
v 3.798 0.000 28.851
v 3.821 -0.529 29.021
v 3.879 -0.856 29.468
v 3.952 -0.856 30.019
v 4.011 -0.529 30.465
v 0.000 0.000 30.900
v 0.000 0.529 30.728
v 0.000 0.856 30.278
v 0.000 0.856 29.722
v 0.000 0.529 29.272
v 0.000 0.000 29.100
v 0.000 -0.529 29.272
v 0.000 -0.856 29.722
v 0.000 -0.856 30.278
v 0.000 -0.529 30.728
v -4.033 0.000 30.636
v -4.011 0.529 30.465
v -3.952 0.856 30.019
v -3.879 0.856 29.468
v -3.821 0.529 29.021
v -3.798 0.000 28.851
v -3.821 -0.529 29.021
v -3.879 -0.856 29.468
v -3.952 -0.856 30.019
v -4.011 -0.529 30.465
v -7.998 0.000 29.847
v -7.953 0.529 29.681
v -7.837 0.856 29.246
v -7.693 0.856 28.709
v -7.576 0.529 28.274
v -7.532 0.000 28.108
v -7.576 -0.529 28.274
v -7.693 -0.856 28.709
v -7.837 -0.856 29.246
v -7.953 -0.529 29.681
v -11.825 0.000 28.548
v -11.759 0.529 28.389
v -11.587 0.856 27.973
v -11.374 0.856 27.459
v -11.202 0.529 27.044
v -11.136 0.000 26.885
v -11.202 -0.529 27.044
v -11.374 -0.856 27.459
v -11.587 -0.856 27.973
v -11.759 -0.529 28.389
v -15.450 0.000 26.760
v -15.364 0.529 26.611
v -15.139 0.856 26.222
v -14.861 0.856 25.740
v -14.636 0.529 25.350
v -14.550 0.000 25.201
v -14.636 -0.529 25.350
v -14.861 -0.856 25.740
v -15.139 -0.856 26.222
v -15.364 -0.529 26.611
v -18.811 0.000 24.515
v -18.706 0.529 24.378
v -18.432 0.856 24.021
v -18.094 0.856 23.580
v -17.820 0.529 23.223
v -17.715 0.000 23.087
v -17.820 -0.529 23.223
v -18.094 -0.856 23.580
v -18.432 -0.856 24.021
v -18.706 -0.529 24.378
v -21.850 0.000 21.850
v -21.728 0.529 21.728
v -21.410 0.856 21.410
v -21.017 0.856 21.017
v -20.698 0.529 20.698
v -20.577 0.000 20.577
v -20.698 -0.529 20.698
v -21.017 -0.856 21.017
v -21.410 -0.856 21.410
v -21.728 -0.529 21.728
v -24.515 0.000 18.811
v -24.378 0.529 18.706
v -24.021 0.856 18.432
v -23.580 0.856 18.094
v -23.223 0.529 17.820
v -23.087 0.000 17.715
v -23.223 -0.529 17.820
v -23.580 -0.856 18.094
v -24.021 -0.856 18.432
v -24.378 -0.529 18.706
v -26.760 0.000 15.450
v -26.611 0.529 15.364
v -26.222 0.856 15.139
v -25.740 0.856 14.861
v -25.350 0.529 14.636
v -25.201 0.000 14.550
v -25.350 -0.529 14.636
v -25.740 -0.856 14.861
v -26.222 -0.856 15.139
v -26.611 -0.529 15.364
v -28.548 0.000 11.825
v -28.389 0.529 11.759
v -27.973 0.856 11.587
v -27.459 0.856 11.374
v -27.044 0.529 11.202
v -26.885 0.000 11.136
v -27.044 -0.529 11.202
v -27.459 -0.856 11.374
v -27.973 -0.856 11.587
v -28.389 -0.529 11.759
v -29.847 0.000 7.998
v -29.681 0.529 7.953
v -29.246 0.856 7.837
v -28.709 0.856 7.693
v -28.274 0.529 7.576
v -28.108 0.000 7.532
v -28.274 -0.529 7.576
v -28.709 -0.856 7.693
v -29.246 -0.856 7.837
v -29.681 -0.529 7.953
v -30.636 0.000 4.033
v -30.465 0.529 4.011
v -30.019 0.856 3.952
v -29.468 0.856 3.879
v -29.021 0.529 3.821
v -28.851 0.000 3.798
v -29.021 -0.529 3.821
v -29.468 -0.856 3.879
v -30.019 -0.856 3.952
v -30.465 -0.529 4.011
v -30.900 0.000 0.000
v -30.728 0.529 0.000
v -30.278 0.856 0.000
v -29.722 0.856 0.000
v -29.272 0.529 0.000
v -29.100 0.000 0.000
v -29.272 -0.529 0.000
v -29.722 -0.856 0.000
v -30.278 -0.856 0.000
v -30.728 -0.529 0.000
v -30.636 0.000 -4.033
v -30.465 0.529 -4.011
v -30.019 0.856 -3.952
v -29.468 0.856 -3.879
v -29.021 0.529 -3.821
v -28.851 0.000 -3.798
v -29.021 -0.529 -3.821
v -29.468 -0.856 -3.879
v -30.019 -0.856 -3.952
v -30.465 -0.529 -4.011
v -29.847 0.000 -7.998
v -29.681 0.529 -7.953
v -29.246 0.856 -7.837
v -28.709 0.856 -7.693
v -28.274 0.529 -7.576
v -28.108 0.000 -7.532
v -28.274 -0.529 -7.576
v -28.709 -0.856 -7.693
v -29.246 -0.856 -7.837
v -29.681 -0.529 -7.953
v -28.548 0.000 -11.825
v -28.389 0.529 -11.759
v -27.973 0.856 -11.587
v -27.459 0.856 -11.374
v -27.044 0.529 -11.202
v -26.885 0.000 -11.136
v -27.044 -0.529 -11.202
v -27.459 -0.856 -11.374
v -27.973 -0.856 -11.587
v -28.389 -0.529 -11.759
v -26.760 0.000 -15.450
v -26.611 0.529 -15.364
v -26.222 0.856 -15.139
v -25.740 0.856 -14.861
v -25.350 0.529 -14.636
v -25.201 0.000 -14.550
v -25.350 -0.529 -14.636
v -25.740 -0.856 -14.861
v -26.222 -0.856 -15.139
v -26.611 -0.529 -15.364
v -24.515 0.000 -18.811
v -24.378 0.529 -18.706
v -24.021 0.856 -18.432
v -23.580 0.856 -18.094
v -23.223 0.529 -17.820
v -23.087 0.000 -17.715
v -23.223 -0.529 -17.820
v -23.580 -0.856 -18.094
v -24.021 -0.856 -18.432
v -24.378 -0.529 -18.706
v -21.850 0.000 -21.850
v -21.728 0.529 -21.728
v -21.410 0.856 -21.410
v -21.017 0.856 -21.017
v -20.698 0.529 -20.698
v -20.577 0.000 -20.577
v -20.698 -0.529 -20.698
v -21.017 -0.856 -21.017
v -21.410 -0.856 -21.410
v -21.728 -0.529 -21.728
v -18.811 0.000 -24.515
v -18.706 0.529 -24.378
v -18.432 0.856 -24.021
v -18.094 0.856 -23.580
v -17.820 0.529 -23.223
v -17.715 0.000 -23.087
v -17.820 -0.529 -23.223
v -18.094 -0.856 -23.580
v -18.432 -0.856 -24.021
v -18.706 -0.529 -24.378
v -15.450 0.000 -26.760
v -15.364 0.529 -26.611
v -15.139 0.856 -26.222
v -14.861 0.856 -25.740
v -14.636 0.529 -25.350
v -14.550 0.000 -25.201
v -14.636 -0.529 -25.350
v -14.861 -0.856 -25.740
v -15.139 -0.856 -26.222
v -15.364 -0.529 -26.611
v -11.825 0.000 -28.548
v -11.759 0.529 -28.389
v -11.587 0.856 -27.973
v -11.374 0.856 -27.459
v -11.202 0.529 -27.044
v -11.136 0.000 -26.885
v -11.202 -0.529 -27.044
v -11.374 -0.856 -27.459
v -11.587 -0.856 -27.973
v -11.759 -0.529 -28.389
v -7.998 0.000 -29.847
v -7.953 0.529 -29.681
v -7.837 0.856 -29.246
v -7.693 0.856 -28.709
v -7.576 0.529 -28.274
v -7.532 0.000 -28.108
v -7.576 -0.529 -28.274
v -7.693 -0.856 -28.709
v -7.837 -0.856 -29.246
v -7.953 -0.529 -29.681
v -4.033 0.000 -30.636
v -4.011 0.529 -30.465
v -3.952 0.856 -30.019
v -3.879 0.856 -29.468
v -3.821 0.529 -29.021
v -3.798 0.000 -28.851
v -3.821 -0.529 -29.021
v -3.879 -0.856 -29.468
v -3.952 -0.856 -30.019
v -4.011 -0.529 -30.465
v -0.000 0.000 -30.900
v -0.000 0.529 -30.728
v -0.000 0.856 -30.278
v -0.000 0.856 -29.722
v -0.000 0.529 -29.272
v -0.000 0.000 -29.100
v -0.000 -0.529 -29.272
v -0.000 -0.856 -29.722
v -0.000 -0.856 -30.278
v -0.000 -0.529 -30.728
v 4.033 0.000 -30.636
v 4.011 0.529 -30.465
v 3.952 0.856 -30.019
v 3.879 0.856 -29.468
v 3.821 0.529 -29.021
v 3.798 0.000 -28.851
v 3.821 -0.529 -29.021
v 3.879 -0.856 -29.468
v 3.952 -0.856 -30.019
v 4.011 -0.529 -30.465
v 7.998 0.000 -29.847
v 7.953 0.529 -29.681
v 7.837 0.856 -29.246
v 7.693 0.856 -28.709
v 7.576 0.529 -28.274
v 7.532 0.000 -28.108
v 7.576 -0.529 -28.274
v 7.693 -0.856 -28.709
v 7.837 -0.856 -29.246
v 7.953 -0.529 -29.681
v 11.825 0.000 -28.548
v 11.759 0.529 -28.389
v 11.587 0.856 -27.973
v 11.374 0.856 -27.459
v 11.202 0.529 -27.044
v 11.136 0.000 -26.885
v 11.202 -0.529 -27.044
v 11.374 -0.856 -27.459
v 11.587 -0.856 -27.973
v 11.759 -0.529 -28.389
v 15.450 0.000 -26.760
v 15.364 0.529 -26.611
v 15.139 0.856 -26.222
v 14.861 0.856 -25.740
v 14.636 0.529 -25.350
v 14.550 0.000 -25.201
v 14.636 -0.529 -25.350
v 14.861 -0.856 -25.740
v 15.139 -0.856 -26.222
v 15.364 -0.529 -26.611
v 18.811 0.000 -24.515
v 18.706 0.529 -24.378
v 18.432 0.856 -24.021
v 18.094 0.856 -23.580
v 17.820 0.529 -23.223
v 17.715 0.000 -23.087
v 17.820 -0.529 -23.223
v 18.094 -0.856 -23.580
v 18.432 -0.856 -24.021
v 18.706 -0.529 -24.378
v 21.850 0.000 -21.850
v 21.728 0.529 -21.728
v 21.410 0.856 -21.410
v 21.017 0.856 -21.017
v 20.698 0.529 -20.698
v 20.577 0.000 -20.577
v 20.698 -0.529 -20.698
v 21.017 -0.856 -21.017
v 21.410 -0.856 -21.410
v 21.728 -0.529 -21.728
v 24.515 0.000 -18.811
v 24.378 0.529 -18.706
v 24.021 0.856 -18.432
v 23.580 0.856 -18.094
v 23.223 0.529 -17.820
v 23.087 0.000 -17.715
v 23.223 -0.529 -17.820
v 23.580 -0.856 -18.094
v 24.021 -0.856 -18.432
v 24.378 -0.529 -18.706
v 26.760 0.000 -15.450
v 26.611 0.529 -15.364
v 26.222 0.856 -15.139
v 25.740 0.856 -14.861
v 25.350 0.529 -14.636
v 25.201 0.000 -14.550
v 25.350 -0.529 -14.636
v 25.740 -0.856 -14.861
v 26.222 -0.856 -15.139
v 26.611 -0.529 -15.364
v 28.548 0.000 -11.825
v 28.389 0.529 -11.759
v 27.973 0.856 -11.587
v 27.459 0.856 -11.374
v 27.044 0.529 -11.202
v 26.885 0.000 -11.136
v 27.044 -0.529 -11.202
v 27.459 -0.856 -11.374
v 27.973 -0.856 -11.587
v 28.389 -0.529 -11.759
v 29.847 0.000 -7.998
v 29.681 0.529 -7.953
v 29.246 0.856 -7.837
v 28.709 0.856 -7.693
v 28.274 0.529 -7.576
v 28.108 0.000 -7.532
v 28.274 -0.529 -7.576
v 28.709 -0.856 -7.693
v 29.246 -0.856 -7.837
v 29.681 -0.529 -7.953
v 30.636 0.000 -4.033
v 30.465 0.529 -4.011
v 30.019 0.856 -3.952
v 29.468 0.856 -3.879
v 29.021 0.529 -3.821
v 28.851 0.000 -3.798
v 29.021 -0.529 -3.821
v 29.468 -0.856 -3.879
v 30.019 -0.856 -3.952
v 30.465 -0.529 -4.011
f 1 2 12
f 1 12 11
f 2 3 13
f 2 13 12
f 3 4 14
f 3 14 13
f 4 5 15
f 4 15 14
f 5 6 16
f 5 16 15
f 6 7 17
f 6 17 16
f 7 8 18
f 7 18 17
f 8 9 19
f 8 19 18
f 9 10 20
f 9 20 19
f 10 1 11
f 10 11 20
f 11 12 22
f 11 22 21
f 12 13 23
f 12 23 22
f 13 14 24
f 13 24 23
f 14 15 25
f 14 25 24
f 15 16 26
f 15 26 25
f 16 17 27
f 16 27 26
f 17 18 28
f 17 28 27
f 18 19 29
f 18 29 28
f 19 20 30
f 19 30 29
f 20 11 21
f 20 21 30
f 21 22 32
f 21 32 31
f 22 23 33
f 22 33 32
f 23 24 34
f 23 34 33
f 24 25 35
f 24 35 34
f 25 26 36
f 25 36 35
f 26 27 37
f 26 37 36
f 27 28 38
f 27 38 37
f 28 29 39
f 28 39 38
f 29 30 40
f 29 40 39
f 30 21 31
f 30 31 40
f 31 32 42
f 31 42 41
f 32 33 43
f 32 43 42
f 33 34 44
f 33 44 43
f 34 35 45
f 34 45 44
f 35 36 46
f 35 46 45
f 36 37 47
f 36 47 46
f 37 38 48
f 37 48 47
f 38 39 49
f 38 49 48
f 39 40 50
f 39 50 49
f 40 31 41
f 40 41 50
f 41 42 52
f 41 52 51
f 42 43 53
f 42 53 52
f 43 44 54
f 43 54 53
f 44 45 55
f 44 55 54
f 45 46 56
f 45 56 55
f 46 47 57
f 46 57 56
f 47 48 58
f 47 58 57
f 48 49 59
f 48 59 58
f 49 50 60
f 49 60 59
f 50 41 51
f 50 51 60
f 51 52 62
f 51 62 61
f 52 53 63
f 52 63 62
f 53 54 64
f 53 64 63
f 54 55 65
f 54 65 64
f 55 56 66
f 55 66 65
f 56 57 67
f 56 67 66
f 57 58 68
f 57 68 67
f 58 59 69
f 58 69 68
f 59 60 70
f 59 70 69
f 60 51 61
f 60 61 70
f 61 62 72
f 61 72 71
f 62 63 73
f 62 73 72
f 63 64 74
f 63 74 73
f 64 65 75
f 64 75 74
f 65 66 76
f 65 76 75
f 66 67 77
f 66 77 76
f 67 68 78
f 67 78 77
f 68 69 79
f 68 79 78
f 69 70 80
f 69 80 79
f 70 61 71
f 70 71 80
f 71 72 82
f 71 82 81
f 72 73 83
f 72 83 82
f 73 74 84
f 73 84 83
f 74 75 85
f 74 85 84
f 75 76 86
f 75 86 85
f 76 77 87
f 76 87 86
f 77 78 88
f 77 88 87
f 78 79 89
f 78 89 88
f 79 80 90
f 79 90 89
f 80 71 81
f 80 81 90
f 81 82 92
f 81 92 91
f 82 83 93
f 82 93 92
f 83 84 94
f 83 94 93
f 84 85 95
f 84 95 94
f 85 86 96
f 85 96 95
f 86 87 97
f 86 97 96
f 87 88 98
f 87 98 97
f 88 89 99
f 88 99 98
f 89 90 100
f 89 100 99
f 90 81 91
f 90 91 100
f 91 92 102
f 91 102 101
f 92 93 103
f 92 103 102
f 93 94 104
f 93 104 103
f 94 95 105
f 94 105 104
f 95 96 106
f 95 106 105
f 96 97 107
f 96 107 106
f 97 98 108
f 97 108 107
f 98 99 109
f 98 109 108
f 99 100 110
f 99 110 109
f 100 91 101
f 100 101 110
f 101 102 112
f 101 112 111
f 102 103 113
f 102 113 112
f 103 104 114
f 103 114 113
f 104 105 115
f 104 115 114
f 105 106 116
f 105 116 115
f 106 107 117
f 106 117 116
f 107 108 118
f 107 118 117
f 108 109 119
f 108 119 118
f 109 110 120
f 109 120 119
f 110 101 111
f 110 111 120
f 111 112 122
f 111 122 121
f 112 113 123
f 112 123 122
f 113 114 124
f 113 124 123
f 114 115 125
f 114 125 124
f 115 116 126
f 115 126 125
f 116 117 127
f 116 127 126
f 117 118 128
f 117 128 127
f 118 119 129
f 118 129 128
f 119 120 130
f 119 130 129
f 120 111 121
f 120 121 130
f 121 122 132
f 121 132 131
f 122 123 133
f 122 133 132
f 123 124 134
f 123 134 133
f 124 125 135
f 124 135 134
f 125 126 136
f 125 136 135
f 126 127 137
f 126 137 136
f 127 128 138
f 127 138 137
f 128 129 139
f 128 139 138
f 129 130 140
f 129 140 139
f 130 121 131
f 130 131 140
f 131 132 142
f 131 142 141
f 132 133 143
f 132 143 142
f 133 134 144
f 133 144 143
f 134 135 145
f 134 145 144
f 135 136 146
f 135 146 145
f 136 137 147
f 136 147 146
f 137 138 148
f 137 148 147
f 138 139 149
f 138 149 148
f 139 140 150
f 139 150 149
f 140 131 141
f 140 141 150
f 141 142 152
f 141 152 151
f 142 143 153
f 142 153 152
f 143 144 154
f 143 154 153
f 144 145 155
f 144 155 154
f 145 146 156
f 145 156 155
f 146 147 157
f 146 157 156
f 147 148 158
f 147 158 157
f 148 149 159
f 148 159 158
f 149 150 160
f 149 160 159
f 150 141 151
f 150 151 160
f 151 152 162
f 151 162 161
f 152 153 163
f 152 163 162
f 153 154 164
f 153 164 163
f 154 155 165
f 154 165 164
f 155 156 166
f 155 166 165
f 156 157 167
f 156 167 166
f 157 158 168
f 157 168 167
f 158 159 169
f 158 169 168
f 159 160 170
f 159 170 169
f 160 151 161
f 160 161 170
f 161 162 172
f 161 172 171
f 162 163 173
f 162 173 172
f 163 164 174
f 163 174 173
f 164 165 175
f 164 175 174
f 165 166 176
f 165 176 175
f 166 167 177
f 166 177 176
f 167 168 178
f 167 178 177
f 168 169 179
f 168 179 178
f 169 170 180
f 169 180 179
f 170 161 171
f 170 171 180
f 171 172 182
f 171 182 181
f 172 173 183
f 172 183 182
f 173 174 184
f 173 184 183
f 174 175 185
f 174 185 184
f 175 176 186
f 175 186 185
f 176 177 187
f 176 187 186
f 177 178 188
f 177 188 187
f 178 179 189
f 178 189 188
f 179 180 190
f 179 190 189
f 180 171 181
f 180 181 190
f 181 182 192
f 181 192 191
f 182 183 193
f 182 193 192
f 183 184 194
f 183 194 193
f 184 185 195
f 184 195 194
f 185 186 196
f 185 196 195
f 186 187 197
f 186 197 196
f 187 188 198
f 187 198 197
f 188 189 199
f 188 199 198
f 189 190 200
f 189 200 199
f 190 181 191
f 190 191 200
f 191 192 202
f 191 202 201
f 192 193 203
f 192 203 202
f 193 194 204
f 193 204 203
f 194 195 205
f 194 205 204
f 195 196 206
f 195 206 205
f 196 197 207
f 196 207 206
f 197 198 208
f 197 208 207
f 198 199 209
f 198 209 208
f 199 200 210
f 199 210 209
f 200 191 201
f 200 201 210
f 201 202 212
f 201 212 211
f 202 203 213
f 202 213 212
f 203 204 214
f 203 214 213
f 204 205 215
f 204 215 214
f 205 206 216
f 205 216 215
f 206 207 217
f 206 217 216
f 207 208 218
f 207 218 217
f 208 209 219
f 208 219 218
f 209 210 220
f 209 220 219
f 210 201 211
f 210 211 220
f 211 212 222
f 211 222 221
f 212 213 223
f 212 223 222
f 213 214 224
f 213 224 223
f 214 215 225
f 214 225 224
f 215 216 226
f 215 226 225
f 216 217 227
f 216 227 226
f 217 218 228
f 217 228 227
f 218 219 229
f 218 229 228
f 219 220 230
f 219 230 229
f 220 211 221
f 220 221 230
f 221 222 232
f 221 232 231
f 222 223 233
f 222 233 232
f 223 224 234
f 223 234 233
f 224 225 235
f 224 235 234
f 225 226 236
f 225 236 235
f 226 227 237
f 226 237 236
f 227 228 238
f 227 238 237
f 228 229 239
f 228 239 238
f 229 230 240
f 229 240 239
f 230 221 231
f 230 231 240
f 231 232 242
f 231 242 241
f 232 233 243
f 232 243 242
f 233 234 244
f 233 244 243
f 234 235 245
f 234 245 244
f 235 236 246
f 235 246 245
f 236 237 247
f 236 247 246
f 237 238 248
f 237 248 247
f 238 239 249
f 238 249 248
f 239 240 250
f 239 250 249
f 240 231 241
f 240 241 250
f 241 242 252
f 241 252 251
f 242 243 253
f 242 253 252
f 243 244 254
f 243 254 253
f 244 245 255
f 244 255 254
f 245 246 256
f 245 256 255
f 246 247 257
f 246 257 256
f 247 248 258
f 247 258 257
f 248 249 259
f 248 259 258
f 249 250 260
f 249 260 259
f 250 241 251
f 250 251 260
f 251 252 262
f 251 262 261
f 252 253 263
f 252 263 262
f 253 254 264
f 253 264 263
f 254 255 265
f 254 265 264
f 255 256 266
f 255 266 265
f 256 257 267
f 256 267 266
f 257 258 268
f 257 268 267
f 258 259 269
f 258 269 268
f 259 260 270
f 259 270 269
f 260 251 261
f 260 261 270
f 261 262 272
f 261 272 271
f 262 263 273
f 262 273 272
f 263 264 274
f 263 274 273
f 264 265 275
f 264 275 274
f 265 266 276
f 265 276 275
f 266 267 277
f 266 277 276
f 267 268 278
f 267 278 277
f 268 269 279
f 268 279 278
f 269 270 280
f 269 280 279
f 270 261 271
f 270 271 280
f 271 272 282
f 271 282 281
f 272 273 283
f 272 283 282
f 273 274 284
f 273 284 283
f 274 275 285
f 274 285 284
f 275 276 286
f 275 286 285
f 276 277 287
f 276 287 286
f 277 278 288
f 277 288 287
f 278 279 289
f 278 289 288
f 279 280 290
f 279 290 289
f 280 271 281
f 280 281 290
f 281 282 292
f 281 292 291
f 282 283 293
f 282 293 292
f 283 284 294
f 283 294 293
f 284 285 295
f 284 295 294
f 285 286 296
f 285 296 295
f 286 287 297
f 286 297 296
f 287 288 298
f 287 298 297
f 288 289 299
f 288 299 298
f 289 290 300
f 289 300 299
f 290 281 291
f 290 291 300
f 291 292 302
f 291 302 301
f 292 293 303
f 292 303 302
f 293 294 304
f 293 304 303
f 294 295 305
f 294 305 304
f 295 296 306
f 295 306 305
f 296 297 307
f 296 307 306
f 297 298 308
f 297 308 307
f 298 299 309
f 298 309 308
f 299 300 310
f 299 310 309
f 300 291 301
f 300 301 310
f 301 302 312
f 301 312 311
f 302 303 313
f 302 313 312
f 303 304 314
f 303 314 313
f 304 305 315
f 304 315 314
f 305 306 316
f 305 316 315
f 306 307 317
f 306 317 316
f 307 308 318
f 307 318 317
f 308 309 319
f 308 319 318
f 309 310 320
f 309 320 319
f 310 301 311
f 310 311 320
f 311 312 322
f 311 322 321
f 312 313 323
f 312 323 322
f 313 314 324
f 313 324 323
f 314 315 325
f 314 325 324
f 315 316 326
f 315 326 325
f 316 317 327
f 316 327 326
f 317 318 328
f 317 328 327
f 318 319 329
f 318 329 328
f 319 320 330
f 319 330 329
f 320 311 321
f 320 321 330
f 321 322 332
f 321 332 331
f 322 323 333
f 322 333 332
f 323 324 334
f 323 334 333
f 324 325 335
f 324 335 334
f 325 326 336
f 325 336 335
f 326 327 337
f 326 337 336
f 327 328 338
f 327 338 337
f 328 329 339
f 328 339 338
f 329 330 340
f 329 340 339
f 330 321 331
f 330 331 340
f 331 332 342
f 331 342 341
f 332 333 343
f 332 343 342
f 333 334 344
f 333 344 343
f 334 335 345
f 334 345 344
f 335 336 346
f 335 346 345
f 336 337 347
f 336 347 346
f 337 338 348
f 337 348 347
f 338 339 349
f 338 349 348
f 339 340 350
f 339 350 349
f 340 331 341
f 340 341 350
f 341 342 352
f 341 352 351
f 342 343 353
f 342 353 352
f 343 344 354
f 343 354 353
f 344 345 355
f 344 355 354
f 345 346 356
f 345 356 355
f 346 347 357
f 346 357 356
f 347 348 358
f 347 358 357
f 348 349 359
f 348 359 358
f 349 350 360
f 349 360 359
f 350 341 351
f 350 351 360
f 351 352 362
f 351 362 361
f 352 353 363
f 352 363 362
f 353 354 364
f 353 364 363
f 354 355 365
f 354 365 364
f 355 356 366
f 355 366 365
f 356 357 367
f 356 367 366
f 357 358 368
f 357 368 367
f 358 359 369
f 358 369 368
f 359 360 370
f 359 370 369
f 360 351 361
f 360 361 370
f 361 362 372
f 361 372 371
f 362 363 373
f 362 373 372
f 363 364 374
f 363 374 373
f 364 365 375
f 364 375 374
f 365 366 376
f 365 376 375
f 366 367 377
f 366 377 376
f 367 368 378
f 367 378 377
f 368 369 379
f 368 379 378
f 369 370 380
f 369 380 379
f 370 361 371
f 370 371 380
f 371 372 382
f 371 382 381
f 372 373 383
f 372 383 382
f 373 374 384
f 373 384 383
f 374 375 385
f 374 385 384
f 375 376 386
f 375 386 385
f 376 377 387
f 376 387 386
f 377 378 388
f 377 388 387
f 378 379 389
f 378 389 388
f 379 380 390
f 379 390 389
f 380 371 381
f 380 381 390
f 381 382 392
f 381 392 391
f 382 383 393
f 382 393 392
f 383 384 394
f 383 394 393
f 384 385 395
f 384 395 394
f 385 386 396
f 385 396 395
f 386 387 397
f 386 397 396
f 387 388 398
f 387 398 397
f 388 389 399
f 388 399 398
f 389 390 400
f 389 400 399
f 390 381 391
f 390 391 400
f 391 392 402
f 391 402 401
f 392 393 403
f 392 403 402
f 393 394 404
f 393 404 403
f 394 395 405
f 394 405 404
f 395 396 406
f 395 406 405
f 396 397 407
f 396 407 406
f 397 398 408
f 397 408 407
f 398 399 409
f 398 409 408
f 399 400 410
f 399 410 409
f 400 391 401
f 400 401 410
f 401 402 412
f 401 412 411
f 402 403 413
f 402 413 412
f 403 404 414
f 403 414 413
f 404 405 415
f 404 415 414
f 405 406 416
f 405 416 415
f 406 407 417
f 406 417 416
f 407 408 418
f 407 418 417
f 408 409 419
f 408 419 418
f 409 410 420
f 409 420 419
f 410 401 411
f 410 411 420
f 411 412 422
f 411 422 421
f 412 413 423
f 412 423 422
f 413 414 424
f 413 424 423
f 414 415 425
f 414 425 424
f 415 416 426
f 415 426 425
f 416 417 427
f 416 427 426
f 417 418 428
f 417 428 427
f 418 419 429
f 418 429 428
f 419 420 430
f 419 430 429
f 420 411 421
f 420 421 430
f 421 422 432
f 421 432 431
f 422 423 433
f 422 433 432
f 423 424 434
f 423 434 433
f 424 425 435
f 424 435 434
f 425 426 436
f 425 436 435
f 426 427 437
f 426 437 436
f 427 428 438
f 427 438 437
f 428 429 439
f 428 439 438
f 429 430 440
f 429 440 439
f 430 421 431
f 430 431 440
f 431 432 442
f 431 442 441
f 432 433 443
f 432 443 442
f 433 434 444
f 433 444 443
f 434 435 445
f 434 445 444
f 435 436 446
f 435 446 445
f 436 437 447
f 436 447 446
f 437 438 448
f 437 448 447
f 438 439 449
f 438 449 448
f 439 440 450
f 439 450 449
f 440 431 441
f 440 441 450
f 441 442 452
f 441 452 451
f 442 443 453
f 442 453 452
f 443 444 454
f 443 454 453
f 444 445 455
f 444 455 454
f 445 446 456
f 445 456 455
f 446 447 457
f 446 457 456
f 447 448 458
f 447 458 457
f 448 449 459
f 448 459 458
f 449 450 460
f 449 460 459
f 450 441 451
f 450 451 460
f 451 452 462
f 451 462 461
f 452 453 463
f 452 463 462
f 453 454 464
f 453 464 463
f 454 455 465
f 454 465 464
f 455 456 466
f 455 466 465
f 456 457 467
f 456 467 466
f 457 458 468
f 457 468 467
f 458 459 469
f 458 469 468
f 459 460 470
f 459 470 469
f 460 451 461
f 460 461 470
f 461 462 472
f 461 472 471
f 462 463 473
f 462 473 472
f 463 464 474
f 463 474 473
f 464 465 475
f 464 475 474
f 465 466 476
f 465 476 475
f 466 467 477
f 466 477 476
f 467 468 478
f 467 478 477
f 468 469 479
f 468 479 478
f 469 470 480
f 469 480 479
f 470 461 471
f 470 471 480
f 471 472 2
f 471 2 1
f 472 473 3
f 472 3 2
f 473 474 4
f 473 4 3
f 474 475 5
f 474 5 4
f 475 476 6
f 475 6 5
f 476 477 7
f 476 7 6
f 477 478 8
f 477 8 7
f 478 479 9
f 478 9 8
f 479 480 10
f 479 10 9
f 480 471 1
f 480 1 10
