# generated by make_meshes.py
v 0.00264 0.00000 2.64075
v 0.00251 0.00082 2.64075
v 0.00214 0.00155 2.64075
v 0.00155 0.00214 2.64075
v 0.00082 0.00251 2.64075
v 0.00000 0.00264 2.64075
v -0.00082 0.00251 2.64075
v -0.00155 0.00214 2.64075
v -0.00214 0.00155 2.64075
v -0.00251 0.00082 2.64075
v -0.00264 0.00000 2.64075
v -0.00251 -0.00082 2.64075
v -0.00214 -0.00155 2.64075
v -0.00155 -0.00214 2.64075
v -0.00082 -0.00251 2.64075
v -0.00000 -0.00264 2.64075
v 0.00082 -0.00251 2.64075
v 0.00155 -0.00214 2.64075
v 0.00214 -0.00155 2.64075
v 0.00251 -0.00082 2.64075
v 0.13996 0.00000 2.63704
v 0.13311 0.04325 2.63704
v 0.11323 0.08227 2.63704
v 0.08227 0.11323 2.63704
v 0.04325 0.13311 2.63704
v 0.00000 0.13996 2.63704
v -0.04325 0.13311 2.63704
v -0.08227 0.11323 2.63704
v -0.11323 0.08227 2.63704
v -0.13311 0.04325 2.63704
v -0.13996 0.00000 2.63704
v -0.13311 -0.04325 2.63704
v -0.11323 -0.08227 2.63704
v -0.08227 -0.11323 2.63704
v -0.04325 -0.13311 2.63704
v -0.00000 -0.13996 2.63704
v 0.04325 -0.13311 2.63704
v 0.08227 -0.11323 2.63704
v 0.11323 -0.08227 2.63704
v 0.13311 -0.04325 2.63704
v 0.27691 0.00000 2.62619
v 0.26336 0.08557 2.62619
v 0.22402 0.16276 2.62619
v 0.16276 0.22402 2.62619
v 0.08557 0.26336 2.62619
v 0.00000 0.27691 2.62619
v -0.08557 0.26336 2.62619
v -0.16276 0.22402 2.62619
v -0.22402 0.16276 2.62619
v -0.26336 0.08557 2.62619
v -0.27691 0.00000 2.62619
v -0.26336 -0.08557 2.62619
v -0.22402 -0.16276 2.62619
v -0.16276 -0.22402 2.62619
v -0.08557 -0.26336 2.62619
v -0.00000 -0.27691 2.62619
v 0.08557 -0.26336 2.62619
v 0.16276 -0.22402 2.62619
v 0.22402 -0.16276 2.62619
v 0.26336 -0.08557 2.62619
v 0.41310 0.00000 2.60824
v 0.39289 0.12766 2.60824
v 0.33421 0.24282 2.60824
v 0.24282 0.33421 2.60824
v 0.12766 0.39289 2.60824
v 0.00000 0.41310 2.60824
v -0.12766 0.39289 2.60824
v -0.24282 0.33421 2.60824
v -0.33421 0.24282 2.60824
v -0.39289 0.12766 2.60824
v -0.41310 0.00000 2.60824
v -0.39289 -0.12766 2.60824
v -0.33421 -0.24282 2.60824
v -0.24282 -0.33421 2.60824
v -0.12766 -0.39289 2.60824
v -0.00000 -0.41310 2.60824
v 0.12766 -0.39289 2.60824
v 0.24282 -0.33421 2.60824
v 0.33421 -0.24282 2.60824
v 0.39289 -0.12766 2.60824
v 0.00264 -0.00000 -2.64075
v 0.00251 -0.00082 -2.64075
v 0.00214 -0.00155 -2.64075
v 0.00155 -0.00214 -2.64075
v 0.00082 -0.00251 -2.64075
v 0.00000 -0.00264 -2.64075
v -0.00082 -0.00251 -2.64075
v -0.00155 -0.00214 -2.64075
v -0.00214 -0.00155 -2.64075
v -0.00251 -0.00082 -2.64075
v -0.00264 -0.00000 -2.64075
v -0.00251 0.00082 -2.64075
v -0.00214 0.00155 -2.64075
v -0.00155 0.00214 -2.64075
v -0.00082 0.00251 -2.64075
v -0.00000 0.00264 -2.64075
v 0.00082 0.00251 -2.64075
v 0.00155 0.00214 -2.64075
v 0.00214 0.00155 -2.64075
v 0.00251 0.00082 -2.64075
v 0.13996 -0.00000 -2.63704
v 0.13311 -0.04325 -2.63704
v 0.11323 -0.08227 -2.63704
v 0.08227 -0.11323 -2.63704
v 0.04325 -0.13311 -2.63704
v 0.00000 -0.13996 -2.63704
v -0.04325 -0.13311 -2.63704
v -0.08227 -0.11323 -2.63704
v -0.11323 -0.08227 -2.63704
v -0.13311 -0.04325 -2.63704
v -0.13996 -0.00000 -2.63704
v -0.13311 0.04325 -2.63704
v -0.11323 0.08227 -2.63704
v -0.08227 0.11323 -2.63704
v -0.04325 0.13311 -2.63704
v -0.00000 0.13996 -2.63704
v 0.04325 0.13311 -2.63704
v 0.08227 0.11323 -2.63704
v 0.11323 0.08227 -2.63704
v 0.13311 0.04325 -2.63704
v 0.27691 -0.00000 -2.62619
v 0.26336 -0.08557 -2.62619
v 0.22402 -0.16276 -2.62619
v 0.16276 -0.22402 -2.62619
v 0.08557 -0.26336 -2.62619
v 0.00000 -0.27691 -2.62619
v -0.08557 -0.26336 -2.62619
v -0.16276 -0.22402 -2.62619
v -0.22402 -0.16276 -2.62619
v -0.26336 -0.08557 -2.62619
v -0.27691 -0.00000 -2.62619
v -0.26336 0.08557 -2.62619
v -0.22402 0.16276 -2.62619
v -0.16276 0.22402 -2.62619
v -0.08557 0.26336 -2.62619
v -0.00000 0.27691 -2.62619
v 0.08557 0.26336 -2.62619
v 0.16276 0.22402 -2.62619
v 0.22402 0.16276 -2.62619
v 0.26336 0.08557 -2.62619
v 0.41310 -0.00000 -2.60824
v 0.39289 -0.12766 -2.60824
v 0.33421 -0.24282 -2.60824
v 0.24282 -0.33421 -2.60824
v 0.12766 -0.39289 -2.60824
v 0.00000 -0.41310 -2.60824
v -0.12766 -0.39289 -2.60824
v -0.24282 -0.33421 -2.60824
v -0.33421 -0.24282 -2.60824
v -0.39289 -0.12766 -2.60824
v -0.41310 -0.00000 -2.60824
v -0.39289 0.12766 -2.60824
v -0.33421 0.24282 -2.60824
v -0.24282 0.33421 -2.60824
v -0.12766 0.39289 -2.60824
v -0.00000 0.41310 -2.60824
v 0.12766 0.39289 -2.60824
v 0.24282 0.33421 -2.60824
v 0.33421 0.24282 -2.60824
v 0.39289 0.12766 -2.60824
vn 0.00100 0.00000 1.00000
vn 0.00095 0.00031 1.00000
vn 0.00081 0.00059 1.00000
vn 0.00059 0.00081 1.00000
vn 0.00031 0.00095 1.00000
vn 0.00000 0.00100 1.00000
vn -0.00031 0.00095 1.00000
vn -0.00059 0.00081 1.00000
vn -0.00081 0.00059 1.00000
vn -0.00095 0.00031 1.00000
vn -0.00100 0.00000 1.00000
vn -0.00095 -0.00031 1.00000
vn -0.00081 -0.00059 1.00000
vn -0.00059 -0.00081 1.00000
vn -0.00031 -0.00095 1.00000
vn -0.00000 -0.00100 1.00000
vn 0.00031 -0.00095 1.00000
vn 0.00059 -0.00081 1.00000
vn 0.00081 -0.00059 1.00000
vn 0.00095 -0.00031 1.00000
vn 0.05300 0.00000 0.99859
vn 0.05041 0.01638 0.99859
vn 0.04288 0.03115 0.99859
vn 0.03115 0.04288 0.99859
vn 0.01638 0.05041 0.99859
vn 0.00000 0.05300 0.99859
vn -0.01638 0.05041 0.99859
vn -0.03115 0.04288 0.99859
vn -0.04288 0.03115 0.99859
vn -0.05041 0.01638 0.99859
vn -0.05300 0.00000 0.99859
vn -0.05041 -0.01638 0.99859
vn -0.04288 -0.03115 0.99859
vn -0.03115 -0.04288 0.99859
vn -0.01638 -0.05041 0.99859
vn -0.00000 -0.05300 0.99859
vn 0.01638 -0.05041 0.99859
vn 0.03115 -0.04288 0.99859
vn 0.04288 -0.03115 0.99859
vn 0.05041 -0.01638 0.99859
vn 0.10486 0.00000 0.99449
vn 0.09973 0.03240 0.99449
vn 0.08483 0.06164 0.99449
vn 0.06164 0.08483 0.99449
vn 0.03240 0.09973 0.99449
vn 0.00000 0.10486 0.99449
vn -0.03240 0.09973 0.99449
vn -0.06164 0.08483 0.99449
vn -0.08483 0.06164 0.99449
vn -0.09973 0.03240 0.99449
vn -0.10486 0.00000 0.99449
vn -0.09973 -0.03240 0.99449
vn -0.08483 -0.06164 0.99449
vn -0.06164 -0.08483 0.99449
vn -0.03240 -0.09973 0.99449
vn -0.00000 -0.10486 0.99449
vn 0.03240 -0.09973 0.99449
vn 0.06164 -0.08483 0.99449
vn 0.08483 -0.06164 0.99449
vn 0.09973 -0.03240 0.99449
vn 0.15643 0.00000 0.98769
vn 0.14878 0.04834 0.98769
vn 0.12656 0.09195 0.98769
vn 0.09195 0.12656 0.98769
vn 0.04834 0.14878 0.98769
vn 0.00000 0.15643 0.98769
vn -0.04834 0.14878 0.98769
vn -0.09195 0.12656 0.98769
vn -0.12656 0.09195 0.98769
vn -0.14878 0.04834 0.98769
vn -0.15643 0.00000 0.98769
vn -0.14878 -0.04834 0.98769
vn -0.12656 -0.09195 0.98769
vn -0.09195 -0.12656 0.98769
vn -0.04834 -0.14878 0.98769
vn -0.00000 -0.15643 0.98769
vn 0.04834 -0.14878 0.98769
vn 0.09195 -0.12656 0.98769
vn 0.12656 -0.09195 0.98769
vn 0.14878 -0.04834 0.98769
vn 0.00100 -0.00000 -1.00000
vn 0.00095 -0.00031 -1.00000
vn 0.00081 -0.00059 -1.00000
vn 0.00059 -0.00081 -1.00000
vn 0.00031 -0.00095 -1.00000
vn 0.00000 -0.00100 -1.00000
vn -0.00031 -0.00095 -1.00000
vn -0.00059 -0.00081 -1.00000
vn -0.00081 -0.00059 -1.00000
vn -0.00095 -0.00031 -1.00000
vn -0.00100 -0.00000 -1.00000
vn -0.00095 0.00031 -1.00000
vn -0.00081 0.00059 -1.00000
vn -0.00059 0.00081 -1.00000
vn -0.00031 0.00095 -1.00000
vn -0.00000 0.00100 -1.00000
vn 0.00031 0.00095 -1.00000
vn 0.00059 0.00081 -1.00000
vn 0.00081 0.00059 -1.00000
vn 0.00095 0.00031 -1.00000
vn 0.05300 -0.00000 -0.99859
vn 0.05041 -0.01638 -0.99859
vn 0.04288 -0.03115 -0.99859
vn 0.03115 -0.04288 -0.99859
vn 0.01638 -0.05041 -0.99859
vn 0.00000 -0.05300 -0.99859
vn -0.01638 -0.05041 -0.99859
vn -0.03115 -0.04288 -0.99859
vn -0.04288 -0.03115 -0.99859
vn -0.05041 -0.01638 -0.99859
vn -0.05300 -0.00000 -0.99859
vn -0.05041 0.01638 -0.99859
vn -0.04288 0.03115 -0.99859
vn -0.03115 0.04288 -0.99859
vn -0.01638 0.05041 -0.99859
vn -0.00000 0.05300 -0.99859
vn 0.01638 0.05041 -0.99859
vn 0.03115 0.04288 -0.99859
vn 0.04288 0.03115 -0.99859
vn 0.05041 0.01638 -0.99859
vn 0.10486 -0.00000 -0.99449
vn 0.09973 -0.03240 -0.99449
vn 0.08483 -0.06164 -0.99449
vn 0.06164 -0.08483 -0.99449
vn 0.03240 -0.09973 -0.99449
vn 0.00000 -0.10486 -0.99449
vn -0.03240 -0.09973 -0.99449
vn -0.06164 -0.08483 -0.99449
vn -0.08483 -0.06164 -0.99449
vn -0.09973 -0.03240 -0.99449
vn -0.10486 -0.00000 -0.99449
vn -0.09973 0.03240 -0.99449
vn -0.08483 0.06164 -0.99449
vn -0.06164 0.08483 -0.99449
vn -0.03240 0.09973 -0.99449
vn -0.00000 0.10486 -0.99449
vn 0.03240 0.09973 -0.99449
vn 0.06164 0.08483 -0.99449
vn 0.08483 0.06164 -0.99449
vn 0.09973 0.03240 -0.99449
vn 0.15643 -0.00000 -0.98769
vn 0.14878 -0.04834 -0.98769
vn 0.12656 -0.09195 -0.98769
vn 0.09195 -0.12656 -0.98769
vn 0.04834 -0.14878 -0.98769
vn 0.00000 -0.15643 -0.98769
vn -0.04834 -0.14878 -0.98769
vn -0.09195 -0.12656 -0.98769
vn -0.12656 -0.09195 -0.98769
vn -0.14878 -0.04834 -0.98769
vn -0.15643 -0.00000 -0.98769
vn -0.14878 0.04834 -0.98769
vn -0.12656 0.09195 -0.98769
vn -0.09195 0.12656 -0.98769
vn -0.04834 0.14878 -0.98769
vn -0.00000 0.15643 -0.98769
vn 0.04834 0.14878 -0.98769
vn 0.09195 0.12656 -0.98769
vn 0.12656 0.09195 -0.98769
vn 0.14878 0.04834 -0.98769
f 1//1 21//21 2//2
f 2//2 21//21 22//22
f 2//2 22//22 3//3
f 3//3 22//22 23//23
f 3//3 23//23 4//4
f 4//4 23//23 24//24
f 4//4 24//24 5//5
f 5//5 24//24 25//25
f 5//5 25//25 6//6
f 6//6 25//25 26//26
f 6//6 26//26 7//7
f 7//7 26//26 27//27
f 7//7 27//27 8//8
f 8//8 27//27 28//28
f 8//8 28//28 9//9
f 9//9 28//28 29//29
f 9//9 29//29 10//10
f 10//10 29//29 30//30
f 10//10 30//30 11//11
f 11//11 30//30 31//31
f 11//11 31//31 12//12
f 12//12 31//31 32//32
f 12//12 32//32 13//13
f 13//13 32//32 33//33
f 13//13 33//33 14//14
f 14//14 33//33 34//34
f 14//14 34//34 15//15
f 15//15 34//34 35//35
f 15//15 35//35 16//16
f 16//16 35//35 36//36
f 16//16 36//36 17//17
f 17//17 36//36 37//37
f 17//17 37//37 18//18
f 18//18 37//37 38//38
f 18//18 38//38 19//19
f 19//19 38//38 39//39
f 19//19 39//39 20//20
f 20//20 39//39 40//40
f 20//20 40//40 1//1
f 1//1 40//40 21//21
f 21//21 41//41 22//22
f 22//22 41//41 42//42
f 22//22 42//42 23//23
f 23//23 42//42 43//43
f 23//23 43//43 24//24
f 24//24 43//43 44//44
f 24//24 44//44 25//25
f 25//25 44//44 45//45
f 25//25 45//45 26//26
f 26//26 45//45 46//46
f 26//26 46//46 27//27
f 27//27 46//46 47//47
f 27//27 47//47 28//28
f 28//28 47//47 48//48
f 28//28 48//48 29//29
f 29//29 48//48 49//49
f 29//29 49//49 30//30
f 30//30 49//49 50//50
f 30//30 50//50 31//31
f 31//31 50//50 51//51
f 31//31 51//51 32//32
f 32//32 51//51 52//52
f 32//32 52//52 33//33
f 33//33 52//52 53//53
f 33//33 53//53 34//34
f 34//34 53//53 54//54
f 34//34 54//54 35//35
f 35//35 54//54 55//55
f 35//35 55//55 36//36
f 36//36 55//55 56//56
f 36//36 56//56 37//37
f 37//37 56//56 57//57
f 37//37 57//57 38//38
f 38//38 57//57 58//58
f 38//38 58//58 39//39
f 39//39 58//58 59//59
f 39//39 59//59 40//40
f 40//40 59//59 60//60
f 40//40 60//60 21//21
f 21//21 60//60 41//41
f 41//41 61//61 42//42
f 42//42 61//61 62//62
f 42//42 62//62 43//43
f 43//43 62//62 63//63
f 43//43 63//63 44//44
f 44//44 63//63 64//64
f 44//44 64//64 45//45
f 45//45 64//64 65//65
f 45//45 65//65 46//46
f 46//46 65//65 66//66
f 46//46 66//66 47//47
f 47//47 66//66 67//67
f 47//47 67//67 48//48
f 48//48 67//67 68//68
f 48//48 68//68 49//49
f 49//49 68//68 69//69
f 49//49 69//69 50//50
f 50//50 69//69 70//70
f 50//50 70//70 51//51
f 51//51 70//70 71//71
f 51//51 71//71 52//52
f 52//52 71//71 72//72
f 52//52 72//72 53//53
f 53//53 72//72 73//73
f 53//53 73//73 54//54
f 54//54 73//73 74//74
f 54//54 74//74 55//55
f 55//55 74//74 75//75
f 55//55 75//75 56//56
f 56//56 75//75 76//76
f 56//56 76//76 57//57
f 57//57 76//76 77//77
f 57//57 77//77 58//58
f 58//58 77//77 78//78
f 58//58 78//78 59//59
f 59//59 78//78 79//79
f 59//59 79//79 60//60
f 60//60 79//79 80//80
f 60//60 80//80 41//41
f 41//41 80//80 61//61
f 81//81 101//101 82//82
f 82//82 101//101 102//102
f 82//82 102//102 83//83
f 83//83 102//102 103//103
f 83//83 103//103 84//84
f 84//84 103//103 104//104
f 84//84 104//104 85//85
f 85//85 104//104 105//105
f 85//85 105//105 86//86
f 86//86 105//105 106//106
f 86//86 106//106 87//87
f 87//87 106//106 107//107
f 87//87 107//107 88//88
f 88//88 107//107 108//108
f 88//88 108//108 89//89
f 89//89 108//108 109//109
f 89//89 109//109 90//90
f 90//90 109//109 110//110
f 90//90 110//110 91//91
f 91//91 110//110 111//111
f 91//91 111//111 92//92
f 92//92 111//111 112//112
f 92//92 112//112 93//93
f 93//93 112//112 113//113
f 93//93 113//113 94//94
f 94//94 113//113 114//114
f 94//94 114//114 95//95
f 95//95 114//114 115//115
f 95//95 115//115 96//96
f 96//96 115//115 116//116
f 96//96 116//116 97//97
f 97//97 116//116 117//117
f 97//97 117//117 98//98
f 98//98 117//117 118//118
f 98//98 118//118 99//99
f 99//99 118//118 119//119
f 99//99 119//119 100//100
f 100//100 119//119 120//120
f 100//100 120//120 81//81
f 81//81 120//120 101//101
f 101//101 121//121 102//102
f 102//102 121//121 122//122
f 102//102 122//122 103//103
f 103//103 122//122 123//123
f 103//103 123//123 104//104
f 104//104 123//123 124//124
f 104//104 124//124 105//105
f 105//105 124//124 125//125
f 105//105 125//125 106//106
f 106//106 125//125 126//126
f 106//106 126//126 107//107
f 107//107 126//126 127//127
f 107//107 127//127 108//108
f 108//108 127//127 128//128
f 108//108 128//128 109//109
f 109//109 128//128 129//129
f 109//109 129//129 110//110
f 110//110 129//129 130//130
f 110//110 130//130 111//111
f 111//111 130//130 131//131
f 111//111 131//131 112//112
f 112//112 131//131 132//132
f 112//112 132//132 113//113
f 113//113 132//132 133//133
f 113//113 133//133 114//114
f 114//114 133//133 134//134
f 114//114 134//134 115//115
f 115//115 134//134 135//135
f 115//115 135//135 116//116
f 116//116 135//135 136//136
f 116//116 136//136 117//117
f 117//117 136//136 137//137
f 117//117 137//137 118//118
f 118//118 137//137 138//138
f 118//118 138//138 119//119
f 119//119 138//138 139//139
f 119//119 139//139 120//120
f 120//120 139//139 140//140
f 120//120 140//140 101//101
f 101//101 140//140 121//121
f 121//121 141//141 122//122
f 122//122 141//141 142//142
f 122//122 142//142 123//123
f 123//123 142//142 143//143
f 123//123 143//143 124//124
f 124//124 143//143 144//144
f 124//124 144//144 125//125
f 125//125 144//144 145//145
f 125//125 145//145 126//126
f 126//126 145//145 146//146
f 126//126 146//146 127//127
f 127//127 146//146 147//147
f 127//127 147//147 128//128
f 128//128 147//147 148//148
f 128//128 148//148 129//129
f 129//129 148//148 149//149
f 129//129 149//149 130//130
f 130//130 149//149 150//150
f 130//130 150//150 131//131
f 131//131 150//150 151//151
f 131//131 151//151 132//132
f 132//132 151//151 152//152
f 132//132 152//152 133//133
f 133//133 152//152 153//153
f 133//133 153//153 134//134
f 134//134 153//153 154//154
f 134//134 154//154 135//135
f 135//135 154//154 155//155
f 135//135 155//155 136//136
f 136//136 155//155 156//156
f 136//136 156//156 137//137
f 137//137 156//156 157//157
f 137//137 157//157 138//138
f 138//138 157//157 158//158
f 138//138 158//158 139//139
f 139//139 158//158 159//159
f 139//139 159//159 140//140
f 140//140 159//159 160//160
f 140//140 160//160 121//121
f 121//121 160//160 141//141
