# generated by make_meshes.py
v 0.64000 0.00000 1.00000
v 0.61819 0.16564 1.00000
v 0.55426 0.32000 1.00000
v 0.45255 0.45255 1.00000
v 0.32000 0.55426 1.00000
v 0.16564 0.61819 1.00000
v 0.00000 0.64000 1.00000
v -0.16564 0.61819 1.00000
v -0.32000 0.55426 1.00000
v -0.45255 0.45255 1.00000
v -0.55426 0.32000 1.00000
v -0.61819 0.16564 1.00000
v -0.64000 0.00000 1.00000
v -0.61819 -0.16564 1.00000
v -0.55426 -0.32000 1.00000
v -0.45255 -0.45255 1.00000
v -0.32000 -0.55426 1.00000
v -0.16564 -0.61819 1.00000
v -0.00000 -0.64000 1.00000
v 0.16564 -0.61819 1.00000
v 0.32000 -0.55426 1.00000
v 0.45255 -0.45255 1.00000
v 0.55426 -0.32000 1.00000
v 0.61819 -0.16564 1.00000
v 0.66000 0.00000 3.20000
v 0.63751 0.17082 3.20000
v 0.57158 0.33000 3.20000
v 0.46669 0.46669 3.20000
v 0.33000 0.57158 3.20000
v 0.17082 0.63751 3.20000
v 0.00000 0.66000 3.20000
v -0.17082 0.63751 3.20000
v -0.33000 0.57158 3.20000
v -0.46669 0.46669 3.20000
v -0.57158 0.33000 3.20000
v -0.63751 0.17082 3.20000
v -0.66000 0.00000 3.20000
v -0.63751 -0.17082 3.20000
v -0.57158 -0.33000 3.20000
v -0.46669 -0.46669 3.20000
v -0.33000 -0.57158 3.20000
v -0.17082 -0.63751 3.20000
v -0.00000 -0.66000 3.20000
v 0.17082 -0.63751 3.20000
v 0.33000 -0.57158 3.20000
v 0.46669 -0.46669 3.20000
v 0.57158 -0.33000 3.20000
v 0.63751 -0.17082 3.20000
v 0.00000 0.00000 1.00000
v 0.64000 0.00000 1.00000
v 0.61819 0.16564 1.00000
v 0.55426 0.32000 1.00000
v 0.45255 0.45255 1.00000
v 0.32000 0.55426 1.00000
v 0.16564 0.61819 1.00000
v 0.00000 0.64000 1.00000
v -0.16564 0.61819 1.00000
v -0.32000 0.55426 1.00000
v -0.45255 0.45255 1.00000
v -0.55426 0.32000 1.00000
v -0.61819 0.16564 1.00000
v -0.64000 0.00000 1.00000
v -0.61819 -0.16564 1.00000
v -0.55426 -0.32000 1.00000
v -0.45255 -0.45255 1.00000
v -0.32000 -0.55426 1.00000
v -0.16564 -0.61819 1.00000
v -0.00000 -0.64000 1.00000
v 0.16564 -0.61819 1.00000
v 0.32000 -0.55426 1.00000
v 0.45255 -0.45255 1.00000
v 0.55426 -0.32000 1.00000
v 0.61819 -0.16564 1.00000
v 0.00000 0.00000 3.20000
v 0.66000 0.00000 3.20000
v 0.63751 0.17082 3.20000
v 0.57158 0.33000 3.20000
v 0.46669 0.46669 3.20000
v 0.33000 0.57158 3.20000
v 0.17082 0.63751 3.20000
v 0.00000 0.66000 3.20000
v -0.17082 0.63751 3.20000
v -0.33000 0.57158 3.20000
v -0.46669 0.46669 3.20000
v -0.57158 0.33000 3.20000
v -0.63751 0.17082 3.20000
v -0.66000 0.00000 3.20000
v -0.63751 -0.17082 3.20000
v -0.57158 -0.33000 3.20000
v -0.46669 -0.46669 3.20000
v -0.33000 -0.57158 3.20000
v -0.17082 -0.63751 3.20000
v -0.00000 -0.66000 3.20000
v 0.17082 -0.63751 3.20000
v 0.33000 -0.57158 3.20000
v 0.46669 -0.46669 3.20000
v 0.57158 -0.33000 3.20000
v 0.63751 -0.17082 3.20000
vn 0.99996 0.00000 -0.00909
vn 0.96589 0.25881 -0.00909
vn 0.86599 0.49998 -0.00909
vn 0.70708 0.70708 -0.00909
vn 0.49998 0.86599 -0.00909
vn 0.25881 0.96589 -0.00909
vn 0.00000 0.99996 -0.00909
vn -0.25881 0.96589 -0.00909
vn -0.49998 0.86599 -0.00909
vn -0.70708 0.70708 -0.00909
vn -0.86599 0.49998 -0.00909
vn -0.96589 0.25881 -0.00909
vn -0.99996 0.00000 -0.00909
vn -0.96589 -0.25881 -0.00909
vn -0.86599 -0.49998 -0.00909
vn -0.70708 -0.70708 -0.00909
vn -0.49998 -0.86599 -0.00909
vn -0.25881 -0.96589 -0.00909
vn -0.00000 -0.99996 -0.00909
vn 0.25881 -0.96589 -0.00909
vn 0.49998 -0.86599 -0.00909
vn 0.70708 -0.70708 -0.00909
vn 0.86599 -0.49998 -0.00909
vn 0.96589 -0.25881 -0.00909
vn 0.99996 0.00000 -0.00909
vn 0.96589 0.25881 -0.00909
vn 0.86599 0.49998 -0.00909
vn 0.70708 0.70708 -0.00909
vn 0.49998 0.86599 -0.00909
vn 0.25881 0.96589 -0.00909
vn 0.00000 0.99996 -0.00909
vn -0.25881 0.96589 -0.00909
vn -0.49998 0.86599 -0.00909
vn -0.70708 0.70708 -0.00909
vn -0.86599 0.49998 -0.00909
vn -0.96589 0.25881 -0.00909
vn -0.99996 0.00000 -0.00909
vn -0.96589 -0.25881 -0.00909
vn -0.86599 -0.49998 -0.00909
vn -0.70708 -0.70708 -0.00909
vn -0.49998 -0.86599 -0.00909
vn -0.25881 -0.96589 -0.00909
vn -0.00000 -0.99996 -0.00909
vn 0.25881 -0.96589 -0.00909
vn 0.49998 -0.86599 -0.00909
vn 0.70708 -0.70708 -0.00909
vn 0.86599 -0.49998 -0.00909
vn 0.96589 -0.25881 -0.00909
vn 0.00000 0.00000 -1.00000
vn 0.00000 0.00000 -1.00000
vn 0.00000 0.00000 -1.00000
vn 0.00000 0.00000 -1.00000
vn 0.00000 0.00000 -1.00000
vn 0.00000 0.00000 -1.00000
vn 0.00000 0.00000 -1.00000
vn 0.00000 0.00000 -1.00000
vn 0.00000 0.00000 -1.00000
vn 0.00000 0.00000 -1.00000
vn 0.00000 0.00000 -1.00000
vn 0.00000 0.00000 -1.00000
vn 0.00000 0.00000 -1.00000
vn 0.00000 0.00000 -1.00000
vn 0.00000 0.00000 -1.00000
vn 0.00000 0.00000 -1.00000
vn 0.00000 0.00000 -1.00000
vn 0.00000 0.00000 -1.00000
vn 0.00000 0.00000 -1.00000
vn 0.00000 0.00000 -1.00000
vn 0.00000 0.00000 -1.00000
vn 0.00000 0.00000 -1.00000
vn 0.00000 0.00000 -1.00000
vn 0.00000 0.00000 -1.00000
vn 0.00000 0.00000 -1.00000
vn 0.00000 0.00000 1.00000
vn 0.00000 0.00000 1.00000
vn 0.00000 0.00000 1.00000
vn 0.00000 0.00000 1.00000
vn 0.00000 0.00000 1.00000
vn 0.00000 0.00000 1.00000
vn 0.00000 0.00000 1.00000
vn 0.00000 0.00000 1.00000
vn 0.00000 0.00000 1.00000
vn 0.00000 0.00000 1.00000
vn 0.00000 0.00000 1.00000
vn 0.00000 0.00000 1.00000
vn 0.00000 0.00000 1.00000
vn 0.00000 0.00000 1.00000
vn 0.00000 0.00000 1.00000
vn 0.00000 0.00000 1.00000
vn 0.00000 0.00000 1.00000
vn 0.00000 0.00000 1.00000
vn 0.00000 0.00000 1.00000
vn 0.00000 0.00000 1.00000
vn 0.00000 0.00000 1.00000
vn 0.00000 0.00000 1.00000
vn 0.00000 0.00000 1.00000
vn 0.00000 0.00000 1.00000
vn 0.00000 0.00000 1.00000
f 1//1 2//2 25//25
f 2//2 26//26 25//25
f 2//2 3//3 26//26
f 3//3 27//27 26//26
f 3//3 4//4 27//27
f 4//4 28//28 27//27
f 4//4 5//5 28//28
f 5//5 29//29 28//28
f 5//5 6//6 29//29
f 6//6 30//30 29//29
f 6//6 7//7 30//30
f 7//7 31//31 30//30
f 7//7 8//8 31//31
f 8//8 32//32 31//31
f 8//8 9//9 32//32
f 9//9 33//33 32//32
f 9//9 10//10 33//33
f 10//10 34//34 33//33
f 10//10 11//11 34//34
f 11//11 35//35 34//34
f 11//11 12//12 35//35
f 12//12 36//36 35//35
f 12//12 13//13 36//36
f 13//13 37//37 36//36
f 13//13 14//14 37//37
f 14//14 38//38 37//37
f 14//14 15//15 38//38
f 15//15 39//39 38//38
f 15//15 16//16 39//39
f 16//16 40//40 39//39
f 16//16 17//17 40//40
f 17//17 41//41 40//40
f 17//17 18//18 41//41
f 18//18 42//42 41//41
f 18//18 19//19 42//42
f 19//19 43//43 42//42
f 19//19 20//20 43//43
f 20//20 44//44 43//43
f 20//20 21//21 44//44
f 21//21 45//45 44//44
f 21//21 22//22 45//45
f 22//22 46//46 45//45
f 22//22 23//23 46//46
f 23//23 47//47 46//46
f 23//23 24//24 47//47
f 24//24 48//48 47//47
f 24//24 1//1 48//48
f 1//1 25//25 48//48
f 49//49 51//51 50//50
f 49//49 52//52 51//51
f 49//49 53//53 52//52
f 49//49 54//54 53//53
f 49//49 55//55 54//54
f 49//49 56//56 55//55
f 49//49 57//57 56//56
f 49//49 58//58 57//57
f 49//49 59//59 58//58
f 49//49 60//60 59//59
f 49//49 61//61 60//60
f 49//49 62//62 61//61
f 49//49 63//63 62//62
f 49//49 64//64 63//63
f 49//49 65//65 64//64
f 49//49 66//66 65//65
f 49//49 67//67 66//66
f 49//49 68//68 67//67
f 49//49 69//69 68//68
f 49//49 70//70 69//69
f 49//49 71//71 70//70
f 49//49 72//72 71//71
f 49//49 73//73 72//72
f 49//49 50//50 73//73
f 74//74 75//75 76//76
f 74//74 76//76 77//77
f 74//74 77//77 78//78
f 74//74 78//78 79//79
f 74//74 79//79 80//80
f 74//74 80//80 81//81
f 74//74 81//81 82//82
f 74//74 82//82 83//83
f 74//74 83//83 84//84
f 74//74 84//84 85//85
f 74//74 85//85 86//86
f 74//74 86//86 87//87
f 74//74 87//87 88//88
f 74//74 88//88 89//89
f 74//74 89//89 90//90
f 74//74 90//90 91//91
f 74//74 91//91 92//92
f 74//74 92//92 93//93
f 74//74 93//93 94//94
f 74//74 94//94 95//95
f 74//74 95//95 96//96
f 74//74 96//96 97//97
f 74//74 97//97 98//98
f 74//74 98//98 75//75
