# tippe top ball: radius 1.5 cm, centre 0.06 cm above the centre of mass
v 0.0000 1.5600 0.0000
v 0.0000 1.5600 0.0000
v 0.0000 1.5600 0.0000
v 0.0000 1.5600 0.0000
v 0.0000 1.5600 0.0000
v 0.0000 1.5600 0.0000
v 0.0000 1.5600 0.0000
v 0.0000 1.5600 0.0000
v 0.0000 1.5600 0.0000
v 0.0000 1.5600 0.0000
v 0.0000 1.5600 0.0000
v 0.0000 1.5600 0.0000
v 0.0000 1.5600 0.0000
v 0.0000 1.5600 0.0000
v 0.0000 1.5600 0.0000
v 0.0000 1.5600 0.0000
v 0.0000 1.5600 0.0000
v 0.0000 1.5600 0.0000
v 0.0000 1.5600 0.0000
v 0.0000 1.5600 0.0000
v 0.0000 1.5600 0.0000
v 0.0000 1.5600 0.0000
v 0.0000 1.5600 0.0000
v 0.0000 1.5600 0.0000
v 0.0000 1.5600 0.0000
v 0.0000 1.5600 0.0000
v 0.0000 1.5600 0.0000
v 0.0000 1.5600 0.0000
v 0.0000 1.5600 0.0000
v 0.0000 1.5600 0.0000
v 0.0000 1.5600 0.0000
v 0.0000 1.5600 0.0000
v 0.0000 1.5600 0.0000
v 0.0000 1.5600 0.0000
v 0.0000 1.5600 0.0000
v 0.0000 1.5600 0.0000
v 0.0000 1.5600 0.0000
v 0.0000 1.5600 0.0000
v 0.0000 1.5600 0.0000
v 0.0000 1.5600 0.0000
v 0.0000 1.5600 0.0000
v 0.0000 1.5600 0.0000
v 0.0000 1.5600 0.0000
v 0.0000 1.5600 0.0000
v 0.0000 1.5600 0.0000
v 0.0000 1.5600 0.0000
v 0.0000 1.5600 0.0000
v 0.0000 1.5600 0.0000
v 0.1958 1.5472 0.0000
v 0.1941 1.5472 0.0256
v 0.1891 1.5472 0.0507
v 0.1809 1.5472 0.0749
v 0.1696 1.5472 0.0979
v 0.1553 1.5472 0.1192
v 0.1384 1.5472 0.1384
v 0.1192 1.5472 0.1553
v 0.0979 1.5472 0.1696
v 0.0749 1.5472 0.1809
v 0.0507 1.5472 0.1891
v 0.0256 1.5472 0.1941
v 0.0000 1.5472 0.1958
v -0.0256 1.5472 0.1941
v -0.0507 1.5472 0.1891
v -0.0749 1.5472 0.1809
v -0.0979 1.5472 0.1696
v -0.1192 1.5472 0.1553
v -0.1384 1.5472 0.1384
v -0.1553 1.5472 0.1192
v -0.1696 1.5472 0.0979
v -0.1809 1.5472 0.0749
v -0.1891 1.5472 0.0507
v -0.1941 1.5472 0.0256
v -0.1958 1.5472 0.0000
v -0.1941 1.5472 -0.0256
v -0.1891 1.5472 -0.0507
v -0.1809 1.5472 -0.0749
v -0.1696 1.5472 -0.0979
v -0.1553 1.5472 -0.1192
v -0.1384 1.5472 -0.1384
v -0.1192 1.5472 -0.1553
v -0.0979 1.5472 -0.1696
v -0.0749 1.5472 -0.1809
v -0.0507 1.5472 -0.1891
v -0.0256 1.5472 -0.1941
v -0.0000 1.5472 -0.1958
v 0.0256 1.5472 -0.1941
v 0.0507 1.5472 -0.1891
v 0.0749 1.5472 -0.1809
v 0.0979 1.5472 -0.1696
v 0.1192 1.5472 -0.1553
v 0.1384 1.5472 -0.1384
v 0.1553 1.5472 -0.1192
v 0.1696 1.5472 -0.0979
v 0.1809 1.5472 -0.0749
v 0.1891 1.5472 -0.0507
v 0.1941 1.5472 -0.0256
v 0.3882 1.5089 0.0000
v 0.3849 1.5089 0.0507
v 0.3750 1.5089 0.1005
v 0.3587 1.5089 0.1486
v 0.3362 1.5089 0.1941
v 0.3080 1.5089 0.2363
v 0.2745 1.5089 0.2745
v 0.2363 1.5089 0.3080
v 0.1941 1.5089 0.3362
v 0.1486 1.5089 0.3587
v 0.1005 1.5089 0.3750
v 0.0507 1.5089 0.3849
v 0.0000 1.5089 0.3882
v -0.0507 1.5089 0.3849
v -0.1005 1.5089 0.3750
v -0.1486 1.5089 0.3587
v -0.1941 1.5089 0.3362
v -0.2363 1.5089 0.3080
v -0.2745 1.5089 0.2745
v -0.3080 1.5089 0.2363
v -0.3362 1.5089 0.1941
v -0.3587 1.5089 0.1486
v -0.3750 1.5089 0.1005
v -0.3849 1.5089 0.0507
v -0.3882 1.5089 0.0000
v -0.3849 1.5089 -0.0507
v -0.3750 1.5089 -0.1005
v -0.3587 1.5089 -0.1486
v -0.3362 1.5089 -0.1941
v -0.3080 1.5089 -0.2363
v -0.2745 1.5089 -0.2745
v -0.2363 1.5089 -0.3080
v -0.1941 1.5089 -0.3362
v -0.1486 1.5089 -0.3587
v -0.1005 1.5089 -0.3750
v -0.0507 1.5089 -0.3849
v -0.0000 1.5089 -0.3882
v 0.0507 1.5089 -0.3849
v 0.1005 1.5089 -0.3750
v 0.1486 1.5089 -0.3587
v 0.1941 1.5089 -0.3362
v 0.2363 1.5089 -0.3080
v 0.2745 1.5089 -0.2745
v 0.3080 1.5089 -0.2363
v 0.3362 1.5089 -0.1941
v 0.3587 1.5089 -0.1486
v 0.3750 1.5089 -0.1005
v 0.3849 1.5089 -0.0507
v 0.5740 1.4458 0.0000
v 0.5691 1.4458 0.0749
v 0.5545 1.4458 0.1486
v 0.5303 1.4458 0.2197
v 0.4971 1.4458 0.2870
v 0.4554 1.4458 0.3494
v 0.4059 1.4458 0.4059
v 0.3494 1.4458 0.4554
v 0.2870 1.4458 0.4971
v 0.2197 1.4458 0.5303
v 0.1486 1.4458 0.5545
v 0.0749 1.4458 0.5691
v 0.0000 1.4458 0.5740
v -0.0749 1.4458 0.5691
v -0.1486 1.4458 0.5545
v -0.2197 1.4458 0.5303
v -0.2870 1.4458 0.4971
v -0.3494 1.4458 0.4554
v -0.4059 1.4458 0.4059
v -0.4554 1.4458 0.3494
v -0.4971 1.4458 0.2870
v -0.5303 1.4458 0.2197
v -0.5545 1.4458 0.1486
v -0.5691 1.4458 0.0749
v -0.5740 1.4458 0.0000
v -0.5691 1.4458 -0.0749
v -0.5545 1.4458 -0.1486
v -0.5303 1.4458 -0.2197
v -0.4971 1.4458 -0.2870
v -0.4554 1.4458 -0.3494
v -0.4059 1.4458 -0.4059
v -0.3494 1.4458 -0.4554
v -0.2870 1.4458 -0.4971
v -0.2197 1.4458 -0.5303
v -0.1486 1.4458 -0.5545
v -0.0749 1.4458 -0.5691
v -0.0000 1.4458 -0.5740
v 0.0749 1.4458 -0.5691
v 0.1486 1.4458 -0.5545
v 0.2197 1.4458 -0.5303
v 0.2870 1.4458 -0.4971
v 0.3494 1.4458 -0.4554
v 0.4059 1.4458 -0.4059
v 0.4554 1.4458 -0.3494
v 0.4971 1.4458 -0.2870
v 0.5303 1.4458 -0.2197
v 0.5545 1.4458 -0.1486
v 0.5691 1.4458 -0.0749
v 0.7500 1.3590 0.0000
v 0.7436 1.3590 0.0979
v 0.7244 1.3590 0.1941
v 0.6929 1.3590 0.2870
v 0.6495 1.3590 0.3750
v 0.5950 1.3590 0.4566
v 0.5303 1.3590 0.5303
v 0.4566 1.3590 0.5950
v 0.3750 1.3590 0.6495
v 0.2870 1.3590 0.6929
v 0.1941 1.3590 0.7244
v 0.0979 1.3590 0.7436
v 0.0000 1.3590 0.7500
v -0.0979 1.3590 0.7436
v -0.1941 1.3590 0.7244
v -0.2870 1.3590 0.6929
v -0.3750 1.3590 0.6495
v -0.4566 1.3590 0.5950
v -0.5303 1.3590 0.5303
v -0.5950 1.3590 0.4566
v -0.6495 1.3590 0.3750
v -0.6929 1.3590 0.2870
v -0.7244 1.3590 0.1941
v -0.7436 1.3590 0.0979
v -0.7500 1.3590 0.0000
v -0.7436 1.3590 -0.0979
v -0.7244 1.3590 -0.1941
v -0.6929 1.3590 -0.2870
v -0.6495 1.3590 -0.3750
v -0.5950 1.3590 -0.4566
v -0.5303 1.3590 -0.5303
v -0.4566 1.3590 -0.5950
v -0.3750 1.3590 -0.6495
v -0.2870 1.3590 -0.6929
v -0.1941 1.3590 -0.7244
v -0.0979 1.3590 -0.7436
v -0.0000 1.3590 -0.7500
v 0.0979 1.3590 -0.7436
v 0.1941 1.3590 -0.7244
v 0.2870 1.3590 -0.6929
v 0.3750 1.3590 -0.6495
v 0.4566 1.3590 -0.5950
v 0.5303 1.3590 -0.5303
v 0.5950 1.3590 -0.4566
v 0.6495 1.3590 -0.3750
v 0.6929 1.3590 -0.2870
v 0.7244 1.3590 -0.1941
v 0.7436 1.3590 -0.0979
v 0.9131 1.2500 0.0000
v 0.9053 1.2500 0.1192
v 0.8820 1.2500 0.2363
v 0.8436 1.2500 0.3494
v 0.7908 1.2500 0.4566
v 0.7244 1.2500 0.5559
v 0.6457 1.2500 0.6457
v 0.5559 1.2500 0.7244
v 0.4566 1.2500 0.7908
v 0.3494 1.2500 0.8436
v 0.2363 1.2500 0.8820
v 0.1192 1.2500 0.9053
v 0.0000 1.2500 0.9131
v -0.1192 1.2500 0.9053
v -0.2363 1.2500 0.8820
v -0.3494 1.2500 0.8436
v -0.4566 1.2500 0.7908
v -0.5559 1.2500 0.7244
v -0.6457 1.2500 0.6457
v -0.7244 1.2500 0.5559
v -0.7908 1.2500 0.4566
v -0.8436 1.2500 0.3494
v -0.8820 1.2500 0.2363
v -0.9053 1.2500 0.1192
v -0.9131 1.2500 0.0000
v -0.9053 1.2500 -0.1192
v -0.8820 1.2500 -0.2363
v -0.8436 1.2500 -0.3494
v -0.7908 1.2500 -0.4566
v -0.7244 1.2500 -0.5559
v -0.6457 1.2500 -0.6457
v -0.5559 1.2500 -0.7244
v -0.4566 1.2500 -0.7908
v -0.3494 1.2500 -0.8436
v -0.2363 1.2500 -0.8820
v -0.1192 1.2500 -0.9053
v -0.0000 1.2500 -0.9131
v 0.1192 1.2500 -0.9053
v 0.2363 1.2500 -0.8820
v 0.3494 1.2500 -0.8436
v 0.4566 1.2500 -0.7908
v 0.5559 1.2500 -0.7244
v 0.6457 1.2500 -0.6457
v 0.7244 1.2500 -0.5559
v 0.7908 1.2500 -0.4566
v 0.8436 1.2500 -0.3494
v 0.8820 1.2500 -0.2363
v 0.9053 1.2500 -0.1192
v 1.0607 1.1207 0.0000
v 1.0516 1.1207 0.1384
v 1.0245 1.1207 0.2745
v 0.9799 1.1207 0.4059
v 0.9186 1.1207 0.5303
v 0.8415 1.1207 0.6457
v 0.7500 1.1207 0.7500
v 0.6457 1.1207 0.8415
v 0.5303 1.1207 0.9186
v 0.4059 1.1207 0.9799
v 0.2745 1.1207 1.0245
v 0.1384 1.1207 1.0516
v 0.0000 1.1207 1.0607
v -0.1384 1.1207 1.0516
v -0.2745 1.1207 1.0245
v -0.4059 1.1207 0.9799
v -0.5303 1.1207 0.9186
v -0.6457 1.1207 0.8415
v -0.7500 1.1207 0.7500
v -0.8415 1.1207 0.6457
v -0.9186 1.1207 0.5303
v -0.9799 1.1207 0.4059
v -1.0245 1.1207 0.2745
v -1.0516 1.1207 0.1384
v -1.0607 1.1207 0.0000
v -1.0516 1.1207 -0.1384
v -1.0245 1.1207 -0.2745
v -0.9799 1.1207 -0.4059
v -0.9186 1.1207 -0.5303
v -0.8415 1.1207 -0.6457
v -0.7500 1.1207 -0.7500
v -0.6457 1.1207 -0.8415
v -0.5303 1.1207 -0.9186
v -0.4059 1.1207 -0.9799
v -0.2745 1.1207 -1.0245
v -0.1384 1.1207 -1.0516
v -0.0000 1.1207 -1.0607
v 0.1384 1.1207 -1.0516
v 0.2745 1.1207 -1.0245
v 0.4059 1.1207 -0.9799
v 0.5303 1.1207 -0.9186
v 0.6457 1.1207 -0.8415
v 0.7500 1.1207 -0.7500
v 0.8415 1.1207 -0.6457
v 0.9186 1.1207 -0.5303
v 0.9799 1.1207 -0.4059
v 1.0245 1.1207 -0.2745
v 1.0516 1.1207 -0.1384
v 1.1900 0.9731 0.0000
v 1.1798 0.9731 0.1553
v 1.1495 0.9731 0.3080
v 1.0994 0.9731 0.4554
v 1.0306 0.9731 0.5950
v 0.9441 0.9731 0.7244
v 0.8415 0.9731 0.8415
v 0.7244 0.9731 0.9441
v 0.5950 0.9731 1.0306
v 0.4554 0.9731 1.0994
v 0.3080 0.9731 1.1495
v 0.1553 0.9731 1.1798
v 0.0000 0.9731 1.1900
v -0.1553 0.9731 1.1798
v -0.3080 0.9731 1.1495
v -0.4554 0.9731 1.0994
v -0.5950 0.9731 1.0306
v -0.7244 0.9731 0.9441
v -0.8415 0.9731 0.8415
v -0.9441 0.9731 0.7244
v -1.0306 0.9731 0.5950
v -1.0994 0.9731 0.4554
v -1.1495 0.9731 0.3080
v -1.1798 0.9731 0.1553
v -1.1900 0.9731 0.0000
v -1.1798 0.9731 -0.1553
v -1.1495 0.9731 -0.3080
v -1.0994 0.9731 -0.4554
v -1.0306 0.9731 -0.5950
v -0.9441 0.9731 -0.7244
v -0.8415 0.9731 -0.8415
v -0.7244 0.9731 -0.9441
v -0.5950 0.9731 -1.0306
v -0.4554 0.9731 -1.0994
v -0.3080 0.9731 -1.1495
v -0.1553 0.9731 -1.1798
v -0.0000 0.9731 -1.1900
v 0.1553 0.9731 -1.1798
v 0.3080 0.9731 -1.1495
v 0.4554 0.9731 -1.0994
v 0.5950 0.9731 -1.0306
v 0.7244 0.9731 -0.9441
v 0.8415 0.9731 -0.8415
v 0.9441 0.9731 -0.7244
v 1.0306 0.9731 -0.5950
v 1.0994 0.9731 -0.4554
v 1.1495 0.9731 -0.3080
v 1.1798 0.9731 -0.1553
v 1.2990 0.8100 0.0000
v 1.2879 0.8100 0.1696
v 1.2548 0.8100 0.3362
v 1.2002 0.8100 0.4971
v 1.1250 0.8100 0.6495
v 1.0306 0.8100 0.7908
v 0.9186 0.8100 0.9186
v 0.7908 0.8100 1.0306
v 0.6495 0.8100 1.1250
v 0.4971 0.8100 1.2002
v 0.3362 0.8100 1.2548
v 0.1696 0.8100 1.2879
v 0.0000 0.8100 1.2990
v -0.1696 0.8100 1.2879
v -0.3362 0.8100 1.2548
v -0.4971 0.8100 1.2002
v -0.6495 0.8100 1.1250
v -0.7908 0.8100 1.0306
v -0.9186 0.8100 0.9186
v -1.0306 0.8100 0.7908
v -1.1250 0.8100 0.6495
v -1.2002 0.8100 0.4971
v -1.2548 0.8100 0.3362
v -1.2879 0.8100 0.1696
v -1.2990 0.8100 0.0000
v -1.2879 0.8100 -0.1696
v -1.2548 0.8100 -0.3362
v -1.2002 0.8100 -0.4971
v -1.1250 0.8100 -0.6495
v -1.0306 0.8100 -0.7908
v -0.9186 0.8100 -0.9186
v -0.7908 0.8100 -1.0306
v -0.6495 0.8100 -1.1250
v -0.4971 0.8100 -1.2002
v -0.3362 0.8100 -1.2548
v -0.1696 0.8100 -1.2879
v -0.0000 0.8100 -1.2990
v 0.1696 0.8100 -1.2879
v 0.3362 0.8100 -1.2548
v 0.4971 0.8100 -1.2002
v 0.6495 0.8100 -1.1250
v 0.7908 0.8100 -1.0306
v 0.9186 0.8100 -0.9186
v 1.0306 0.8100 -0.7908
v 1.1250 0.8100 -0.6495
v 1.2002 0.8100 -0.4971
v 1.2548 0.8100 -0.3362
v 1.2879 0.8100 -0.1696
v 1.3858 0.6340 0.0000
v 1.3740 0.6340 0.1809
v 1.3386 0.6340 0.3587
v 1.2803 0.6340 0.5303
v 1.2002 0.6340 0.6929
v 1.0994 0.6340 0.8436
v 0.9799 0.6340 0.9799
v 0.8436 0.6340 1.0994
v 0.6929 0.6340 1.2002
v 0.5303 0.6340 1.2803
v 0.3587 0.6340 1.3386
v 0.1809 0.6340 1.3740
v 0.0000 0.6340 1.3858
v -0.1809 0.6340 1.3740
v -0.3587 0.6340 1.3386
v -0.5303 0.6340 1.2803
v -0.6929 0.6340 1.2002
v -0.8436 0.6340 1.0994
v -0.9799 0.6340 0.9799
v -1.0994 0.6340 0.8436
v -1.2002 0.6340 0.6929
v -1.2803 0.6340 0.5303
v -1.3386 0.6340 0.3587
v -1.3740 0.6340 0.1809
v -1.3858 0.6340 0.0000
v -1.3740 0.6340 -0.1809
v -1.3386 0.6340 -0.3587
v -1.2803 0.6340 -0.5303
v -1.2002 0.6340 -0.6929
v -1.0994 0.6340 -0.8436
v -0.9799 0.6340 -0.9799
v -0.8436 0.6340 -1.0994
v -0.6929 0.6340 -1.2002
v -0.5303 0.6340 -1.2803
v -0.3587 0.6340 -1.3386
v -0.1809 0.6340 -1.3740
v -0.0000 0.6340 -1.3858
v 0.1809 0.6340 -1.3740
v 0.3587 0.6340 -1.3386
v 0.5303 0.6340 -1.2803
v 0.6929 0.6340 -1.2002
v 0.8436 0.6340 -1.0994
v 0.9799 0.6340 -0.9799
v 1.0994 0.6340 -0.8436
v 1.2002 0.6340 -0.6929
v 1.2803 0.6340 -0.5303
v 1.3386 0.6340 -0.3587
v 1.3740 0.6340 -0.1809
v 1.4489 0.4482 0.0000
v 1.4365 0.4482 0.1891
v 1.3995 0.4482 0.3750
v 1.3386 0.4482 0.5545
v 1.2548 0.4482 0.7244
v 1.1495 0.4482 0.8820
v 1.0245 0.4482 1.0245
v 0.8820 0.4482 1.1495
v 0.7244 0.4482 1.2548
v 0.5545 0.4482 1.3386
v 0.3750 0.4482 1.3995
v 0.1891 0.4482 1.4365
v 0.0000 0.4482 1.4489
v -0.1891 0.4482 1.4365
v -0.3750 0.4482 1.3995
v -0.5545 0.4482 1.3386
v -0.7244 0.4482 1.2548
v -0.8820 0.4482 1.1495
v -1.0245 0.4482 1.0245
v -1.1495 0.4482 0.8820
v -1.2548 0.4482 0.7244
v -1.3386 0.4482 0.5545
v -1.3995 0.4482 0.3750
v -1.4365 0.4482 0.1891
v -1.4489 0.4482 0.0000
v -1.4365 0.4482 -0.1891
v -1.3995 0.4482 -0.3750
v -1.3386 0.4482 -0.5545
v -1.2548 0.4482 -0.7244
v -1.1495 0.4482 -0.8820
v -1.0245 0.4482 -1.0245
v -0.8820 0.4482 -1.1495
v -0.7244 0.4482 -1.2548
v -0.5545 0.4482 -1.3386
v -0.3750 0.4482 -1.3995
v -0.1891 0.4482 -1.4365
v -0.0000 0.4482 -1.4489
v 0.1891 0.4482 -1.4365
v 0.3750 0.4482 -1.3995
v 0.5545 0.4482 -1.3386
v 0.7244 0.4482 -1.2548
v 0.8820 0.4482 -1.1495
v 1.0245 0.4482 -1.0245
v 1.1495 0.4482 -0.8820
v 1.2548 0.4482 -0.7244
v 1.3386 0.4482 -0.5545
v 1.3995 0.4482 -0.3750
v 1.4365 0.4482 -0.1891
v 1.4872 0.2558 0.0000
v 1.4744 0.2558 0.1941
v 1.4365 0.2558 0.3849
v 1.3740 0.2558 0.5691
v 1.2879 0.2558 0.7436
v 1.1798 0.2558 0.9053
v 1.0516 0.2558 1.0516
v 0.9053 0.2558 1.1798
v 0.7436 0.2558 1.2879
v 0.5691 0.2558 1.3740
v 0.3849 0.2558 1.4365
v 0.1941 0.2558 1.4744
v 0.0000 0.2558 1.4872
v -0.1941 0.2558 1.4744
v -0.3849 0.2558 1.4365
v -0.5691 0.2558 1.3740
v -0.7436 0.2558 1.2879
v -0.9053 0.2558 1.1798
v -1.0516 0.2558 1.0516
v -1.1798 0.2558 0.9053
v -1.2879 0.2558 0.7436
v -1.3740 0.2558 0.5691
v -1.4365 0.2558 0.3849
v -1.4744 0.2558 0.1941
v -1.4872 0.2558 0.0000
v -1.4744 0.2558 -0.1941
v -1.4365 0.2558 -0.3849
v -1.3740 0.2558 -0.5691
v -1.2879 0.2558 -0.7436
v -1.1798 0.2558 -0.9053
v -1.0516 0.2558 -1.0516
v -0.9053 0.2558 -1.1798
v -0.7436 0.2558 -1.2879
v -0.5691 0.2558 -1.3740
v -0.3849 0.2558 -1.4365
v -0.1941 0.2558 -1.4744
v -0.0000 0.2558 -1.4872
v 0.1941 0.2558 -1.4744
v 0.3849 0.2558 -1.4365
v 0.5691 0.2558 -1.3740
v 0.7436 0.2558 -1.2879
v 0.9053 0.2558 -1.1798
v 1.0516 0.2558 -1.0516
v 1.1798 0.2558 -0.9053
v 1.2879 0.2558 -0.7436
v 1.3740 0.2558 -0.5691
v 1.4365 0.2558 -0.3849
v 1.4744 0.2558 -0.1941
v 1.5000 0.0600 0.0000
v 1.4872 0.0600 0.1958
v 1.4489 0.0600 0.3882
v 1.3858 0.0600 0.5740
v 1.2990 0.0600 0.7500
v 1.1900 0.0600 0.9131
v 1.0607 0.0600 1.0607
v 0.9131 0.0600 1.1900
v 0.7500 0.0600 1.2990
v 0.5740 0.0600 1.3858
v 0.3882 0.0600 1.4489
v 0.1958 0.0600 1.4872
v 0.0000 0.0600 1.5000
v -0.1958 0.0600 1.4872
v -0.3882 0.0600 1.4489
v -0.5740 0.0600 1.3858
v -0.7500 0.0600 1.2990
v -0.9131 0.0600 1.1900
v -1.0607 0.0600 1.0607
v -1.1900 0.0600 0.9131
v -1.2990 0.0600 0.7500
v -1.3858 0.0600 0.5740
v -1.4489 0.0600 0.3882
v -1.4872 0.0600 0.1958
v -1.5000 0.0600 0.0000
v -1.4872 0.0600 -0.1958
v -1.4489 0.0600 -0.3882
v -1.3858 0.0600 -0.5740
v -1.2990 0.0600 -0.7500
v -1.1900 0.0600 -0.9131
v -1.0607 0.0600 -1.0607
v -0.9131 0.0600 -1.1900
v -0.7500 0.0600 -1.2990
v -0.5740 0.0600 -1.3858
v -0.3882 0.0600 -1.4489
v -0.1958 0.0600 -1.4872
v -0.0000 0.0600 -1.5000
v 0.1958 0.0600 -1.4872
v 0.3882 0.0600 -1.4489
v 0.5740 0.0600 -1.3858
v 0.7500 0.0600 -1.2990
v 0.9131 0.0600 -1.1900
v 1.0607 0.0600 -1.0607
v 1.1900 0.0600 -0.9131
v 1.2990 0.0600 -0.7500
v 1.3858 0.0600 -0.5740
v 1.4489 0.0600 -0.3882
v 1.4872 0.0600 -0.1958
v 1.4872 -0.1358 0.0000
v 1.4744 -0.1358 0.1941
v 1.4365 -0.1358 0.3849
v 1.3740 -0.1358 0.5691
v 1.2879 -0.1358 0.7436
v 1.1798 -0.1358 0.9053
v 1.0516 -0.1358 1.0516
v 0.9053 -0.1358 1.1798
v 0.7436 -0.1358 1.2879
v 0.5691 -0.1358 1.3740
v 0.3849 -0.1358 1.4365
v 0.1941 -0.1358 1.4744
v 0.0000 -0.1358 1.4872
v -0.1941 -0.1358 1.4744
v -0.3849 -0.1358 1.4365
v -0.5691 -0.1358 1.3740
v -0.7436 -0.1358 1.2879
v -0.9053 -0.1358 1.1798
v -1.0516 -0.1358 1.0516
v -1.1798 -0.1358 0.9053
v -1.2879 -0.1358 0.7436
v -1.3740 -0.1358 0.5691
v -1.4365 -0.1358 0.3849
v -1.4744 -0.1358 0.1941
v -1.4872 -0.1358 0.0000
v -1.4744 -0.1358 -0.1941
v -1.4365 -0.1358 -0.3849
v -1.3740 -0.1358 -0.5691
v -1.2879 -0.1358 -0.7436
v -1.1798 -0.1358 -0.9053
v -1.0516 -0.1358 -1.0516
v -0.9053 -0.1358 -1.1798
v -0.7436 -0.1358 -1.2879
v -0.5691 -0.1358 -1.3740
v -0.3849 -0.1358 -1.4365
v -0.1941 -0.1358 -1.4744
v -0.0000 -0.1358 -1.4872
v 0.1941 -0.1358 -1.4744
v 0.3849 -0.1358 -1.4365
v 0.5691 -0.1358 -1.3740
v 0.7436 -0.1358 -1.2879
v 0.9053 -0.1358 -1.1798
v 1.0516 -0.1358 -1.0516
v 1.1798 -0.1358 -0.9053
v 1.2879 -0.1358 -0.7436
v 1.3740 -0.1358 -0.5691
v 1.4365 -0.1358 -0.3849
v 1.4744 -0.1358 -0.1941
v 1.4489 -0.3282 0.0000
v 1.4365 -0.3282 0.1891
v 1.3995 -0.3282 0.3750
v 1.3386 -0.3282 0.5545
v 1.2548 -0.3282 0.7244
v 1.1495 -0.3282 0.8820
v 1.0245 -0.3282 1.0245
v 0.8820 -0.3282 1.1495
v 0.7244 -0.3282 1.2548
v 0.5545 -0.3282 1.3386
v 0.3750 -0.3282 1.3995
v 0.1891 -0.3282 1.4365
v 0.0000 -0.3282 1.4489
v -0.1891 -0.3282 1.4365
v -0.3750 -0.3282 1.3995
v -0.5545 -0.3282 1.3386
v -0.7244 -0.3282 1.2548
v -0.8820 -0.3282 1.1495
v -1.0245 -0.3282 1.0245
v -1.1495 -0.3282 0.8820
v -1.2548 -0.3282 0.7244
v -1.3386 -0.3282 0.5545
v -1.3995 -0.3282 0.3750
v -1.4365 -0.3282 0.1891
v -1.4489 -0.3282 0.0000
v -1.4365 -0.3282 -0.1891
v -1.3995 -0.3282 -0.3750
v -1.3386 -0.3282 -0.5545
v -1.2548 -0.3282 -0.7244
v -1.1495 -0.3282 -0.8820
v -1.0245 -0.3282 -1.0245
v -0.8820 -0.3282 -1.1495
v -0.7244 -0.3282 -1.2548
v -0.5545 -0.3282 -1.3386
v -0.3750 -0.3282 -1.3995
v -0.1891 -0.3282 -1.4365
v -0.0000 -0.3282 -1.4489
v 0.1891 -0.3282 -1.4365
v 0.3750 -0.3282 -1.3995
v 0.5545 -0.3282 -1.3386
v 0.7244 -0.3282 -1.2548
v 0.8820 -0.3282 -1.1495
v 1.0245 -0.3282 -1.0245
v 1.1495 -0.3282 -0.8820
v 1.2548 -0.3282 -0.7244
v 1.3386 -0.3282 -0.5545
v 1.3995 -0.3282 -0.3750
v 1.4365 -0.3282 -0.1891
v 1.3858 -0.5140 0.0000
v 1.3740 -0.5140 0.1809
v 1.3386 -0.5140 0.3587
v 1.2803 -0.5140 0.5303
v 1.2002 -0.5140 0.6929
v 1.0994 -0.5140 0.8436
v 0.9799 -0.5140 0.9799
v 0.8436 -0.5140 1.0994
v 0.6929 -0.5140 1.2002
v 0.5303 -0.5140 1.2803
v 0.3587 -0.5140 1.3386
v 0.1809 -0.5140 1.3740
v 0.0000 -0.5140 1.3858
v -0.1809 -0.5140 1.3740
v -0.3587 -0.5140 1.3386
v -0.5303 -0.5140 1.2803
v -0.6929 -0.5140 1.2002
v -0.8436 -0.5140 1.0994
v -0.9799 -0.5140 0.9799
v -1.0994 -0.5140 0.8436
v -1.2002 -0.5140 0.6929
v -1.2803 -0.5140 0.5303
v -1.3386 -0.5140 0.3587
v -1.3740 -0.5140 0.1809
v -1.3858 -0.5140 0.0000
v -1.3740 -0.5140 -0.1809
v -1.3386 -0.5140 -0.3587
v -1.2803 -0.5140 -0.5303
v -1.2002 -0.5140 -0.6929
v -1.0994 -0.5140 -0.8436
v -0.9799 -0.5140 -0.9799
v -0.8436 -0.5140 -1.0994
v -0.6929 -0.5140 -1.2002
v -0.5303 -0.5140 -1.2803
v -0.3587 -0.5140 -1.3386
v -0.1809 -0.5140 -1.3740
v -0.0000 -0.5140 -1.3858
v 0.1809 -0.5140 -1.3740
v 0.3587 -0.5140 -1.3386
v 0.5303 -0.5140 -1.2803
v 0.6929 -0.5140 -1.2002
v 0.8436 -0.5140 -1.0994
v 0.9799 -0.5140 -0.9799
v 1.0994 -0.5140 -0.8436
v 1.2002 -0.5140 -0.6929
v 1.2803 -0.5140 -0.5303
v 1.3386 -0.5140 -0.3587
v 1.3740 -0.5140 -0.1809
v 1.2990 -0.6900 0.0000
v 1.2879 -0.6900 0.1696
v 1.2548 -0.6900 0.3362
v 1.2002 -0.6900 0.4971
v 1.1250 -0.6900 0.6495
v 1.0306 -0.6900 0.7908
v 0.9186 -0.6900 0.9186
v 0.7908 -0.6900 1.0306
v 0.6495 -0.6900 1.1250
v 0.4971 -0.6900 1.2002
v 0.3362 -0.6900 1.2548
v 0.1696 -0.6900 1.2879
v 0.0000 -0.6900 1.2990
v -0.1696 -0.6900 1.2879
v -0.3362 -0.6900 1.2548
v -0.4971 -0.6900 1.2002
v -0.6495 -0.6900 1.1250
v -0.7908 -0.6900 1.0306
v -0.9186 -0.6900 0.9186
v -1.0306 -0.6900 0.7908
v -1.1250 -0.6900 0.6495
v -1.2002 -0.6900 0.4971
v -1.2548 -0.6900 0.3362
v -1.2879 -0.6900 0.1696
v -1.2990 -0.6900 0.0000
v -1.2879 -0.6900 -0.1696
v -1.2548 -0.6900 -0.3362
v -1.2002 -0.6900 -0.4971
v -1.1250 -0.6900 -0.6495
v -1.0306 -0.6900 -0.7908
v -0.9186 -0.6900 -0.9186
v -0.7908 -0.6900 -1.0306
v -0.6495 -0.6900 -1.1250
v -0.4971 -0.6900 -1.2002
v -0.3362 -0.6900 -1.2548
v -0.1696 -0.6900 -1.2879
v -0.0000 -0.6900 -1.2990
v 0.1696 -0.6900 -1.2879
v 0.3362 -0.6900 -1.2548
v 0.4971 -0.6900 -1.2002
v 0.6495 -0.6900 -1.1250
v 0.7908 -0.6900 -1.0306
v 0.9186 -0.6900 -0.9186
v 1.0306 -0.6900 -0.7908
v 1.1250 -0.6900 -0.6495
v 1.2002 -0.6900 -0.4971
v 1.2548 -0.6900 -0.3362
v 1.2879 -0.6900 -0.1696
v 1.1900 -0.8531 0.0000
v 1.1798 -0.8531 0.1553
v 1.1495 -0.8531 0.3080
v 1.0994 -0.8531 0.4554
v 1.0306 -0.8531 0.5950
v 0.9441 -0.8531 0.7244
v 0.8415 -0.8531 0.8415
v 0.7244 -0.8531 0.9441
v 0.5950 -0.8531 1.0306
v 0.4554 -0.8531 1.0994
v 0.3080 -0.8531 1.1495
v 0.1553 -0.8531 1.1798
v 0.0000 -0.8531 1.1900
v -0.1553 -0.8531 1.1798
v -0.3080 -0.8531 1.1495
v -0.4554 -0.8531 1.0994
v -0.5950 -0.8531 1.0306
v -0.7244 -0.8531 0.9441
v -0.8415 -0.8531 0.8415
v -0.9441 -0.8531 0.7244
v -1.0306 -0.8531 0.5950
v -1.0994 -0.8531 0.4554
v -1.1495 -0.8531 0.3080
v -1.1798 -0.8531 0.1553
v -1.1900 -0.8531 0.0000
v -1.1798 -0.8531 -0.1553
v -1.1495 -0.8531 -0.3080
v -1.0994 -0.8531 -0.4554
v -1.0306 -0.8531 -0.5950
v -0.9441 -0.8531 -0.7244
v -0.8415 -0.8531 -0.8415
v -0.7244 -0.8531 -0.9441
v -0.5950 -0.8531 -1.0306
v -0.4554 -0.8531 -1.0994
v -0.3080 -0.8531 -1.1495
v -0.1553 -0.8531 -1.1798
v -0.0000 -0.8531 -1.1900
v 0.1553 -0.8531 -1.1798
v 0.3080 -0.8531 -1.1495
v 0.4554 -0.8531 -1.0994
v 0.5950 -0.8531 -1.0306
v 0.7244 -0.8531 -0.9441
v 0.8415 -0.8531 -0.8415
v 0.9441 -0.8531 -0.7244
v 1.0306 -0.8531 -0.5950
v 1.0994 -0.8531 -0.4554
v 1.1495 -0.8531 -0.3080
v 1.1798 -0.8531 -0.1553
v 1.0607 -1.0007 0.0000
v 1.0516 -1.0007 0.1384
v 1.0245 -1.0007 0.2745
v 0.9799 -1.0007 0.4059
v 0.9186 -1.0007 0.5303
v 0.8415 -1.0007 0.6457
v 0.7500 -1.0007 0.7500
v 0.6457 -1.0007 0.8415
v 0.5303 -1.0007 0.9186
v 0.4059 -1.0007 0.9799
v 0.2745 -1.0007 1.0245
v 0.1384 -1.0007 1.0516
v 0.0000 -1.0007 1.0607
v -0.1384 -1.0007 1.0516
v -0.2745 -1.0007 1.0245
v -0.4059 -1.0007 0.9799
v -0.5303 -1.0007 0.9186
v -0.6457 -1.0007 0.8415
v -0.7500 -1.0007 0.7500
v -0.8415 -1.0007 0.6457
v -0.9186 -1.0007 0.5303
v -0.9799 -1.0007 0.4059
v -1.0245 -1.0007 0.2745
v -1.0516 -1.0007 0.1384
v -1.0607 -1.0007 0.0000
v -1.0516 -1.0007 -0.1384
v -1.0245 -1.0007 -0.2745
v -0.9799 -1.0007 -0.4059
v -0.9186 -1.0007 -0.5303
v -0.8415 -1.0007 -0.6457
v -0.7500 -1.0007 -0.7500
v -0.6457 -1.0007 -0.8415
v -0.5303 -1.0007 -0.9186
v -0.4059 -1.0007 -0.9799
v -0.2745 -1.0007 -1.0245
v -0.1384 -1.0007 -1.0516
v -0.0000 -1.0007 -1.0607
v 0.1384 -1.0007 -1.0516
v 0.2745 -1.0007 -1.0245
v 0.4059 -1.0007 -0.9799
v 0.5303 -1.0007 -0.9186
v 0.6457 -1.0007 -0.8415
v 0.7500 -1.0007 -0.7500
v 0.8415 -1.0007 -0.6457
v 0.9186 -1.0007 -0.5303
v 0.9799 -1.0007 -0.4059
v 1.0245 -1.0007 -0.2745
v 1.0516 -1.0007 -0.1384
v 0.9131 -1.1300 0.0000
v 0.9053 -1.1300 0.1192
v 0.8820 -1.1300 0.2363
v 0.8436 -1.1300 0.3494
v 0.7908 -1.1300 0.4566
v 0.7244 -1.1300 0.5559
v 0.6457 -1.1300 0.6457
v 0.5559 -1.1300 0.7244
v 0.4566 -1.1300 0.7908
v 0.3494 -1.1300 0.8436
v 0.2363 -1.1300 0.8820
v 0.1192 -1.1300 0.9053
v 0.0000 -1.1300 0.9131
v -0.1192 -1.1300 0.9053
v -0.2363 -1.1300 0.8820
v -0.3494 -1.1300 0.8436
v -0.4566 -1.1300 0.7908
v -0.5559 -1.1300 0.7244
v -0.6457 -1.1300 0.6457
v -0.7244 -1.1300 0.5559
v -0.7908 -1.1300 0.4566
v -0.8436 -1.1300 0.3494
v -0.8820 -1.1300 0.2363
v -0.9053 -1.1300 0.1192
v -0.9131 -1.1300 0.0000
v -0.9053 -1.1300 -0.1192
v -0.8820 -1.1300 -0.2363
v -0.8436 -1.1300 -0.3494
v -0.7908 -1.1300 -0.4566
v -0.7244 -1.1300 -0.5559
v -0.6457 -1.1300 -0.6457
v -0.5559 -1.1300 -0.7244
v -0.4566 -1.1300 -0.7908
v -0.3494 -1.1300 -0.8436
v -0.2363 -1.1300 -0.8820
v -0.1192 -1.1300 -0.9053
v -0.0000 -1.1300 -0.9131
v 0.1192 -1.1300 -0.9053
v 0.2363 -1.1300 -0.8820
v 0.3494 -1.1300 -0.8436
v 0.4566 -1.1300 -0.7908
v 0.5559 -1.1300 -0.7244
v 0.6457 -1.1300 -0.6457
v 0.7244 -1.1300 -0.5559
v 0.7908 -1.1300 -0.4566
v 0.8436 -1.1300 -0.3494
v 0.8820 -1.1300 -0.2363
v 0.9053 -1.1300 -0.1192
v 0.7500 -1.2390 0.0000
v 0.7436 -1.2390 0.0979
v 0.7244 -1.2390 0.1941
v 0.6929 -1.2390 0.2870
v 0.6495 -1.2390 0.3750
v 0.5950 -1.2390 0.4566
v 0.5303 -1.2390 0.5303
v 0.4566 -1.2390 0.5950
v 0.3750 -1.2390 0.6495
v 0.2870 -1.2390 0.6929
v 0.1941 -1.2390 0.7244
v 0.0979 -1.2390 0.7436
v 0.0000 -1.2390 0.7500
v -0.0979 -1.2390 0.7436
v -0.1941 -1.2390 0.7244
v -0.2870 -1.2390 0.6929
v -0.3750 -1.2390 0.6495
v -0.4566 -1.2390 0.5950
v -0.5303 -1.2390 0.5303
v -0.5950 -1.2390 0.4566
v -0.6495 -1.2390 0.3750
v -0.6929 -1.2390 0.2870
v -0.7244 -1.2390 0.1941
v -0.7436 -1.2390 0.0979
v -0.7500 -1.2390 0.0000
v -0.7436 -1.2390 -0.0979
v -0.7244 -1.2390 -0.1941
v -0.6929 -1.2390 -0.2870
v -0.6495 -1.2390 -0.3750
v -0.5950 -1.2390 -0.4566
v -0.5303 -1.2390 -0.5303
v -0.4566 -1.2390 -0.5950
v -0.3750 -1.2390 -0.6495
v -0.2870 -1.2390 -0.6929
v -0.1941 -1.2390 -0.7244
v -0.0979 -1.2390 -0.7436
v -0.0000 -1.2390 -0.7500
v 0.0979 -1.2390 -0.7436
v 0.1941 -1.2390 -0.7244
v 0.2870 -1.2390 -0.6929
v 0.3750 -1.2390 -0.6495
v 0.4566 -1.2390 -0.5950
v 0.5303 -1.2390 -0.5303
v 0.5950 -1.2390 -0.4566
v 0.6495 -1.2390 -0.3750
v 0.6929 -1.2390 -0.2870
v 0.7244 -1.2390 -0.1941
v 0.7436 -1.2390 -0.0979
v 0.5740 -1.3258 0.0000
v 0.5691 -1.3258 0.0749
v 0.5545 -1.3258 0.1486
v 0.5303 -1.3258 0.2197
v 0.4971 -1.3258 0.2870
v 0.4554 -1.3258 0.3494
v 0.4059 -1.3258 0.4059
v 0.3494 -1.3258 0.4554
v 0.2870 -1.3258 0.4971
v 0.2197 -1.3258 0.5303
v 0.1486 -1.3258 0.5545
v 0.0749 -1.3258 0.5691
v 0.0000 -1.3258 0.5740
v -0.0749 -1.3258 0.5691
v -0.1486 -1.3258 0.5545
v -0.2197 -1.3258 0.5303
v -0.2870 -1.3258 0.4971
v -0.3494 -1.3258 0.4554
v -0.4059 -1.3258 0.4059
v -0.4554 -1.3258 0.3494
v -0.4971 -1.3258 0.2870
v -0.5303 -1.3258 0.2197
v -0.5545 -1.3258 0.1486
v -0.5691 -1.3258 0.0749
v -0.5740 -1.3258 0.0000
v -0.5691 -1.3258 -0.0749
v -0.5545 -1.3258 -0.1486
v -0.5303 -1.3258 -0.2197
v -0.4971 -1.3258 -0.2870
v -0.4554 -1.3258 -0.3494
v -0.4059 -1.3258 -0.4059
v -0.3494 -1.3258 -0.4554
v -0.2870 -1.3258 -0.4971
v -0.2197 -1.3258 -0.5303
v -0.1486 -1.3258 -0.5545
v -0.0749 -1.3258 -0.5691
v -0.0000 -1.3258 -0.5740
v 0.0749 -1.3258 -0.5691
v 0.1486 -1.3258 -0.5545
v 0.2197 -1.3258 -0.5303
v 0.2870 -1.3258 -0.4971
v 0.3494 -1.3258 -0.4554
v 0.4059 -1.3258 -0.4059
v 0.4554 -1.3258 -0.3494
v 0.4971 -1.3258 -0.2870
v 0.5303 -1.3258 -0.2197
v 0.5545 -1.3258 -0.1486
v 0.5691 -1.3258 -0.0749
v 0.3882 -1.3889 0.0000
v 0.3849 -1.3889 0.0507
v 0.3750 -1.3889 0.1005
v 0.3587 -1.3889 0.1486
v 0.3362 -1.3889 0.1941
v 0.3080 -1.3889 0.2363
v 0.2745 -1.3889 0.2745
v 0.2363 -1.3889 0.3080
v 0.1941 -1.3889 0.3362
v 0.1486 -1.3889 0.3587
v 0.1005 -1.3889 0.3750
v 0.0507 -1.3889 0.3849
v 0.0000 -1.3889 0.3882
v -0.0507 -1.3889 0.3849
v -0.1005 -1.3889 0.3750
v -0.1486 -1.3889 0.3587
v -0.1941 -1.3889 0.3362
v -0.2363 -1.3889 0.3080
v -0.2745 -1.3889 0.2745
v -0.3080 -1.3889 0.2363
v -0.3362 -1.3889 0.1941
v -0.3587 -1.3889 0.1486
v -0.3750 -1.3889 0.1005
v -0.3849 -1.3889 0.0507
v -0.3882 -1.3889 0.0000
v -0.3849 -1.3889 -0.0507
v -0.3750 -1.3889 -0.1005
v -0.3587 -1.3889 -0.1486
v -0.3362 -1.3889 -0.1941
v -0.3080 -1.3889 -0.2363
v -0.2745 -1.3889 -0.2745
v -0.2363 -1.3889 -0.3080
v -0.1941 -1.3889 -0.3362
v -0.1486 -1.3889 -0.3587
v -0.1005 -1.3889 -0.3750
v -0.0507 -1.3889 -0.3849
v -0.0000 -1.3889 -0.3882
v 0.0507 -1.3889 -0.3849
v 0.1005 -1.3889 -0.3750
v 0.1486 -1.3889 -0.3587
v 0.1941 -1.3889 -0.3362
v 0.2363 -1.3889 -0.3080
v 0.2745 -1.3889 -0.2745
v 0.3080 -1.3889 -0.2363
v 0.3362 -1.3889 -0.1941
v 0.3587 -1.3889 -0.1486
v 0.3750 -1.3889 -0.1005
v 0.3849 -1.3889 -0.0507
v 0.1958 -1.4272 0.0000
v 0.1941 -1.4272 0.0256
v 0.1891 -1.4272 0.0507
v 0.1809 -1.4272 0.0749
v 0.1696 -1.4272 0.0979
v 0.1553 -1.4272 0.1192
v 0.1384 -1.4272 0.1384
v 0.1192 -1.4272 0.1553
v 0.0979 -1.4272 0.1696
v 0.0749 -1.4272 0.1809
v 0.0507 -1.4272 0.1891
v 0.0256 -1.4272 0.1941
v 0.0000 -1.4272 0.1958
v -0.0256 -1.4272 0.1941
v -0.0507 -1.4272 0.1891
v -0.0749 -1.4272 0.1809
v -0.0979 -1.4272 0.1696
v -0.1192 -1.4272 0.1553
v -0.1384 -1.4272 0.1384
v -0.1553 -1.4272 0.1192
v -0.1696 -1.4272 0.0979
v -0.1809 -1.4272 0.0749
v -0.1891 -1.4272 0.0507
v -0.1941 -1.4272 0.0256
v -0.1958 -1.4272 0.0000
v -0.1941 -1.4272 -0.0256
v -0.1891 -1.4272 -0.0507
v -0.1809 -1.4272 -0.0749
v -0.1696 -1.4272 -0.0979
v -0.1553 -1.4272 -0.1192
v -0.1384 -1.4272 -0.1384
v -0.1192 -1.4272 -0.1553
v -0.0979 -1.4272 -0.1696
v -0.0749 -1.4272 -0.1809
v -0.0507 -1.4272 -0.1891
v -0.0256 -1.4272 -0.1941
v -0.0000 -1.4272 -0.1958
v 0.0256 -1.4272 -0.1941
v 0.0507 -1.4272 -0.1891
v 0.0749 -1.4272 -0.1809
v 0.0979 -1.4272 -0.1696
v 0.1192 -1.4272 -0.1553
v 0.1384 -1.4272 -0.1384
v 0.1553 -1.4272 -0.1192
v 0.1696 -1.4272 -0.0979
v 0.1809 -1.4272 -0.0749
v 0.1891 -1.4272 -0.0507
v 0.1941 -1.4272 -0.0256
v 0.0000 -1.4400 0.0000
v 0.0000 -1.4400 0.0000
v 0.0000 -1.4400 0.0000
v 0.0000 -1.4400 0.0000
v 0.0000 -1.4400 0.0000
v 0.0000 -1.4400 0.0000
v 0.0000 -1.4400 0.0000
v 0.0000 -1.4400 0.0000
v 0.0000 -1.4400 0.0000
v 0.0000 -1.4400 0.0000
v 0.0000 -1.4400 0.0000
v 0.0000 -1.4400 0.0000
v 0.0000 -1.4400 0.0000
v -0.0000 -1.4400 0.0000
v -0.0000 -1.4400 0.0000
v -0.0000 -1.4400 0.0000
v -0.0000 -1.4400 0.0000
v -0.0000 -1.4400 0.0000
v -0.0000 -1.4400 0.0000
v -0.0000 -1.4400 0.0000
v -0.0000 -1.4400 0.0000
v -0.0000 -1.4400 0.0000
v -0.0000 -1.4400 0.0000
v -0.0000 -1.4400 0.0000
v -0.0000 -1.4400 0.0000
v -0.0000 -1.4400 -0.0000
v -0.0000 -1.4400 -0.0000
v -0.0000 -1.4400 -0.0000
v -0.0000 -1.4400 -0.0000
v -0.0000 -1.4400 -0.0000
v -0.0000 -1.4400 -0.0000
v -0.0000 -1.4400 -0.0000
v -0.0000 -1.4400 -0.0000
v -0.0000 -1.4400 -0.0000
v -0.0000 -1.4400 -0.0000
v -0.0000 -1.4400 -0.0000
v -0.0000 -1.4400 -0.0000
v 0.0000 -1.4400 -0.0000
v 0.0000 -1.4400 -0.0000
v 0.0000 -1.4400 -0.0000
v 0.0000 -1.4400 -0.0000
v 0.0000 -1.4400 -0.0000
v 0.0000 -1.4400 -0.0000
v 0.0000 -1.4400 -0.0000
v 0.0000 -1.4400 -0.0000
v 0.0000 -1.4400 -0.0000
v 0.0000 -1.4400 -0.0000
v 0.0000 -1.4400 -0.0000
f 1 49 2
f 2 49 50
f 2 50 3
f 3 50 51
f 3 51 4
f 4 51 52
f 4 52 5
f 5 52 53
f 5 53 6
f 6 53 54
f 6 54 7
f 7 54 55
f 7 55 8
f 8 55 56
f 8 56 9
f 9 56 57
f 9 57 10
f 10 57 58
f 10 58 11
f 11 58 59
f 11 59 12
f 12 59 60
f 12 60 13
f 13 60 61
f 13 61 14
f 14 61 62
f 14 62 15
f 15 62 63
f 15 63 16
f 16 63 64
f 16 64 17
f 17 64 65
f 17 65 18
f 18 65 66
f 18 66 19
f 19 66 67
f 19 67 20
f 20 67 68
f 20 68 21
f 21 68 69
f 21 69 22
f 22 69 70
f 22 70 23
f 23 70 71
f 23 71 24
f 24 71 72
f 24 72 25
f 25 72 73
f 25 73 26
f 26 73 74
f 26 74 27
f 27 74 75
f 27 75 28
f 28 75 76
f 28 76 29
f 29 76 77
f 29 77 30
f 30 77 78
f 30 78 31
f 31 78 79
f 31 79 32
f 32 79 80
f 32 80 33
f 33 80 81
f 33 81 34
f 34 81 82
f 34 82 35
f 35 82 83
f 35 83 36
f 36 83 84
f 36 84 37
f 37 84 85
f 37 85 38
f 38 85 86
f 38 86 39
f 39 86 87
f 39 87 40
f 40 87 88
f 40 88 41
f 41 88 89
f 41 89 42
f 42 89 90
f 42 90 43
f 43 90 91
f 43 91 44
f 44 91 92
f 44 92 45
f 45 92 93
f 45 93 46
f 46 93 94
f 46 94 47
f 47 94 95
f 47 95 48
f 48 95 96
f 48 96 1
f 1 96 49
f 49 97 50
f 50 97 98
f 50 98 51
f 51 98 99
f 51 99 52
f 52 99 100
f 52 100 53
f 53 100 101
f 53 101 54
f 54 101 102
f 54 102 55
f 55 102 103
f 55 103 56
f 56 103 104
f 56 104 57
f 57 104 105
f 57 105 58
f 58 105 106
f 58 106 59
f 59 106 107
f 59 107 60
f 60 107 108
f 60 108 61
f 61 108 109
f 61 109 62
f 62 109 110
f 62 110 63
f 63 110 111
f 63 111 64
f 64 111 112
f 64 112 65
f 65 112 113
f 65 113 66
f 66 113 114
f 66 114 67
f 67 114 115
f 67 115 68
f 68 115 116
f 68 116 69
f 69 116 117
f 69 117 70
f 70 117 118
f 70 118 71
f 71 118 119
f 71 119 72
f 72 119 120
f 72 120 73
f 73 120 121
f 73 121 74
f 74 121 122
f 74 122 75
f 75 122 123
f 75 123 76
f 76 123 124
f 76 124 77
f 77 124 125
f 77 125 78
f 78 125 126
f 78 126 79
f 79 126 127
f 79 127 80
f 80 127 128
f 80 128 81
f 81 128 129
f 81 129 82
f 82 129 130
f 82 130 83
f 83 130 131
f 83 131 84
f 84 131 132
f 84 132 85
f 85 132 133
f 85 133 86
f 86 133 134
f 86 134 87
f 87 134 135
f 87 135 88
f 88 135 136
f 88 136 89
f 89 136 137
f 89 137 90
f 90 137 138
f 90 138 91
f 91 138 139
f 91 139 92
f 92 139 140
f 92 140 93
f 93 140 141
f 93 141 94
f 94 141 142
f 94 142 95
f 95 142 143
f 95 143 96
f 96 143 144
f 96 144 49
f 49 144 97
f 97 145 98
f 98 145 146
f 98 146 99
f 99 146 147
f 99 147 100
f 100 147 148
f 100 148 101
f 101 148 149
f 101 149 102
f 102 149 150
f 102 150 103
f 103 150 151
f 103 151 104
f 104 151 152
f 104 152 105
f 105 152 153
f 105 153 106
f 106 153 154
f 106 154 107
f 107 154 155
f 107 155 108
f 108 155 156
f 108 156 109
f 109 156 157
f 109 157 110
f 110 157 158
f 110 158 111
f 111 158 159
f 111 159 112
f 112 159 160
f 112 160 113
f 113 160 161
f 113 161 114
f 114 161 162
f 114 162 115
f 115 162 163
f 115 163 116
f 116 163 164
f 116 164 117
f 117 164 165
f 117 165 118
f 118 165 166
f 118 166 119
f 119 166 167
f 119 167 120
f 120 167 168
f 120 168 121
f 121 168 169
f 121 169 122
f 122 169 170
f 122 170 123
f 123 170 171
f 123 171 124
f 124 171 172
f 124 172 125
f 125 172 173
f 125 173 126
f 126 173 174
f 126 174 127
f 127 174 175
f 127 175 128
f 128 175 176
f 128 176 129
f 129 176 177
f 129 177 130
f 130 177 178
f 130 178 131
f 131 178 179
f 131 179 132
f 132 179 180
f 132 180 133
f 133 180 181
f 133 181 134
f 134 181 182
f 134 182 135
f 135 182 183
f 135 183 136
f 136 183 184
f 136 184 137
f 137 184 185
f 137 185 138
f 138 185 186
f 138 186 139
f 139 186 187
f 139 187 140
f 140 187 188
f 140 188 141
f 141 188 189
f 141 189 142
f 142 189 190
f 142 190 143
f 143 190 191
f 143 191 144
f 144 191 192
f 144 192 97
f 97 192 145
f 145 193 146
f 146 193 194
f 146 194 147
f 147 194 195
f 147 195 148
f 148 195 196
f 148 196 149
f 149 196 197
f 149 197 150
f 150 197 198
f 150 198 151
f 151 198 199
f 151 199 152
f 152 199 200
f 152 200 153
f 153 200 201
f 153 201 154
f 154 201 202
f 154 202 155
f 155 202 203
f 155 203 156
f 156 203 204
f 156 204 157
f 157 204 205
f 157 205 158
f 158 205 206
f 158 206 159
f 159 206 207
f 159 207 160
f 160 207 208
f 160 208 161
f 161 208 209
f 161 209 162
f 162 209 210
f 162 210 163
f 163 210 211
f 163 211 164
f 164 211 212
f 164 212 165
f 165 212 213
f 165 213 166
f 166 213 214
f 166 214 167
f 167 214 215
f 167 215 168
f 168 215 216
f 168 216 169
f 169 216 217
f 169 217 170
f 170 217 218
f 170 218 171
f 171 218 219
f 171 219 172
f 172 219 220
f 172 220 173
f 173 220 221
f 173 221 174
f 174 221 222
f 174 222 175
f 175 222 223
f 175 223 176
f 176 223 224
f 176 224 177
f 177 224 225
f 177 225 178
f 178 225 226
f 178 226 179
f 179 226 227
f 179 227 180
f 180 227 228
f 180 228 181
f 181 228 229
f 181 229 182
f 182 229 230
f 182 230 183
f 183 230 231
f 183 231 184
f 184 231 232
f 184 232 185
f 185 232 233
f 185 233 186
f 186 233 234
f 186 234 187
f 187 234 235
f 187 235 188
f 188 235 236
f 188 236 189
f 189 236 237
f 189 237 190
f 190 237 238
f 190 238 191
f 191 238 239
f 191 239 192
f 192 239 240
f 192 240 145
f 145 240 193
f 193 241 194
f 194 241 242
f 194 242 195
f 195 242 243
f 195 243 196
f 196 243 244
f 196 244 197
f 197 244 245
f 197 245 198
f 198 245 246
f 198 246 199
f 199 246 247
f 199 247 200
f 200 247 248
f 200 248 201
f 201 248 249
f 201 249 202
f 202 249 250
f 202 250 203
f 203 250 251
f 203 251 204
f 204 251 252
f 204 252 205
f 205 252 253
f 205 253 206
f 206 253 254
f 206 254 207
f 207 254 255
f 207 255 208
f 208 255 256
f 208 256 209
f 209 256 257
f 209 257 210
f 210 257 258
f 210 258 211
f 211 258 259
f 211 259 212
f 212 259 260
f 212 260 213
f 213 260 261
f 213 261 214
f 214 261 262
f 214 262 215
f 215 262 263
f 215 263 216
f 216 263 264
f 216 264 217
f 217 264 265
f 217 265 218
f 218 265 266
f 218 266 219
f 219 266 267
f 219 267 220
f 220 267 268
f 220 268 221
f 221 268 269
f 221 269 222
f 222 269 270
f 222 270 223
f 223 270 271
f 223 271 224
f 224 271 272
f 224 272 225
f 225 272 273
f 225 273 226
f 226 273 274
f 226 274 227
f 227 274 275
f 227 275 228
f 228 275 276
f 228 276 229
f 229 276 277
f 229 277 230
f 230 277 278
f 230 278 231
f 231 278 279
f 231 279 232
f 232 279 280
f 232 280 233
f 233 280 281
f 233 281 234
f 234 281 282
f 234 282 235
f 235 282 283
f 235 283 236
f 236 283 284
f 236 284 237
f 237 284 285
f 237 285 238
f 238 285 286
f 238 286 239
f 239 286 287
f 239 287 240
f 240 287 288
f 240 288 193
f 193 288 241
f 241 289 242
f 242 289 290
f 242 290 243
f 243 290 291
f 243 291 244
f 244 291 292
f 244 292 245
f 245 292 293
f 245 293 246
f 246 293 294
f 246 294 247
f 247 294 295
f 247 295 248
f 248 295 296
f 248 296 249
f 249 296 297
f 249 297 250
f 250 297 298
f 250 298 251
f 251 298 299
f 251 299 252
f 252 299 300
f 252 300 253
f 253 300 301
f 253 301 254
f 254 301 302
f 254 302 255
f 255 302 303
f 255 303 256
f 256 303 304
f 256 304 257
f 257 304 305
f 257 305 258
f 258 305 306
f 258 306 259
f 259 306 307
f 259 307 260
f 260 307 308
f 260 308 261
f 261 308 309
f 261 309 262
f 262 309 310
f 262 310 263
f 263 310 311
f 263 311 264
f 264 311 312
f 264 312 265
f 265 312 313
f 265 313 266
f 266 313 314
f 266 314 267
f 267 314 315
f 267 315 268
f 268 315 316
f 268 316 269
f 269 316 317
f 269 317 270
f 270 317 318
f 270 318 271
f 271 318 319
f 271 319 272
f 272 319 320
f 272 320 273
f 273 320 321
f 273 321 274
f 274 321 322
f 274 322 275
f 275 322 323
f 275 323 276
f 276 323 324
f 276 324 277
f 277 324 325
f 277 325 278
f 278 325 326
f 278 326 279
f 279 326 327
f 279 327 280
f 280 327 328
f 280 328 281
f 281 328 329
f 281 329 282
f 282 329 330
f 282 330 283
f 283 330 331
f 283 331 284
f 284 331 332
f 284 332 285
f 285 332 333
f 285 333 286
f 286 333 334
f 286 334 287
f 287 334 335
f 287 335 288
f 288 335 336
f 288 336 241
f 241 336 289
f 289 337 290
f 290 337 338
f 290 338 291
f 291 338 339
f 291 339 292
f 292 339 340
f 292 340 293
f 293 340 341
f 293 341 294
f 294 341 342
f 294 342 295
f 295 342 343
f 295 343 296
f 296 343 344
f 296 344 297
f 297 344 345
f 297 345 298
f 298 345 346
f 298 346 299
f 299 346 347
f 299 347 300
f 300 347 348
f 300 348 301
f 301 348 349
f 301 349 302
f 302 349 350
f 302 350 303
f 303 350 351
f 303 351 304
f 304 351 352
f 304 352 305
f 305 352 353
f 305 353 306
f 306 353 354
f 306 354 307
f 307 354 355
f 307 355 308
f 308 355 356
f 308 356 309
f 309 356 357
f 309 357 310
f 310 357 358
f 310 358 311
f 311 358 359
f 311 359 312
f 312 359 360
f 312 360 313
f 313 360 361
f 313 361 314
f 314 361 362
f 314 362 315
f 315 362 363
f 315 363 316
f 316 363 364
f 316 364 317
f 317 364 365
f 317 365 318
f 318 365 366
f 318 366 319
f 319 366 367
f 319 367 320
f 320 367 368
f 320 368 321
f 321 368 369
f 321 369 322
f 322 369 370
f 322 370 323
f 323 370 371
f 323 371 324
f 324 371 372
f 324 372 325
f 325 372 373
f 325 373 326
f 326 373 374
f 326 374 327
f 327 374 375
f 327 375 328
f 328 375 376
f 328 376 329
f 329 376 377
f 329 377 330
f 330 377 378
f 330 378 331
f 331 378 379
f 331 379 332
f 332 379 380
f 332 380 333
f 333 380 381
f 333 381 334
f 334 381 382
f 334 382 335
f 335 382 383
f 335 383 336
f 336 383 384
f 336 384 289
f 289 384 337
f 337 385 338
f 338 385 386
f 338 386 339
f 339 386 387
f 339 387 340
f 340 387 388
f 340 388 341
f 341 388 389
f 341 389 342
f 342 389 390
f 342 390 343
f 343 390 391
f 343 391 344
f 344 391 392
f 344 392 345
f 345 392 393
f 345 393 346
f 346 393 394
f 346 394 347
f 347 394 395
f 347 395 348
f 348 395 396
f 348 396 349
f 349 396 397
f 349 397 350
f 350 397 398
f 350 398 351
f 351 398 399
f 351 399 352
f 352 399 400
f 352 400 353
f 353 400 401
f 353 401 354
f 354 401 402
f 354 402 355
f 355 402 403
f 355 403 356
f 356 403 404
f 356 404 357
f 357 404 405
f 357 405 358
f 358 405 406
f 358 406 359
f 359 406 407
f 359 407 360
f 360 407 408
f 360 408 361
f 361 408 409
f 361 409 362
f 362 409 410
f 362 410 363
f 363 410 411
f 363 411 364
f 364 411 412
f 364 412 365
f 365 412 413
f 365 413 366
f 366 413 414
f 366 414 367
f 367 414 415
f 367 415 368
f 368 415 416
f 368 416 369
f 369 416 417
f 369 417 370
f 370 417 418
f 370 418 371
f 371 418 419
f 371 419 372
f 372 419 420
f 372 420 373
f 373 420 421
f 373 421 374
f 374 421 422
f 374 422 375
f 375 422 423
f 375 423 376
f 376 423 424
f 376 424 377
f 377 424 425
f 377 425 378
f 378 425 426
f 378 426 379
f 379 426 427
f 379 427 380
f 380 427 428
f 380 428 381
f 381 428 429
f 381 429 382
f 382 429 430
f 382 430 383
f 383 430 431
f 383 431 384
f 384 431 432
f 384 432 337
f 337 432 385
f 385 433 386
f 386 433 434
f 386 434 387
f 387 434 435
f 387 435 388
f 388 435 436
f 388 436 389
f 389 436 437
f 389 437 390
f 390 437 438
f 390 438 391
f 391 438 439
f 391 439 392
f 392 439 440
f 392 440 393
f 393 440 441
f 393 441 394
f 394 441 442
f 394 442 395
f 395 442 443
f 395 443 396
f 396 443 444
f 396 444 397
f 397 444 445
f 397 445 398
f 398 445 446
f 398 446 399
f 399 446 447
f 399 447 400
f 400 447 448
f 400 448 401
f 401 448 449
f 401 449 402
f 402 449 450
f 402 450 403
f 403 450 451
f 403 451 404
f 404 451 452
f 404 452 405
f 405 452 453
f 405 453 406
f 406 453 454
f 406 454 407
f 407 454 455
f 407 455 408
f 408 455 456
f 408 456 409
f 409 456 457
f 409 457 410
f 410 457 458
f 410 458 411
f 411 458 459
f 411 459 412
f 412 459 460
f 412 460 413
f 413 460 461
f 413 461 414
f 414 461 462
f 414 462 415
f 415 462 463
f 415 463 416
f 416 463 464
f 416 464 417
f 417 464 465
f 417 465 418
f 418 465 466
f 418 466 419
f 419 466 467
f 419 467 420
f 420 467 468
f 420 468 421
f 421 468 469
f 421 469 422
f 422 469 470
f 422 470 423
f 423 470 471
f 423 471 424
f 424 471 472
f 424 472 425
f 425 472 473
f 425 473 426
f 426 473 474
f 426 474 427
f 427 474 475
f 427 475 428
f 428 475 476
f 428 476 429
f 429 476 477
f 429 477 430
f 430 477 478
f 430 478 431
f 431 478 479
f 431 479 432
f 432 479 480
f 432 480 385
f 385 480 433
f 433 481 434
f 434 481 482
f 434 482 435
f 435 482 483
f 435 483 436
f 436 483 484
f 436 484 437
f 437 484 485
f 437 485 438
f 438 485 486
f 438 486 439
f 439 486 487
f 439 487 440
f 440 487 488
f 440 488 441
f 441 488 489
f 441 489 442
f 442 489 490
f 442 490 443
f 443 490 491
f 443 491 444
f 444 491 492
f 444 492 445
f 445 492 493
f 445 493 446
f 446 493 494
f 446 494 447
f 447 494 495
f 447 495 448
f 448 495 496
f 448 496 449
f 449 496 497
f 449 497 450
f 450 497 498
f 450 498 451
f 451 498 499
f 451 499 452
f 452 499 500
f 452 500 453
f 453 500 501
f 453 501 454
f 454 501 502
f 454 502 455
f 455 502 503
f 455 503 456
f 456 503 504
f 456 504 457
f 457 504 505
f 457 505 458
f 458 505 506
f 458 506 459
f 459 506 507
f 459 507 460
f 460 507 508
f 460 508 461
f 461 508 509
f 461 509 462
f 462 509 510
f 462 510 463
f 463 510 511
f 463 511 464
f 464 511 512
f 464 512 465
f 465 512 513
f 465 513 466
f 466 513 514
f 466 514 467
f 467 514 515
f 467 515 468
f 468 515 516
f 468 516 469
f 469 516 517
f 469 517 470
f 470 517 518
f 470 518 471
f 471 518 519
f 471 519 472
f 472 519 520
f 472 520 473
f 473 520 521
f 473 521 474
f 474 521 522
f 474 522 475
f 475 522 523
f 475 523 476
f 476 523 524
f 476 524 477
f 477 524 525
f 477 525 478
f 478 525 526
f 478 526 479
f 479 526 527
f 479 527 480
f 480 527 528
f 480 528 433
f 433 528 481
f 481 529 482
f 482 529 530
f 482 530 483
f 483 530 531
f 483 531 484
f 484 531 532
f 484 532 485
f 485 532 533
f 485 533 486
f 486 533 534
f 486 534 487
f 487 534 535
f 487 535 488
f 488 535 536
f 488 536 489
f 489 536 537
f 489 537 490
f 490 537 538
f 490 538 491
f 491 538 539
f 491 539 492
f 492 539 540
f 492 540 493
f 493 540 541
f 493 541 494
f 494 541 542
f 494 542 495
f 495 542 543
f 495 543 496
f 496 543 544
f 496 544 497
f 497 544 545
f 497 545 498
f 498 545 546
f 498 546 499
f 499 546 547
f 499 547 500
f 500 547 548
f 500 548 501
f 501 548 549
f 501 549 502
f 502 549 550
f 502 550 503
f 503 550 551
f 503 551 504
f 504 551 552
f 504 552 505
f 505 552 553
f 505 553 506
f 506 553 554
f 506 554 507
f 507 554 555
f 507 555 508
f 508 555 556
f 508 556 509
f 509 556 557
f 509 557 510
f 510 557 558
f 510 558 511
f 511 558 559
f 511 559 512
f 512 559 560
f 512 560 513
f 513 560 561
f 513 561 514
f 514 561 562
f 514 562 515
f 515 562 563
f 515 563 516
f 516 563 564
f 516 564 517
f 517 564 565
f 517 565 518
f 518 565 566
f 518 566 519
f 519 566 567
f 519 567 520
f 520 567 568
f 520 568 521
f 521 568 569
f 521 569 522
f 522 569 570
f 522 570 523
f 523 570 571
f 523 571 524
f 524 571 572
f 524 572 525
f 525 572 573
f 525 573 526
f 526 573 574
f 526 574 527
f 527 574 575
f 527 575 528
f 528 575 576
f 528 576 481
f 481 576 529
f 529 577 530
f 530 577 578
f 530 578 531
f 531 578 579
f 531 579 532
f 532 579 580
f 532 580 533
f 533 580 581
f 533 581 534
f 534 581 582
f 534 582 535
f 535 582 583
f 535 583 536
f 536 583 584
f 536 584 537
f 537 584 585
f 537 585 538
f 538 585 586
f 538 586 539
f 539 586 587
f 539 587 540
f 540 587 588
f 540 588 541
f 541 588 589
f 541 589 542
f 542 589 590
f 542 590 543
f 543 590 591
f 543 591 544
f 544 591 592
f 544 592 545
f 545 592 593
f 545 593 546
f 546 593 594
f 546 594 547
f 547 594 595
f 547 595 548
f 548 595 596
f 548 596 549
f 549 596 597
f 549 597 550
f 550 597 598
f 550 598 551
f 551 598 599
f 551 599 552
f 552 599 600
f 552 600 553
f 553 600 601
f 553 601 554
f 554 601 602
f 554 602 555
f 555 602 603
f 555 603 556
f 556 603 604
f 556 604 557
f 557 604 605
f 557 605 558
f 558 605 606
f 558 606 559
f 559 606 607
f 559 607 560
f 560 607 608
f 560 608 561
f 561 608 609
f 561 609 562
f 562 609 610
f 562 610 563
f 563 610 611
f 563 611 564
f 564 611 612
f 564 612 565
f 565 612 613
f 565 613 566
f 566 613 614
f 566 614 567
f 567 614 615
f 567 615 568
f 568 615 616
f 568 616 569
f 569 616 617
f 569 617 570
f 570 617 618
f 570 618 571
f 571 618 619
f 571 619 572
f 572 619 620
f 572 620 573
f 573 620 621
f 573 621 574
f 574 621 622
f 574 622 575
f 575 622 623
f 575 623 576
f 576 623 624
f 576 624 529
f 529 624 577
f 577 625 578
f 578 625 626
f 578 626 579
f 579 626 627
f 579 627 580
f 580 627 628
f 580 628 581
f 581 628 629
f 581 629 582
f 582 629 630
f 582 630 583
f 583 630 631
f 583 631 584
f 584 631 632
f 584 632 585
f 585 632 633
f 585 633 586
f 586 633 634
f 586 634 587
f 587 634 635
f 587 635 588
f 588 635 636
f 588 636 589
f 589 636 637
f 589 637 590
f 590 637 638
f 590 638 591
f 591 638 639
f 591 639 592
f 592 639 640
f 592 640 593
f 593 640 641
f 593 641 594
f 594 641 642
f 594 642 595
f 595 642 643
f 595 643 596
f 596 643 644
f 596 644 597
f 597 644 645
f 597 645 598
f 598 645 646
f 598 646 599
f 599 646 647
f 599 647 600
f 600 647 648
f 600 648 601
f 601 648 649
f 601 649 602
f 602 649 650
f 602 650 603
f 603 650 651
f 603 651 604
f 604 651 652
f 604 652 605
f 605 652 653
f 605 653 606
f 606 653 654
f 606 654 607
f 607 654 655
f 607 655 608
f 608 655 656
f 608 656 609
f 609 656 657
f 609 657 610
f 610 657 658
f 610 658 611
f 611 658 659
f 611 659 612
f 612 659 660
f 612 660 613
f 613 660 661
f 613 661 614
f 614 661 662
f 614 662 615
f 615 662 663
f 615 663 616
f 616 663 664
f 616 664 617
f 617 664 665
f 617 665 618
f 618 665 666
f 618 666 619
f 619 666 667
f 619 667 620
f 620 667 668
f 620 668 621
f 621 668 669
f 621 669 622
f 622 669 670
f 622 670 623
f 623 670 671
f 623 671 624
f 624 671 672
f 624 672 577
f 577 672 625
f 625 673 626
f 626 673 674
f 626 674 627
f 627 674 675
f 627 675 628
f 628 675 676
f 628 676 629
f 629 676 677
f 629 677 630
f 630 677 678
f 630 678 631
f 631 678 679
f 631 679 632
f 632 679 680
f 632 680 633
f 633 680 681
f 633 681 634
f 634 681 682
f 634 682 635
f 635 682 683
f 635 683 636
f 636 683 684
f 636 684 637
f 637 684 685
f 637 685 638
f 638 685 686
f 638 686 639
f 639 686 687
f 639 687 640
f 640 687 688
f 640 688 641
f 641 688 689
f 641 689 642
f 642 689 690
f 642 690 643
f 643 690 691
f 643 691 644
f 644 691 692
f 644 692 645
f 645 692 693
f 645 693 646
f 646 693 694
f 646 694 647
f 647 694 695
f 647 695 648
f 648 695 696
f 648 696 649
f 649 696 697
f 649 697 650
f 650 697 698
f 650 698 651
f 651 698 699
f 651 699 652
f 652 699 700
f 652 700 653
f 653 700 701
f 653 701 654
f 654 701 702
f 654 702 655
f 655 702 703
f 655 703 656
f 656 703 704
f 656 704 657
f 657 704 705
f 657 705 658
f 658 705 706
f 658 706 659
f 659 706 707
f 659 707 660
f 660 707 708
f 660 708 661
f 661 708 709
f 661 709 662
f 662 709 710
f 662 710 663
f 663 710 711
f 663 711 664
f 664 711 712
f 664 712 665
f 665 712 713
f 665 713 666
f 666 713 714
f 666 714 667
f 667 714 715
f 667 715 668
f 668 715 716
f 668 716 669
f 669 716 717
f 669 717 670
f 670 717 718
f 670 718 671
f 671 718 719
f 671 719 672
f 672 719 720
f 672 720 625
f 625 720 673
f 673 721 674
f 674 721 722
f 674 722 675
f 675 722 723
f 675 723 676
f 676 723 724
f 676 724 677
f 677 724 725
f 677 725 678
f 678 725 726
f 678 726 679
f 679 726 727
f 679 727 680
f 680 727 728
f 680 728 681
f 681 728 729
f 681 729 682
f 682 729 730
f 682 730 683
f 683 730 731
f 683 731 684
f 684 731 732
f 684 732 685
f 685 732 733
f 685 733 686
f 686 733 734
f 686 734 687
f 687 734 735
f 687 735 688
f 688 735 736
f 688 736 689
f 689 736 737
f 689 737 690
f 690 737 738
f 690 738 691
f 691 738 739
f 691 739 692
f 692 739 740
f 692 740 693
f 693 740 741
f 693 741 694
f 694 741 742
f 694 742 695
f 695 742 743
f 695 743 696
f 696 743 744
f 696 744 697
f 697 744 745
f 697 745 698
f 698 745 746
f 698 746 699
f 699 746 747
f 699 747 700
f 700 747 748
f 700 748 701
f 701 748 749
f 701 749 702
f 702 749 750
f 702 750 703
f 703 750 751
f 703 751 704
f 704 751 752
f 704 752 705
f 705 752 753
f 705 753 706
f 706 753 754
f 706 754 707
f 707 754 755
f 707 755 708
f 708 755 756
f 708 756 709
f 709 756 757
f 709 757 710
f 710 757 758
f 710 758 711
f 711 758 759
f 711 759 712
f 712 759 760
f 712 760 713
f 713 760 761
f 713 761 714
f 714 761 762
f 714 762 715
f 715 762 763
f 715 763 716
f 716 763 764
f 716 764 717
f 717 764 765
f 717 765 718
f 718 765 766
f 718 766 719
f 719 766 767
f 719 767 720
f 720 767 768
f 720 768 673
f 673 768 721
f 721 769 722
f 722 769 770
f 722 770 723
f 723 770 771
f 723 771 724
f 724 771 772
f 724 772 725
f 725 772 773
f 725 773 726
f 726 773 774
f 726 774 727
f 727 774 775
f 727 775 728
f 728 775 776
f 728 776 729
f 729 776 777
f 729 777 730
f 730 777 778
f 730 778 731
f 731 778 779
f 731 779 732
f 732 779 780
f 732 780 733
f 733 780 781
f 733 781 734
f 734 781 782
f 734 782 735
f 735 782 783
f 735 783 736
f 736 783 784
f 736 784 737
f 737 784 785
f 737 785 738
f 738 785 786
f 738 786 739
f 739 786 787
f 739 787 740
f 740 787 788
f 740 788 741
f 741 788 789
f 741 789 742
f 742 789 790
f 742 790 743
f 743 790 791
f 743 791 744
f 744 791 792
f 744 792 745
f 745 792 793
f 745 793 746
f 746 793 794
f 746 794 747
f 747 794 795
f 747 795 748
f 748 795 796
f 748 796 749
f 749 796 797
f 749 797 750
f 750 797 798
f 750 798 751
f 751 798 799
f 751 799 752
f 752 799 800
f 752 800 753
f 753 800 801
f 753 801 754
f 754 801 802
f 754 802 755
f 755 802 803
f 755 803 756
f 756 803 804
f 756 804 757
f 757 804 805
f 757 805 758
f 758 805 806
f 758 806 759
f 759 806 807
f 759 807 760
f 760 807 808
f 760 808 761
f 761 808 809
f 761 809 762
f 762 809 810
f 762 810 763
f 763 810 811
f 763 811 764
f 764 811 812
f 764 812 765
f 765 812 813
f 765 813 766
f 766 813 814
f 766 814 767
f 767 814 815
f 767 815 768
f 768 815 816
f 768 816 721
f 721 816 769
f 769 817 770
f 770 817 818
f 770 818 771
f 771 818 819
f 771 819 772
f 772 819 820
f 772 820 773
f 773 820 821
f 773 821 774
f 774 821 822
f 774 822 775
f 775 822 823
f 775 823 776
f 776 823 824
f 776 824 777
f 777 824 825
f 777 825 778
f 778 825 826
f 778 826 779
f 779 826 827
f 779 827 780
f 780 827 828
f 780 828 781
f 781 828 829
f 781 829 782
f 782 829 830
f 782 830 783
f 783 830 831
f 783 831 784
f 784 831 832
f 784 832 785
f 785 832 833
f 785 833 786
f 786 833 834
f 786 834 787
f 787 834 835
f 787 835 788
f 788 835 836
f 788 836 789
f 789 836 837
f 789 837 790
f 790 837 838
f 790 838 791
f 791 838 839
f 791 839 792
f 792 839 840
f 792 840 793
f 793 840 841
f 793 841 794
f 794 841 842
f 794 842 795
f 795 842 843
f 795 843 796
f 796 843 844
f 796 844 797
f 797 844 845
f 797 845 798
f 798 845 846
f 798 846 799
f 799 846 847
f 799 847 800
f 800 847 848
f 800 848 801
f 801 848 849
f 801 849 802
f 802 849 850
f 802 850 803
f 803 850 851
f 803 851 804
f 804 851 852
f 804 852 805
f 805 852 853
f 805 853 806
f 806 853 854
f 806 854 807
f 807 854 855
f 807 855 808
f 808 855 856
f 808 856 809
f 809 856 857
f 809 857 810
f 810 857 858
f 810 858 811
f 811 858 859
f 811 859 812
f 812 859 860
f 812 860 813
f 813 860 861
f 813 861 814
f 814 861 862
f 814 862 815
f 815 862 863
f 815 863 816
f 816 863 864
f 816 864 769
f 769 864 817
f 817 865 818
f 818 865 866
f 818 866 819
f 819 866 867
f 819 867 820
f 820 867 868
f 820 868 821
f 821 868 869
f 821 869 822
f 822 869 870
f 822 870 823
f 823 870 871
f 823 871 824
f 824 871 872
f 824 872 825
f 825 872 873
f 825 873 826
f 826 873 874
f 826 874 827
f 827 874 875
f 827 875 828
f 828 875 876
f 828 876 829
f 829 876 877
f 829 877 830
f 830 877 878
f 830 878 831
f 831 878 879
f 831 879 832
f 832 879 880
f 832 880 833
f 833 880 881
f 833 881 834
f 834 881 882
f 834 882 835
f 835 882 883
f 835 883 836
f 836 883 884
f 836 884 837
f 837 884 885
f 837 885 838
f 838 885 886
f 838 886 839
f 839 886 887
f 839 887 840
f 840 887 888
f 840 888 841
f 841 888 889
f 841 889 842
f 842 889 890
f 842 890 843
f 843 890 891
f 843 891 844
f 844 891 892
f 844 892 845
f 845 892 893
f 845 893 846
f 846 893 894
f 846 894 847
f 847 894 895
f 847 895 848
f 848 895 896
f 848 896 849
f 849 896 897
f 849 897 850
f 850 897 898
f 850 898 851
f 851 898 899
f 851 899 852
f 852 899 900
f 852 900 853
f 853 900 901
f 853 901 854
f 854 901 902
f 854 902 855
f 855 902 903
f 855 903 856
f 856 903 904
f 856 904 857
f 857 904 905
f 857 905 858
f 858 905 906
f 858 906 859
f 859 906 907
f 859 907 860
f 860 907 908
f 860 908 861
f 861 908 909
f 861 909 862
f 862 909 910
f 862 910 863
f 863 910 911
f 863 911 864
f 864 911 912
f 864 912 817
f 817 912 865
f 865 913 866
f 866 913 914
f 866 914 867
f 867 914 915
f 867 915 868
f 868 915 916
f 868 916 869
f 869 916 917
f 869 917 870
f 870 917 918
f 870 918 871
f 871 918 919
f 871 919 872
f 872 919 920
f 872 920 873
f 873 920 921
f 873 921 874
f 874 921 922
f 874 922 875
f 875 922 923
f 875 923 876
f 876 923 924
f 876 924 877
f 877 924 925
f 877 925 878
f 878 925 926
f 878 926 879
f 879 926 927
f 879 927 880
f 880 927 928
f 880 928 881
f 881 928 929
f 881 929 882
f 882 929 930
f 882 930 883
f 883 930 931
f 883 931 884
f 884 931 932
f 884 932 885
f 885 932 933
f 885 933 886
f 886 933 934
f 886 934 887
f 887 934 935
f 887 935 888
f 888 935 936
f 888 936 889
f 889 936 937
f 889 937 890
f 890 937 938
f 890 938 891
f 891 938 939
f 891 939 892
f 892 939 940
f 892 940 893
f 893 940 941
f 893 941 894
f 894 941 942
f 894 942 895
f 895 942 943
f 895 943 896
f 896 943 944
f 896 944 897
f 897 944 945
f 897 945 898
f 898 945 946
f 898 946 899
f 899 946 947
f 899 947 900
f 900 947 948
f 900 948 901
f 901 948 949
f 901 949 902
f 902 949 950
f 902 950 903
f 903 950 951
f 903 951 904
f 904 951 952
f 904 952 905
f 905 952 953
f 905 953 906
f 906 953 954
f 906 954 907
f 907 954 955
f 907 955 908
f 908 955 956
f 908 956 909
f 909 956 957
f 909 957 910
f 910 957 958
f 910 958 911
f 911 958 959
f 911 959 912
f 912 959 960
f 912 960 865
f 865 960 913
f 913 961 914
f 914 961 962
f 914 962 915
f 915 962 963
f 915 963 916
f 916 963 964
f 916 964 917
f 917 964 965
f 917 965 918
f 918 965 966
f 918 966 919
f 919 966 967
f 919 967 920
f 920 967 968
f 920 968 921
f 921 968 969
f 921 969 922
f 922 969 970
f 922 970 923
f 923 970 971
f 923 971 924
f 924 971 972
f 924 972 925
f 925 972 973
f 925 973 926
f 926 973 974
f 926 974 927
f 927 974 975
f 927 975 928
f 928 975 976
f 928 976 929
f 929 976 977
f 929 977 930
f 930 977 978
f 930 978 931
f 931 978 979
f 931 979 932
f 932 979 980
f 932 980 933
f 933 980 981
f 933 981 934
f 934 981 982
f 934 982 935
f 935 982 983
f 935 983 936
f 936 983 984
f 936 984 937
f 937 984 985
f 937 985 938
f 938 985 986
f 938 986 939
f 939 986 987
f 939 987 940
f 940 987 988
f 940 988 941
f 941 988 989
f 941 989 942
f 942 989 990
f 942 990 943
f 943 990 991
f 943 991 944
f 944 991 992
f 944 992 945
f 945 992 993
f 945 993 946
f 946 993 994
f 946 994 947
f 947 994 995
f 947 995 948
f 948 995 996
f 948 996 949
f 949 996 997
f 949 997 950
f 950 997 998
f 950 998 951
f 951 998 999
f 951 999 952
f 952 999 1000
f 952 1000 953
f 953 1000 1001
f 953 1001 954
f 954 1001 1002
f 954 1002 955
f 955 1002 1003
f 955 1003 956
f 956 1003 1004
f 956 1004 957
f 957 1004 1005
f 957 1005 958
f 958 1005 1006
f 958 1006 959
f 959 1006 1007
f 959 1007 960
f 960 1007 1008
f 960 1008 913
f 913 1008 961
f 961 1009 962
f 962 1009 1010
f 962 1010 963
f 963 1010 1011
f 963 1011 964
f 964 1011 1012
f 964 1012 965
f 965 1012 1013
f 965 1013 966
f 966 1013 1014
f 966 1014 967
f 967 1014 1015
f 967 1015 968
f 968 1015 1016
f 968 1016 969
f 969 1016 1017
f 969 1017 970
f 970 1017 1018
f 970 1018 971
f 971 1018 1019
f 971 1019 972
f 972 1019 1020
f 972 1020 973
f 973 1020 1021
f 973 1021 974
f 974 1021 1022
f 974 1022 975
f 975 1022 1023
f 975 1023 976
f 976 1023 1024
f 976 1024 977
f 977 1024 1025
f 977 1025 978
f 978 1025 1026
f 978 1026 979
f 979 1026 1027
f 979 1027 980
f 980 1027 1028
f 980 1028 981
f 981 1028 1029
f 981 1029 982
f 982 1029 1030
f 982 1030 983
f 983 1030 1031
f 983 1031 984
f 984 1031 1032
f 984 1032 985
f 985 1032 1033
f 985 1033 986
f 986 1033 1034
f 986 1034 987
f 987 1034 1035
f 987 1035 988
f 988 1035 1036
f 988 1036 989
f 989 1036 1037
f 989 1037 990
f 990 1037 1038
f 990 1038 991
f 991 1038 1039
f 991 1039 992
f 992 1039 1040
f 992 1040 993
f 993 1040 1041
f 993 1041 994
f 994 1041 1042
f 994 1042 995
f 995 1042 1043
f 995 1043 996
f 996 1043 1044
f 996 1044 997
f 997 1044 1045
f 997 1045 998
f 998 1045 1046
f 998 1046 999
f 999 1046 1047
f 999 1047 1000
f 1000 1047 1048
f 1000 1048 1001
f 1001 1048 1049
f 1001 1049 1002
f 1002 1049 1050
f 1002 1050 1003
f 1003 1050 1051
f 1003 1051 1004
f 1004 1051 1052
f 1004 1052 1005
f 1005 1052 1053
f 1005 1053 1006
f 1006 1053 1054
f 1006 1054 1007
f 1007 1054 1055
f 1007 1055 1008
f 1008 1055 1056
f 1008 1056 961
f 961 1056 1009
f 1009 1057 1010
f 1010 1057 1058
f 1010 1058 1011
f 1011 1058 1059
f 1011 1059 1012
f 1012 1059 1060
f 1012 1060 1013
f 1013 1060 1061
f 1013 1061 1014
f 1014 1061 1062
f 1014 1062 1015
f 1015 1062 1063
f 1015 1063 1016
f 1016 1063 1064
f 1016 1064 1017
f 1017 1064 1065
f 1017 1065 1018
f 1018 1065 1066
f 1018 1066 1019
f 1019 1066 1067
f 1019 1067 1020
f 1020 1067 1068
f 1020 1068 1021
f 1021 1068 1069
f 1021 1069 1022
f 1022 1069 1070
f 1022 1070 1023
f 1023 1070 1071
f 1023 1071 1024
f 1024 1071 1072
f 1024 1072 1025
f 1025 1072 1073
f 1025 1073 1026
f 1026 1073 1074
f 1026 1074 1027
f 1027 1074 1075
f 1027 1075 1028
f 1028 1075 1076
f 1028 1076 1029
f 1029 1076 1077
f 1029 1077 1030
f 1030 1077 1078
f 1030 1078 1031
f 1031 1078 1079
f 1031 1079 1032
f 1032 1079 1080
f 1032 1080 1033
f 1033 1080 1081
f 1033 1081 1034
f 1034 1081 1082
f 1034 1082 1035
f 1035 1082 1083
f 1035 1083 1036
f 1036 1083 1084
f 1036 1084 1037
f 1037 1084 1085
f 1037 1085 1038
f 1038 1085 1086
f 1038 1086 1039
f 1039 1086 1087
f 1039 1087 1040
f 1040 1087 1088
f 1040 1088 1041
f 1041 1088 1089
f 1041 1089 1042
f 1042 1089 1090
f 1042 1090 1043
f 1043 1090 1091
f 1043 1091 1044
f 1044 1091 1092
f 1044 1092 1045
f 1045 1092 1093
f 1045 1093 1046
f 1046 1093 1094
f 1046 1094 1047
f 1047 1094 1095
f 1047 1095 1048
f 1048 1095 1096
f 1048 1096 1049
f 1049 1096 1097
f 1049 1097 1050
f 1050 1097 1098
f 1050 1098 1051
f 1051 1098 1099
f 1051 1099 1052
f 1052 1099 1100
f 1052 1100 1053
f 1053 1100 1101
f 1053 1101 1054
f 1054 1101 1102
f 1054 1102 1055
f 1055 1102 1103
f 1055 1103 1056
f 1056 1103 1104
f 1056 1104 1009
f 1009 1104 1057
f 1057 1105 1058
f 1058 1105 1106
f 1058 1106 1059
f 1059 1106 1107
f 1059 1107 1060
f 1060 1107 1108
f 1060 1108 1061
f 1061 1108 1109
f 1061 1109 1062
f 1062 1109 1110
f 1062 1110 1063
f 1063 1110 1111
f 1063 1111 1064
f 1064 1111 1112
f 1064 1112 1065
f 1065 1112 1113
f 1065 1113 1066
f 1066 1113 1114
f 1066 1114 1067
f 1067 1114 1115
f 1067 1115 1068
f 1068 1115 1116
f 1068 1116 1069
f 1069 1116 1117
f 1069 1117 1070
f 1070 1117 1118
f 1070 1118 1071
f 1071 1118 1119
f 1071 1119 1072
f 1072 1119 1120
f 1072 1120 1073
f 1073 1120 1121
f 1073 1121 1074
f 1074 1121 1122
f 1074 1122 1075
f 1075 1122 1123
f 1075 1123 1076
f 1076 1123 1124
f 1076 1124 1077
f 1077 1124 1125
f 1077 1125 1078
f 1078 1125 1126
f 1078 1126 1079
f 1079 1126 1127
f 1079 1127 1080
f 1080 1127 1128
f 1080 1128 1081
f 1081 1128 1129
f 1081 1129 1082
f 1082 1129 1130
f 1082 1130 1083
f 1083 1130 1131
f 1083 1131 1084
f 1084 1131 1132
f 1084 1132 1085
f 1085 1132 1133
f 1085 1133 1086
f 1086 1133 1134
f 1086 1134 1087
f 1087 1134 1135
f 1087 1135 1088
f 1088 1135 1136
f 1088 1136 1089
f 1089 1136 1137
f 1089 1137 1090
f 1090 1137 1138
f 1090 1138 1091
f 1091 1138 1139
f 1091 1139 1092
f 1092 1139 1140
f 1092 1140 1093
f 1093 1140 1141
f 1093 1141 1094
f 1094 1141 1142
f 1094 1142 1095
f 1095 1142 1143
f 1095 1143 1096
f 1096 1143 1144
f 1096 1144 1097
f 1097 1144 1145
f 1097 1145 1098
f 1098 1145 1146
f 1098 1146 1099
f 1099 1146 1147
f 1099 1147 1100
f 1100 1147 1148
f 1100 1148 1101
f 1101 1148 1149
f 1101 1149 1102
f 1102 1149 1150
f 1102 1150 1103
f 1103 1150 1151
f 1103 1151 1104
f 1104 1151 1152
f 1104 1152 1057
f 1057 1152 1105
f 1105 1153 1106
f 1106 1153 1154
f 1106 1154 1107
f 1107 1154 1155
f 1107 1155 1108
f 1108 1155 1156
f 1108 1156 1109
f 1109 1156 1157
f 1109 1157 1110
f 1110 1157 1158
f 1110 1158 1111
f 1111 1158 1159
f 1111 1159 1112
f 1112 1159 1160
f 1112 1160 1113
f 1113 1160 1161
f 1113 1161 1114
f 1114 1161 1162
f 1114 1162 1115
f 1115 1162 1163
f 1115 1163 1116
f 1116 1163 1164
f 1116 1164 1117
f 1117 1164 1165
f 1117 1165 1118
f 1118 1165 1166
f 1118 1166 1119
f 1119 1166 1167
f 1119 1167 1120
f 1120 1167 1168
f 1120 1168 1121
f 1121 1168 1169
f 1121 1169 1122
f 1122 1169 1170
f 1122 1170 1123
f 1123 1170 1171
f 1123 1171 1124
f 1124 1171 1172
f 1124 1172 1125
f 1125 1172 1173
f 1125 1173 1126
f 1126 1173 1174
f 1126 1174 1127
f 1127 1174 1175
f 1127 1175 1128
f 1128 1175 1176
f 1128 1176 1129
f 1129 1176 1177
f 1129 1177 1130
f 1130 1177 1178
f 1130 1178 1131
f 1131 1178 1179
f 1131 1179 1132
f 1132 1179 1180
f 1132 1180 1133
f 1133 1180 1181
f 1133 1181 1134
f 1134 1181 1182
f 1134 1182 1135
f 1135 1182 1183
f 1135 1183 1136
f 1136 1183 1184
f 1136 1184 1137
f 1137 1184 1185
f 1137 1185 1138
f 1138 1185 1186
f 1138 1186 1139
f 1139 1186 1187
f 1139 1187 1140
f 1140 1187 1188
f 1140 1188 1141
f 1141 1188 1189
f 1141 1189 1142
f 1142 1189 1190
f 1142 1190 1143
f 1143 1190 1191
f 1143 1191 1144
f 1144 1191 1192
f 1144 1192 1145
f 1145 1192 1193
f 1145 1193 1146
f 1146 1193 1194
f 1146 1194 1147
f 1147 1194 1195
f 1147 1195 1148
f 1148 1195 1196
f 1148 1196 1149
f 1149 1196 1197
f 1149 1197 1150
f 1150 1197 1198
f 1150 1198 1151
f 1151 1198 1199
f 1151 1199 1152
f 1152 1199 1200
f 1152 1200 1105
f 1105 1200 1153
