# two painted bands, to see it spin
v 0.5476 1.8558 -0.0996
v 0.5476 1.8558 0.0996
v 0.6492 1.8104 -0.1181
v 0.6492 1.8104 0.1181
v 0.7472 1.7574 -0.1360
v 0.7472 1.7574 0.1360
v 0.8410 1.6972 -0.1530
v 0.8410 1.6972 0.1530
v 0.9301 1.6300 -0.1692
v 0.9301 1.6300 0.1692
v 1.0140 1.5563 -0.1845
v 1.0140 1.5563 0.1845
v 1.0924 1.4763 -0.1988
v 1.0924 1.4763 0.1988
v 1.1646 1.3907 -0.2119
v 1.1646 1.3907 0.2119
v 1.2303 1.2999 -0.2239
v 1.2303 1.2999 0.2239
v 1.2892 1.2043 -0.2346
v 1.2892 1.2043 0.2346
v 1.3410 1.1045 -0.2440
v 1.3410 1.1045 0.2440
v 1.3852 1.0011 -0.2521
v 1.3852 1.0011 0.2521
v 1.4218 0.8946 -0.2587
v 1.4218 0.8946 0.2587
v 1.4505 0.7856 -0.2639
v 1.4505 0.7856 0.2639
v 1.4710 0.6748 -0.2677
v 1.4710 0.6748 0.2677
v 1.4834 0.5627 -0.2699
v 1.4834 0.5627 0.2699
v 1.4876 0.4500 -0.2707
v 1.4876 0.4500 0.2707
v 1.4834 0.3373 -0.2699
v 1.4834 0.3373 0.2699
v 1.4710 0.2252 -0.2677
v 1.4710 0.2252 0.2677
v 1.4505 0.1144 -0.2639
v 1.4505 0.1144 0.2639
v 1.4218 0.0054 -0.2587
v 1.4218 0.0054 0.2587
v 1.3852 -0.1011 -0.2521
v 1.3852 -0.1011 0.2521
v 1.3410 -0.2045 -0.2440
v 1.3410 -0.2045 0.2440
v 1.2892 -0.3043 -0.2346
v 1.2892 -0.3043 0.2346
v 1.2303 -0.3999 -0.2239
v 1.2303 -0.3999 0.2239
v 1.1646 -0.4907 -0.2119
v 1.1646 -0.4907 0.2119
v 1.0924 -0.5763 -0.1988
v 1.0924 -0.5763 0.1988
v 1.0140 -0.6563 -0.1845
v 1.0140 -0.6563 0.1845
v 0.9301 -0.7300 -0.1692
v 0.9301 -0.7300 0.1692
v 0.8410 -0.7972 -0.1530
v 0.8410 -0.7972 0.1530
v 0.7472 -0.8574 -0.1360
v 0.7472 -0.8574 0.1360
v 0.6492 -0.9104 -0.1181
v 0.6492 -0.9104 0.1181
v 0.5476 -0.9558 -0.0996
v 0.5476 -0.9558 0.0996
f 1 3 2
f 2 3 4
f 1 2 3
f 2 4 3
f 3 5 4
f 4 5 6
f 3 4 5
f 4 6 5
f 5 7 6
f 6 7 8
f 5 6 7
f 6 8 7
f 7 9 8
f 8 9 10
f 7 8 9
f 8 10 9
f 9 11 10
f 10 11 12
f 9 10 11
f 10 12 11
f 11 13 12
f 12 13 14
f 11 12 13
f 12 14 13
f 13 15 14
f 14 15 16
f 13 14 15
f 14 16 15
f 15 17 16
f 16 17 18
f 15 16 17
f 16 18 17
f 17 19 18
f 18 19 20
f 17 18 19
f 18 20 19
f 19 21 20
f 20 21 22
f 19 20 21
f 20 22 21
f 21 23 22
f 22 23 24
f 21 22 23
f 22 24 23
f 23 25 24
f 24 25 26
f 23 24 25
f 24 26 25
f 25 27 26
f 26 27 28
f 25 26 27
f 26 28 27
f 27 29 28
f 28 29 30
f 27 28 29
f 28 30 29
f 29 31 30
f 30 31 32
f 29 30 31
f 30 32 31
f 31 33 32
f 32 33 34
f 31 32 33
f 32 34 33
f 33 35 34
f 34 35 36
f 33 34 35
f 34 36 35
f 35 37 36
f 36 37 38
f 35 36 37
f 36 38 37
f 37 39 38
f 38 39 40
f 37 38 39
f 38 40 39
f 39 41 40
f 40 41 42
f 39 40 41
f 40 42 41
f 41 43 42
f 42 43 44
f 41 42 43
f 42 44 43
f 43 45 44
f 44 45 46
f 43 44 45
f 44 46 45
f 45 47 46
f 46 47 48
f 45 46 47
f 46 48 47
f 47 49 48
f 48 49 50
f 47 48 49
f 48 50 49
f 49 51 50
f 50 51 52
f 49 50 51
f 50 52 51
f 51 53 52
f 52 53 54
f 51 52 53
f 52 54 53
f 53 55 54
f 54 55 56
f 53 54 55
f 54 56 55
f 55 57 56
f 56 57 58
f 55 56 57
f 56 58 57
f 57 59 58
f 58 59 60
f 57 58 59
f 58 60 59
f 59 61 60
f 60 61 62
f 59 60 61
f 60 62 61
f 61 63 62
f 62 63 64
f 61 62 63
f 62 64 63
f 63 65 64
f 64 65 66
f 63 64 65
f 64 66 65
v -0.5476 1.8558 0.0996
v -0.5476 1.8558 -0.0996
v -0.6492 1.8104 0.1181
v -0.6492 1.8104 -0.1181
v -0.7472 1.7574 0.1360
v -0.7472 1.7574 -0.1360
v -0.8410 1.6972 0.1530
v -0.8410 1.6972 -0.1530
v -0.9301 1.6300 0.1692
v -0.9301 1.6300 -0.1692
v -1.0140 1.5563 0.1845
v -1.0140 1.5563 -0.1845
v -1.0924 1.4763 0.1988
v -1.0924 1.4763 -0.1988
v -1.1646 1.3907 0.2119
v -1.1646 1.3907 -0.2119
v -1.2303 1.2999 0.2239
v -1.2303 1.2999 -0.2239
v -1.2892 1.2043 0.2346
v -1.2892 1.2043 -0.2346
v -1.3410 1.1045 0.2440
v -1.3410 1.1045 -0.2440
v -1.3852 1.0011 0.2521
v -1.3852 1.0011 -0.2521
v -1.4218 0.8946 0.2587
v -1.4218 0.8946 -0.2587
v -1.4505 0.7856 0.2639
v -1.4505 0.7856 -0.2639
v -1.4710 0.6748 0.2677
v -1.4710 0.6748 -0.2677
v -1.4834 0.5627 0.2699
v -1.4834 0.5627 -0.2699
v -1.4876 0.4500 0.2707
v -1.4876 0.4500 -0.2707
v -1.4834 0.3373 0.2699
v -1.4834 0.3373 -0.2699
v -1.4710 0.2252 0.2677
v -1.4710 0.2252 -0.2677
v -1.4505 0.1144 0.2639
v -1.4505 0.1144 -0.2639
v -1.4218 0.0054 0.2587
v -1.4218 0.0054 -0.2587
v -1.3852 -0.1011 0.2521
v -1.3852 -0.1011 -0.2521
v -1.3410 -0.2045 0.2440
v -1.3410 -0.2045 -0.2440
v -1.2892 -0.3043 0.2346
v -1.2892 -0.3043 -0.2346
v -1.2303 -0.3999 0.2239
v -1.2303 -0.3999 -0.2239
v -1.1646 -0.4907 0.2119
v -1.1646 -0.4907 -0.2119
v -1.0924 -0.5763 0.1988
v -1.0924 -0.5763 -0.1988
v -1.0140 -0.6563 0.1845
v -1.0140 -0.6563 -0.1845
v -0.9301 -0.7300 0.1692
v -0.9301 -0.7300 -0.1692
v -0.8410 -0.7972 0.1530
v -0.8410 -0.7972 -0.1530
v -0.7472 -0.8574 0.1360
v -0.7472 -0.8574 -0.1360
v -0.6492 -0.9104 0.1181
v -0.6492 -0.9104 -0.1181
v -0.5476 -0.9558 0.0996
v -0.5476 -0.9558 -0.0996
f 67 69 68
f 68 69 70
f 67 68 69
f 68 70 69
f 69 71 70
f 70 71 72
f 69 70 71
f 70 72 71
f 71 73 72
f 72 73 74
f 71 72 73
f 72 74 73
f 73 75 74
f 74 75 76
f 73 74 75
f 74 76 75
f 75 77 76
f 76 77 78
f 75 76 77
f 76 78 77
f 77 79 78
f 78 79 80
f 77 78 79
f 78 80 79
f 79 81 80
f 80 81 82
f 79 80 81
f 80 82 81
f 81 83 82
f 82 83 84
f 81 82 83
f 82 84 83
f 83 85 84
f 84 85 86
f 83 84 85
f 84 86 85
f 85 87 86
f 86 87 88
f 85 86 87
f 86 88 87
f 87 89 88
f 88 89 90
f 87 88 89
f 88 90 89
f 89 91 90
f 90 91 92
f 89 90 91
f 90 92 91
f 91 93 92
f 92 93 94
f 91 92 93
f 92 94 93
f 93 95 94
f 94 95 96
f 93 94 95
f 94 96 95
f 95 97 96
f 96 97 98
f 95 96 97
f 96 98 97
f 97 99 98
f 98 99 100
f 97 98 99
f 98 100 99
f 99 101 100
f 100 101 102
f 99 100 101
f 100 102 101
f 101 103 102
f 102 103 104
f 101 102 103
f 102 104 103
f 103 105 104
f 104 105 106
f 103 104 105
f 104 106 105
f 105 107 106
f 106 107 108
f 105 106 107
f 106 108 107
f 107 109 108
f 108 109 110
f 107 108 109
f 108 110 109
f 109 111 110
f 110 111 112
f 109 110 111
f 110 112 111
f 111 113 112
f 112 113 114
f 111 112 113
f 112 114 113
f 113 115 114
f 114 115 116
f 113 114 115
f 114 116 115
f 115 117 116
f 116 117 118
f 115 116 117
f 116 118 117
f 117 119 118
f 118 119 120
f 117 118 119
f 118 120 119
f 119 121 120
f 120 121 122
f 119 120 121
f 120 122 121
f 121 123 122
f 122 123 124
f 121 122 123
f 122 124 123
f 123 125 124
f 124 125 126
f 123 124 125
f 124 126 125
f 125 127 126
f 126 127 128
f 125 126 127
f 126 128 127
f 127 129 128
f 128 129 130
f 127 128 129
f 128 130 129
f 129 131 130
f 130 131 132
f 129 130 131
f 130 132 131
