# tippe top stem: tip radius 0.6 cm, standing 0.6 cm out of the ball
v 0.5994 1.3500 0.0000
v 0.5879 1.3500 0.1169
v 0.5538 1.3500 0.2294
v 0.4984 1.3500 0.3330
v 0.4238 1.3500 0.4238
v 0.3330 1.3500 0.4984
v 0.2294 1.3500 0.5538
v 0.1169 1.3500 0.5879
v 0.0000 1.3500 0.5994
v -0.1169 1.3500 0.5879
v -0.2294 1.3500 0.5538
v -0.3330 1.3500 0.4984
v -0.4238 1.3500 0.4238
v -0.4984 1.3500 0.3330
v -0.5538 1.3500 0.2294
v -0.5879 1.3500 0.1169
v -0.5994 1.3500 0.0000
v -0.5879 1.3500 -0.1169
v -0.5538 1.3500 -0.2294
v -0.4984 1.3500 -0.3330
v -0.4238 1.3500 -0.4238
v -0.3330 1.3500 -0.4984
v -0.2294 1.3500 -0.5538
v -0.1169 1.3500 -0.5879
v -0.0000 1.3500 -0.5994
v 0.1169 1.3500 -0.5879
v 0.2294 1.3500 -0.5538
v 0.3330 1.3500 -0.4984
v 0.4238 1.3500 -0.4238
v 0.4984 1.3500 -0.3330
v 0.5538 1.3500 -0.2294
v 0.5879 1.3500 -0.1169
v 0.5994 1.9500 0.0000
v 0.5879 1.9500 0.1169
v 0.5538 1.9500 0.2294
v 0.4984 1.9500 0.3330
v 0.4238 1.9500 0.4238
v 0.3330 1.9500 0.4984
v 0.2294 1.9500 0.5538
v 0.1169 1.9500 0.5879
v 0.0000 1.9500 0.5994
v -0.1169 1.9500 0.5879
v -0.2294 1.9500 0.5538
v -0.3330 1.9500 0.4984
v -0.4238 1.9500 0.4238
v -0.4984 1.9500 0.3330
v -0.5538 1.9500 0.2294
v -0.5879 1.9500 0.1169
v -0.5994 1.9500 0.0000
v -0.5879 1.9500 -0.1169
v -0.5538 1.9500 -0.2294
v -0.4984 1.9500 -0.3330
v -0.4238 1.9500 -0.4238
v -0.3330 1.9500 -0.4984
v -0.2294 1.9500 -0.5538
v -0.1169 1.9500 -0.5879
v -0.0000 1.9500 -0.5994
v 0.1169 1.9500 -0.5879
v 0.2294 1.9500 -0.5538
v 0.3330 1.9500 -0.4984
v 0.4238 1.9500 -0.4238
v 0.4984 1.9500 -0.3330
v 0.5538 1.9500 -0.2294
v 0.5879 1.9500 -0.1169
f 1 33 2
f 2 33 34
f 2 34 3
f 3 34 35
f 3 35 4
f 4 35 36
f 4 36 5
f 5 36 37
f 5 37 6
f 6 37 38
f 6 38 7
f 7 38 39
f 7 39 8
f 8 39 40
f 8 40 9
f 9 40 41
f 9 41 10
f 10 41 42
f 10 42 11
f 11 42 43
f 11 43 12
f 12 43 44
f 12 44 13
f 13 44 45
f 13 45 14
f 14 45 46
f 14 46 15
f 15 46 47
f 15 47 16
f 16 47 48
f 16 48 17
f 17 48 49
f 17 49 18
f 18 49 50
f 18 50 19
f 19 50 51
f 19 51 20
f 20 51 52
f 20 52 21
f 21 52 53
f 21 53 22
f 22 53 54
f 22 54 23
f 23 54 55
f 23 55 24
f 24 55 56
f 24 56 25
f 25 56 57
f 25 57 26
f 26 57 58
f 26 58 27
f 27 58 59
f 27 59 28
f 28 59 60
f 28 60 29
f 29 60 61
f 29 61 30
f 30 61 62
f 30 62 31
f 31 62 63
f 31 63 32
f 32 63 64
f 32 64 1
f 1 64 33
v 0.0000 2.5500 0.0000
v 0.0000 2.5500 0.0000
v 0.0000 2.5500 0.0000
v 0.0000 2.5500 0.0000
v 0.0000 2.5500 0.0000
v 0.0000 2.5500 0.0000
v 0.0000 2.5500 0.0000
v 0.0000 2.5500 0.0000
v 0.0000 2.5500 0.0000
v 0.0000 2.5500 0.0000
v 0.0000 2.5500 0.0000
v 0.0000 2.5500 0.0000
v 0.0000 2.5500 0.0000
v 0.0000 2.5500 0.0000
v 0.0000 2.5500 0.0000
v 0.0000 2.5500 0.0000
v 0.0000 2.5500 0.0000
v 0.0000 2.5500 0.0000
v 0.0000 2.5500 0.0000
v 0.0000 2.5500 0.0000
v 0.0000 2.5500 0.0000
v 0.0000 2.5500 0.0000
v 0.0000 2.5500 0.0000
v 0.0000 2.5500 0.0000
v 0.0000 2.5500 0.0000
v 0.0000 2.5500 0.0000
v 0.0000 2.5500 0.0000
v 0.0000 2.5500 0.0000
v 0.0000 2.5500 0.0000
v 0.0000 2.5500 0.0000
v 0.0000 2.5500 0.0000
v 0.0000 2.5500 0.0000
v 0.1171 2.5385 0.0000
v 0.1148 2.5385 0.0228
v 0.1081 2.5385 0.0448
v 0.0973 2.5385 0.0650
v 0.0828 2.5385 0.0828
v 0.0650 2.5385 0.0973
v 0.0448 2.5385 0.1081
v 0.0228 2.5385 0.1148
v 0.0000 2.5385 0.1171
v -0.0228 2.5385 0.1148
v -0.0448 2.5385 0.1081
v -0.0650 2.5385 0.0973
v -0.0828 2.5385 0.0828
v -0.0973 2.5385 0.0650
v -0.1081 2.5385 0.0448
v -0.1148 2.5385 0.0228
v -0.1171 2.5385 0.0000
v -0.1148 2.5385 -0.0228
v -0.1081 2.5385 -0.0448
v -0.0973 2.5385 -0.0650
v -0.0828 2.5385 -0.0828
v -0.0650 2.5385 -0.0973
v -0.0448 2.5385 -0.1081
v -0.0228 2.5385 -0.1148
v -0.0000 2.5385 -0.1171
v 0.0228 2.5385 -0.1148
v 0.0448 2.5385 -0.1081
v 0.0650 2.5385 -0.0973
v 0.0828 2.5385 -0.0828
v 0.0973 2.5385 -0.0650
v 0.1081 2.5385 -0.0448
v 0.1148 2.5385 -0.0228
v 0.2296 2.5043 0.0000
v 0.2252 2.5043 0.0448
v 0.2121 2.5043 0.0879
v 0.1909 2.5043 0.1276
v 0.1624 2.5043 0.1624
v 0.1276 2.5043 0.1909
v 0.0879 2.5043 0.2121
v 0.0448 2.5043 0.2252
v 0.0000 2.5043 0.2296
v -0.0448 2.5043 0.2252
v -0.0879 2.5043 0.2121
v -0.1276 2.5043 0.1909
v -0.1624 2.5043 0.1624
v -0.1909 2.5043 0.1276
v -0.2121 2.5043 0.0879
v -0.2252 2.5043 0.0448
v -0.2296 2.5043 0.0000
v -0.2252 2.5043 -0.0448
v -0.2121 2.5043 -0.0879
v -0.1909 2.5043 -0.1276
v -0.1624 2.5043 -0.1624
v -0.1276 2.5043 -0.1909
v -0.0879 2.5043 -0.2121
v -0.0448 2.5043 -0.2252
v -0.0000 2.5043 -0.2296
v 0.0448 2.5043 -0.2252
v 0.0879 2.5043 -0.2121
v 0.1276 2.5043 -0.1909
v 0.1624 2.5043 -0.1624
v 0.1909 2.5043 -0.1276
v 0.2121 2.5043 -0.0879
v 0.2252 2.5043 -0.0448
v 0.3333 2.4489 0.0000
v 0.3269 2.4489 0.0650
v 0.3080 2.4489 0.1276
v 0.2772 2.4489 0.1852
v 0.2357 2.4489 0.2357
v 0.1852 2.4489 0.2772
v 0.1276 2.4489 0.3080
v 0.0650 2.4489 0.3269
v 0.0000 2.4489 0.3333
v -0.0650 2.4489 0.3269
v -0.1276 2.4489 0.3080
v -0.1852 2.4489 0.2772
v -0.2357 2.4489 0.2357
v -0.2772 2.4489 0.1852
v -0.3080 2.4489 0.1276
v -0.3269 2.4489 0.0650
v -0.3333 2.4489 0.0000
v -0.3269 2.4489 -0.0650
v -0.3080 2.4489 -0.1276
v -0.2772 2.4489 -0.1852
v -0.2357 2.4489 -0.2357
v -0.1852 2.4489 -0.2772
v -0.1276 2.4489 -0.3080
v -0.0650 2.4489 -0.3269
v -0.0000 2.4489 -0.3333
v 0.0650 2.4489 -0.3269
v 0.1276 2.4489 -0.3080
v 0.1852 2.4489 -0.2772
v 0.2357 2.4489 -0.2357
v 0.2772 2.4489 -0.1852
v 0.3080 2.4489 -0.1276
v 0.3269 2.4489 -0.0650
v 0.4243 2.3743 0.0000
v 0.4161 2.3743 0.0828
v 0.3920 2.3743 0.1624
v 0.3528 2.3743 0.2357
v 0.3000 2.3743 0.3000
v 0.2357 2.3743 0.3528
v 0.1624 2.3743 0.3920
v 0.0828 2.3743 0.4161
v 0.0000 2.3743 0.4243
v -0.0828 2.3743 0.4161
v -0.1624 2.3743 0.3920
v -0.2357 2.3743 0.3528
v -0.3000 2.3743 0.3000
v -0.3528 2.3743 0.2357
v -0.3920 2.3743 0.1624
v -0.4161 2.3743 0.0828
v -0.4243 2.3743 0.0000
v -0.4161 2.3743 -0.0828
v -0.3920 2.3743 -0.1624
v -0.3528 2.3743 -0.2357
v -0.3000 2.3743 -0.3000
v -0.2357 2.3743 -0.3528
v -0.1624 2.3743 -0.3920
v -0.0828 2.3743 -0.4161
v -0.0000 2.3743 -0.4243
v 0.0828 2.3743 -0.4161
v 0.1624 2.3743 -0.3920
v 0.2357 2.3743 -0.3528
v 0.3000 2.3743 -0.3000
v 0.3528 2.3743 -0.2357
v 0.3920 2.3743 -0.1624
v 0.4161 2.3743 -0.0828
v 0.4989 2.2833 0.0000
v 0.4893 2.2833 0.0973
v 0.4609 2.2833 0.1909
v 0.4148 2.2833 0.2772
v 0.3528 2.2833 0.3528
v 0.2772 2.2833 0.4148
v 0.1909 2.2833 0.4609
v 0.0973 2.2833 0.4893
v 0.0000 2.2833 0.4989
v -0.0973 2.2833 0.4893
v -0.1909 2.2833 0.4609
v -0.2772 2.2833 0.4148
v -0.3528 2.2833 0.3528
v -0.4148 2.2833 0.2772
v -0.4609 2.2833 0.1909
v -0.4893 2.2833 0.0973
v -0.4989 2.2833 0.0000
v -0.4893 2.2833 -0.0973
v -0.4609 2.2833 -0.1909
v -0.4148 2.2833 -0.2772
v -0.3528 2.2833 -0.3528
v -0.2772 2.2833 -0.4148
v -0.1909 2.2833 -0.4609
v -0.0973 2.2833 -0.4893
v -0.0000 2.2833 -0.4989
v 0.0973 2.2833 -0.4893
v 0.1909 2.2833 -0.4609
v 0.2772 2.2833 -0.4148
v 0.3528 2.2833 -0.3528
v 0.4148 2.2833 -0.2772
v 0.4609 2.2833 -0.1909
v 0.4893 2.2833 -0.0973
v 0.5543 2.1796 0.0000
v 0.5437 2.1796 0.1081
v 0.5121 2.1796 0.2121
v 0.4609 2.1796 0.3080
v 0.3920 2.1796 0.3920
v 0.3080 2.1796 0.4609
v 0.2121 2.1796 0.5121
v 0.1081 2.1796 0.5437
v 0.0000 2.1796 0.5543
v -0.1081 2.1796 0.5437
v -0.2121 2.1796 0.5121
v -0.3080 2.1796 0.4609
v -0.3920 2.1796 0.3920
v -0.4609 2.1796 0.3080
v -0.5121 2.1796 0.2121
v -0.5437 2.1796 0.1081
v -0.5543 2.1796 0.0000
v -0.5437 2.1796 -0.1081
v -0.5121 2.1796 -0.2121
v -0.4609 2.1796 -0.3080
v -0.3920 2.1796 -0.3920
v -0.3080 2.1796 -0.4609
v -0.2121 2.1796 -0.5121
v -0.1081 2.1796 -0.5437
v -0.0000 2.1796 -0.5543
v 0.1081 2.1796 -0.5437
v 0.2121 2.1796 -0.5121
v 0.3080 2.1796 -0.4609
v 0.3920 2.1796 -0.3920
v 0.4609 2.1796 -0.3080
v 0.5121 2.1796 -0.2121
v 0.5437 2.1796 -0.1081
v 0.5885 2.0671 0.0000
v 0.5772 2.0671 0.1148
v 0.5437 2.0671 0.2252
v 0.4893 2.0671 0.3269
v 0.4161 2.0671 0.4161
v 0.3269 2.0671 0.4893
v 0.2252 2.0671 0.5437
v 0.1148 2.0671 0.5772
v 0.0000 2.0671 0.5885
v -0.1148 2.0671 0.5772
v -0.2252 2.0671 0.5437
v -0.3269 2.0671 0.4893
v -0.4161 2.0671 0.4161
v -0.4893 2.0671 0.3269
v -0.5437 2.0671 0.2252
v -0.5772 2.0671 0.1148
v -0.5885 2.0671 0.0000
v -0.5772 2.0671 -0.1148
v -0.5437 2.0671 -0.2252
v -0.4893 2.0671 -0.3269
v -0.4161 2.0671 -0.4161
v -0.3269 2.0671 -0.4893
v -0.2252 2.0671 -0.5437
v -0.1148 2.0671 -0.5772
v -0.0000 2.0671 -0.5885
v 0.1148 2.0671 -0.5772
v 0.2252 2.0671 -0.5437
v 0.3269 2.0671 -0.4893
v 0.4161 2.0671 -0.4161
v 0.4893 2.0671 -0.3269
v 0.5437 2.0671 -0.2252
v 0.5772 2.0671 -0.1148
v 0.6000 1.9500 0.0000
v 0.5885 1.9500 0.1171
v 0.5543 1.9500 0.2296
v 0.4989 1.9500 0.3333
v 0.4243 1.9500 0.4243
v 0.3333 1.9500 0.4989
v 0.2296 1.9500 0.5543
v 0.1171 1.9500 0.5885
v 0.0000 1.9500 0.6000
v -0.1171 1.9500 0.5885
v -0.2296 1.9500 0.5543
v -0.3333 1.9500 0.4989
v -0.4243 1.9500 0.4243
v -0.4989 1.9500 0.3333
v -0.5543 1.9500 0.2296
v -0.5885 1.9500 0.1171
v -0.6000 1.9500 0.0000
v -0.5885 1.9500 -0.1171
v -0.5543 1.9500 -0.2296
v -0.4989 1.9500 -0.3333
v -0.4243 1.9500 -0.4243
v -0.3333 1.9500 -0.4989
v -0.2296 1.9500 -0.5543
v -0.1171 1.9500 -0.5885
v -0.0000 1.9500 -0.6000
v 0.1171 1.9500 -0.5885
v 0.2296 1.9500 -0.5543
v 0.3333 1.9500 -0.4989
v 0.4243 1.9500 -0.4243
v 0.4989 1.9500 -0.3333
v 0.5543 1.9500 -0.2296
v 0.5885 1.9500 -0.1171
v 0.5885 1.8329 0.0000
v 0.5772 1.8329 0.1148
v 0.5437 1.8329 0.2252
v 0.4893 1.8329 0.3269
v 0.4161 1.8329 0.4161
v 0.3269 1.8329 0.4893
v 0.2252 1.8329 0.5437
v 0.1148 1.8329 0.5772
v 0.0000 1.8329 0.5885
v -0.1148 1.8329 0.5772
v -0.2252 1.8329 0.5437
v -0.3269 1.8329 0.4893
v -0.4161 1.8329 0.4161
v -0.4893 1.8329 0.3269
v -0.5437 1.8329 0.2252
v -0.5772 1.8329 0.1148
v -0.5885 1.8329 0.0000
v -0.5772 1.8329 -0.1148
v -0.5437 1.8329 -0.2252
v -0.4893 1.8329 -0.3269
v -0.4161 1.8329 -0.4161
v -0.3269 1.8329 -0.4893
v -0.2252 1.8329 -0.5437
v -0.1148 1.8329 -0.5772
v -0.0000 1.8329 -0.5885
v 0.1148 1.8329 -0.5772
v 0.2252 1.8329 -0.5437
v 0.3269 1.8329 -0.4893
v 0.4161 1.8329 -0.4161
v 0.4893 1.8329 -0.3269
v 0.5437 1.8329 -0.2252
v 0.5772 1.8329 -0.1148
v 0.5543 1.7204 0.0000
v 0.5437 1.7204 0.1081
v 0.5121 1.7204 0.2121
v 0.4609 1.7204 0.3080
v 0.3920 1.7204 0.3920
v 0.3080 1.7204 0.4609
v 0.2121 1.7204 0.5121
v 0.1081 1.7204 0.5437
v 0.0000 1.7204 0.5543
v -0.1081 1.7204 0.5437
v -0.2121 1.7204 0.5121
v -0.3080 1.7204 0.4609
v -0.3920 1.7204 0.3920
v -0.4609 1.7204 0.3080
v -0.5121 1.7204 0.2121
v -0.5437 1.7204 0.1081
v -0.5543 1.7204 0.0000
v -0.5437 1.7204 -0.1081
v -0.5121 1.7204 -0.2121
v -0.4609 1.7204 -0.3080
v -0.3920 1.7204 -0.3920
v -0.3080 1.7204 -0.4609
v -0.2121 1.7204 -0.5121
v -0.1081 1.7204 -0.5437
v -0.0000 1.7204 -0.5543
v 0.1081 1.7204 -0.5437
v 0.2121 1.7204 -0.5121
v 0.3080 1.7204 -0.4609
v 0.3920 1.7204 -0.3920
v 0.4609 1.7204 -0.3080
v 0.5121 1.7204 -0.2121
v 0.5437 1.7204 -0.1081
v 0.4989 1.6167 0.0000
v 0.4893 1.6167 0.0973
v 0.4609 1.6167 0.1909
v 0.4148 1.6167 0.2772
v 0.3528 1.6167 0.3528
v 0.2772 1.6167 0.4148
v 0.1909 1.6167 0.4609
v 0.0973 1.6167 0.4893
v 0.0000 1.6167 0.4989
v -0.0973 1.6167 0.4893
v -0.1909 1.6167 0.4609
v -0.2772 1.6167 0.4148
v -0.3528 1.6167 0.3528
v -0.4148 1.6167 0.2772
v -0.4609 1.6167 0.1909
v -0.4893 1.6167 0.0973
v -0.4989 1.6167 0.0000
v -0.4893 1.6167 -0.0973
v -0.4609 1.6167 -0.1909
v -0.4148 1.6167 -0.2772
v -0.3528 1.6167 -0.3528
v -0.2772 1.6167 -0.4148
v -0.1909 1.6167 -0.4609
v -0.0973 1.6167 -0.4893
v -0.0000 1.6167 -0.4989
v 0.0973 1.6167 -0.4893
v 0.1909 1.6167 -0.4609
v 0.2772 1.6167 -0.4148
v 0.3528 1.6167 -0.3528
v 0.4148 1.6167 -0.2772
v 0.4609 1.6167 -0.1909
v 0.4893 1.6167 -0.0973
v 0.4243 1.5257 0.0000
v 0.4161 1.5257 0.0828
v 0.3920 1.5257 0.1624
v 0.3528 1.5257 0.2357
v 0.3000 1.5257 0.3000
v 0.2357 1.5257 0.3528
v 0.1624 1.5257 0.3920
v 0.0828 1.5257 0.4161
v 0.0000 1.5257 0.4243
v -0.0828 1.5257 0.4161
v -0.1624 1.5257 0.3920
v -0.2357 1.5257 0.3528
v -0.3000 1.5257 0.3000
v -0.3528 1.5257 0.2357
v -0.3920 1.5257 0.1624
v -0.4161 1.5257 0.0828
v -0.4243 1.5257 0.0000
v -0.4161 1.5257 -0.0828
v -0.3920 1.5257 -0.1624
v -0.3528 1.5257 -0.2357
v -0.3000 1.5257 -0.3000
v -0.2357 1.5257 -0.3528
v -0.1624 1.5257 -0.3920
v -0.0828 1.5257 -0.4161
v -0.0000 1.5257 -0.4243
v 0.0828 1.5257 -0.4161
v 0.1624 1.5257 -0.3920
v 0.2357 1.5257 -0.3528
v 0.3000 1.5257 -0.3000
v 0.3528 1.5257 -0.2357
v 0.3920 1.5257 -0.1624
v 0.4161 1.5257 -0.0828
v 0.3333 1.4511 0.0000
v 0.3269 1.4511 0.0650
v 0.3080 1.4511 0.1276
v 0.2772 1.4511 0.1852
v 0.2357 1.4511 0.2357
v 0.1852 1.4511 0.2772
v 0.1276 1.4511 0.3080
v 0.0650 1.4511 0.3269
v 0.0000 1.4511 0.3333
v -0.0650 1.4511 0.3269
v -0.1276 1.4511 0.3080
v -0.1852 1.4511 0.2772
v -0.2357 1.4511 0.2357
v -0.2772 1.4511 0.1852
v -0.3080 1.4511 0.1276
v -0.3269 1.4511 0.0650
v -0.3333 1.4511 0.0000
v -0.3269 1.4511 -0.0650
v -0.3080 1.4511 -0.1276
v -0.2772 1.4511 -0.1852
v -0.2357 1.4511 -0.2357
v -0.1852 1.4511 -0.2772
v -0.1276 1.4511 -0.3080
v -0.0650 1.4511 -0.3269
v -0.0000 1.4511 -0.3333
v 0.0650 1.4511 -0.3269
v 0.1276 1.4511 -0.3080
v 0.1852 1.4511 -0.2772
v 0.2357 1.4511 -0.2357
v 0.2772 1.4511 -0.1852
v 0.3080 1.4511 -0.1276
v 0.3269 1.4511 -0.0650
v 0.2296 1.3957 0.0000
v 0.2252 1.3957 0.0448
v 0.2121 1.3957 0.0879
v 0.1909 1.3957 0.1276
v 0.1624 1.3957 0.1624
v 0.1276 1.3957 0.1909
v 0.0879 1.3957 0.2121
v 0.0448 1.3957 0.2252
v 0.0000 1.3957 0.2296
v -0.0448 1.3957 0.2252
v -0.0879 1.3957 0.2121
v -0.1276 1.3957 0.1909
v -0.1624 1.3957 0.1624
v -0.1909 1.3957 0.1276
v -0.2121 1.3957 0.0879
v -0.2252 1.3957 0.0448
v -0.2296 1.3957 0.0000
v -0.2252 1.3957 -0.0448
v -0.2121 1.3957 -0.0879
v -0.1909 1.3957 -0.1276
v -0.1624 1.3957 -0.1624
v -0.1276 1.3957 -0.1909
v -0.0879 1.3957 -0.2121
v -0.0448 1.3957 -0.2252
v -0.0000 1.3957 -0.2296
v 0.0448 1.3957 -0.2252
v 0.0879 1.3957 -0.2121
v 0.1276 1.3957 -0.1909
v 0.1624 1.3957 -0.1624
v 0.1909 1.3957 -0.1276
v 0.2121 1.3957 -0.0879
v 0.2252 1.3957 -0.0448
v 0.1171 1.3615 0.0000
v 0.1148 1.3615 0.0228
v 0.1081 1.3615 0.0448
v 0.0973 1.3615 0.0650
v 0.0828 1.3615 0.0828
v 0.0650 1.3615 0.0973
v 0.0448 1.3615 0.1081
v 0.0228 1.3615 0.1148
v 0.0000 1.3615 0.1171
v -0.0228 1.3615 0.1148
v -0.0448 1.3615 0.1081
v -0.0650 1.3615 0.0973
v -0.0828 1.3615 0.0828
v -0.0973 1.3615 0.0650
v -0.1081 1.3615 0.0448
v -0.1148 1.3615 0.0228
v -0.1171 1.3615 0.0000
v -0.1148 1.3615 -0.0228
v -0.1081 1.3615 -0.0448
v -0.0973 1.3615 -0.0650
v -0.0828 1.3615 -0.0828
v -0.0650 1.3615 -0.0973
v -0.0448 1.3615 -0.1081
v -0.0228 1.3615 -0.1148
v -0.0000 1.3615 -0.1171
v 0.0228 1.3615 -0.1148
v 0.0448 1.3615 -0.1081
v 0.0650 1.3615 -0.0973
v 0.0828 1.3615 -0.0828
v 0.0973 1.3615 -0.0650
v 0.1081 1.3615 -0.0448
v 0.1148 1.3615 -0.0228
v 0.0000 1.3500 0.0000
v 0.0000 1.3500 0.0000
v 0.0000 1.3500 0.0000
v 0.0000 1.3500 0.0000
v 0.0000 1.3500 0.0000
v 0.0000 1.3500 0.0000
v 0.0000 1.3500 0.0000
v 0.0000 1.3500 0.0000
v 0.0000 1.3500 0.0000
v -0.0000 1.3500 0.0000
v -0.0000 1.3500 0.0000
v -0.0000 1.3500 0.0000
v -0.0000 1.3500 0.0000
v -0.0000 1.3500 0.0000
v -0.0000 1.3500 0.0000
v -0.0000 1.3500 0.0000
v -0.0000 1.3500 0.0000
v -0.0000 1.3500 -0.0000
v -0.0000 1.3500 -0.0000
v -0.0000 1.3500 -0.0000
v -0.0000 1.3500 -0.0000
v -0.0000 1.3500 -0.0000
v -0.0000 1.3500 -0.0000
v -0.0000 1.3500 -0.0000
v -0.0000 1.3500 -0.0000
v 0.0000 1.3500 -0.0000
v 0.0000 1.3500 -0.0000
v 0.0000 1.3500 -0.0000
v 0.0000 1.3500 -0.0000
v 0.0000 1.3500 -0.0000
v 0.0000 1.3500 -0.0000
v 0.0000 1.3500 -0.0000
f 65 97 66
f 66 97 98
f 66 98 67
f 67 98 99
f 67 99 68
f 68 99 100
f 68 100 69
f 69 100 101
f 69 101 70
f 70 101 102
f 70 102 71
f 71 102 103
f 71 103 72
f 72 103 104
f 72 104 73
f 73 104 105
f 73 105 74
f 74 105 106
f 74 106 75
f 75 106 107
f 75 107 76
f 76 107 108
f 76 108 77
f 77 108 109
f 77 109 78
f 78 109 110
f 78 110 79
f 79 110 111
f 79 111 80
f 80 111 112
f 80 112 81
f 81 112 113
f 81 113 82
f 82 113 114
f 82 114 83
f 83 114 115
f 83 115 84
f 84 115 116
f 84 116 85
f 85 116 117
f 85 117 86
f 86 117 118
f 86 118 87
f 87 118 119
f 87 119 88
f 88 119 120
f 88 120 89
f 89 120 121
f 89 121 90
f 90 121 122
f 90 122 91
f 91 122 123
f 91 123 92
f 92 123 124
f 92 124 93
f 93 124 125
f 93 125 94
f 94 125 126
f 94 126 95
f 95 126 127
f 95 127 96
f 96 127 128
f 96 128 65
f 65 128 97
f 97 129 98
f 98 129 130
f 98 130 99
f 99 130 131
f 99 131 100
f 100 131 132
f 100 132 101
f 101 132 133
f 101 133 102
f 102 133 134
f 102 134 103
f 103 134 135
f 103 135 104
f 104 135 136
f 104 136 105
f 105 136 137
f 105 137 106
f 106 137 138
f 106 138 107
f 107 138 139
f 107 139 108
f 108 139 140
f 108 140 109
f 109 140 141
f 109 141 110
f 110 141 142
f 110 142 111
f 111 142 143
f 111 143 112
f 112 143 144
f 112 144 113
f 113 144 145
f 113 145 114
f 114 145 146
f 114 146 115
f 115 146 147
f 115 147 116
f 116 147 148
f 116 148 117
f 117 148 149
f 117 149 118
f 118 149 150
f 118 150 119
f 119 150 151
f 119 151 120
f 120 151 152
f 120 152 121
f 121 152 153
f 121 153 122
f 122 153 154
f 122 154 123
f 123 154 155
f 123 155 124
f 124 155 156
f 124 156 125
f 125 156 157
f 125 157 126
f 126 157 158
f 126 158 127
f 127 158 159
f 127 159 128
f 128 159 160
f 128 160 97
f 97 160 129
f 129 161 130
f 130 161 162
f 130 162 131
f 131 162 163
f 131 163 132
f 132 163 164
f 132 164 133
f 133 164 165
f 133 165 134
f 134 165 166
f 134 166 135
f 135 166 167
f 135 167 136
f 136 167 168
f 136 168 137
f 137 168 169
f 137 169 138
f 138 169 170
f 138 170 139
f 139 170 171
f 139 171 140
f 140 171 172
f 140 172 141
f 141 172 173
f 141 173 142
f 142 173 174
f 142 174 143
f 143 174 175
f 143 175 144
f 144 175 176
f 144 176 145
f 145 176 177
f 145 177 146
f 146 177 178
f 146 178 147
f 147 178 179
f 147 179 148
f 148 179 180
f 148 180 149
f 149 180 181
f 149 181 150
f 150 181 182
f 150 182 151
f 151 182 183
f 151 183 152
f 152 183 184
f 152 184 153
f 153 184 185
f 153 185 154
f 154 185 186
f 154 186 155
f 155 186 187
f 155 187 156
f 156 187 188
f 156 188 157
f 157 188 189
f 157 189 158
f 158 189 190
f 158 190 159
f 159 190 191
f 159 191 160
f 160 191 192
f 160 192 129
f 129 192 161
f 161 193 162
f 162 193 194
f 162 194 163
f 163 194 195
f 163 195 164
f 164 195 196
f 164 196 165
f 165 196 197
f 165 197 166
f 166 197 198
f 166 198 167
f 167 198 199
f 167 199 168
f 168 199 200
f 168 200 169
f 169 200 201
f 169 201 170
f 170 201 202
f 170 202 171
f 171 202 203
f 171 203 172
f 172 203 204
f 172 204 173
f 173 204 205
f 173 205 174
f 174 205 206
f 174 206 175
f 175 206 207
f 175 207 176
f 176 207 208
f 176 208 177
f 177 208 209
f 177 209 178
f 178 209 210
f 178 210 179
f 179 210 211
f 179 211 180
f 180 211 212
f 180 212 181
f 181 212 213
f 181 213 182
f 182 213 214
f 182 214 183
f 183 214 215
f 183 215 184
f 184 215 216
f 184 216 185
f 185 216 217
f 185 217 186
f 186 217 218
f 186 218 187
f 187 218 219
f 187 219 188
f 188 219 220
f 188 220 189
f 189 220 221
f 189 221 190
f 190 221 222
f 190 222 191
f 191 222 223
f 191 223 192
f 192 223 224
f 192 224 161
f 161 224 193
f 193 225 194
f 194 225 226
f 194 226 195
f 195 226 227
f 195 227 196
f 196 227 228
f 196 228 197
f 197 228 229
f 197 229 198
f 198 229 230
f 198 230 199
f 199 230 231
f 199 231 200
f 200 231 232
f 200 232 201
f 201 232 233
f 201 233 202
f 202 233 234
f 202 234 203
f 203 234 235
f 203 235 204
f 204 235 236
f 204 236 205
f 205 236 237
f 205 237 206
f 206 237 238
f 206 238 207
f 207 238 239
f 207 239 208
f 208 239 240
f 208 240 209
f 209 240 241
f 209 241 210
f 210 241 242
f 210 242 211
f 211 242 243
f 211 243 212
f 212 243 244
f 212 244 213
f 213 244 245
f 213 245 214
f 214 245 246
f 214 246 215
f 215 246 247
f 215 247 216
f 216 247 248
f 216 248 217
f 217 248 249
f 217 249 218
f 218 249 250
f 218 250 219
f 219 250 251
f 219 251 220
f 220 251 252
f 220 252 221
f 221 252 253
f 221 253 222
f 222 253 254
f 222 254 223
f 223 254 255
f 223 255 224
f 224 255 256
f 224 256 193
f 193 256 225
f 225 257 226
f 226 257 258
f 226 258 227
f 227 258 259
f 227 259 228
f 228 259 260
f 228 260 229
f 229 260 261
f 229 261 230
f 230 261 262
f 230 262 231
f 231 262 263
f 231 263 232
f 232 263 264
f 232 264 233
f 233 264 265
f 233 265 234
f 234 265 266
f 234 266 235
f 235 266 267
f 235 267 236
f 236 267 268
f 236 268 237
f 237 268 269
f 237 269 238
f 238 269 270
f 238 270 239
f 239 270 271
f 239 271 240
f 240 271 272
f 240 272 241
f 241 272 273
f 241 273 242
f 242 273 274
f 242 274 243
f 243 274 275
f 243 275 244
f 244 275 276
f 244 276 245
f 245 276 277
f 245 277 246
f 246 277 278
f 246 278 247
f 247 278 279
f 247 279 248
f 248 279 280
f 248 280 249
f 249 280 281
f 249 281 250
f 250 281 282
f 250 282 251
f 251 282 283
f 251 283 252
f 252 283 284
f 252 284 253
f 253 284 285
f 253 285 254
f 254 285 286
f 254 286 255
f 255 286 287
f 255 287 256
f 256 287 288
f 256 288 225
f 225 288 257
f 257 289 258
f 258 289 290
f 258 290 259
f 259 290 291
f 259 291 260
f 260 291 292
f 260 292 261
f 261 292 293
f 261 293 262
f 262 293 294
f 262 294 263
f 263 294 295
f 263 295 264
f 264 295 296
f 264 296 265
f 265 296 297
f 265 297 266
f 266 297 298
f 266 298 267
f 267 298 299
f 267 299 268
f 268 299 300
f 268 300 269
f 269 300 301
f 269 301 270
f 270 301 302
f 270 302 271
f 271 302 303
f 271 303 272
f 272 303 304
f 272 304 273
f 273 304 305
f 273 305 274
f 274 305 306
f 274 306 275
f 275 306 307
f 275 307 276
f 276 307 308
f 276 308 277
f 277 308 309
f 277 309 278
f 278 309 310
f 278 310 279
f 279 310 311
f 279 311 280
f 280 311 312
f 280 312 281
f 281 312 313
f 281 313 282
f 282 313 314
f 282 314 283
f 283 314 315
f 283 315 284
f 284 315 316
f 284 316 285
f 285 316 317
f 285 317 286
f 286 317 318
f 286 318 287
f 287 318 319
f 287 319 288
f 288 319 320
f 288 320 257
f 257 320 289
f 289 321 290
f 290 321 322
f 290 322 291
f 291 322 323
f 291 323 292
f 292 323 324
f 292 324 293
f 293 324 325
f 293 325 294
f 294 325 326
f 294 326 295
f 295 326 327
f 295 327 296
f 296 327 328
f 296 328 297
f 297 328 329
f 297 329 298
f 298 329 330
f 298 330 299
f 299 330 331
f 299 331 300
f 300 331 332
f 300 332 301
f 301 332 333
f 301 333 302
f 302 333 334
f 302 334 303
f 303 334 335
f 303 335 304
f 304 335 336
f 304 336 305
f 305 336 337
f 305 337 306
f 306 337 338
f 306 338 307
f 307 338 339
f 307 339 308
f 308 339 340
f 308 340 309
f 309 340 341
f 309 341 310
f 310 341 342
f 310 342 311
f 311 342 343
f 311 343 312
f 312 343 344
f 312 344 313
f 313 344 345
f 313 345 314
f 314 345 346
f 314 346 315
f 315 346 347
f 315 347 316
f 316 347 348
f 316 348 317
f 317 348 349
f 317 349 318
f 318 349 350
f 318 350 319
f 319 350 351
f 319 351 320
f 320 351 352
f 320 352 289
f 289 352 321
f 321 353 322
f 322 353 354
f 322 354 323
f 323 354 355
f 323 355 324
f 324 355 356
f 324 356 325
f 325 356 357
f 325 357 326
f 326 357 358
f 326 358 327
f 327 358 359
f 327 359 328
f 328 359 360
f 328 360 329
f 329 360 361
f 329 361 330
f 330 361 362
f 330 362 331
f 331 362 363
f 331 363 332
f 332 363 364
f 332 364 333
f 333 364 365
f 333 365 334
f 334 365 366
f 334 366 335
f 335 366 367
f 335 367 336
f 336 367 368
f 336 368 337
f 337 368 369
f 337 369 338
f 338 369 370
f 338 370 339
f 339 370 371
f 339 371 340
f 340 371 372
f 340 372 341
f 341 372 373
f 341 373 342
f 342 373 374
f 342 374 343
f 343 374 375
f 343 375 344
f 344 375 376
f 344 376 345
f 345 376 377
f 345 377 346
f 346 377 378
f 346 378 347
f 347 378 379
f 347 379 348
f 348 379 380
f 348 380 349
f 349 380 381
f 349 381 350
f 350 381 382
f 350 382 351
f 351 382 383
f 351 383 352
f 352 383 384
f 352 384 321
f 321 384 353
f 353 385 354
f 354 385 386
f 354 386 355
f 355 386 387
f 355 387 356
f 356 387 388
f 356 388 357
f 357 388 389
f 357 389 358
f 358 389 390
f 358 390 359
f 359 390 391
f 359 391 360
f 360 391 392
f 360 392 361
f 361 392 393
f 361 393 362
f 362 393 394
f 362 394 363
f 363 394 395
f 363 395 364
f 364 395 396
f 364 396 365
f 365 396 397
f 365 397 366
f 366 397 398
f 366 398 367
f 367 398 399
f 367 399 368
f 368 399 400
f 368 400 369
f 369 400 401
f 369 401 370
f 370 401 402
f 370 402 371
f 371 402 403
f 371 403 372
f 372 403 404
f 372 404 373
f 373 404 405
f 373 405 374
f 374 405 406
f 374 406 375
f 375 406 407
f 375 407 376
f 376 407 408
f 376 408 377
f 377 408 409
f 377 409 378
f 378 409 410
f 378 410 379
f 379 410 411
f 379 411 380
f 380 411 412
f 380 412 381
f 381 412 413
f 381 413 382
f 382 413 414
f 382 414 383
f 383 414 415
f 383 415 384
f 384 415 416
f 384 416 353
f 353 416 385
f 385 417 386
f 386 417 418
f 386 418 387
f 387 418 419
f 387 419 388
f 388 419 420
f 388 420 389
f 389 420 421
f 389 421 390
f 390 421 422
f 390 422 391
f 391 422 423
f 391 423 392
f 392 423 424
f 392 424 393
f 393 424 425
f 393 425 394
f 394 425 426
f 394 426 395
f 395 426 427
f 395 427 396
f 396 427 428
f 396 428 397
f 397 428 429
f 397 429 398
f 398 429 430
f 398 430 399
f 399 430 431
f 399 431 400
f 400 431 432
f 400 432 401
f 401 432 433
f 401 433 402
f 402 433 434
f 402 434 403
f 403 434 435
f 403 435 404
f 404 435 436
f 404 436 405
f 405 436 437
f 405 437 406
f 406 437 438
f 406 438 407
f 407 438 439
f 407 439 408
f 408 439 440
f 408 440 409
f 409 440 441
f 409 441 410
f 410 441 442
f 410 442 411
f 411 442 443
f 411 443 412
f 412 443 444
f 412 444 413
f 413 444 445
f 413 445 414
f 414 445 446
f 414 446 415
f 415 446 447
f 415 447 416
f 416 447 448
f 416 448 385
f 385 448 417
f 417 449 418
f 418 449 450
f 418 450 419
f 419 450 451
f 419 451 420
f 420 451 452
f 420 452 421
f 421 452 453
f 421 453 422
f 422 453 454
f 422 454 423
f 423 454 455
f 423 455 424
f 424 455 456
f 424 456 425
f 425 456 457
f 425 457 426
f 426 457 458
f 426 458 427
f 427 458 459
f 427 459 428
f 428 459 460
f 428 460 429
f 429 460 461
f 429 461 430
f 430 461 462
f 430 462 431
f 431 462 463
f 431 463 432
f 432 463 464
f 432 464 433
f 433 464 465
f 433 465 434
f 434 465 466
f 434 466 435
f 435 466 467
f 435 467 436
f 436 467 468
f 436 468 437
f 437 468 469
f 437 469 438
f 438 469 470
f 438 470 439
f 439 470 471
f 439 471 440
f 440 471 472
f 440 472 441
f 441 472 473
f 441 473 442
f 442 473 474
f 442 474 443
f 443 474 475
f 443 475 444
f 444 475 476
f 444 476 445
f 445 476 477
f 445 477 446
f 446 477 478
f 446 478 447
f 447 478 479
f 447 479 448
f 448 479 480
f 448 480 417
f 417 480 449
f 449 481 450
f 450 481 482
f 450 482 451
f 451 482 483
f 451 483 452
f 452 483 484
f 452 484 453
f 453 484 485
f 453 485 454
f 454 485 486
f 454 486 455
f 455 486 487
f 455 487 456
f 456 487 488
f 456 488 457
f 457 488 489
f 457 489 458
f 458 489 490
f 458 490 459
f 459 490 491
f 459 491 460
f 460 491 492
f 460 492 461
f 461 492 493
f 461 493 462
f 462 493 494
f 462 494 463
f 463 494 495
f 463 495 464
f 464 495 496
f 464 496 465
f 465 496 497
f 465 497 466
f 466 497 498
f 466 498 467
f 467 498 499
f 467 499 468
f 468 499 500
f 468 500 469
f 469 500 501
f 469 501 470
f 470 501 502
f 470 502 471
f 471 502 503
f 471 503 472
f 472 503 504
f 472 504 473
f 473 504 505
f 473 505 474
f 474 505 506
f 474 506 475
f 475 506 507
f 475 507 476
f 476 507 508
f 476 508 477
f 477 508 509
f 477 509 478
f 478 509 510
f 478 510 479
f 479 510 511
f 479 511 480
f 480 511 512
f 480 512 449
f 449 512 481
f 481 513 482
f 482 513 514
f 482 514 483
f 483 514 515
f 483 515 484
f 484 515 516
f 484 516 485
f 485 516 517
f 485 517 486
f 486 517 518
f 486 518 487
f 487 518 519
f 487 519 488
f 488 519 520
f 488 520 489
f 489 520 521
f 489 521 490
f 490 521 522
f 490 522 491
f 491 522 523
f 491 523 492
f 492 523 524
f 492 524 493
f 493 524 525
f 493 525 494
f 494 525 526
f 494 526 495
f 495 526 527
f 495 527 496
f 496 527 528
f 496 528 497
f 497 528 529
f 497 529 498
f 498 529 530
f 498 530 499
f 499 530 531
f 499 531 500
f 500 531 532
f 500 532 501
f 501 532 533
f 501 533 502
f 502 533 534
f 502 534 503
f 503 534 535
f 503 535 504
f 504 535 536
f 504 536 505
f 505 536 537
f 505 537 506
f 506 537 538
f 506 538 507
f 507 538 539
f 507 539 508
f 508 539 540
f 508 540 509
f 509 540 541
f 509 541 510
f 510 541 542
f 510 542 511
f 511 542 543
f 511 543 512
f 512 543 544
f 512 544 481
f 481 544 513
f 513 545 514
f 514 545 546
f 514 546 515
f 515 546 547
f 515 547 516
f 516 547 548
f 516 548 517
f 517 548 549
f 517 549 518
f 518 549 550
f 518 550 519
f 519 550 551
f 519 551 520
f 520 551 552
f 520 552 521
f 521 552 553
f 521 553 522
f 522 553 554
f 522 554 523
f 523 554 555
f 523 555 524
f 524 555 556
f 524 556 525
f 525 556 557
f 525 557 526
f 526 557 558
f 526 558 527
f 527 558 559
f 527 559 528
f 528 559 560
f 528 560 529
f 529 560 561
f 529 561 530
f 530 561 562
f 530 562 531
f 531 562 563
f 531 563 532
f 532 563 564
f 532 564 533
f 533 564 565
f 533 565 534
f 534 565 566
f 534 566 535
f 535 566 567
f 535 567 536
f 536 567 568
f 536 568 537
f 537 568 569
f 537 569 538
f 538 569 570
f 538 570 539
f 539 570 571
f 539 571 540
f 540 571 572
f 540 572 541
f 541 572 573
f 541 573 542
f 542 573 574
f 542 574 543
f 543 574 575
f 543 575 544
f 544 575 576
f 544 576 513
f 513 576 545
f 545 577 546
f 546 577 578
f 546 578 547
f 547 578 579
f 547 579 548
f 548 579 580
f 548 580 549
f 549 580 581
f 549 581 550
f 550 581 582
f 550 582 551
f 551 582 583
f 551 583 552
f 552 583 584
f 552 584 553
f 553 584 585
f 553 585 554
f 554 585 586
f 554 586 555
f 555 586 587
f 555 587 556
f 556 587 588
f 556 588 557
f 557 588 589
f 557 589 558
f 558 589 590
f 558 590 559
f 559 590 591
f 559 591 560
f 560 591 592
f 560 592 561
f 561 592 593
f 561 593 562
f 562 593 594
f 562 594 563
f 563 594 595
f 563 595 564
f 564 595 596
f 564 596 565
f 565 596 597
f 565 597 566
f 566 597 598
f 566 598 567
f 567 598 599
f 567 599 568
f 568 599 600
f 568 600 569
f 569 600 601
f 569 601 570
f 570 601 602
f 570 602 571
f 571 602 603
f 571 603 572
f 572 603 604
f 572 604 573
f 573 604 605
f 573 605 574
f 574 605 606
f 574 606 575
f 575 606 607
f 575 607 576
f 576 607 608
f 576 608 545
f 545 608 577
