# generated by make_meshes.py
v 0.00287 0.00000 2.87464
v 0.00282 0.00056 2.87464
v 0.00266 0.00110 2.87464
v 0.00239 0.00160 2.87464
v 0.00203 0.00203 2.87464
v 0.00160 0.00239 2.87464
v 0.00110 0.00266 2.87464
v 0.00056 0.00282 2.87464
v 0.00000 0.00287 2.87464
v -0.00056 0.00282 2.87464
v -0.00110 0.00266 2.87464
v -0.00160 0.00239 2.87464
v -0.00203 0.00203 2.87464
v -0.00239 0.00160 2.87464
v -0.00266 0.00110 2.87464
v -0.00282 0.00056 2.87464
v -0.00287 0.00000 2.87464
v -0.00282 -0.00056 2.87464
v -0.00266 -0.00110 2.87464
v -0.00239 -0.00160 2.87464
v -0.00203 -0.00203 2.87464
v -0.00160 -0.00239 2.87464
v -0.00110 -0.00266 2.87464
v -0.00056 -0.00282 2.87464
v -0.00000 -0.00287 2.87464
v 0.00056 -0.00282 2.87464
v 0.00110 -0.00266 2.87464
v 0.00160 -0.00239 2.87464
v 0.00203 -0.00203 2.87464
v 0.00239 -0.00160 2.87464
v 0.00266 -0.00110 2.87464
v 0.00282 -0.00056 2.87464
v 0.22793 0.00000 2.86559
v 0.22355 0.04447 2.86559
v 0.21058 0.08723 2.86559
v 0.18952 0.12663 2.86559
v 0.16117 0.16117 2.86559
v 0.12663 0.18952 2.86559
v 0.08723 0.21058 2.86559
v 0.04447 0.22355 2.86559
v 0.00000 0.22793 2.86559
v -0.04447 0.22355 2.86559
v -0.08723 0.21058 2.86559
v -0.12663 0.18952 2.86559
v -0.16117 0.16117 2.86559
v -0.18952 0.12663 2.86559
v -0.21058 0.08723 2.86559
v -0.22355 0.04447 2.86559
v -0.22793 0.00000 2.86559
v -0.22355 -0.04447 2.86559
v -0.21058 -0.08723 2.86559
v -0.18952 -0.12663 2.86559
v -0.16117 -0.16117 2.86559
v -0.12663 -0.18952 2.86559
v -0.08723 -0.21058 2.86559
v -0.04447 -0.22355 2.86559
v -0.00000 -0.22793 2.86559
v 0.04447 -0.22355 2.86559
v 0.08723 -0.21058 2.86559
v 0.12663 -0.18952 2.86559
v 0.16117 -0.16117 2.86559
v 0.18952 -0.12663 2.86559
v 0.21058 -0.08723 2.86559
v 0.22355 -0.04447 2.86559
v 0.45159 0.00000 2.83895
v 0.44291 0.08810 2.83895
v 0.41721 0.17281 2.83895
v 0.37548 0.25089 2.83895
v 0.31932 0.31932 2.83895
v 0.25089 0.37548 2.83895
v 0.17281 0.41721 2.83895
v 0.08810 0.44291 2.83895
v 0.00000 0.45159 2.83895
v -0.08810 0.44291 2.83895
v -0.17281 0.41721 2.83895
v -0.25089 0.37548 2.83895
v -0.31932 0.31932 2.83895
v -0.37548 0.25089 2.83895
v -0.41721 0.17281 2.83895
v -0.44291 0.08810 2.83895
v -0.45159 0.00000 2.83895
v -0.44291 -0.08810 2.83895
v -0.41721 -0.17281 2.83895
v -0.37548 -0.25089 2.83895
v -0.31932 -0.31932 2.83895
v -0.25089 -0.37548 2.83895
v -0.17281 -0.41721 2.83895
v -0.08810 -0.44291 2.83895
v -0.00000 -0.45159 2.83895
v 0.08810 -0.44291 2.83895
v 0.17281 -0.41721 2.83895
v 0.25089 -0.37548 2.83895
v 0.31932 -0.31932 2.83895
v 0.37548 -0.25089 2.83895
v 0.41721 -0.17281 2.83895
v 0.44291 -0.08810 2.83895
v 0.67247 0.00000 2.79488
v 0.65955 0.13119 2.79488
v 0.62128 0.25734 2.79488
v 0.55914 0.37360 2.79488
v 0.47551 0.47551 2.79488
v 0.37360 0.55914 2.79488
v 0.25734 0.62128 2.79488
v 0.13119 0.65955 2.79488
v 0.00000 0.67247 2.79488
v -0.13119 0.65955 2.79488
v -0.25734 0.62128 2.79488
v -0.37360 0.55914 2.79488
v -0.47551 0.47551 2.79488
v -0.55914 0.37360 2.79488
v -0.62128 0.25734 2.79488
v -0.65955 0.13119 2.79488
v -0.67247 0.00000 2.79488
v -0.65955 -0.13119 2.79488
v -0.62128 -0.25734 2.79488
v -0.55914 -0.37360 2.79488
v -0.47551 -0.47551 2.79488
v -0.37360 -0.55914 2.79488
v -0.25734 -0.62128 2.79488
v -0.13119 -0.65955 2.79488
v -0.00000 -0.67247 2.79488
v 0.13119 -0.65955 2.79488
v 0.25734 -0.62128 2.79488
v 0.37360 -0.55914 2.79488
v 0.47551 -0.47551 2.79488
v 0.55914 -0.37360 2.79488
v 0.62128 -0.25734 2.79488
v 0.65955 -0.13119 2.79488
v 0.88923 0.00000 2.73365
v 0.87214 0.17348 2.73365
v 0.82154 0.34029 2.73365
v 0.73936 0.49403 2.73365
v 0.62878 0.62878 2.73365
v 0.49403 0.73936 2.73365
v 0.34029 0.82154 2.73365
v 0.17348 0.87214 2.73365
v 0.00000 0.88923 2.73365
v -0.17348 0.87214 2.73365
v -0.34029 0.82154 2.73365
v -0.49403 0.73936 2.73365
v -0.62878 0.62878 2.73365
v -0.73936 0.49403 2.73365
v -0.82154 0.34029 2.73365
v -0.87214 0.17348 2.73365
v -0.88923 0.00000 2.73365
v -0.87214 -0.17348 2.73365
v -0.82154 -0.34029 2.73365
v -0.73936 -0.49403 2.73365
v -0.62878 -0.62878 2.73365
v -0.49403 -0.73936 2.73365
v -0.34029 -0.82154 2.73365
v -0.17348 -0.87214 2.73365
v -0.00000 -0.88923 2.73365
v 0.17348 -0.87214 2.73365
v 0.34029 -0.82154 2.73365
v 0.49403 -0.73936 2.73365
v 0.62878 -0.62878 2.73365
v 0.73936 -0.49403 2.73365
v 0.82154 -0.34029 2.73365
v 0.87214 -0.17348 2.73365
v 1.10052 0.00000 2.65564
v 1.07938 0.21470 2.65564
v 1.01675 0.42115 2.65564
v 0.91505 0.61142 2.65564
v 0.77819 0.77819 2.65564
v 0.61142 0.91505 2.65564
v 0.42115 1.01675 2.65564
v 0.21470 1.07938 2.65564
v 0.00000 1.10052 2.65564
v -0.21470 1.07938 2.65564
v -0.42115 1.01675 2.65564
v -0.61142 0.91505 2.65564
v -0.77819 0.77819 2.65564
v -0.91505 0.61142 2.65564
v -1.01675 0.42115 2.65564
v -1.07938 0.21470 2.65564
v -1.10052 0.00000 2.65564
v -1.07938 -0.21470 2.65564
v -1.01675 -0.42115 2.65564
v -0.91505 -0.61142 2.65564
v -0.77819 -0.77819 2.65564
v -0.61142 -0.91505 2.65564
v -0.42115 -1.01675 2.65564
v -0.21470 -1.07938 2.65564
v -0.00000 -1.10052 2.65564
v 0.21470 -1.07938 2.65564
v 0.42115 -1.01675 2.65564
v 0.61142 -0.91505 2.65564
v 0.77819 -0.77819 2.65564
v 0.91505 -0.61142 2.65564
v 1.01675 -0.42115 2.65564
v 1.07938 -0.21470 2.65564
v 1.30506 0.00000 2.56133
v 1.27999 0.25460 2.56133
v 1.20572 0.49943 2.56133
v 1.08512 0.72505 2.56133
v 0.92282 0.92282 2.56133
v 0.72505 1.08512 2.56133
v 0.49943 1.20572 2.56133
v 0.25460 1.27999 2.56133
v 0.00000 1.30506 2.56133
v -0.25460 1.27999 2.56133
v -0.49943 1.20572 2.56133
v -0.72505 1.08512 2.56133
v -0.92282 0.92282 2.56133
v -1.08512 0.72505 2.56133
v -1.20572 0.49943 2.56133
v -1.27999 0.25460 2.56133
v -1.30506 0.00000 2.56133
v -1.27999 -0.25460 2.56133
v -1.20572 -0.49943 2.56133
v -1.08512 -0.72505 2.56133
v -0.92282 -0.92282 2.56133
v -0.72505 -1.08512 2.56133
v -0.49943 -1.20572 2.56133
v -0.25460 -1.27999 2.56133
v -0.00000 -1.30506 2.56133
v 0.25460 -1.27999 2.56133
v 0.49943 -1.20572 2.56133
v 0.72505 -1.08512 2.56133
v 0.92282 -0.92282 2.56133
v 1.08512 -0.72505 2.56133
v 1.20572 -0.49943 2.56133
v 1.27999 -0.25460 2.56133
v 0.00287 -0.00000 -2.87464
v 0.00282 -0.00056 -2.87464
v 0.00266 -0.00110 -2.87464
v 0.00239 -0.00160 -2.87464
v 0.00203 -0.00203 -2.87464
v 0.00160 -0.00239 -2.87464
v 0.00110 -0.00266 -2.87464
v 0.00056 -0.00282 -2.87464
v 0.00000 -0.00287 -2.87464
v -0.00056 -0.00282 -2.87464
v -0.00110 -0.00266 -2.87464
v -0.00160 -0.00239 -2.87464
v -0.00203 -0.00203 -2.87464
v -0.00239 -0.00160 -2.87464
v -0.00266 -0.00110 -2.87464
v -0.00282 -0.00056 -2.87464
v -0.00287 -0.00000 -2.87464
v -0.00282 0.00056 -2.87464
v -0.00266 0.00110 -2.87464
v -0.00239 0.00160 -2.87464
v -0.00203 0.00203 -2.87464
v -0.00160 0.00239 -2.87464
v -0.00110 0.00266 -2.87464
v -0.00056 0.00282 -2.87464
v -0.00000 0.00287 -2.87464
v 0.00056 0.00282 -2.87464
v 0.00110 0.00266 -2.87464
v 0.00160 0.00239 -2.87464
v 0.00203 0.00203 -2.87464
v 0.00239 0.00160 -2.87464
v 0.00266 0.00110 -2.87464
v 0.00282 0.00056 -2.87464
v 0.22793 -0.00000 -2.86559
v 0.22355 -0.04447 -2.86559
v 0.21058 -0.08723 -2.86559
v 0.18952 -0.12663 -2.86559
v 0.16117 -0.16117 -2.86559
v 0.12663 -0.18952 -2.86559
v 0.08723 -0.21058 -2.86559
v 0.04447 -0.22355 -2.86559
v 0.00000 -0.22793 -2.86559
v -0.04447 -0.22355 -2.86559
v -0.08723 -0.21058 -2.86559
v -0.12663 -0.18952 -2.86559
v -0.16117 -0.16117 -2.86559
v -0.18952 -0.12663 -2.86559
v -0.21058 -0.08723 -2.86559
v -0.22355 -0.04447 -2.86559
v -0.22793 -0.00000 -2.86559
v -0.22355 0.04447 -2.86559
v -0.21058 0.08723 -2.86559
v -0.18952 0.12663 -2.86559
v -0.16117 0.16117 -2.86559
v -0.12663 0.18952 -2.86559
v -0.08723 0.21058 -2.86559
v -0.04447 0.22355 -2.86559
v -0.00000 0.22793 -2.86559
v 0.04447 0.22355 -2.86559
v 0.08723 0.21058 -2.86559
v 0.12663 0.18952 -2.86559
v 0.16117 0.16117 -2.86559
v 0.18952 0.12663 -2.86559
v 0.21058 0.08723 -2.86559
v 0.22355 0.04447 -2.86559
v 0.45159 -0.00000 -2.83895
v 0.44291 -0.08810 -2.83895
v 0.41721 -0.17281 -2.83895
v 0.37548 -0.25089 -2.83895
v 0.31932 -0.31932 -2.83895
v 0.25089 -0.37548 -2.83895
v 0.17281 -0.41721 -2.83895
v 0.08810 -0.44291 -2.83895
v 0.00000 -0.45159 -2.83895
v -0.08810 -0.44291 -2.83895
v -0.17281 -0.41721 -2.83895
v -0.25089 -0.37548 -2.83895
v -0.31932 -0.31932 -2.83895
v -0.37548 -0.25089 -2.83895
v -0.41721 -0.17281 -2.83895
v -0.44291 -0.08810 -2.83895
v -0.45159 -0.00000 -2.83895
v -0.44291 0.08810 -2.83895
v -0.41721 0.17281 -2.83895
v -0.37548 0.25089 -2.83895
v -0.31932 0.31932 -2.83895
v -0.25089 0.37548 -2.83895
v -0.17281 0.41721 -2.83895
v -0.08810 0.44291 -2.83895
v -0.00000 0.45159 -2.83895
v 0.08810 0.44291 -2.83895
v 0.17281 0.41721 -2.83895
v 0.25089 0.37548 -2.83895
v 0.31932 0.31932 -2.83895
v 0.37548 0.25089 -2.83895
v 0.41721 0.17281 -2.83895
v 0.44291 0.08810 -2.83895
v 0.67247 -0.00000 -2.79488
v 0.65955 -0.13119 -2.79488
v 0.62128 -0.25734 -2.79488
v 0.55914 -0.37360 -2.79488
v 0.47551 -0.47551 -2.79488
v 0.37360 -0.55914 -2.79488
v 0.25734 -0.62128 -2.79488
v 0.13119 -0.65955 -2.79488
v 0.00000 -0.67247 -2.79488
v -0.13119 -0.65955 -2.79488
v -0.25734 -0.62128 -2.79488
v -0.37360 -0.55914 -2.79488
v -0.47551 -0.47551 -2.79488
v -0.55914 -0.37360 -2.79488
v -0.62128 -0.25734 -2.79488
v -0.65955 -0.13119 -2.79488
v -0.67247 -0.00000 -2.79488
v -0.65955 0.13119 -2.79488
v -0.62128 0.25734 -2.79488
v -0.55914 0.37360 -2.79488
v -0.47551 0.47551 -2.79488
v -0.37360 0.55914 -2.79488
v -0.25734 0.62128 -2.79488
v -0.13119 0.65955 -2.79488
v -0.00000 0.67247 -2.79488
v 0.13119 0.65955 -2.79488
v 0.25734 0.62128 -2.79488
v 0.37360 0.55914 -2.79488
v 0.47551 0.47551 -2.79488
v 0.55914 0.37360 -2.79488
v 0.62128 0.25734 -2.79488
v 0.65955 0.13119 -2.79488
v 0.88923 -0.00000 -2.73365
v 0.87214 -0.17348 -2.73365
v 0.82154 -0.34029 -2.73365
v 0.73936 -0.49403 -2.73365
v 0.62878 -0.62878 -2.73365
v 0.49403 -0.73936 -2.73365
v 0.34029 -0.82154 -2.73365
v 0.17348 -0.87214 -2.73365
v 0.00000 -0.88923 -2.73365
v -0.17348 -0.87214 -2.73365
v -0.34029 -0.82154 -2.73365
v -0.49403 -0.73936 -2.73365
v -0.62878 -0.62878 -2.73365
v -0.73936 -0.49403 -2.73365
v -0.82154 -0.34029 -2.73365
v -0.87214 -0.17348 -2.73365
v -0.88923 -0.00000 -2.73365
v -0.87214 0.17348 -2.73365
v -0.82154 0.34029 -2.73365
v -0.73936 0.49403 -2.73365
v -0.62878 0.62878 -2.73365
v -0.49403 0.73936 -2.73365
v -0.34029 0.82154 -2.73365
v -0.17348 0.87214 -2.73365
v -0.00000 0.88923 -2.73365
v 0.17348 0.87214 -2.73365
v 0.34029 0.82154 -2.73365
v 0.49403 0.73936 -2.73365
v 0.62878 0.62878 -2.73365
v 0.73936 0.49403 -2.73365
v 0.82154 0.34029 -2.73365
v 0.87214 0.17348 -2.73365
v 1.10052 -0.00000 -2.65564
v 1.07938 -0.21470 -2.65564
v 1.01675 -0.42115 -2.65564
v 0.91505 -0.61142 -2.65564
v 0.77819 -0.77819 -2.65564
v 0.61142 -0.91505 -2.65564
v 0.42115 -1.01675 -2.65564
v 0.21470 -1.07938 -2.65564
v 0.00000 -1.10052 -2.65564
v -0.21470 -1.07938 -2.65564
v -0.42115 -1.01675 -2.65564
v -0.61142 -0.91505 -2.65564
v -0.77819 -0.77819 -2.65564
v -0.91505 -0.61142 -2.65564
v -1.01675 -0.42115 -2.65564
v -1.07938 -0.21470 -2.65564
v -1.10052 -0.00000 -2.65564
v -1.07938 0.21470 -2.65564
v -1.01675 0.42115 -2.65564
v -0.91505 0.61142 -2.65564
v -0.77819 0.77819 -2.65564
v -0.61142 0.91505 -2.65564
v -0.42115 1.01675 -2.65564
v -0.21470 1.07938 -2.65564
v -0.00000 1.10052 -2.65564
v 0.21470 1.07938 -2.65564
v 0.42115 1.01675 -2.65564
v 0.61142 0.91505 -2.65564
v 0.77819 0.77819 -2.65564
v 0.91505 0.61142 -2.65564
v 1.01675 0.42115 -2.65564
v 1.07938 0.21470 -2.65564
v 1.30506 -0.00000 -2.56133
v 1.27999 -0.25460 -2.56133
v 1.20572 -0.49943 -2.56133
v 1.08512 -0.72505 -2.56133
v 0.92282 -0.92282 -2.56133
v 0.72505 -1.08512 -2.56133
v 0.49943 -1.20572 -2.56133
v 0.25460 -1.27999 -2.56133
v 0.00000 -1.30506 -2.56133
v -0.25460 -1.27999 -2.56133
v -0.49943 -1.20572 -2.56133
v -0.72505 -1.08512 -2.56133
v -0.92282 -0.92282 -2.56133
v -1.08512 -0.72505 -2.56133
v -1.20572 -0.49943 -2.56133
v -1.27999 -0.25460 -2.56133
v -1.30506 -0.00000 -2.56133
v -1.27999 0.25460 -2.56133
v -1.20572 0.49943 -2.56133
v -1.08512 0.72505 -2.56133
v -0.92282 0.92282 -2.56133
v -0.72505 1.08512 -2.56133
v -0.49943 1.20572 -2.56133
v -0.25460 1.27999 -2.56133
v -0.00000 1.30506 -2.56133
v 0.25460 1.27999 -2.56133
v 0.49943 1.20572 -2.56133
v 0.72505 1.08512 -2.56133
v 0.92282 0.92282 -2.56133
v 1.08512 0.72505 -2.56133
v 1.20572 0.49943 -2.56133
v 1.27999 0.25460 -2.56133
vn 0.00100 0.00000 1.00000
vn 0.00098 0.00020 1.00000
vn 0.00092 0.00038 1.00000
vn 0.00083 0.00056 1.00000
vn 0.00071 0.00071 1.00000
vn 0.00056 0.00083 1.00000
vn 0.00038 0.00092 1.00000
vn 0.00020 0.00098 1.00000
vn 0.00000 0.00100 1.00000
vn -0.00020 0.00098 1.00000
vn -0.00038 0.00092 1.00000
vn -0.00056 0.00083 1.00000
vn -0.00071 0.00071 1.00000
vn -0.00083 0.00056 1.00000
vn -0.00092 0.00038 1.00000
vn -0.00098 0.00020 1.00000
vn -0.00100 0.00000 1.00000
vn -0.00098 -0.00020 1.00000
vn -0.00092 -0.00038 1.00000
vn -0.00083 -0.00056 1.00000
vn -0.00071 -0.00071 1.00000
vn -0.00056 -0.00083 1.00000
vn -0.00038 -0.00092 1.00000
vn -0.00020 -0.00098 1.00000
vn -0.00000 -0.00100 1.00000
vn 0.00020 -0.00098 1.00000
vn 0.00038 -0.00092 1.00000
vn 0.00056 -0.00083 1.00000
vn 0.00071 -0.00071 1.00000
vn 0.00083 -0.00056 1.00000
vn 0.00092 -0.00038 1.00000
vn 0.00098 -0.00020 1.00000
vn 0.07929 0.00000 0.99685
vn 0.07777 0.01547 0.99685
vn 0.07325 0.03034 0.99685
vn 0.06593 0.04405 0.99685
vn 0.05607 0.05607 0.99685
vn 0.04405 0.06593 0.99685
vn 0.03034 0.07325 0.99685
vn 0.01547 0.07777 0.99685
vn 0.00000 0.07929 0.99685
vn -0.01547 0.07777 0.99685
vn -0.03034 0.07325 0.99685
vn -0.04405 0.06593 0.99685
vn -0.05607 0.05607 0.99685
vn -0.06593 0.04405 0.99685
vn -0.07325 0.03034 0.99685
vn -0.07777 0.01547 0.99685
vn -0.07929 0.00000 0.99685
vn -0.07777 -0.01547 0.99685
vn -0.07325 -0.03034 0.99685
vn -0.06593 -0.04405 0.99685
vn -0.05607 -0.05607 0.99685
vn -0.04405 -0.06593 0.99685
vn -0.03034 -0.07325 0.99685
vn -0.01547 -0.07777 0.99685
vn -0.00000 -0.07929 0.99685
vn 0.01547 -0.07777 0.99685
vn 0.03034 -0.07325 0.99685
vn 0.04405 -0.06593 0.99685
vn 0.05607 -0.05607 0.99685
vn 0.06593 -0.04405 0.99685
vn 0.07325 -0.03034 0.99685
vn 0.07777 -0.01547 0.99685
vn 0.15709 0.00000 0.98758
vn 0.15407 0.03065 0.98758
vn 0.14513 0.06012 0.98758
vn 0.13062 0.08728 0.98758
vn 0.11108 0.11108 0.98758
vn 0.08728 0.13062 0.98758
vn 0.06012 0.14513 0.98758
vn 0.03065 0.15407 0.98758
vn 0.00000 0.15709 0.98758
vn -0.03065 0.15407 0.98758
vn -0.06012 0.14513 0.98758
vn -0.08728 0.13062 0.98758
vn -0.11108 0.11108 0.98758
vn -0.13062 0.08728 0.98758
vn -0.14513 0.06012 0.98758
vn -0.15407 0.03065 0.98758
vn -0.15709 0.00000 0.98758
vn -0.15407 -0.03065 0.98758
vn -0.14513 -0.06012 0.98758
vn -0.13062 -0.08728 0.98758
vn -0.11108 -0.11108 0.98758
vn -0.08728 -0.13062 0.98758
vn -0.06012 -0.14513 0.98758
vn -0.03065 -0.15407 0.98758
vn -0.00000 -0.15709 0.98758
vn 0.03065 -0.15407 0.98758
vn 0.06012 -0.14513 0.98758
vn 0.08728 -0.13062 0.98758
vn 0.11108 -0.11108 0.98758
vn 0.13062 -0.08728 0.98758
vn 0.14513 -0.06012 0.98758
vn 0.15407 -0.03065 0.98758
vn 0.23393 0.00000 0.97225
vn 0.22944 0.04564 0.97225
vn 0.21612 0.08952 0.97225
vn 0.19451 0.12997 0.97225
vn 0.16541 0.16541 0.97225
vn 0.12997 0.19451 0.97225
vn 0.08952 0.21612 0.97225
vn 0.04564 0.22944 0.97225
vn 0.00000 0.23393 0.97225
vn -0.04564 0.22944 0.97225
vn -0.08952 0.21612 0.97225
vn -0.12997 0.19451 0.97225
vn -0.16541 0.16541 0.97225
vn -0.19451 0.12997 0.97225
vn -0.21612 0.08952 0.97225
vn -0.22944 0.04564 0.97225
vn -0.23393 0.00000 0.97225
vn -0.22944 -0.04564 0.97225
vn -0.21612 -0.08952 0.97225
vn -0.19451 -0.12997 0.97225
vn -0.16541 -0.16541 0.97225
vn -0.12997 -0.19451 0.97225
vn -0.08952 -0.21612 0.97225
vn -0.04564 -0.22944 0.97225
vn -0.00000 -0.23393 0.97225
vn 0.04564 -0.22944 0.97225
vn 0.08952 -0.21612 0.97225
vn 0.12997 -0.19451 0.97225
vn 0.16541 -0.16541 0.97225
vn 0.19451 -0.12997 0.97225
vn 0.21612 -0.08952 0.97225
vn 0.22944 -0.04564 0.97225
vn 0.30933 0.00000 0.95095
vn 0.30339 0.06035 0.95095
vn 0.28579 0.11838 0.95095
vn 0.25720 0.17186 0.95095
vn 0.21873 0.21873 0.95095
vn 0.17186 0.25720 0.95095
vn 0.11838 0.28579 0.95095
vn 0.06035 0.30339 0.95095
vn 0.00000 0.30933 0.95095
vn -0.06035 0.30339 0.95095
vn -0.11838 0.28579 0.95095
vn -0.17186 0.25720 0.95095
vn -0.21873 0.21873 0.95095
vn -0.25720 0.17186 0.95095
vn -0.28579 0.11838 0.95095
vn -0.30339 0.06035 0.95095
vn -0.30933 0.00000 0.95095
vn -0.30339 -0.06035 0.95095
vn -0.28579 -0.11838 0.95095
vn -0.25720 -0.17186 0.95095
vn -0.21873 -0.21873 0.95095
vn -0.17186 -0.25720 0.95095
vn -0.11838 -0.28579 0.95095
vn -0.06035 -0.30339 0.95095
vn -0.00000 -0.30933 0.95095
vn 0.06035 -0.30339 0.95095
vn 0.11838 -0.28579 0.95095
vn 0.17186 -0.25720 0.95095
vn 0.21873 -0.21873 0.95095
vn 0.25720 -0.17186 0.95095
vn 0.28579 -0.11838 0.95095
vn 0.30339 -0.06035 0.95095
vn 0.38284 0.00000 0.92382
vn 0.37548 0.07469 0.92382
vn 0.35370 0.14651 0.92382
vn 0.31832 0.21269 0.92382
vn 0.27071 0.27071 0.92382
vn 0.21269 0.31832 0.92382
vn 0.14651 0.35370 0.92382
vn 0.07469 0.37548 0.92382
vn 0.00000 0.38284 0.92382
vn -0.07469 0.37548 0.92382
vn -0.14651 0.35370 0.92382
vn -0.21269 0.31832 0.92382
vn -0.27071 0.27071 0.92382
vn -0.31832 0.21269 0.92382
vn -0.35370 0.14651 0.92382
vn -0.37548 0.07469 0.92382
vn -0.38284 0.00000 0.92382
vn -0.37548 -0.07469 0.92382
vn -0.35370 -0.14651 0.92382
vn -0.31832 -0.21269 0.92382
vn -0.27071 -0.27071 0.92382
vn -0.21269 -0.31832 0.92382
vn -0.14651 -0.35370 0.92382
vn -0.07469 -0.37548 0.92382
vn -0.00000 -0.38284 0.92382
vn 0.07469 -0.37548 0.92382
vn 0.14651 -0.35370 0.92382
vn 0.21269 -0.31832 0.92382
vn 0.27071 -0.27071 0.92382
vn 0.31832 -0.21269 0.92382
vn 0.35370 -0.14651 0.92382
vn 0.37548 -0.07469 0.92382
vn 0.45399 0.00000 0.89101
vn 0.44527 0.08857 0.89101
vn 0.41943 0.17373 0.89101
vn 0.37748 0.25222 0.89101
vn 0.32102 0.32102 0.89101
vn 0.25222 0.37748 0.89101
vn 0.17373 0.41943 0.89101
vn 0.08857 0.44527 0.89101
vn 0.00000 0.45399 0.89101
vn -0.08857 0.44527 0.89101
vn -0.17373 0.41943 0.89101
vn -0.25222 0.37748 0.89101
vn -0.32102 0.32102 0.89101
vn -0.37748 0.25222 0.89101
vn -0.41943 0.17373 0.89101
vn -0.44527 0.08857 0.89101
vn -0.45399 0.00000 0.89101
vn -0.44527 -0.08857 0.89101
vn -0.41943 -0.17373 0.89101
vn -0.37748 -0.25222 0.89101
vn -0.32102 -0.32102 0.89101
vn -0.25222 -0.37748 0.89101
vn -0.17373 -0.41943 0.89101
vn -0.08857 -0.44527 0.89101
vn -0.00000 -0.45399 0.89101
vn 0.08857 -0.44527 0.89101
vn 0.17373 -0.41943 0.89101
vn 0.25222 -0.37748 0.89101
vn 0.32102 -0.32102 0.89101
vn 0.37748 -0.25222 0.89101
vn 0.41943 -0.17373 0.89101
vn 0.44527 -0.08857 0.89101
vn 0.00100 -0.00000 -1.00000
vn 0.00098 -0.00020 -1.00000
vn 0.00092 -0.00038 -1.00000
vn 0.00083 -0.00056 -1.00000
vn 0.00071 -0.00071 -1.00000
vn 0.00056 -0.00083 -1.00000
vn 0.00038 -0.00092 -1.00000
vn 0.00020 -0.00098 -1.00000
vn 0.00000 -0.00100 -1.00000
vn -0.00020 -0.00098 -1.00000
vn -0.00038 -0.00092 -1.00000
vn -0.00056 -0.00083 -1.00000
vn -0.00071 -0.00071 -1.00000
vn -0.00083 -0.00056 -1.00000
vn -0.00092 -0.00038 -1.00000
vn -0.00098 -0.00020 -1.00000
vn -0.00100 -0.00000 -1.00000
vn -0.00098 0.00020 -1.00000
vn -0.00092 0.00038 -1.00000
vn -0.00083 0.00056 -1.00000
vn -0.00071 0.00071 -1.00000
vn -0.00056 0.00083 -1.00000
vn -0.00038 0.00092 -1.00000
vn -0.00020 0.00098 -1.00000
vn -0.00000 0.00100 -1.00000
vn 0.00020 0.00098 -1.00000
vn 0.00038 0.00092 -1.00000
vn 0.00056 0.00083 -1.00000
vn 0.00071 0.00071 -1.00000
vn 0.00083 0.00056 -1.00000
vn 0.00092 0.00038 -1.00000
vn 0.00098 0.00020 -1.00000
vn 0.07929 -0.00000 -0.99685
vn 0.07777 -0.01547 -0.99685
vn 0.07325 -0.03034 -0.99685
vn 0.06593 -0.04405 -0.99685
vn 0.05607 -0.05607 -0.99685
vn 0.04405 -0.06593 -0.99685
vn 0.03034 -0.07325 -0.99685
vn 0.01547 -0.07777 -0.99685
vn 0.00000 -0.07929 -0.99685
vn -0.01547 -0.07777 -0.99685
vn -0.03034 -0.07325 -0.99685
vn -0.04405 -0.06593 -0.99685
vn -0.05607 -0.05607 -0.99685
vn -0.06593 -0.04405 -0.99685
vn -0.07325 -0.03034 -0.99685
vn -0.07777 -0.01547 -0.99685
vn -0.07929 -0.00000 -0.99685
vn -0.07777 0.01547 -0.99685
vn -0.07325 0.03034 -0.99685
vn -0.06593 0.04405 -0.99685
vn -0.05607 0.05607 -0.99685
vn -0.04405 0.06593 -0.99685
vn -0.03034 0.07325 -0.99685
vn -0.01547 0.07777 -0.99685
vn -0.00000 0.07929 -0.99685
vn 0.01547 0.07777 -0.99685
vn 0.03034 0.07325 -0.99685
vn 0.04405 0.06593 -0.99685
vn 0.05607 0.05607 -0.99685
vn 0.06593 0.04405 -0.99685
vn 0.07325 0.03034 -0.99685
vn 0.07777 0.01547 -0.99685
vn 0.15709 -0.00000 -0.98758
vn 0.15407 -0.03065 -0.98758
vn 0.14513 -0.06012 -0.98758
vn 0.13062 -0.08728 -0.98758
vn 0.11108 -0.11108 -0.98758
vn 0.08728 -0.13062 -0.98758
vn 0.06012 -0.14513 -0.98758
vn 0.03065 -0.15407 -0.98758
vn 0.00000 -0.15709 -0.98758
vn -0.03065 -0.15407 -0.98758
vn -0.06012 -0.14513 -0.98758
vn -0.08728 -0.13062 -0.98758
vn -0.11108 -0.11108 -0.98758
vn -0.13062 -0.08728 -0.98758
vn -0.14513 -0.06012 -0.98758
vn -0.15407 -0.03065 -0.98758
vn -0.15709 -0.00000 -0.98758
vn -0.15407 0.03065 -0.98758
vn -0.14513 0.06012 -0.98758
vn -0.13062 0.08728 -0.98758
vn -0.11108 0.11108 -0.98758
vn -0.08728 0.13062 -0.98758
vn -0.06012 0.14513 -0.98758
vn -0.03065 0.15407 -0.98758
vn -0.00000 0.15709 -0.98758
vn 0.03065 0.15407 -0.98758
vn 0.06012 0.14513 -0.98758
vn 0.08728 0.13062 -0.98758
vn 0.11108 0.11108 -0.98758
vn 0.13062 0.08728 -0.98758
vn 0.14513 0.06012 -0.98758
vn 0.15407 0.03065 -0.98758
vn 0.23393 -0.00000 -0.97225
vn 0.22944 -0.04564 -0.97225
vn 0.21612 -0.08952 -0.97225
vn 0.19451 -0.12997 -0.97225
vn 0.16541 -0.16541 -0.97225
vn 0.12997 -0.19451 -0.97225
vn 0.08952 -0.21612 -0.97225
vn 0.04564 -0.22944 -0.97225
vn 0.00000 -0.23393 -0.97225
vn -0.04564 -0.22944 -0.97225
vn -0.08952 -0.21612 -0.97225
vn -0.12997 -0.19451 -0.97225
vn -0.16541 -0.16541 -0.97225
vn -0.19451 -0.12997 -0.97225
vn -0.21612 -0.08952 -0.97225
vn -0.22944 -0.04564 -0.97225
vn -0.23393 -0.00000 -0.97225
vn -0.22944 0.04564 -0.97225
vn -0.21612 0.08952 -0.97225
vn -0.19451 0.12997 -0.97225
vn -0.16541 0.16541 -0.97225
vn -0.12997 0.19451 -0.97225
vn -0.08952 0.21612 -0.97225
vn -0.04564 0.22944 -0.97225
vn -0.00000 0.23393 -0.97225
vn 0.04564 0.22944 -0.97225
vn 0.08952 0.21612 -0.97225
vn 0.12997 0.19451 -0.97225
vn 0.16541 0.16541 -0.97225
vn 0.19451 0.12997 -0.97225
vn 0.21612 0.08952 -0.97225
vn 0.22944 0.04564 -0.97225
vn 0.30933 -0.00000 -0.95095
vn 0.30339 -0.06035 -0.95095
vn 0.28579 -0.11838 -0.95095
vn 0.25720 -0.17186 -0.95095
vn 0.21873 -0.21873 -0.95095
vn 0.17186 -0.25720 -0.95095
vn 0.11838 -0.28579 -0.95095
vn 0.06035 -0.30339 -0.95095
vn 0.00000 -0.30933 -0.95095
vn -0.06035 -0.30339 -0.95095
vn -0.11838 -0.28579 -0.95095
vn -0.17186 -0.25720 -0.95095
vn -0.21873 -0.21873 -0.95095
vn -0.25720 -0.17186 -0.95095
vn -0.28579 -0.11838 -0.95095
vn -0.30339 -0.06035 -0.95095
vn -0.30933 -0.00000 -0.95095
vn -0.30339 0.06035 -0.95095
vn -0.28579 0.11838 -0.95095
vn -0.25720 0.17186 -0.95095
vn -0.21873 0.21873 -0.95095
vn -0.17186 0.25720 -0.95095
vn -0.11838 0.28579 -0.95095
vn -0.06035 0.30339 -0.95095
vn -0.00000 0.30933 -0.95095
vn 0.06035 0.30339 -0.95095
vn 0.11838 0.28579 -0.95095
vn 0.17186 0.25720 -0.95095
vn 0.21873 0.21873 -0.95095
vn 0.25720 0.17186 -0.95095
vn 0.28579 0.11838 -0.95095
vn 0.30339 0.06035 -0.95095
vn 0.38284 -0.00000 -0.92382
vn 0.37548 -0.07469 -0.92382
vn 0.35370 -0.14651 -0.92382
vn 0.31832 -0.21269 -0.92382
vn 0.27071 -0.27071 -0.92382
vn 0.21269 -0.31832 -0.92382
vn 0.14651 -0.35370 -0.92382
vn 0.07469 -0.37548 -0.92382
vn 0.00000 -0.38284 -0.92382
vn -0.07469 -0.37548 -0.92382
vn -0.14651 -0.35370 -0.92382
vn -0.21269 -0.31832 -0.92382
vn -0.27071 -0.27071 -0.92382
vn -0.31832 -0.21269 -0.92382
vn -0.35370 -0.14651 -0.92382
vn -0.37548 -0.07469 -0.92382
vn -0.38284 -0.00000 -0.92382
vn -0.37548 0.07469 -0.92382
vn -0.35370 0.14651 -0.92382
vn -0.31832 0.21269 -0.92382
vn -0.27071 0.27071 -0.92382
vn -0.21269 0.31832 -0.92382
vn -0.14651 0.35370 -0.92382
vn -0.07469 0.37548 -0.92382
vn -0.00000 0.38284 -0.92382
vn 0.07469 0.37548 -0.92382
vn 0.14651 0.35370 -0.92382
vn 0.21269 0.31832 -0.92382
vn 0.27071 0.27071 -0.92382
vn 0.31832 0.21269 -0.92382
vn 0.35370 0.14651 -0.92382
vn 0.37548 0.07469 -0.92382
vn 0.45399 -0.00000 -0.89101
vn 0.44527 -0.08857 -0.89101
vn 0.41943 -0.17373 -0.89101
vn 0.37748 -0.25222 -0.89101
vn 0.32102 -0.32102 -0.89101
vn 0.25222 -0.37748 -0.89101
vn 0.17373 -0.41943 -0.89101
vn 0.08857 -0.44527 -0.89101
vn 0.00000 -0.45399 -0.89101
vn -0.08857 -0.44527 -0.89101
vn -0.17373 -0.41943 -0.89101
vn -0.25222 -0.37748 -0.89101
vn -0.32102 -0.32102 -0.89101
vn -0.37748 -0.25222 -0.89101
vn -0.41943 -0.17373 -0.89101
vn -0.44527 -0.08857 -0.89101
vn -0.45399 -0.00000 -0.89101
vn -0.44527 0.08857 -0.89101
vn -0.41943 0.17373 -0.89101
vn -0.37748 0.25222 -0.89101
vn -0.32102 0.32102 -0.89101
vn -0.25222 0.37748 -0.89101
vn -0.17373 0.41943 -0.89101
vn -0.08857 0.44527 -0.89101
vn -0.00000 0.45399 -0.89101
vn 0.08857 0.44527 -0.89101
vn 0.17373 0.41943 -0.89101
vn 0.25222 0.37748 -0.89101
vn 0.32102 0.32102 -0.89101
vn 0.37748 0.25222 -0.89101
vn 0.41943 0.17373 -0.89101
vn 0.44527 0.08857 -0.89101
f 1//1 33//33 2//2
f 2//2 33//33 34//34
f 2//2 34//34 3//3
f 3//3 34//34 35//35
f 3//3 35//35 4//4
f 4//4 35//35 36//36
f 4//4 36//36 5//5
f 5//5 36//36 37//37
f 5//5 37//37 6//6
f 6//6 37//37 38//38
f 6//6 38//38 7//7
f 7//7 38//38 39//39
f 7//7 39//39 8//8
f 8//8 39//39 40//40
f 8//8 40//40 9//9
f 9//9 40//40 41//41
f 9//9 41//41 10//10
f 10//10 41//41 42//42
f 10//10 42//42 11//11
f 11//11 42//42 43//43
f 11//11 43//43 12//12
f 12//12 43//43 44//44
f 12//12 44//44 13//13
f 13//13 44//44 45//45
f 13//13 45//45 14//14
f 14//14 45//45 46//46
f 14//14 46//46 15//15
f 15//15 46//46 47//47
f 15//15 47//47 16//16
f 16//16 47//47 48//48
f 16//16 48//48 17//17
f 17//17 48//48 49//49
f 17//17 49//49 18//18
f 18//18 49//49 50//50
f 18//18 50//50 19//19
f 19//19 50//50 51//51
f 19//19 51//51 20//20
f 20//20 51//51 52//52
f 20//20 52//52 21//21
f 21//21 52//52 53//53
f 21//21 53//53 22//22
f 22//22 53//53 54//54
f 22//22 54//54 23//23
f 23//23 54//54 55//55
f 23//23 55//55 24//24
f 24//24 55//55 56//56
f 24//24 56//56 25//25
f 25//25 56//56 57//57
f 25//25 57//57 26//26
f 26//26 57//57 58//58
f 26//26 58//58 27//27
f 27//27 58//58 59//59
f 27//27 59//59 28//28
f 28//28 59//59 60//60
f 28//28 60//60 29//29
f 29//29 60//60 61//61
f 29//29 61//61 30//30
f 30//30 61//61 62//62
f 30//30 62//62 31//31
f 31//31 62//62 63//63
f 31//31 63//63 32//32
f 32//32 63//63 64//64
f 32//32 64//64 1//1
f 1//1 64//64 33//33
f 33//33 65//65 34//34
f 34//34 65//65 66//66
f 34//34 66//66 35//35
f 35//35 66//66 67//67
f 35//35 67//67 36//36
f 36//36 67//67 68//68
f 36//36 68//68 37//37
f 37//37 68//68 69//69
f 37//37 69//69 38//38
f 38//38 69//69 70//70
f 38//38 70//70 39//39
f 39//39 70//70 71//71
f 39//39 71//71 40//40
f 40//40 71//71 72//72
f 40//40 72//72 41//41
f 41//41 72//72 73//73
f 41//41 73//73 42//42
f 42//42 73//73 74//74
f 42//42 74//74 43//43
f 43//43 74//74 75//75
f 43//43 75//75 44//44
f 44//44 75//75 76//76
f 44//44 76//76 45//45
f 45//45 76//76 77//77
f 45//45 77//77 46//46
f 46//46 77//77 78//78
f 46//46 78//78 47//47
f 47//47 78//78 79//79
f 47//47 79//79 48//48
f 48//48 79//79 80//80
f 48//48 80//80 49//49
f 49//49 80//80 81//81
f 49//49 81//81 50//50
f 50//50 81//81 82//82
f 50//50 82//82 51//51
f 51//51 82//82 83//83
f 51//51 83//83 52//52
f 52//52 83//83 84//84
f 52//52 84//84 53//53
f 53//53 84//84 85//85
f 53//53 85//85 54//54
f 54//54 85//85 86//86
f 54//54 86//86 55//55
f 55//55 86//86 87//87
f 55//55 87//87 56//56
f 56//56 87//87 88//88
f 56//56 88//88 57//57
f 57//57 88//88 89//89
f 57//57 89//89 58//58
f 58//58 89//89 90//90
f 58//58 90//90 59//59
f 59//59 90//90 91//91
f 59//59 91//91 60//60
f 60//60 91//91 92//92
f 60//60 92//92 61//61
f 61//61 92//92 93//93
f 61//61 93//93 62//62
f 62//62 93//93 94//94
f 62//62 94//94 63//63
f 63//63 94//94 95//95
f 63//63 95//95 64//64
f 64//64 95//95 96//96
f 64//64 96//96 33//33
f 33//33 96//96 65//65
f 65//65 97//97 66//66
f 66//66 97//97 98//98
f 66//66 98//98 67//67
f 67//67 98//98 99//99
f 67//67 99//99 68//68
f 68//68 99//99 100//100
f 68//68 100//100 69//69
f 69//69 100//100 101//101
f 69//69 101//101 70//70
f 70//70 101//101 102//102
f 70//70 102//102 71//71
f 71//71 102//102 103//103
f 71//71 103//103 72//72
f 72//72 103//103 104//104
f 72//72 104//104 73//73
f 73//73 104//104 105//105
f 73//73 105//105 74//74
f 74//74 105//105 106//106
f 74//74 106//106 75//75
f 75//75 106//106 107//107
f 75//75 107//107 76//76
f 76//76 107//107 108//108
f 76//76 108//108 77//77
f 77//77 108//108 109//109
f 77//77 109//109 78//78
f 78//78 109//109 110//110
f 78//78 110//110 79//79
f 79//79 110//110 111//111
f 79//79 111//111 80//80
f 80//80 111//111 112//112
f 80//80 112//112 81//81
f 81//81 112//112 113//113
f 81//81 113//113 82//82
f 82//82 113//113 114//114
f 82//82 114//114 83//83
f 83//83 114//114 115//115
f 83//83 115//115 84//84
f 84//84 115//115 116//116
f 84//84 116//116 85//85
f 85//85 116//116 117//117
f 85//85 117//117 86//86
f 86//86 117//117 118//118
f 86//86 118//118 87//87
f 87//87 118//118 119//119
f 87//87 119//119 88//88
f 88//88 119//119 120//120
f 88//88 120//120 89//89
f 89//89 120//120 121//121
f 89//89 121//121 90//90
f 90//90 121//121 122//122
f 90//90 122//122 91//91
f 91//91 122//122 123//123
f 91//91 123//123 92//92
f 92//92 123//123 124//124
f 92//92 124//124 93//93
f 93//93 124//124 125//125
f 93//93 125//125 94//94
f 94//94 125//125 126//126
f 94//94 126//126 95//95
f 95//95 126//126 127//127
f 95//95 127//127 96//96
f 96//96 127//127 128//128
f 96//96 128//128 65//65
f 65//65 128//128 97//97
f 97//97 129//129 98//98
f 98//98 129//129 130//130
f 98//98 130//130 99//99
f 99//99 130//130 131//131
f 99//99 131//131 100//100
f 100//100 131//131 132//132
f 100//100 132//132 101//101
f 101//101 132//132 133//133
f 101//101 133//133 102//102
f 102//102 133//133 134//134
f 102//102 134//134 103//103
f 103//103 134//134 135//135
f 103//103 135//135 104//104
f 104//104 135//135 136//136
f 104//104 136//136 105//105
f 105//105 136//136 137//137
f 105//105 137//137 106//106
f 106//106 137//137 138//138
f 106//106 138//138 107//107
f 107//107 138//138 139//139
f 107//107 139//139 108//108
f 108//108 139//139 140//140
f 108//108 140//140 109//109
f 109//109 140//140 141//141
f 109//109 141//141 110//110
f 110//110 141//141 142//142
f 110//110 142//142 111//111
f 111//111 142//142 143//143
f 111//111 143//143 112//112
f 112//112 143//143 144//144
f 112//112 144//144 113//113
f 113//113 144//144 145//145
f 113//113 145//145 114//114
f 114//114 145//145 146//146
f 114//114 146//146 115//115
f 115//115 146//146 147//147
f 115//115 147//147 116//116
f 116//116 147//147 148//148
f 116//116 148//148 117//117
f 117//117 148//148 149//149
f 117//117 149//149 118//118
f 118//118 149//149 150//150
f 118//118 150//150 119//119
f 119//119 150//150 151//151
f 119//119 151//151 120//120
f 120//120 151//151 152//152
f 120//120 152//152 121//121
f 121//121 152//152 153//153
f 121//121 153//153 122//122
f 122//122 153//153 154//154
f 122//122 154//154 123//123
f 123//123 154//154 155//155
f 123//123 155//155 124//124
f 124//124 155//155 156//156
f 124//124 156//156 125//125
f 125//125 156//156 157//157
f 125//125 157//157 126//126
f 126//126 157//157 158//158
f 126//126 158//158 127//127
f 127//127 158//158 159//159
f 127//127 159//159 128//128
f 128//128 159//159 160//160
f 128//128 160//160 97//97
f 97//97 160//160 129//129
f 129//129 161//161 130//130
f 130//130 161//161 162//162
f 130//130 162//162 131//131
f 131//131 162//162 163//163
f 131//131 163//163 132//132
f 132//132 163//163 164//164
f 132//132 164//164 133//133
f 133//133 164//164 165//165
f 133//133 165//165 134//134
f 134//134 165//165 166//166
f 134//134 166//166 135//135
f 135//135 166//166 167//167
f 135//135 167//167 136//136
f 136//136 167//167 168//168
f 136//136 168//168 137//137
f 137//137 168//168 169//169
f 137//137 169//169 138//138
f 138//138 169//169 170//170
f 138//138 170//170 139//139
f 139//139 170//170 171//171
f 139//139 171//171 140//140
f 140//140 171//171 172//172
f 140//140 172//172 141//141
f 141//141 172//172 173//173
f 141//141 173//173 142//142
f 142//142 173//173 174//174
f 142//142 174//174 143//143
f 143//143 174//174 175//175
f 143//143 175//175 144//144
f 144//144 175//175 176//176
f 144//144 176//176 145//145
f 145//145 176//176 177//177
f 145//145 177//177 146//146
f 146//146 177//177 178//178
f 146//146 178//178 147//147
f 147//147 178//178 179//179
f 147//147 179//179 148//148
f 148//148 179//179 180//180
f 148//148 180//180 149//149
f 149//149 180//180 181//181
f 149//149 181//181 150//150
f 150//150 181//181 182//182
f 150//150 182//182 151//151
f 151//151 182//182 183//183
f 151//151 183//183 152//152
f 152//152 183//183 184//184
f 152//152 184//184 153//153
f 153//153 184//184 185//185
f 153//153 185//185 154//154
f 154//154 185//185 186//186
f 154//154 186//186 155//155
f 155//155 186//186 187//187
f 155//155 187//187 156//156
f 156//156 187//187 188//188
f 156//156 188//188 157//157
f 157//157 188//188 189//189
f 157//157 189//189 158//158
f 158//158 189//189 190//190
f 158//158 190//190 159//159
f 159//159 190//190 191//191
f 159//159 191//191 160//160
f 160//160 191//191 192//192
f 160//160 192//192 129//129
f 129//129 192//192 161//161
f 161//161 193//193 162//162
f 162//162 193//193 194//194
f 162//162 194//194 163//163
f 163//163 194//194 195//195
f 163//163 195//195 164//164
f 164//164 195//195 196//196
f 164//164 196//196 165//165
f 165//165 196//196 197//197
f 165//165 197//197 166//166
f 166//166 197//197 198//198
f 166//166 198//198 167//167
f 167//167 198//198 199//199
f 167//167 199//199 168//168
f 168//168 199//199 200//200
f 168//168 200//200 169//169
f 169//169 200//200 201//201
f 169//169 201//201 170//170
f 170//170 201//201 202//202
f 170//170 202//202 171//171
f 171//171 202//202 203//203
f 171//171 203//203 172//172
f 172//172 203//203 204//204
f 172//172 204//204 173//173
f 173//173 204//204 205//205
f 173//173 205//205 174//174
f 174//174 205//205 206//206
f 174//174 206//206 175//175
f 175//175 206//206 207//207
f 175//175 207//207 176//176
f 176//176 207//207 208//208
f 176//176 208//208 177//177
f 177//177 208//208 209//209
f 177//177 209//209 178//178
f 178//178 209//209 210//210
f 178//178 210//210 179//179
f 179//179 210//210 211//211
f 179//179 211//211 180//180
f 180//180 211//211 212//212
f 180//180 212//212 181//181
f 181//181 212//212 213//213
f 181//181 213//213 182//182
f 182//182 213//213 214//214
f 182//182 214//214 183//183
f 183//183 214//214 215//215
f 183//183 215//215 184//184
f 184//184 215//215 216//216
f 184//184 216//216 185//185
f 185//185 216//216 217//217
f 185//185 217//217 186//186
f 186//186 217//217 218//218
f 186//186 218//218 187//187
f 187//187 218//218 219//219
f 187//187 219//219 188//188
f 188//188 219//219 220//220
f 188//188 220//220 189//189
f 189//189 220//220 221//221
f 189//189 221//221 190//190
f 190//190 221//221 222//222
f 190//190 222//222 191//191
f 191//191 222//222 223//223
f 191//191 223//223 192//192
f 192//192 223//223 224//224
f 192//192 224//224 161//161
f 161//161 224//224 193//193
f 225//225 257//257 226//226
f 226//226 257//257 258//258
f 226//226 258//258 227//227
f 227//227 258//258 259//259
f 227//227 259//259 228//228
f 228//228 259//259 260//260
f 228//228 260//260 229//229
f 229//229 260//260 261//261
f 229//229 261//261 230//230
f 230//230 261//261 262//262
f 230//230 262//262 231//231
f 231//231 262//262 263//263
f 231//231 263//263 232//232
f 232//232 263//263 264//264
f 232//232 264//264 233//233
f 233//233 264//264 265//265
f 233//233 265//265 234//234
f 234//234 265//265 266//266
f 234//234 266//266 235//235
f 235//235 266//266 267//267
f 235//235 267//267 236//236
f 236//236 267//267 268//268
f 236//236 268//268 237//237
f 237//237 268//268 269//269
f 237//237 269//269 238//238
f 238//238 269//269 270//270
f 238//238 270//270 239//239
f 239//239 270//270 271//271
f 239//239 271//271 240//240
f 240//240 271//271 272//272
f 240//240 272//272 241//241
f 241//241 272//272 273//273
f 241//241 273//273 242//242
f 242//242 273//273 274//274
f 242//242 274//274 243//243
f 243//243 274//274 275//275
f 243//243 275//275 244//244
f 244//244 275//275 276//276
f 244//244 276//276 245//245
f 245//245 276//276 277//277
f 245//245 277//277 246//246
f 246//246 277//277 278//278
f 246//246 278//278 247//247
f 247//247 278//278 279//279
f 247//247 279//279 248//248
f 248//248 279//279 280//280
f 248//248 280//280 249//249
f 249//249 280//280 281//281
f 249//249 281//281 250//250
f 250//250 281//281 282//282
f 250//250 282//282 251//251
f 251//251 282//282 283//283
f 251//251 283//283 252//252
f 252//252 283//283 284//284
f 252//252 284//284 253//253
f 253//253 284//284 285//285
f 253//253 285//285 254//254
f 254//254 285//285 286//286
f 254//254 286//286 255//255
f 255//255 286//286 287//287
f 255//255 287//287 256//256
f 256//256 287//287 288//288
f 256//256 288//288 225//225
f 225//225 288//288 257//257
f 257//257 289//289 258//258
f 258//258 289//289 290//290
f 258//258 290//290 259//259
f 259//259 290//290 291//291
f 259//259 291//291 260//260
f 260//260 291//291 292//292
f 260//260 292//292 261//261
f 261//261 292//292 293//293
f 261//261 293//293 262//262
f 262//262 293//293 294//294
f 262//262 294//294 263//263
f 263//263 294//294 295//295
f 263//263 295//295 264//264
f 264//264 295//295 296//296
f 264//264 296//296 265//265
f 265//265 296//296 297//297
f 265//265 297//297 266//266
f 266//266 297//297 298//298
f 266//266 298//298 267//267
f 267//267 298//298 299//299
f 267//267 299//299 268//268
f 268//268 299//299 300//300
f 268//268 300//300 269//269
f 269//269 300//300 301//301
f 269//269 301//301 270//270
f 270//270 301//301 302//302
f 270//270 302//302 271//271
f 271//271 302//302 303//303
f 271//271 303//303 272//272
f 272//272 303//303 304//304
f 272//272 304//304 273//273
f 273//273 304//304 305//305
f 273//273 305//305 274//274
f 274//274 305//305 306//306
f 274//274 306//306 275//275
f 275//275 306//306 307//307
f 275//275 307//307 276//276
f 276//276 307//307 308//308
f 276//276 308//308 277//277
f 277//277 308//308 309//309
f 277//277 309//309 278//278
f 278//278 309//309 310//310
f 278//278 310//310 279//279
f 279//279 310//310 311//311
f 279//279 311//311 280//280
f 280//280 311//311 312//312
f 280//280 312//312 281//281
f 281//281 312//312 313//313
f 281//281 313//313 282//282
f 282//282 313//313 314//314
f 282//282 314//314 283//283
f 283//283 314//314 315//315
f 283//283 315//315 284//284
f 284//284 315//315 316//316
f 284//284 316//316 285//285
f 285//285 316//316 317//317
f 285//285 317//317 286//286
f 286//286 317//317 318//318
f 286//286 318//318 287//287
f 287//287 318//318 319//319
f 287//287 319//319 288//288
f 288//288 319//319 320//320
f 288//288 320//320 257//257
f 257//257 320//320 289//289
f 289//289 321//321 290//290
f 290//290 321//321 322//322
f 290//290 322//322 291//291
f 291//291 322//322 323//323
f 291//291 323//323 292//292
f 292//292 323//323 324//324
f 292//292 324//324 293//293
f 293//293 324//324 325//325
f 293//293 325//325 294//294
f 294//294 325//325 326//326
f 294//294 326//326 295//295
f 295//295 326//326 327//327
f 295//295 327//327 296//296
f 296//296 327//327 328//328
f 296//296 328//328 297//297
f 297//297 328//328 329//329
f 297//297 329//329 298//298
f 298//298 329//329 330//330
f 298//298 330//330 299//299
f 299//299 330//330 331//331
f 299//299 331//331 300//300
f 300//300 331//331 332//332
f 300//300 332//332 301//301
f 301//301 332//332 333//333
f 301//301 333//333 302//302
f 302//302 333//333 334//334
f 302//302 334//334 303//303
f 303//303 334//334 335//335
f 303//303 335//335 304//304
f 304//304 335//335 336//336
f 304//304 336//336 305//305
f 305//305 336//336 337//337
f 305//305 337//337 306//306
f 306//306 337//337 338//338
f 306//306 338//338 307//307
f 307//307 338//338 339//339
f 307//307 339//339 308//308
f 308//308 339//339 340//340
f 308//308 340//340 309//309
f 309//309 340//340 341//341
f 309//309 341//341 310//310
f 310//310 341//341 342//342
f 310//310 342//342 311//311
f 311//311 342//342 343//343
f 311//311 343//343 312//312
f 312//312 343//343 344//344
f 312//312 344//344 313//313
f 313//313 344//344 345//345
f 313//313 345//345 314//314
f 314//314 345//345 346//346
f 314//314 346//346 315//315
f 315//315 346//346 347//347
f 315//315 347//347 316//316
f 316//316 347//347 348//348
f 316//316 348//348 317//317
f 317//317 348//348 349//349
f 317//317 349//349 318//318
f 318//318 349//349 350//350
f 318//318 350//350 319//319
f 319//319 350//350 351//351
f 319//319 351//351 320//320
f 320//320 351//351 352//352
f 320//320 352//352 289//289
f 289//289 352//352 321//321
f 321//321 353//353 322//322
f 322//322 353//353 354//354
f 322//322 354//354 323//323
f 323//323 354//354 355//355
f 323//323 355//355 324//324
f 324//324 355//355 356//356
f 324//324 356//356 325//325
f 325//325 356//356 357//357
f 325//325 357//357 326//326
f 326//326 357//357 358//358
f 326//326 358//358 327//327
f 327//327 358//358 359//359
f 327//327 359//359 328//328
f 328//328 359//359 360//360
f 328//328 360//360 329//329
f 329//329 360//360 361//361
f 329//329 361//361 330//330
f 330//330 361//361 362//362
f 330//330 362//362 331//331
f 331//331 362//362 363//363
f 331//331 363//363 332//332
f 332//332 363//363 364//364
f 332//332 364//364 333//333
f 333//333 364//364 365//365
f 333//333 365//365 334//334
f 334//334 365//365 366//366
f 334//334 366//366 335//335
f 335//335 366//366 367//367
f 335//335 367//367 336//336
f 336//336 367//367 368//368
f 336//336 368//368 337//337
f 337//337 368//368 369//369
f 337//337 369//369 338//338
f 338//338 369//369 370//370
f 338//338 370//370 339//339
f 339//339 370//370 371//371
f 339//339 371//371 340//340
f 340//340 371//371 372//372
f 340//340 372//372 341//341
f 341//341 372//372 373//373
f 341//341 373//373 342//342
f 342//342 373//373 374//374
f 342//342 374//374 343//343
f 343//343 374//374 375//375
f 343//343 375//375 344//344
f 344//344 375//375 376//376
f 344//344 376//376 345//345
f 345//345 376//376 377//377
f 345//345 377//377 346//346
f 346//346 377//377 378//378
f 346//346 378//378 347//347
f 347//347 378//378 379//379
f 347//347 379//379 348//348
f 348//348 379//379 380//380
f 348//348 380//380 349//349
f 349//349 380//380 381//381
f 349//349 381//381 350//350
f 350//350 381//381 382//382
f 350//350 382//382 351//351
f 351//351 382//382 383//383
f 351//351 383//383 352//352
f 352//352 383//383 384//384
f 352//352 384//384 321//321
f 321//321 384//384 353//353
f 353//353 385//385 354//354
f 354//354 385//385 386//386
f 354//354 386//386 355//355
f 355//355 386//386 387//387
f 355//355 387//387 356//356
f 356//356 387//387 388//388
f 356//356 388//388 357//357
f 357//357 388//388 389//389
f 357//357 389//389 358//358
f 358//358 389//389 390//390
f 358//358 390//390 359//359
f 359//359 390//390 391//391
f 359//359 391//391 360//360
f 360//360 391//391 392//392
f 360//360 392//392 361//361
f 361//361 392//392 393//393
f 361//361 393//393 362//362
f 362//362 393//393 394//394
f 362//362 394//394 363//363
f 363//363 394//394 395//395
f 363//363 395//395 364//364
f 364//364 395//395 396//396
f 364//364 396//396 365//365
f 365//365 396//396 397//397
f 365//365 397//397 366//366
f 366//366 397//397 398//398
f 366//366 398//398 367//367
f 367//367 398//398 399//399
f 367//367 399//399 368//368
f 368//368 399//399 400//400
f 368//368 400//400 369//369
f 369//369 400//400 401//401
f 369//369 401//401 370//370
f 370//370 401//401 402//402
f 370//370 402//402 371//371
f 371//371 402//402 403//403
f 371//371 403//403 372//372
f 372//372 403//403 404//404
f 372//372 404//404 373//373
f 373//373 404//404 405//405
f 373//373 405//405 374//374
f 374//374 405//405 406//406
f 374//374 406//406 375//375
f 375//375 406//406 407//407
f 375//375 407//407 376//376
f 376//376 407//407 408//408
f 376//376 408//408 377//377
f 377//377 408//408 409//409
f 377//377 409//409 378//378
f 378//378 409//409 410//410
f 378//378 410//410 379//379
f 379//379 410//410 411//411
f 379//379 411//411 380//380
f 380//380 411//411 412//412
f 380//380 412//412 381//381
f 381//381 412//412 413//413
f 381//381 413//413 382//382
f 382//382 413//413 414//414
f 382//382 414//414 383//383
f 383//383 414//414 415//415
f 383//383 415//415 384//384
f 384//384 415//415 416//416
f 384//384 416//416 353//353
f 353//353 416//416 385//385
f 385//385 417//417 386//386
f 386//386 417//417 418//418
f 386//386 418//418 387//387
f 387//387 418//418 419//419
f 387//387 419//419 388//388
f 388//388 419//419 420//420
f 388//388 420//420 389//389
f 389//389 420//420 421//421
f 389//389 421//421 390//390
f 390//390 421//421 422//422
f 390//390 422//422 391//391
f 391//391 422//422 423//423
f 391//391 423//423 392//392
f 392//392 423//423 424//424
f 392//392 424//424 393//393
f 393//393 424//424 425//425
f 393//393 425//425 394//394
f 394//394 425//425 426//426
f 394//394 426//426 395//395
f 395//395 426//426 427//427
f 395//395 427//427 396//396
f 396//396 427//427 428//428
f 396//396 428//428 397//397
f 397//397 428//428 429//429
f 397//397 429//429 398//398
f 398//398 429//429 430//430
f 398//398 430//430 399//399
f 399//399 430//430 431//431
f 399//399 431//431 400//400
f 400//400 431//431 432//432
f 400//400 432//432 401//401
f 401//401 432//432 433//433
f 401//401 433//433 402//402
f 402//402 433//433 434//434
f 402//402 434//434 403//403
f 403//403 434//434 435//435
f 403//403 435//435 404//404
f 404//404 435//435 436//436
f 404//404 436//436 405//405
f 405//405 436//436 437//437
f 405//405 437//437 406//406
f 406//406 437//437 438//438
f 406//406 438//438 407//407
f 407//407 438//438 439//439
f 407//407 439//439 408//408
f 408//408 439//439 440//440
f 408//408 440//440 409//409
f 409//409 440//440 441//441
f 409//409 441//441 410//410
f 410//410 441//441 442//442
f 410//410 442//442 411//411
f 411//411 442//442 443//443
f 411//411 443//443 412//412
f 412//412 443//443 444//444
f 412//412 444//444 413//413
f 413//413 444//444 445//445
f 413//413 445//445 414//414
f 414//414 445//445 446//446
f 414//414 446//446 415//415
f 415//415 446//446 447//447
f 415//415 447//447 416//416
f 416//416 447//447 448//448
f 416//416 448//448 385//385
f 385//385 448//448 417//417
