<svg xmlns="http://www.w3.org/2000/svg" width="560" height="560" viewBox="0 0 560 560"><path fill="#AFDFE1" d="M258.673 26.648h2.506c-.019 2.985 0 5.97.117 8.946-.968 0-1.944.009-2.912.009.09-2.984.18-5.97.289-8.955z"/><g fill="#EDBA4B"><path d="M261.179 26.648h16.372c2.751 1.646 6.025 1.221 9.083 1.438.108 3.031.198 6.061.279 9.083-.153 10.665.842 21.321.091 31.977-.162 20.57-.852 41.132-1.646 61.693a635.36 635.36 0 0 0-7.191 1.049c-1.81 43.972.199 87.989-.633 131.971a2858.325 2858.325 0 0 1-13.334-29.987c-.298-33.307-.895-66.604-1.51-99.912-.507-32.792-1.204-65.574-1.394-98.365-.117-2.976-.136-5.962-.117-8.947zM104.856 141.576c2.659 1.954 5.165 4.098 7.653 6.251 26.486 22.38 52.891 44.84 79.214 67.41 1.077.877 2.235 1.655 3.374 2.46 8.169 7.454 16.509 14.745 25.084 21.729 14.311 13.071 27.843 26.965 41.611 40.606-11.695-4.161-23.51-7.933-35.215-12.04-4.641-3.392-8.793-7.391-13.397-10.819-5.708-4.894-11.361-9.869-17.323-14.464-2.741-2.469-5.491-4.921-8.421-7.173-17.567-14.917-35.216-29.761-53.154-44.234-12.727-10.511-25.699-20.724-38.843-30.711 1.782-3.98 3.844-7.825 5.699-11.769 1.221-2.424 2.497-4.821 3.718-7.246zM309.754 250.109c5.248-4.224 9.311-9.743 14.729-13.759-4.912 6.278-11.008 11.534-16.5 17.305.605-1.167 1.175-2.37 1.771-3.546zM395.537 286.176c39.865-.76 79.729-1.421 119.604-1.059-.435 3.645-.977 7.271-1.564 10.891-.922 5.436-1.836 10.883-2.993 16.273-8.16-.135-16.319-.108-24.461-.524-7.526-.841-15.124-.308-22.659-.914-8.097-.886-16.266-.217-24.361-1.058-2.768-.316-5.554-.28-8.33-.254-5.942-.235-11.924-.688-17.856-.135 1.511-.228 3.021-.453 4.541-.697-8.485-.208-16.988-.055-25.438-.896-8.131-.334-16.3.091-24.404-.841-1.684-.199-3.365-.018-5.03.189 9.644 3.809 19.558 6.93 29.519 9.814-25.511-6.514-50.83-13.923-75.644-22.731 26.284-3.3 52.698-5.545 79.076-8.058zM26.519 287.885c8.53-.443 17.078-.434 25.627-.525 43.104-.334 86.189 1.884 129.293 1.811-41.928 3.339-83.855 6.586-125.747 10.275.769 2.462 1.538 4.931 2.352 7.392-10.494.045-20.987 0-31.479.026-.118-4.856-.055-9.717-.073-14.572 0-1.468.008-2.942.027-4.407zM233.588 322.44c4.125-1.928 8.63-2.985 12.565-5.312-11 11.208-21.566 22.858-33.054 33.588-30.195 30.023-61.729 58.662-91.653 88.966-2.506-4.053-5.048-8.431-5.563-13.225 11.931-12.602 25.093-24.008 38.192-35.379 26.496-22.893 54.194-44.423 79.513-68.638zM299.009 316.47c7.128 6.549 13.841 13.542 20.724 20.354 10.132 10.305 20.509 20.408 30.104 31.209-1.43-.896-2.858-1.791-4.161-2.868a4016.327 4016.327 0 0 0-33.226-27.39c-2.769-2.263-5.698-4.36-8.114-7.012-1.854-4.741-3.809-9.445-5.327-14.293zM274.811 327.515c-.234 36.438-4.749 72.665-7.58 108.958-1.402 18.889-2.841 37.84-2.343 56.781 5.599 3.871 12.527 5.165 19.068 6.686-.315 8.087-.444 16.183-.724 24.278-.082 2.994-.199 5.997-.289 9.001h-20.128l-.361-.959c.018-2.796.009-5.591-.118-8.377-.226-24.024.471-48.042.932-72.06.344-17.105 1.194-34.221 1.086-51.326.923-17.042.76-34.131.85-51.19 3.103-7.31 6.485-14.501 9.607-21.792zM368.363 360.297c20.725 15.895 41.72 31.417 62.569 47.156-.76 1.355-1.521 2.731-2.343 4.062-.995 1.565-2.035 3.104-3.021 4.678-17.514-17.377-35.306-34.455-53.117-51.534a44.575 44.575 0 0 1-4.088-4.362z"/></g><g fill="#895881"><path d="M243.901 35.64c4.831-.082 9.661-.037 14.483-.037.968 0 1.944-.009 2.912-.009.189 32.792.887 65.574 1.394 98.365-1.032 6.097-.398 12.293-.688 18.444-.407 10.665-.036 21.357-.814 31.996-3.401-39.856-6.314-79.776-9.869-119.623-2.65.787-5.301 1.583-7.915 2.469.081-5.979-.235-11.977.145-17.956.569-4.531.325-9.099.352-13.649zM359.443 143.404a1277.569 1277.569 0 0 0 30.692-38.852c3.998 1.737 7.815 3.863 11.795 5.636 2.462 1.176 4.822 2.533 7.185 3.889-22.219 26.631-44.787 52.991-67.319 79.36-1.629 2.162-4.278 3.944-4.397 6.884-2.522 2.686-5.056 5.391-7.969 7.671 7.437-17.079 15.368-33.95 22.896-51.001.725-2.135 2.714-4.261 1.765-6.622 1.561-2.479 3.535-4.668 5.352-6.965zM168.449 189.312c1.267.914 2.569 1.809 3.7 2.913 7.969 8.014 16.183 15.785 24.297 23.655 7.888 7.87 16.319 15.224 23.736 23.547-8.576-6.984-16.916-14.275-25.084-21.729-8.494-9.824-18.254-18.481-26.649-28.386zM515.195 270.39c2.968-.127 5.942-.136 8.92-.109v17.902l-.852-.986c-.324 2.857-.506 5.734-.688 8.603a332.93 332.93 0 0 0-9.001.208c.589-3.619 1.131-7.246 1.564-10.891-39.874-.362-79.738.299-119.604 1.059 27.688-2.805 55.388-5.709 82.914-9.915-.228-1.864-.47-3.727-.896-5.554 12.552-.064 25.096-.227 37.643-.317zM17.545 271.919l.959-.362c2.768-.009 5.527-.036 8.295-.136 39.729-.208 79.432 1.276 119.153 2.135 3.13-.118 6.223-.706 9.362-.733 3.917 1.683 8.259.923 12.384 1.149 6.495-.226 12.98.588 19.466.073 8.377 2.569 16.726 5.219 25.012 8.068 1.303.436 2.524 1.104 3.708 1.81-45.129-1.312-89.916-7.789-135.019-9.688-7.771-.208-15.559-.642-23.32-.235-3.066 3.754-4.025 8.803-5.4 13.359-8.549.093-17.097.082-25.627.525a340.334 340.334 0 0 0-.027 4.405c-2.985-.046-5.961-.153-8.946-.243v-20.127zM200.264 336.072a306.944 306.944 0 0 1 11.081-4.649c-9.444 9.19-18.653 18.645-28.486 27.427 4.894-8.242 12.709-14.419 17.405-22.778zM242.77 401.927c5.925-14.157 11.886-28.296 17.938-42.397-.389 3.897.397 7.778.696 11.65 1.014 9.771 1.737 19.565 2.949 29.317.108 17.105-.742 34.221-1.086 51.326-.461 24.018-1.157 48.034-.932 72.06-2.506-.406-5.012-.805-7.517-1.193-5.473-.878-10.909-1.927-16.346-2.939.09-7.87.19-15.731.416-23.592 1.077-10.801.389-21.701 1.457-32.502-.054-7.707.823-15.378.851-23.076.344-4.687.145-9.391.606-14.066.814-8.179.108-16.429.968-24.588z"/></g><g fill="#FAB699"><path d="M286.913 37.169c5.428.94 10.874 1.8 16.256 3.003-.081 8.413-.153 16.843-.497 25.256-.949 8.739-.263 17.567-1.193 26.314-.516 6.938-.072 13.922-.852 20.851-.271 2.244-.135 4.505.02 6.757-.715 2.877-1.883 5.654-2.189 8.63-3.816 2.587-8.757 1.854-13.098 2.859.795-20.562 1.482-41.123 1.646-61.693.749-10.656-.246-21.312-.093-31.977zM19.02 264.13c3.022-.117 6.052-.217 9.074-.316a311.987 311.987 0 0 1-1.294 7.607c-2.768.1-5.527.127-8.295.136.28-2.47.37-4.948.515-7.427zM139.602 449.553c17.73-17.773 34.863-36.12 52.339-54.14-3.247 7.382-6.685 14.7-10.149 21.99-3.347 3.202-6.006 7.011-8.938 10.575a1086.948 1086.948 0 0 0-21.294 27.281c-4.098-1.662-7.96-3.842-11.958-5.706zM292.188 494.339c1.828-.507 3.646-1.04 5.445-1.637 1.213 10.466-.38 20.932.154 31.434-4.85.235-9.706.146-14.555.082.278-8.097.406-16.191.724-24.278 2.687.561 5.409.977 8.142 1.274.045-2.298.09-4.586.09-6.875z"/></g><g fill="#00A651"><path d="M180.408 43.709c2.967-.498 5.862-1.348 8.693-2.397a442.497 442.497 0 0 1 3.718 8.214c18.517 41.71 33.226 84.95 49.273 127.628 6.45 17.703 13.18 35.325 20.598 52.647l.262.434.009.633c.227 1.059.806 2.008 1.239 3.003a2858.325 2858.325 0 0 0 13.334 29.987c.018 1.447.026 2.895.026 4.342-7.326-6.034-14.029-12.772-21.004-19.195-3.654-3.681-7.86-6.893-10.755-11.253-.933-2.858-1.963-5.69-3.212-8.431-5.5-12.139-10.43-24.523-15.803-36.717-5.763-13.506-11.787-26.902-17.432-40.453-13.886-31.29-27.301-62.797-40.978-94.177-.398-.85-.778-1.718-1.167-2.569-2.859-.642-1.683-4.052-2.045-6.151 5.194-1.529 10.06-3.998 15.244-5.545zM110.537 96.835c4.523-3.302 9.109-6.522 13.813-9.562 17.73 19.015 35.451 38.047 52.864 57.351 2.868 3.401 4.831 7.399 6.875 11.325 7.336 13.488 14.265 27.201 21.565 40.716-24.632-26.306-48.631-53.217-73.986-78.835-6.676-7.362-14.129-13.948-21.131-20.995zM434.932 98.21c2.171-2.026 4.271-4.17 6.768-5.816.516.516 1.031 1.022 1.556 1.538-2.126 2.099-4.224 4.215-6.332 6.314-.5-.507-1.494-1.529-1.992-2.036zM444.638 95.334c3.148 3.148 6.242 6.35 9.437 9.453.715.86 2.008 1.647 1.511 3.012-3.648-4.161-7.447-8.177-10.948-12.465zM333.789 146.28c2.406.154 4.795.57 7.074 1.402.244-.353.732-1.058.978-1.411l-.452 1.293c4.151 1.23 8.332 2.741 12.7 2.804.949 2.361-1.04 4.487-1.765 6.622-7.526 17.051-15.459 33.922-22.896 51.001-.947 1.755-1.744 3.591-2.505 5.445-5.915 12.13-11.461 24.442-17.17 36.672-.596 1.176-1.166 2.379-1.771 3.546-4.687 4.885-9.489 9.652-14.185 14.519.171-4.885.261-9.779.769-14.646.623-6.241-.379-12.791 2.063-18.752 5.581-11.778 9.834-24.144 14.989-36.111 7.047-17.602 14.582-35.007 22.171-52.384zM358.766 250.842c46.604-19.865 92.656-41.086 139.858-59.522.805 3.003 1.547 6.025 2.279 9.055 1.339 6.007 2.841 11.995 3.8 18.092-25.465 9.399-50.894 18.87-76.43 28.061-20.904 7.815-41.945 15.288-62.705 23.483 1.013.109 2.025.226 3.048.317 1.222.126 2.442.262 3.673.398-20.109 2.624-40.363 4.568-60.635 5.102 3.429-3.691 6.938-7.653 11.688-9.652 11.832-5.049 23.592-10.278 35.424-15.334zM64.24 215.871c3.546.334 6.83 1.728 10.186 2.795 35.361 11.334 70.712 22.706 106.072 34.013 13.469 4.505 26.902 9.145 40.499 13.27 1.864.679 3.7 1.412 5.582 2.044 11.705 4.107 23.52 7.879 35.215 12.04 1.05 1.031 2.035 2.125 3.021 3.238-12.483.922-24.975 1.646-37.459 2.561-3.754.391-7.155-1.665-10.846-1.863-.154-.009-.47-.035-.625-.045-1.185-.706-2.406-1.374-3.708-1.81-8.286-2.85-16.635-5.5-25.012-8.068-3.383-1.122-6.766-2.253-10.186-3.239-22.425-7.209-44.895-14.284-67.473-20.968-6.612-1.909-13.18-3.962-19.819-5.753-7.572-3.274-15.804-4.676-23.691-7.028-1.067-.389-3.139-.579-2.469-2.28 1.048-6.261.569-12.593.713-18.907zM304.146 295.8c4.069-.771 8.187-1.212 12.311-1.563 24.813 8.81 50.133 16.219 75.643 22.731 25.094 6.929 50.503 12.683 75.588 19.64a330.499 330.499 0 0 1-.724 4.758c-.517 2.976-1.067 5.952-1.792 8.892a84.05 84.05 0 0 1 1.664.842c-.452.036-1.365.108-1.826.146a610.381 610.381 0 0 0-.416 4.478c-4.09-.361-7.997-1.69-11.959-2.659-23.085-5.942-45.942-12.736-68.748-19.666-20.554-6.179-40.961-12.845-61.666-18.479-6.387-6.031-12.186-12.635-18.075-19.12zM240.146 302.186c6.983-.795 13.967-1.592 20.978-2.088-4.27 6.26-10.041 11.308-14.971 17.032-3.935 2.325-8.44 3.384-12.565 5.312-7.472 2.831-14.872 5.889-22.244 8.981a308.76 308.76 0 0 0-11.081 4.649c-15.46 6.459-30.774 13.252-46.08 20.063-22.813 10.097-45.573 20.299-68.559 30.016-9.118 3.825-18.3 7.525-27.454 11.271-1.085.544-2.279.598-3.456.453-1.077-4.496-3.229-8.611-4.975-12.863a51.67 51.67 0 0 1-1.42-4.433c7.68-3.419 15.387-6.785 23.13-10.068 32.167-13.578 64.85-25.861 97.352-38.59 21.583-8.603 43.257-17.015 64.325-26.813 2.335-.995 4.642-2.063 7.02-2.922zM293.154 310.779a76.08 76.08 0 0 1 5.854 5.689c1.521 4.85 3.474 9.554 5.327 14.293 4.867 12.319 9.77 24.632 15.161 36.734 3.745 9.063 7.444 18.174 11.985 26.876.731 3.066 2.063 5.925 3.384 8.783 9.055 20.598 18.163 41.178 26.794 61.955 4.93 11.904 9.732 23.854 14.238 35.922.985 2.731 1.998 5.445 3.119 8.132-5.428 2.678-11.115 4.786-16.742 6.992-1.113-.063-2.227-.126-3.33-.198-.18-2.705-1.573-5.057-2.586-7.49-15.922-37.459-29.934-75.688-44.822-113.563-4.152-11.643-8.956-23.05-13.461-34.556-1.926-4.379-3.258-9.046-5.779-13.144-.307-12.154.66-24.275.858-36.425zM265.746 321.02c2.994-2.73 5.736-5.753 9.019-8.158.2 4.876.128 9.77.046 14.653-3.121 7.291-6.504 14.482-9.607 21.792-1.501 3.41-3.048 6.793-4.495 10.223-6.052 14.103-12.013 28.24-17.938 42.397a11071.13 11071.13 0 0 0-21.963 53.904c-2.75 6.676-5.274 13.496-6.73 20.588-.498.127-1.483.38-1.981.516-.977 3.003-2.189 5.927-3.41 8.839-.923 2.253-1.818 4.514-2.723 6.767-2.624-1.167-4.994-2.795-7.346-4.396-5.047-3.364-9.968-7.073-13.885-11.731-1.049-.978-1.239-2.379-.479-3.582 16.165-38.646 37.161-74.964 55.732-112.44 4.224-8.676 8.693-17.26 12.211-26.241 4.142-4.755 8.927-8.862 13.549-13.131zM291.861 404.332c4.568 11.624 8.855 23.365 12.973 35.161 1.355 16.319 3.609 32.557 5.536 48.821-4.197 1.592-8.485 2.939-12.737 4.388-1.799.597-3.617 1.13-5.445 1.637a523.083 523.083 0 0 1-.026-10.021c.562-.407 1.131-.814 1.7-1.214-.777-5.037-1.465-10.095-1.854-15.178-.063-4.461-.018-8.92-.035-13.379.234-10.259-.96-20.499-.136-30.748-.228-6.494-.317-12.972.024-19.467zM436.777 418.308c1.248-2.486 2.541-4.946 3.809-7.426 4.74 5.093 9.968 9.725 14.591 14.936 2.37 2.604 4.921 5.038 7.49 7.443-2.986 3.917-6.84 7.057-10.204 10.629-8.783-9.406-17.838-18.553-26.894-27.697.985-1.574 2.025-3.111 3.021-4.678 2.669 2.334 5.365 4.64 8.187 6.793zM81.626 446.567c2.063-2.08 4.062-4.233 6.106-6.323 1.51 2.081 3.03 4.162 4.559 6.242a253.49 253.49 0 0 0-5.78 5.906c-1.755-1.835-3.446-3.735-4.885-5.825z"/></g><g fill="#FDE92D"><path d="M352.857 49.39c1.25-2.696 2.496-5.401 3.746-8.096 1.256.47 2.522.931 3.78 1.429-.397-.054-1.212-.172-1.608-.226-1.113 2.668-2.154 5.364-3.258 8.032-.66-.289-1.99-.85-2.66-1.139zM52.589 172.07c3.112-4.658 5.998-9.462 9.19-14.057 24.261 10.9 48.341 22.18 72.502 33.289 17.938 14.474 35.587 29.318 53.154 44.234-9.553-3.112-19.322-5.572-28.793-8.956-36.582-15.948-72.801-32.764-109.79-47.771 1.222-2.261 2.416-4.541 3.737-6.739zM363.044 231.809c12.981-5.229 26.144-9.978 39.15-15.143-17.595 7.933-35.423 15.378-53.101 23.139 1.692-1.936 3.602-3.682 5.826-4.993 1.021-.479 2.071-.932 3.112-1.384 1.675-.497 3.375-.959 5.013-1.619zM477.61 336.145c9.814 3.882 19.528 8.042 29.228 12.203-1.602 4.641-3.745 9.073-5.41 13.687a99.494 99.494 0 0 1-1.592 2.452c-10.973-4.541-22.045-8.82-33-13.389-.561-.29-1.111-.569-1.664-.842.724-2.938 1.275-5.916 1.792-8.892 3.501.724 6.812 2.207 10.384 2.659.099-2.631.181-5.255.262-7.878zM319.497 367.497c5.617 5.338 10.846 11.072 16.038 16.835 9.309 9.733 18.273 19.783 27.546 29.553 7.68 14.7 15.911 29.109 24.196 43.484-3.4 2.795-6.621 5.798-9.887 8.737a66.2 66.2 0 0 1-6.242 5.021c-1.836-2.977-3.383-6.105-4.795-9.291 1.223-.877 2.453-1.745 3.683-2.614-9.95-17.113-20.146-34.075-30.222-51.107-2.832-4.552-5.221-9.372-8.332-13.741-4.541-8.703-8.24-17.811-11.985-26.877zM162.967 498.048a301.635 301.635 0 0 1 6.622 4.089c-1.031 2.688-2.09 5.373-3.501 7.89-1.872-1.574-4.125-2.579-6.278-3.71a305.362 305.362 0 0 0 3.157-8.269z"/></g><g fill="#73C69B"><path d="M358.775 42.497c.396.054 1.211.172 1.608.226 3.355 1.366 6.567 3.066 9.95 4.369 4.161 1.556 7.409 4.731 11.497 6.45-1.103 2.741-2.116 5.509-3.147 8.268-11.252 28.584-23.809 56.646-36.844 84.461-.244.353-.732 1.058-.979 1.411-2.278-.832-4.668-1.248-7.073-1.402-7.589 17.377-15.124 34.782-22.171 52.385-5.155 11.968-9.408 24.333-14.989 36.111-1.618-4.378-.633-9.136-.562-13.687 1.276-10.521-.262-21.294 2.344-31.661 4.424-11.66 9.814-22.94 14.699-34.419 9.879-21.81 18.209-44.271 27.121-66.487 5.082-12.673 10.146-25.347 15.285-37.993 1.107-2.668 2.148-5.364 3.261-8.032zM164.188 93.651c2.027-1.746 4.189-3.32 6.324-4.93 14.69 27.752 28.838 55.794 43.185 83.729 4.125 7.417 7.363 15.314 11.742 22.587 5.409 11.588 11.298 22.922 17.151 34.284 1.249 2.741 2.279 5.573 3.212 8.431-4.252-3.148-7.708-7.182-11.453-10.873a1089.14 1089.14 0 0 1-28.693-30.213c-7.3-13.515-14.229-27.228-21.565-40.716-2.044-3.926-4.007-7.924-6.875-11.325-.28-2.533-1.764-4.668-2.949-6.857-6.514-11.814-13.072-23.601-19.883-35.251 3.337-2.877 6.656-5.781 9.804-8.866zM41.996 193.762c8.114 2.668 15.921 6.169 23.882 9.236 38.472 15.948 76.438 33.072 114.62 49.68-35.36-11.307-70.711-22.678-106.072-34.013-3.356-1.067-6.64-2.46-10.186-2.795-.145 6.314.335 12.646-.714 18.906-.67 1.701 1.402 1.891 2.469 2.28 7.888 2.352 16.12 3.754 23.691 7.028-9.019-1.737-17.767-4.749-26.677-7.001-.126-4.505.299-9 .498-13.497-9.553-3.998-19.132-7.933-28.64-12.049 1.447-4.704 3.673-9.109 5.428-13.696.561-1.365 1.131-2.722 1.701-4.079zM219.069 304.891c4.686.109 9.372.127 14.058.219-21.068 9.797-42.742 18.209-64.325 26.812-32.502 12.729-65.185 25.012-97.352 38.59-.344-4.813-1.149-9.661-.145-14.455 10.783-4.912 22.018-8.773 33.171-12.771 37.006-12.892 74.963-22.941 111.689-36.663a25.365 25.365 0 0 0 2.904-1.732zM322.221 314.914c20.705 5.636 41.112 12.302 61.666 18.479 36.961 14.511 73.922 29.064 110.432 44.688-1.229 3.528-3.52 6.514-5.372 9.716-2.959 4.713-5.898 9.436-9.056 14.021-23.021-10.396-46.017-20.86-68.82-31.726-20.834-9.489-41.566-19.214-62.453-28.604-9.039-8.609-17.958-17.384-26.397-26.574zM234.945 351.197c5.346-6.07 11.181-11.725 17.25-17.053-3.519 8.982-7.987 17.566-12.211 26.242-18.571 37.478-39.567 73.796-55.732 112.44-.76 1.203-.57 2.604.479 3.582 3.917 4.658 8.838 8.367 13.885 11.731-3.148 7.49-6.504 14.891-9.787 22.316-1.24 2.714-2.551 5.391-3.836 8.087-5.011-1.764-9.797-4.089-14.745-6.007-1.547-.562-2.922-1.447-4.161-2.514 1.411-2.517 2.47-5.202 3.501-7.89 13.976-34.267 29.335-67.942 44.307-101.784a345.93 345.93 0 0 0 4.559-10.863c3.781-7.526 6.947-15.333 10.276-23.059 2.117-5.051 4.542-9.99 6.215-15.228zM292.297 347.208c2.521 4.098 3.854 8.765 5.779 13.144 4.505 11.507 9.309 22.913 13.461 34.556-6.694-11.832-12.447-24.197-19.413-35.866.045-3.946.064-7.89.173-11.834zM331.482 394.373c3.111 4.369 5.5 9.189 8.332 13.741 10.076 17.032 20.271 33.994 30.222 51.107-1.229.869-2.46 1.737-3.683 2.614-1.563 1.095-3.129 2.181-4.693 3.274-8.631-20.777-17.739-41.357-26.794-61.955-1.32-2.856-2.651-5.715-3.384-8.781z"/></g><g fill="#ED2290"><path d="M339.244 43.917c4.632 1.565 9.072 3.664 13.613 5.473.67.289 2 .85 2.66 1.139-5.14 12.646-10.203 25.32-15.287 37.993-8.91 22.217-17.242 44.678-27.119 66.487-4.887 11.479-10.276 22.759-14.7 34.419.1-.796.172-1.592.243-2.379 1.91-4.324 2.959-8.946 4.479-13.415 9.77-29.996 19.295-60.074 28.957-90.106 1.066-3.338 2.396-6.622 2.776-10.14-2.634-.1-5.273-.126-7.906-.253 4.052-9.76 8.097-19.521 12.284-29.218zM209.354 152.151c5.645 13.551 11.669 26.947 17.432 40.453 5.373 12.194 10.303 24.578 15.803 36.717-5.853-11.361-11.742-22.696-17.151-34.284-5.256-14.328-11.326-28.376-16.084-42.886zM405.279 187.439c14.519-7.644 28.766-15.785 42.985-23.962 2.795 3.375 5.816 6.549 8.666 9.878 1.483 1.827 3.238 3.446 4.496 5.455.832 1.212-.896 1.709-1.646 2.162-20.264 10.321-40.408 20.851-60.653 31.181-13.668 7.155-27.606 13.804-41.095 21.276-1.041.452-2.09.905-3.112 1.384 1.438-2.198 3.319-4.034 5.337-5.699 14.954-13.949 29.834-27.979 45.022-41.675zM38.197 179.37c.552-1.483 1.339-2.867 2.415-4.034 2.714 1.23 5.473 2.37 8.241 3.474 36.989 15.007 73.208 31.823 109.79 47.771a1518.847 1518.847 0 0 0 37.215 16.129c5.961 4.596 11.615 9.571 17.323 14.464.76 1.158 1.448 2.343 2.153 3.546-4.812-1.665-9.272-4.125-13.894-6.224-42.019-20.136-82.236-43.981-125.304-61.919-4.188 2.632-7.246 6.585-10.258 10.421-7.961-3.066-15.768-6.567-23.882-9.236-.57 1.357-1.14 2.714-1.7 4.08a197.897 197.897 0 0 1-8.078-3.745c1.755-5.002 4.061-9.788 5.979-14.727zM178.363 308.654c4.279-2.379 9.227-1.72 13.904-2.072-13.008 4.922-25.853 10.268-38.934 14.972 8.576-3.836 16.645-8.685 25.03-12.9zM383.887 333.395c22.806 6.93 45.663 13.724 68.748 19.666 3.962.969 7.869 2.298 11.959 2.659a696.5 696.5 0 0 1 .416-4.478c.461-.036 1.374-.108 1.826-.146 10.955 4.567 22.027 8.848 33 13.389 2.795 1.148 5.627 2.216 8.422 3.383l-.253 1.609c-1.366 3.356-3.076 6.576-4.405 9.96-1.573 4.135-4.649 7.454-6.367 11.524a154.984 154.984 0 0 0-8.286-3.166c1.854-3.202 4.143-6.188 5.372-9.716-36.51-15.62-73.471-30.175-110.432-44.684zM191.941 395.413c11.941-12.456 23.628-25.166 36.002-37.196-3.084 10.447-6.413 20.814-9.489 31.271a341.972 341.972 0 0 1-4.559 10.863c-14.971 33.842-30.331 67.519-44.307 101.784a301.635 301.635 0 0 0-6.622-4.089c-4.731-2.958-9.444-5.935-14.057-9.063 10.764-23.953 21.882-47.743 32.881-71.58 3.466-7.29 6.904-14.608 10.151-21.99z"/></g><g fill="#ECBF59"><path d="M192.818 49.525c5.491-1.266 10.973-2.659 16.554-3.473 4.098 11.379 8.458 22.668 12.583 34.04 5.047 13.37 9.616 26.93 14.908 40.208 2.098 18.915 3.79 37.875 5.228 56.854-16.047-42.678-30.756-85.918-49.273-127.629zM331.284 229.367a20.83 20.83 0 0 1 5.571-5.681c-1.483 2.234-3.41 4.116-5.571 5.681zM40.386 357.909a197.577 197.577 0 0 0 1.9 7.524c-2.651 1.194-5.301 2.406-8.115 3.186-.244-2.424-1.23-4.668-1.972-6.956 2.715-1.275 5.455-2.515 8.187-3.754zM220.807 455.831a11172.56 11172.56 0 0 1 21.963-53.904c-.86 8.159-.154 16.409-.968 24.586-.461 4.678-.262 9.381-.606 14.066-5.274 15.45-9.128 31.345-13.56 47.048-4.188-.082-8.332-.76-12.501-.986-.181.271-.534.814-.706 1.096-1.882-.77-3.809-1.395-5.744-1.963 1.221-2.912 2.434-5.835 3.41-8.839.498-.136 1.483-.389 1.981-.516 1.457-7.092 3.981-13.912 6.731-20.588zM361.66 465.111c1.564-1.095 3.13-2.181 4.693-3.274 1.412 3.186 2.959 6.314 4.795 9.291a66.262 66.262 0 0 0 6.242-5.021c4.033 9.733 8.395 19.366 11.786 29.346-4.44 1.836-8.92 3.573-13.278 5.581-4.503-12.068-9.308-24.017-14.238-35.923z"/></g><g fill="#4F6AB2"><path d="M165.446 58.535c.977-.199 1.945-.389 2.931-.561 13.677 31.38 27.092 62.887 40.978 94.177 4.758 14.509 10.828 28.558 16.083 42.886-4.378-7.273-7.617-15.17-11.742-22.587-14.347-27.934-28.495-55.976-43.185-83.729-2.135 1.61-4.297 3.184-6.324 4.93-3.98-9.707-8.259-19.313-11.759-29.209 4.279-2.098 9.101-3.157 13.018-5.907zM300.646 119.351c4.84-15.586 9.056-31.353 13.379-47.083 4.332-.036 8.629.452 12.936.868 2.633.127 5.273.154 7.906.253-.381 3.519-1.709 6.802-2.776 10.14-9.661 30.033-19.188 60.11-28.957 90.106-1.52 4.469-2.567 9.091-4.478 13.415-1.7-3.817-.868-8.032-.858-12.058.777-9.933.659-19.892.896-29.843.145-5.708 1.312-11.551-.235-17.169.305-2.976 1.473-5.752 2.187-8.629zM492.971 177.525c2.74-1.203 5.5-2.361 8.321-3.356 1.366 3.329 2.406 6.775 3.764 10.104 1.964 4.469 2.552 9.372 4.405 13.886a558.57 558.57 0 0 1-8.169 3.79 73.84 73.84 0 0 0-.389-1.574 385.237 385.237 0 0 0-2.279-9.055c-47.202 18.436-93.254 39.657-139.858 59.522-12.475 4.007-24.024 10.466-36.438 14.627 2.822-3.211 6.016-6.07 9.072-9.055 5.916-5.518 11.516-11.38 17.693-16.608 17.678-7.761 35.506-15.206 53.101-23.139 30.295-12.963 60.437-26.288 90.777-39.142zM65.878 202.998c3.012-3.835 6.069-7.789 10.258-10.421 43.067 17.938 83.285 41.783 125.304 61.919 4.622 2.099 9.082 4.559 13.894 6.224 2.379 1.131 4.225 3.058 5.663 5.229-13.596-4.125-27.029-8.765-40.499-13.27-38.183-16.609-76.148-33.733-114.62-49.681zM192.267 306.582c5.6-.932 11.299-.867 16.916-1.654 3.293-.218 6.595-.182 9.887-.037a24.437 24.437 0 0 1-2.903 1.729c-36.726 13.722-74.683 23.771-111.689 36.663-11.154 3.998-22.389 7.859-33.171 12.771-1.004 4.794-.199 9.644.145 14.455a1411.888 1411.888 0 0 0-23.13 10.068 51.897 51.897 0 0 0 1.42 4.433c-2.768.933-5.437 2.17-8.259 2.948-2-3.654-3.193-7.68-4.903-11.47-.959-2.568-2.578-5.03-2.407-7.87 2.814-.778 5.464-1.99 8.115-3.186 34.302-14.454 69.119-27.625 103.874-40.933 2.415-.913 4.803-1.917 7.173-2.948 13.079-4.701 25.924-10.047 38.932-14.969zM227.943 358.217c2.054-2.604 4.451-4.912 7.002-7.02-1.673 5.236-4.098 10.177-6.215 15.232-3.329 7.726-6.495 15.531-10.276 23.059 3.076-10.457 6.405-20.824 9.489-31.271zM291.861 374.933c.263-5.3-.055-10.602.263-15.893 6.966 11.669 12.719 24.034 19.413 35.866 14.89 37.875 28.9 76.104 44.822 113.563-2 .498-3.98 1.021-5.963 1.547-6.033 1.33-12.021 2.867-18.137 3.754-9.208-24.73-18.182-49.554-27.427-74.275-4.116-11.796-8.403-23.537-12.972-35.161.138-9.808-.857-19.613.001-29.401z"/></g><g fill="#DDC025"><path d="M341.841 146.271c13.035-27.816 25.591-55.877 36.845-84.461 4.722 2.949 9.461 5.889 14.039 9.073-10.884 24.27-22.218 48.333-33.281 72.521-1.816 2.297-3.789 4.486-5.354 6.965-4.369-.063-8.549-1.574-12.699-2.804l.45-1.294zM40.612 175.336c1.674-1.882 2.669-4.207 3.809-6.423 2.713 1.068 5.445 2.108 8.168 3.157-1.321 2.198-2.515 4.478-3.736 6.74-2.768-1.104-5.527-2.244-8.241-3.474zM85.625 386.15c22.986-9.717 45.746-19.919 68.559-30.016-5.79 5.328-11.624 10.62-17.341 16.029-14.681 7.708-29.101 15.895-43.438 24.217-2.551-3.049-5.21-5.989-7.879-8.92.027-.324.081-.983.099-1.31zM501.428 362.033a287.08 287.08 0 0 1 8.042 3.7c-.487 1.238-.968 2.497-1.465 3.744l.253-1.609c-2.795-1.167-5.627-2.233-8.422-3.383a99.494 99.494 0 0 0 1.592-2.452zM205.962 492.539c.904-2.253 1.8-4.514 2.723-6.767 1.936.568 3.862 1.193 5.744 1.963-4.243 9.291-7.879 18.86-12.04 28.195-4.613-1.592-9.037-3.664-13.56-5.473 3.283-7.427 6.639-14.826 9.787-22.316 2.353 1.603 4.723 3.231 7.346 4.398z"/></g><g fill="#F04927"><path d="M243.403 67.246c2.614-.886 5.265-1.682 7.915-2.469 3.555 39.847 6.468 79.767 9.869 119.623.76 13.469 2.126 26.902 2.759 40.38-.1 1.827.543 4.062-.995 5.455l-.262-.434c-7.418-17.323-14.148-34.944-20.598-52.647-1.438-18.978-3.13-37.938-5.228-56.854-1.393-16.318-3.7-32.556-5.554-48.82 4.025-1.429 8.087-2.75 12.094-4.234zM436.922 100.246c2.108-2.099 4.206-4.215 6.332-6.314.344.353 1.04 1.058 1.384 1.402 3.501 4.288 7.302 8.304 10.946 12.465 1.547 1.783 3.085 3.583 4.459 5.509-2.08 2.044-4.088 4.17-6.087 6.305a527.822 527.822 0 0 0-6.595-8.874c-37.85 36.654-73.762 75.208-110.506 112.947a20.787 20.787 0 0 0-5.571 5.681c-2.244 2.361-4.56 4.632-6.802 6.983-5.42 4.016-9.48 9.535-14.729 13.759 5.709-12.23 11.255-24.542 17.17-36.672 4.007-3.375 7.336-7.427 11.056-11.09 9.84-10.367 19.963-20.471 29.679-30.955 23.238-23.565 46.043-47.563 69.264-71.146zM89.117 115.841c.696-.651 1.393-1.293 2.098-1.926 8.757 8.476 17.405 17.069 26.233 25.473 16.88 16.762 34.347 32.918 51 49.924 8.395 9.905 18.155 18.562 26.649 28.386-1.139-.805-2.297-1.583-3.374-2.46a14443.378 14443.378 0 0 0-79.214-67.41c-2.488-2.153-4.994-4.297-7.653-6.251-1.221 2.425-2.497 4.822-3.718 7.246-5.012-4.785-9.924-9.67-14.582-14.808-2.416-2.696-5.455-4.84-7.481-7.861 3.094-3.674 6.731-6.848 10.042-10.313zM213.181 257.174c4.604 3.428 8.757 7.427 13.397 10.819-1.882-.633-3.718-1.366-5.582-2.044-1.438-2.171-3.284-4.098-5.663-5.229-.705-1.203-1.393-2.388-2.152-3.546zM57.546 273.999c7.761-.407 15.55.027 23.32.235 45.103 1.899 89.889 8.377 135.019 9.688.154.01.471.036.625.045 1.122.797 2.244 1.594 3.383 2.379-12.828.905-25.636 1.909-38.454 2.822-43.104.073-86.189-2.145-129.293-1.811 1.375-4.556 2.334-9.604 5.4-13.358zM211.345 331.423c7.372-3.094 14.771-6.15 22.244-8.981-25.32 24.215-53.018 45.743-79.513 68.64-13.099 11.371-26.261 22.777-38.192 35.379.515 4.794 3.057 9.172 5.563 13.225a1049.345 1049.345 0 0 0-17.856 18.571c1.067 1.104 2.135 2.217 3.221 3.312-2.108 1.898-4.207 3.816-6.215 5.825-5.617-3.927-9.797-9.589-14.853-14.201l.769-.797a255.566 255.566 0 0 1 5.78-5.906c15.116-15.197 30.403-30.214 45.99-44.932 14.753-14.339 30.032-28.15 44.578-42.706 9.831-8.786 19.039-18.239 28.484-27.429zM304.336 330.763c2.416 2.65 5.348 4.749 8.114 7.012a3953.377 3953.377 0 0 1 33.226 27.39c1.303 1.077 2.731 1.973 4.161 2.868 5.927 5.916 11.769 11.913 17.485 18.027 23.156 24.324 46.171 48.794 70.061 72.413-2.08 1.527-4.161 3.058-6.259 4.567-4.551 3.247-9.11 6.486-13.813 9.517-18.245-19.402-36.229-39.052-54.229-58.672-9.271-9.77-18.236-19.818-27.546-29.553-5.192-5.763-10.421-11.497-16.038-16.835-5.393-12.102-10.295-24.415-15.162-36.734zM260.708 359.528c1.447-3.43 2.994-6.813 4.495-10.223-.09 17.061.073 34.148-.85 51.19-1.212-9.752-1.936-19.548-2.949-29.317-.299-3.87-1.085-7.751-.696-11.65zM292.007 467.926c.39 5.083 1.076 10.141 1.854 15.178-.57.398-1.141.807-1.701 1.214.091-5.465-.081-10.929-.153-16.392z"/></g><g fill="#6E2C91"><path d="M401.932 110.188c7.328-7.635 15.019-14.881 22.625-22.235 3.5 3.374 6.901 6.847 10.375 10.258.498.506 1.492 1.529 1.99 2.035-23.221 23.583-46.025 47.582-69.265 71.146-10.23 9.489-20.218 19.241-30.259 28.929.119-2.94 2.769-4.722 4.396-6.884 22.532-26.369 45.102-52.729 67.319-79.36-2.359-1.357-4.719-2.714-7.181-3.889zM83.101 109.337l1.592-1.773c2.253 2.036 4.406 4.179 6.522 6.351-.705.633-1.402 1.275-2.098 1.926a514.324 514.324 0 0 0-6.016-6.504zM262.002 152.404c.289-6.151-.345-12.348.688-18.444.615 33.307 1.212 66.604 1.51 99.912-.434-.995-1.013-1.945-1.239-3.003l-.009-.633c1.538-1.393.896-3.628.995-5.455-.633-13.478-1.999-26.912-2.759-40.38.778-10.639.407-21.332.814-31.997zM432.137 245.821c15.73-1.456 31.398-3.609 47.094-5.428 1.547 4.08 2.83 8.25 4.27 12.366.851 2.551 1.638 5.12 2.406 7.699-2.614.208-5.237.461-7.844.705-.705-.099-2.099-.289-2.804-.38l-.787-3.844c-32.937 3.926-65.583 10.52-98.764 12.257a27.294 27.294 0 0 0-7.092 1.131c-1.021-.091-2.035-.208-3.048-.317 20.76-8.195 41.801-15.667 62.705-23.483a17.988 17.988 0 0 1 3.864-.706zM155.314 272.823c7.228-.633 14.438-1.438 21.665-2.017 3.419.986 6.803 2.117 10.186 3.239-6.486.515-12.972-.299-19.466-.073-4.126-.226-8.468.534-12.385-1.149zM154.184 356.136c15.306-6.812 30.62-13.604 46.08-20.063-4.695 8.357-12.511 14.536-17.405 22.776-14.546 14.556-29.824 28.367-44.578 42.706-15.586 14.718-30.874 29.733-45.99 44.932-1.529-2.08-3.049-4.161-4.559-6.242-3.274-4.549-6.513-9.127-9.525-13.849 19.376-18.255 39.061-36.185 58.635-54.23 5.718-5.41 11.552-10.702 17.342-16.03zM431.124 463.04c2.098-1.511 4.179-3.04 6.259-4.567 2.054 1.973 4.135 3.944 5.917 6.188-2.091 1.304-3.854 3.04-5.844 4.479-2.072-2.075-4.198-4.092-6.332-6.1z"/></g><path fill="#8FA1C9" d="M103.716 90.739c2.488 1.782 4.65 3.953 6.821 6.097 7.001 7.047 14.455 13.632 21.131 20.996 25.355 25.618 49.354 52.529 73.986 78.835a1090.703 1090.703 0 0 0 28.693 30.213c3.745 3.691 7.201 7.725 11.453 10.873 2.895 4.36 7.101 7.572 10.755 11.253 6.975 6.423 13.678 13.162 21.004 19.195 0-1.447-.009-2.895-.026-4.342.832-43.981-1.177-87.999.633-131.971a635.36 635.36 0 0 1 7.191-1.049c4.342-1.004 9.281-.272 13.099-2.859 1.547 5.618.38 11.461.235 17.169-.235 9.951-.117 19.91-.896 29.843-.01 4.025-.842 8.241.858 12.058a76.424 76.424 0 0 1-.244 2.379c-2.605 10.367-1.066 21.14-2.344 31.661-.071 4.55-1.058 9.309.562 13.687-2.44 5.961-1.438 12.511-2.062 18.752-.508 4.867-.599 9.761-.77 14.646 4.694-4.867 9.498-9.634 14.184-14.519 5.492-5.771 11.588-11.027 16.5-17.305 2.242-2.352 4.559-4.623 6.803-6.983 2.162-1.565 4.088-3.446 5.572-5.681 36.742-37.739 72.655-76.293 110.505-112.947a527.822 527.822 0 0 1 6.595 8.874c3.237 4.55 6.458 9.118 9.498 13.795-19.178 18.236-38.943 35.849-58.175 54.031-15.188 13.696-30.068 27.726-45.021 41.674-2.019 1.665-3.897 3.501-5.337 5.699-2.227 1.312-4.134 3.058-5.826 4.993-6.179 5.229-11.777 11.09-17.693 16.608-3.058 2.985-6.25 5.844-9.072 9.055 12.412-4.161 23.963-10.62 36.438-14.627-11.832 5.057-23.592 10.285-35.424 15.333-4.749 1.999-8.259 5.961-11.688 9.652 20.271-.534 40.524-2.479 60.635-5.102-1.23-.136-2.451-.271-3.673-.398a27.336 27.336 0 0 1 7.092-1.131c33.181-1.737 65.827-8.331 98.764-12.257l.787 3.844c.705.091 2.099.281 2.804.38a80.39 80.39 0 0 0-2.441 1.357 424.386 424.386 0 0 0 1.937 8.187c.426 1.827.668 3.69.896 5.554-27.526 4.206-55.226 7.11-82.914 9.915-26.378 2.514-52.792 4.758-79.08 8.061-4.124.353-8.24.795-12.311 1.563 5.889 6.485 11.688 13.089 18.074 19.114 8.438 9.189 17.357 17.965 26.396 26.576 6.241 6.612 13.106 12.602 19.747 18.807a44.218 44.218 0 0 0 4.089 4.36c17.812 17.079 35.604 34.157 53.117 51.534 9.056 9.146 18.109 18.291 26.894 27.697 2.071 2.198 4.17 4.389 5.897 6.886-2.632 2.947-5.545 5.616-8.367 8.376-2.099 1.989-3.862 4.505-6.693 5.509-1.782-2.242-3.862-4.215-5.917-6.188-23.89-23.619-46.902-48.089-70.061-72.413-5.717-6.114-11.561-12.111-17.485-18.027-9.597-10.802-19.974-20.904-30.104-31.209-6.883-6.812-13.596-13.805-20.724-20.354a76.07 76.07 0 0 0-5.854-5.689c-.199 12.148-1.166 24.271-.858 36.429-.109 3.944-.128 7.888-.173 11.832-.315 5.291 0 10.593-.263 15.893-.858 9.788.137 19.595 0 29.399-.344 6.495-.252 12.973-.025 19.467-.824 10.249.37 20.489.135 30.748.02 4.459-.027 8.918.036 13.379.072 5.463.244 10.927.153 16.392-.027 3.338-.01 6.685.027 10.021 0 2.289-.045 4.577-.092 6.875a85.669 85.669 0 0 1-8.141-1.275c-6.541-1.52-13.47-2.813-19.068-6.685-.498-18.942.94-37.894 2.343-56.781 2.831-36.293 7.346-72.521 7.58-108.958.082-4.885.154-9.777-.046-14.653-3.282 2.405-6.024 5.428-9.019 8.158-4.622 4.271-9.407 8.377-13.551 13.126-6.069 5.328-11.904 10.981-17.25 17.053-2.551 2.106-4.948 4.414-7.002 7.02-12.374 12.03-24.062 24.74-36.002 37.196-17.476 18.02-34.609 36.365-52.339 54.14-4.875 5.5-10.285 10.466-15.586 15.541-2.352 2.107-4.179 4.903-6.957 6.468-3.627-3.103-6.757-6.747-10.249-9.995-1.086-1.095-2.153-2.207-3.221-3.312 5.88-6.26 11.823-12.456 17.856-18.571 29.924-30.304 61.458-58.941 91.653-88.966 11.488-10.729 22.054-22.38 33.054-33.588 4.93-5.726 10.701-10.773 14.971-17.033-7.011.497-13.994 1.295-20.978 2.09-10.339.588-20.643 1.863-30.964 2.741-5.617.787-11.316.724-16.916 1.654-4.677.354-9.625-.307-13.904 2.072-1.329-.661-2.795-.832-4.251-.589-20.806 1.863-41.657 3.401-62.38 5.942-4.903-.063-9.743.751-14.601 1.269-11.569 1.238-23.112 2.759-34.655 4.215-1.673-4.152-2.967-8.432-4.432-12.655-.814-2.461-1.583-4.931-2.352-7.392 41.892-3.689 83.819-6.938 125.747-10.275 12.818-.913 25.626-1.917 38.454-2.822a274.834 274.834 0 0 1-3.383-2.379c3.69.198 7.092 2.253 10.846 1.863 12.484-.913 24.976-1.639 37.459-2.561-.986-1.112-1.972-2.207-3.021-3.239-13.768-13.641-27.3-27.536-41.611-40.606-7.417-8.323-15.848-15.677-23.736-23.547-8.114-7.87-16.328-15.641-24.297-23.655-1.131-1.104-2.434-1.999-3.7-2.913-16.653-17.006-34.121-33.162-51-49.924-8.829-8.404-17.477-16.997-26.233-25.473-2.116-2.171-4.269-4.315-6.522-6.351 2.099-2.307 4.243-4.568 6.568-6.658 3.41-.561 5.454-3.456 7.616-5.834 1.654-1.393 3.246-2.868 4.837-4.333z"/><path fill="#9877B7" d="M91.261 100.906c2.496-1.882 4.088-6.016 7.616-5.834-2.162 2.379-4.207 5.273-7.616 5.834z"/><g fill="#4EC3C7"><path d="M456.932 173.355c9.787-3.962 19.422-8.386 29.417-11.778 1.827 4.387 3.609 8.802 5.455 13.189.38.922.77 1.836 1.167 2.759-30.34 12.854-60.48 26.179-90.775 39.142-13.008 5.165-26.17 9.914-39.15 15.143-1.638.66-3.338 1.122-5.011 1.619 13.487-7.472 27.427-14.121 41.095-21.276 20.245-10.33 40.391-20.86 60.653-31.181.75-.452 2.479-.95 1.646-2.162-1.259-2.009-3.014-3.628-4.497-5.455zM158.643 226.581c9.471 3.383 19.241 5.844 28.793 8.956 2.931 2.252 5.68 4.704 8.421 7.173a1524.331 1524.331 0 0 1-37.214-16.129zM362.582 307.152c1.665-.207 3.348-.39 5.029-.189 8.105.932 16.274.507 24.406.841 8.448.843 16.951.688 25.438.896-1.521.244-3.03.471-4.541.697 5.934-.554 11.914-.102 17.855.135 15.785 4.949 31.77 9.235 47.735 13.567.027 4.37-.813 8.687-.896 13.045-.081 2.623-.163 5.247-.264 7.88-3.572-.452-6.883-1.937-10.384-2.659.252-1.592.497-3.175.724-4.758-25.085-6.957-50.494-12.71-75.588-19.64-9.955-2.885-19.869-6.006-29.514-9.815zM111.731 314.009c20.724-2.541 41.575-4.079 62.38-5.942 1.456-.243 2.922-.072 4.251.589-8.385 4.215-16.454 9.063-25.03 12.898-2.37 1.031-4.758 2.035-7.173 2.948-34.755 13.308-69.572 26.479-103.874 40.933a198.054 198.054 0 0 1-1.9-7.524c-1.221-5.491-2.605-10.964-3.419-16.536 24.913-9.12 49.726-18.562 74.765-27.366zM350.396 510.016c1.981-.524 3.963-1.049 5.963-1.547 1.013 2.435 2.406 4.785 2.586 7.49 1.104.072 2.217.136 3.33.198l-.325.806c-3.247-.543-6.388.371-9.363 1.592a318.577 318.577 0 0 1-3.745-8.112c.388-.111 1.167-.319 1.554-.427z"/></g><g fill="#ACDEE0"><path d="M337.398 200.321c10.041-9.688 20.027-19.44 30.259-28.929-9.716 10.484-19.839 20.588-29.679 30.955-3.72 3.664-7.049 7.716-11.056 11.09.761-1.854 1.558-3.69 2.505-5.445 2.916-2.28 5.448-4.985 7.971-7.671zM31.132 247.558c8.576.163 17.169.109 25.745.525 7.309.886 14.682.298 22.009.931 7.806 1.032 15.74.091 23.546 1.185 2.361.353 4.759.208 7.074-.361 22.579 6.685 45.048 13.759 67.473 20.968-7.228.579-14.437 1.384-21.665 2.017-3.139.027-6.232.615-9.362.733-39.721-.859-79.423-2.343-119.153-2.135.461-2.533.896-5.065 1.294-7.607.886-5.437 1.709-10.901 3.039-16.256zM483.499 252.759c10.511-.949 21.005.498 31.517.208.28 4.84.1 9.688.153 14.537.009.724.026 2.162.026 2.886-12.547.09-25.093.253-37.64.316-.67-2.723-1.32-5.455-1.937-8.187a82.88 82.88 0 0 1 2.441-1.357c2.605-.244 5.229-.497 7.844-.705a243.103 243.103 0 0 0-2.404-7.698zM348.616 341.49c20.887 9.39 41.62 19.113 62.453 28.604l-1.068.452c11.254 9.625 23.086 18.571 34.79 27.646.706.507 1.502 1.339.86 2.242-1.512 3.564-3.438 6.938-5.065 10.448-1.268 2.479-2.561 4.938-3.809 7.426-2.822-2.151-5.52-4.459-8.188-6.793.822-1.329 1.583-2.705 2.343-4.062-20.851-15.739-41.846-31.263-62.569-47.156-6.638-6.205-13.506-12.193-19.747-18.807zM254.819 522.689c2.505.389 5.011.786 7.517 1.192.127 2.786.136 5.581.118 8.377-2.406-.271-4.831-.234-7.219-.643-.768-2.884-.254-5.969-.416-8.926z"/></g><path fill="#ECC05C" d="M491.804 174.766a108.446 108.446 0 0 0 8.224-3.003c.425.796.85 1.601 1.266 2.406-2.821.995-5.581 2.153-8.321 3.356-.401-.923-.789-1.837-1.169-2.759z"/><path fill="#FAB89C" d="M515.169 267.504c2.985.082 5.961.181 8.946.299v2.479c-2.978-.027-5.952-.018-8.92.109 0-.725-.017-2.163-.026-2.887z"/><path fill="#EDBA54" d="M209.183 304.928c10.321-.878 20.625-2.152 30.964-2.742-2.379.859-4.686 1.929-7.02 2.924-4.686-.092-9.372-.108-14.058-.219-3.292-.145-6.593-.181-9.886.037z"/></svg>