<?xml version="1.0" encoding="utf-8"?>
<!-- Generator: Adobe Illustrator 15.0.2, SVG Export Plug-In . SVG Version: 6.00 Build 0)  -->
<!DOCTYPE svg PUBLIC "-//W3C//DTD SVG 1.1//EN" "http://www.w3.org/Graphics/SVG/1.1/DTD/svg11.dtd" [
	<!ENTITY ns_extend "http://ns.adobe.com/Extensibility/1.0/">
	<!ENTITY ns_ai "http://ns.adobe.com/AdobeIllustrator/10.0/">
	<!ENTITY ns_graphs "http://ns.adobe.com/Graphs/1.0/">
	<!ENTITY ns_vars "http://ns.adobe.com/Variables/1.0/">
	<!ENTITY ns_imrep "http://ns.adobe.com/ImageReplacement/1.0/">
	<!ENTITY ns_sfw "http://ns.adobe.com/SaveForWeb/1.0/">
	<!ENTITY ns_custom "http://ns.adobe.com/GenericCustomNamespace/1.0/">
	<!ENTITY ns_adobe_xpath "http://ns.adobe.com/XPath/1.0/">
]>
<svg version="1.1" id="Layer_1" xmlns:x="&ns_extend;" xmlns:i="&ns_ai;" xmlns:graph="&ns_graphs;"
	 xmlns="http://www.w3.org/2000/svg" xmlns:xlink="http://www.w3.org/1999/xlink" x="0px" y="0px" width="560px" height="560px"
	 viewBox="0 0 560 560" enable-background="new 0 0 560 560" xml:space="preserve">
<metadata>
	<sfw  xmlns="&ns_sfw;">
		<slices></slices>
		<sliceSourceBounds  height="506.571" width="506.57" x="97.045" y="35.281" bottomLeftOrigin="true"></sliceSourceBounds>
	</sfw>
</metadata>
<g id="_x23_afdfe1ff">
	<path fill="#AFDFE1" d="M258.673,26.648h2.506c-0.019,2.985,0,5.97,0.117,8.946c-0.968,0-1.944,0.009-2.912,0.009
		C258.474,32.619,258.564,29.633,258.673,26.648z"/>
</g>
<g id="_x23_edba4bff">
	<path fill="#EDBA4B" d="M261.179,26.648h16.372c2.751,1.646,6.025,1.221,9.083,1.438c0.108,3.031,0.198,6.061,0.279,9.083
		c-0.153,10.665,0.842,21.321,0.091,31.977c-0.162,20.57-0.852,41.132-1.646,61.693c-2.396,0.334-4.795,0.687-7.191,1.049
		c-1.81,43.972,0.199,87.989-0.633,131.971c-4.505-9.959-8.938-19.964-13.334-29.987c-0.298-33.307-0.895-66.604-1.51-99.912
		c-0.507-32.792-1.204-65.574-1.394-98.365C261.179,32.619,261.16,29.633,261.179,26.648z"/>
	<path fill="#EDBA4B" d="M104.856,141.576c2.659,1.954,5.165,4.098,7.653,6.251c26.486,22.38,52.891,44.84,79.214,67.41
		c1.077,0.877,2.235,1.655,3.374,2.46c8.169,7.454,16.509,14.745,25.084,21.729c14.311,13.071,27.843,26.965,41.611,40.606
		c-11.695-4.161-23.51-7.933-35.215-12.04c-4.641-3.392-8.793-7.391-13.397-10.819c-5.708-4.894-11.361-9.869-17.323-14.464
		c-2.741-2.469-5.491-4.921-8.421-7.173c-17.567-14.917-35.216-29.761-53.154-44.234c-12.727-10.511-25.699-20.724-38.843-30.711
		c1.782-3.98,3.844-7.825,5.699-11.769C102.359,146.398,103.635,144.001,104.856,141.576z"/>
	<path fill="#EDBA4B" d="M309.754,250.109c5.248-4.224,9.311-9.743,14.729-13.759c-4.912,6.278-11.008,11.534-16.5,17.305
		C308.588,252.488,309.158,251.285,309.754,250.109z"/>
	<path fill="#EDBA4B" d="M395.537,286.176c39.865-0.76,79.729-1.421,119.604-1.059c-0.435,3.645-0.977,7.271-1.564,10.891
		c-0.922,5.436-1.836,10.883-2.993,16.273c-8.16-0.135-16.319-0.108-24.461-0.524c-7.526-0.841-15.124-0.308-22.659-0.914
		c-8.097-0.886-16.266-0.217-24.361-1.058c-2.768-0.316-5.554-0.28-8.33-0.254c-5.942-0.235-11.924-0.688-17.856-0.135
		c1.511-0.228,3.021-0.453,4.541-0.697c-8.485-0.208-16.988-0.055-25.438-0.896c-8.131-0.334-16.3,0.091-24.404-0.841
		c-1.684-0.199-3.365-0.018-5.03,0.189c9.644,3.809,19.558,6.93,29.519,9.814c-25.511-6.514-50.83-13.923-75.644-22.731
		C342.745,290.934,369.159,288.689,395.537,286.176z"/>
	<path fill="#EDBA4B" d="M26.519,287.885c8.53-0.443,17.078-0.434,25.627-0.525c43.104-0.334,86.189,1.884,129.293,1.811
		c-41.928,3.339-83.855,6.586-125.747,10.275c0.769,2.462,1.538,4.931,2.352,7.392c-10.494,0.045-20.987,0-31.479,0.026
		c-0.118-4.856-0.055-9.717-0.073-14.572C26.492,290.824,26.5,289.35,26.519,287.885z"/>
	<path fill="#EDBA4B" d="M233.588,322.44c4.125-1.928,8.63-2.985,12.565-5.312c-11,11.208-21.566,22.858-33.054,33.588
		c-30.195,30.023-61.729,58.662-91.653,88.966c-2.506-4.053-5.048-8.431-5.563-13.225c11.931-12.602,25.093-24.008,38.192-35.379
		C180.571,368.185,208.269,346.655,233.588,322.44z"/>
	<path fill="#EDBA4B" d="M299.009,316.47c7.128,6.549,13.841,13.542,20.724,20.354c10.132,10.305,20.509,20.408,30.104,31.209
		c-1.43-0.896-2.858-1.791-4.161-2.868c-11.027-9.19-22.099-18.317-33.226-27.39c-2.769-2.263-5.698-4.36-8.114-7.012
		C302.482,326.022,300.527,321.318,299.009,316.47z"/>
	<path fill="#EDBA4B" d="M274.811,327.515c-0.234,36.438-4.749,72.665-7.58,108.958c-1.402,18.889-2.841,37.84-2.343,56.781
		c5.599,3.871,12.527,5.165,19.068,6.686c-0.315,8.087-0.444,16.183-0.724,24.278c-0.082,2.994-0.199,5.997-0.289,9.001h-20.128
		l-0.361-0.959c0.018-2.796,0.009-5.591-0.118-8.377c-0.226-24.024,0.471-48.042,0.932-72.06
		c0.344-17.105,1.194-34.221,1.086-51.326c0.923-17.042,0.76-34.131,0.85-51.19C268.307,341.997,271.689,334.806,274.811,327.515z"
		/>
	<path fill="#EDBA4B" d="M368.363,360.297c20.725,15.895,41.72,31.417,62.569,47.156c-0.76,1.355-1.521,2.731-2.343,4.062
		c-0.995,1.565-2.035,3.104-3.021,4.678c-17.514-17.377-35.306-34.455-53.117-51.534
		C370.986,363.301,369.63,361.835,368.363,360.297z"/>
</g>
<g id="_x23_895881ff">
	<path fill="#895881" d="M243.901,35.64c4.831-0.082,9.661-0.037,14.483-0.037c0.968,0,1.944-0.009,2.912-0.009
		c0.189,32.792,0.887,65.574,1.394,98.365c-1.032,6.097-0.398,12.293-0.688,18.444c-0.407,10.665-0.036,21.357-0.814,31.996
		c-3.401-39.856-6.314-79.776-9.869-119.623c-2.65,0.787-5.301,1.583-7.915,2.469c0.081-5.979-0.235-11.977,0.145-17.956
		C244.118,44.758,243.874,40.19,243.901,35.64z"/>
	<path fill="#895881" d="M359.443,143.404c10.476-12.754,20.716-25.699,30.692-38.852c3.998,1.737,7.815,3.863,11.795,5.636
		c2.462,1.176,4.822,2.533,7.185,3.889c-22.219,26.631-44.787,52.991-67.319,79.36c-1.629,2.162-4.278,3.944-4.397,6.884
		c-2.522,2.686-5.056,5.391-7.969,7.671c7.437-17.079,15.368-33.95,22.896-51.001c0.725-2.135,2.714-4.261,1.765-6.622
		C355.652,147.89,357.626,145.701,359.443,143.404z"/>
	<path fill="#895881" d="M168.449,189.312c1.267,0.914,2.569,1.809,3.7,2.913c7.969,8.014,16.183,15.785,24.297,23.655
		c7.888,7.87,16.319,15.224,23.736,23.547c-8.576-6.984-16.916-14.275-25.084-21.729
		C186.604,207.874,176.844,199.217,168.449,189.312z"/>
	<path fill="#895881" d="M515.195,270.39c2.968-0.127,5.942-0.136,8.92-0.109v17.902l-0.852-0.986
		c-0.324,2.857-0.506,5.734-0.688,8.603c-3.003,0.036-6.006,0.091-9.001,0.208c0.589-3.619,1.131-7.246,1.564-10.891
		c-39.874-0.362-79.738,0.299-119.604,1.059c27.688-2.805,55.388-5.709,82.914-9.915c-0.228-1.864-0.47-3.727-0.896-5.554
		C490.104,270.643,502.648,270.48,515.195,270.39z"/>
	<path fill="#895881" d="M17.545,271.919l0.959-0.362c2.768-0.009,5.527-0.036,8.295-0.136c39.729-0.208,79.432,1.276,119.153,2.135
		c3.13-0.118,6.223-0.706,9.362-0.733c3.917,1.683,8.259,0.923,12.384,1.149c6.495-0.226,12.98,0.588,19.466,0.073
		c8.377,2.569,16.726,5.219,25.012,8.068c1.303,0.436,2.524,1.104,3.708,1.81c-45.129-1.312-89.916-7.789-135.019-9.688
		c-7.771-0.208-15.559-0.642-23.32-0.235c-3.066,3.754-4.025,8.803-5.4,13.359c-8.549,0.093-17.097,0.082-25.627,0.525
		c-0.019,1.465-0.027,2.939-0.027,4.405c-2.985-0.046-5.961-0.153-8.946-0.243V271.919L17.545,271.919z"/>
	<path fill="#895881" d="M200.264,336.072c3.663-1.629,7.363-3.167,11.081-4.649c-9.444,9.19-18.653,18.645-28.486,27.427
		C187.753,350.608,195.568,344.431,200.264,336.072z"/>
	<path fill="#895881" d="M242.77,401.927c5.925-14.157,11.886-28.296,17.938-42.397c-0.389,3.897,0.397,7.778,0.696,11.65
		c1.014,9.771,1.737,19.565,2.949,29.317c0.108,17.105-0.742,34.221-1.086,51.326c-0.461,24.018-1.157,48.034-0.932,72.06
		c-2.506-0.406-5.012-0.805-7.517-1.193c-5.473-0.878-10.909-1.927-16.346-2.939c0.09-7.87,0.19-15.731,0.416-23.592
		c1.077-10.801,0.389-21.701,1.457-32.502c-0.054-7.707,0.823-15.378,0.851-23.076c0.344-4.687,0.145-9.391,0.606-14.066
		C242.616,418.336,241.91,410.086,242.77,401.927z"/>
</g>
<g id="_x23_fab699ff">
	<path fill="#FAB699" d="M286.913,37.169c5.428,0.94,10.874,1.8,16.256,3.003c-0.081,8.413-0.153,16.843-0.497,25.256
		c-0.949,8.739-0.263,17.567-1.193,26.314c-0.516,6.938-0.072,13.922-0.852,20.851c-0.271,2.244-0.135,4.505,0.02,6.757
		c-0.715,2.877-1.883,5.654-2.189,8.63c-3.816,2.587-8.757,1.854-13.098,2.859c0.795-20.562,1.482-41.123,1.646-61.693
		C287.755,58.49,286.76,47.834,286.913,37.169z"/>
	<path fill="#FAB699" d="M19.02,264.13c3.022-0.117,6.052-0.217,9.074-0.316c-0.398,2.542-0.833,5.074-1.294,7.607
		c-2.768,0.1-5.527,0.127-8.295,0.136C18.785,269.087,18.875,266.609,19.02,264.13z"/>
	<path fill="#FAB699" d="M139.602,449.553c17.73-17.773,34.863-36.12,52.339-54.14c-3.247,7.382-6.685,14.7-10.149,21.99
		c-3.347,3.202-6.006,7.011-8.938,10.575c-7.236,8.981-14.346,18.072-21.294,27.281C147.462,453.597,143.6,451.417,139.602,449.553z
		"/>
	<path fill="#FAB699" d="M292.188,494.339c1.828-0.507,3.646-1.04,5.445-1.637c1.213,10.466-0.38,20.932,0.154,31.434
		c-4.85,0.235-9.706,0.146-14.555,0.082c0.278-8.097,0.406-16.191,0.724-24.278c2.687,0.561,5.409,0.977,8.142,1.274
		C292.143,498.916,292.188,496.628,292.188,494.339z"/>
</g>
<g id="_x23_00a651ff">
	<path fill="#00A651" d="M180.408,43.709c2.967-0.498,5.862-1.348,8.693-2.397c1.267,2.723,2.506,5.464,3.718,8.214
		c18.517,41.71,33.226,84.95,49.273,127.628c6.45,17.703,13.18,35.325,20.598,52.647l0.262,0.434l0.009,0.633
		c0.227,1.059,0.806,2.008,1.239,3.003c4.396,10.023,8.829,20.028,13.334,29.987c0.018,1.447,0.026,2.895,0.026,4.342
		c-7.326-6.034-14.029-12.772-21.004-19.195c-3.654-3.681-7.86-6.893-10.755-11.253c-0.933-2.858-1.963-5.69-3.212-8.431
		c-5.5-12.139-10.43-24.523-15.803-36.717c-5.763-13.506-11.787-26.902-17.432-40.453c-13.886-31.29-27.301-62.797-40.978-94.177
		c-0.398-0.85-0.778-1.718-1.167-2.569c-2.859-0.642-1.683-4.052-2.045-6.151C170.358,47.725,175.224,45.256,180.408,43.709z"/>
	<path fill="#00A651" d="M110.537,96.835c4.523-3.302,9.109-6.522,13.813-9.562c17.73,19.015,35.451,38.047,52.864,57.351
		c2.868,3.401,4.831,7.399,6.875,11.325c7.336,13.488,14.265,27.201,21.565,40.716c-24.632-26.306-48.631-53.217-73.986-78.835
		C124.992,110.468,117.539,103.882,110.537,96.835z"/>
	<path fill="#00A651" d="M434.932,98.21c2.171-2.026,4.271-4.17,6.768-5.816c0.516,0.516,1.031,1.022,1.556,1.538
		c-2.126,2.099-4.224,4.215-6.332,6.314C436.424,99.739,435.43,98.717,434.932,98.21z"/>
	<path fill="#00A651" d="M444.638,95.334c3.148,3.148,6.242,6.35,9.437,9.453c0.715,0.86,2.008,1.647,1.511,3.012
		C451.938,103.638,448.139,99.622,444.638,95.334z"/>
	<path fill="#00A651" d="M333.789,146.28c2.406,0.154,4.795,0.57,7.074,1.402c0.244-0.353,0.732-1.058,0.978-1.411l-0.452,1.293
		c4.151,1.23,8.332,2.741,12.7,2.804c0.949,2.361-1.04,4.487-1.765,6.622c-7.526,17.051-15.459,33.922-22.896,51.001
		c-0.947,1.755-1.744,3.591-2.505,5.445c-5.915,12.13-11.461,24.442-17.17,36.672c-0.596,1.176-1.166,2.379-1.771,3.546
		c-4.687,4.885-9.489,9.652-14.185,14.519c0.171-4.885,0.261-9.779,0.769-14.646c0.623-6.241-0.379-12.791,2.063-18.752
		c5.581-11.778,9.834-24.144,14.989-36.111C318.665,181.062,326.2,163.657,333.789,146.28z"/>
	<path fill="#00A651" d="M358.766,250.842c46.604-19.865,92.656-41.086,139.858-59.522c0.805,3.003,1.547,6.025,2.279,9.055
		c1.339,6.007,2.841,11.995,3.8,18.092c-25.465,9.399-50.894,18.87-76.43,28.061c-20.904,7.815-41.945,15.288-62.705,23.483
		c1.013,0.109,2.025,0.226,3.048,0.317c1.222,0.126,2.442,0.262,3.673,0.398c-20.109,2.624-40.363,4.568-60.635,5.102
		c3.429-3.691,6.938-7.653,11.688-9.652C335.174,261.127,346.934,255.898,358.766,250.842z"/>
	<path fill="#00A651" d="M64.24,215.871c3.546,0.334,6.83,1.728,10.186,2.795c35.361,11.334,70.712,22.706,106.072,34.013
		c13.469,4.505,26.902,9.145,40.499,13.27c1.864,0.679,3.7,1.412,5.582,2.044c11.705,4.107,23.52,7.879,35.215,12.04
		c1.05,1.031,2.035,2.125,3.021,3.238c-12.483,0.922-24.975,1.646-37.459,2.561c-3.754,0.391-7.155-1.665-10.846-1.863
		c-0.154-0.009-0.47-0.035-0.625-0.045c-1.185-0.706-2.406-1.374-3.708-1.81c-8.286-2.85-16.635-5.5-25.012-8.068
		c-3.383-1.122-6.766-2.253-10.186-3.239c-22.425-7.209-44.895-14.284-67.473-20.968c-6.612-1.909-13.18-3.962-19.819-5.753
		c-7.572-3.274-15.804-4.676-23.691-7.028c-1.067-0.389-3.139-0.579-2.469-2.28C64.575,228.517,64.096,222.185,64.24,215.871z"/>
	<path fill="#00A651" d="M304.146,295.8c4.069-0.771,8.187-1.212,12.311-1.563c24.813,8.81,50.133,16.219,75.643,22.731
		c25.094,6.929,50.503,12.683,75.588,19.64c-0.227,1.583-0.472,3.166-0.724,4.758c-0.517,2.976-1.067,5.952-1.792,8.892
		c0.553,0.271,1.104,0.552,1.664,0.842c-0.452,0.036-1.365,0.108-1.826,0.146c-0.146,1.493-0.281,2.984-0.416,4.478
		c-4.09-0.361-7.997-1.69-11.959-2.659c-23.085-5.942-45.942-12.736-68.748-19.666c-20.554-6.179-40.961-12.845-61.666-18.479
		C315.834,308.889,310.035,302.285,304.146,295.8z"/>
	<path fill="#00A651" d="M240.146,302.186c6.983-0.795,13.967-1.592,20.978-2.088c-4.27,6.26-10.041,11.308-14.971,17.032
		c-3.935,2.325-8.44,3.384-12.565,5.312c-7.472,2.831-14.872,5.889-22.244,8.981c-3.718,1.482-7.418,3.021-11.081,4.649
		c-15.46,6.459-30.774,13.252-46.08,20.063c-22.813,10.097-45.573,20.299-68.559,30.016c-9.118,3.825-18.3,7.525-27.454,11.271
		c-1.085,0.544-2.279,0.598-3.456,0.453c-1.077-4.496-3.229-8.611-4.975-12.863c-0.542-1.457-1.013-2.939-1.42-4.433
		c7.68-3.419,15.387-6.785,23.13-10.068c32.167-13.578,64.85-25.861,97.352-38.59c21.583-8.603,43.257-17.015,64.325-26.813
		C235.461,304.113,237.768,303.045,240.146,302.186z"/>
	<path fill="#00A651" d="M293.154,310.779c2.045,1.792,4.008,3.683,5.854,5.689c1.521,4.85,3.474,9.554,5.327,14.293
		c4.867,12.319,9.77,24.632,15.161,36.734c3.745,9.063,7.444,18.174,11.985,26.876c0.731,3.066,2.063,5.925,3.384,8.783
		c9.055,20.598,18.163,41.178,26.794,61.955c4.93,11.904,9.732,23.854,14.238,35.922c0.985,2.731,1.998,5.445,3.119,8.132
		c-5.428,2.678-11.115,4.786-16.742,6.992c-1.113-0.063-2.227-0.126-3.33-0.198c-0.18-2.705-1.573-5.057-2.586-7.49
		c-15.922-37.459-29.934-75.688-44.822-113.563c-4.152-11.643-8.956-23.05-13.461-34.556c-1.926-4.379-3.258-9.046-5.779-13.144
		C291.989,335.05,292.956,322.929,293.154,310.779z"/>
	<path fill="#00A651" d="M265.746,321.02c2.994-2.73,5.736-5.753,9.019-8.158c0.2,4.876,0.128,9.77,0.046,14.653
		c-3.121,7.291-6.504,14.482-9.607,21.792c-1.501,3.41-3.048,6.793-4.495,10.223c-6.052,14.103-12.013,28.24-17.938,42.397
		c-7.364,17.946-14.69,35.911-21.963,53.904c-2.75,6.676-5.274,13.496-6.73,20.588c-0.498,0.127-1.483,0.38-1.981,0.516
		c-0.977,3.003-2.189,5.927-3.41,8.839c-0.923,2.253-1.818,4.514-2.723,6.767c-2.624-1.167-4.994-2.795-7.346-4.396
		c-5.047-3.364-9.968-7.073-13.885-11.731c-1.049-0.978-1.239-2.379-0.479-3.582c16.165-38.646,37.161-74.964,55.732-112.44
		c4.224-8.676,8.693-17.26,12.211-26.241C256.339,329.396,261.124,325.289,265.746,321.02z"/>
	<path fill="#00A651" d="M291.861,404.332c4.568,11.624,8.855,23.365,12.973,35.161c1.355,16.319,3.609,32.557,5.536,48.821
		c-4.197,1.592-8.485,2.939-12.737,4.388c-1.799,0.597-3.617,1.13-5.445,1.637c-0.035-3.338-0.055-6.685-0.026-10.021
		c0.562-0.407,1.131-0.814,1.7-1.214c-0.777-5.037-1.465-10.095-1.854-15.178c-0.063-4.461-0.018-8.92-0.035-13.379
		c0.234-10.259-0.96-20.499-0.136-30.748C291.609,417.305,291.52,410.827,291.861,404.332z"/>
	<path fill="#00A651" d="M436.777,418.308c1.248-2.486,2.541-4.946,3.809-7.426c4.74,5.093,9.968,9.725,14.591,14.936
		c2.37,2.604,4.921,5.038,7.49,7.443c-2.986,3.917-6.84,7.057-10.204,10.629c-8.783-9.406-17.838-18.553-26.894-27.697
		c0.985-1.574,2.025-3.111,3.021-4.678C431.259,413.849,433.955,416.155,436.777,418.308z"/>
	<path fill="#00A651" d="M81.626,446.567c2.063-2.08,4.062-4.233,6.106-6.323c1.51,2.081,3.03,4.162,4.559,6.242
		c-1.954,1.936-3.89,3.907-5.78,5.906C84.756,450.557,83.065,448.657,81.626,446.567z"/>
</g>
<g id="_x23_fde92dff">
	<path fill="#FDE92D" d="M352.857,49.39c1.25-2.696,2.496-5.401,3.746-8.096c1.256,0.47,2.522,0.931,3.78,1.429
		c-0.397-0.054-1.212-0.172-1.608-0.226c-1.113,2.668-2.154,5.364-3.258,8.032C354.857,50.24,353.527,49.679,352.857,49.39z"/>
	<path fill="#FDE92D" d="M52.589,172.07c3.112-4.658,5.998-9.462,9.19-14.057c24.261,10.9,48.341,22.18,72.502,33.289
		c17.938,14.474,35.587,29.318,53.154,44.234c-9.553-3.112-19.322-5.572-28.793-8.956c-36.582-15.948-72.801-32.764-109.79-47.771
		C50.074,176.548,51.268,174.268,52.589,172.07z"/>
	<path fill="#FDE92D" d="M363.044,231.809c12.981-5.229,26.144-9.978,39.15-15.143c-17.595,7.933-35.423,15.378-53.101,23.139
		c1.692-1.936,3.602-3.682,5.826-4.993c1.021-0.479,2.071-0.932,3.112-1.384C359.706,232.931,361.406,232.469,363.044,231.809z"/>
	<path fill="#FDE92D" d="M477.61,336.145c9.814,3.882,19.528,8.042,29.228,12.203c-1.602,4.641-3.745,9.073-5.41,13.687
		c-0.516,0.824-1.049,1.639-1.592,2.452c-10.973-4.541-22.045-8.82-33-13.389c-0.561-0.29-1.111-0.569-1.664-0.842
		c0.724-2.938,1.275-5.916,1.792-8.892c3.501,0.724,6.812,2.207,10.384,2.659C477.447,341.392,477.529,338.768,477.61,336.145z"/>
	<path fill="#FDE92D" d="M319.497,367.497c5.617,5.338,10.846,11.072,16.038,16.835c9.309,9.733,18.273,19.783,27.546,29.553
		c7.68,14.7,15.911,29.109,24.196,43.484c-3.4,2.795-6.621,5.798-9.887,8.737c-1.981,1.801-4.062,3.475-6.242,5.021
		c-1.836-2.977-3.383-6.105-4.795-9.291c1.223-0.877,2.453-1.745,3.683-2.614c-9.95-17.113-20.146-34.075-30.222-51.107
		c-2.832-4.552-5.221-9.372-8.332-13.741C326.941,385.671,323.242,376.563,319.497,367.497z"/>
	<path fill="#FDE92D" d="M162.967,498.048c2.216,1.339,4.433,2.688,6.622,4.089c-1.031,2.688-2.09,5.373-3.501,7.89
		c-1.872-1.574-4.125-2.579-6.278-3.71C160.905,503.575,161.954,500.815,162.967,498.048z"/>
</g>
<g id="_x23_73c69bff">
	<path fill="#73C69B" d="M358.775,42.497c0.396,0.054,1.211,0.172,1.608,0.226c3.355,1.366,6.567,3.066,9.95,4.369
		c4.161,1.556,7.409,4.731,11.497,6.45c-1.103,2.741-2.116,5.509-3.147,8.268c-11.252,28.584-23.809,56.646-36.844,84.461
		c-0.244,0.353-0.732,1.058-0.979,1.411c-2.278-0.832-4.668-1.248-7.073-1.402c-7.589,17.377-15.124,34.782-22.171,52.385
		c-5.155,11.968-9.408,24.333-14.989,36.111c-1.618-4.378-0.633-9.136-0.562-13.687c1.276-10.521-0.262-21.294,2.344-31.661
		c4.424-11.66,9.814-22.94,14.699-34.419c9.879-21.81,18.209-44.271,27.121-66.487c5.082-12.673,10.146-25.347,15.285-37.993
		C356.621,47.861,357.662,45.165,358.775,42.497z"/>
	<path fill="#73C69B" d="M164.188,93.651c2.027-1.746,4.189-3.32,6.324-4.93c14.69,27.752,28.838,55.794,43.185,83.729
		c4.125,7.417,7.363,15.314,11.742,22.587c5.409,11.588,11.298,22.922,17.151,34.284c1.249,2.741,2.279,5.573,3.212,8.431
		c-4.252-3.148-7.708-7.182-11.453-10.873c-9.761-9.887-19.322-19.965-28.693-30.213c-7.3-13.515-14.229-27.228-21.565-40.716
		c-2.044-3.926-4.007-7.924-6.875-11.325c-0.28-2.533-1.764-4.668-2.949-6.857c-6.514-11.814-13.072-23.601-19.883-35.251
		C157.721,99.64,161.04,96.736,164.188,93.651z"/>
	<path fill="#73C69B" d="M41.996,193.762c8.114,2.668,15.921,6.169,23.882,9.236c38.472,15.948,76.438,33.072,114.62,49.68
		c-35.36-11.307-70.711-22.678-106.072-34.013c-3.356-1.067-6.64-2.46-10.186-2.795c-0.145,6.314,0.335,12.646-0.714,18.906
		c-0.67,1.701,1.402,1.891,2.469,2.28c7.888,2.352,16.12,3.754,23.691,7.028c-9.019-1.737-17.767-4.749-26.677-7.001
		c-0.126-4.505,0.299-9,0.498-13.497c-9.553-3.998-19.132-7.933-28.64-12.049c1.447-4.704,3.673-9.109,5.428-13.696
		C40.856,196.476,41.426,195.119,41.996,193.762z"/>
	<path fill="#73C69B" d="M219.069,304.891c4.686,0.109,9.372,0.127,14.058,0.219c-21.068,9.797-42.742,18.209-64.325,26.812
		c-32.502,12.729-65.185,25.012-97.352,38.59c-0.344-4.813-1.149-9.661-0.145-14.455c10.783-4.912,22.018-8.773,33.171-12.771
		c37.006-12.892,74.963-22.941,111.689-36.663C217.17,306.112,218.138,305.533,219.069,304.891z"/>
	<path fill="#73C69B" d="M322.221,314.914c20.705,5.636,41.112,12.302,61.666,18.479c36.961,14.511,73.922,29.064,110.432,44.688
		c-1.229,3.528-3.52,6.514-5.372,9.716c-2.959,4.713-5.898,9.436-9.056,14.021c-23.021-10.396-46.017-20.86-68.82-31.726
		c-20.834-9.489-41.566-19.214-62.453-28.604C339.579,332.879,330.66,324.104,322.221,314.914z"/>
	<path fill="#73C69B" d="M234.945,351.197c5.346-6.07,11.181-11.725,17.25-17.053c-3.519,8.982-7.987,17.566-12.211,26.242
		c-18.571,37.478-39.567,73.796-55.732,112.44c-0.76,1.203-0.57,2.604,0.479,3.582c3.917,4.658,8.838,8.367,13.885,11.731
		c-3.148,7.49-6.504,14.891-9.787,22.316c-1.24,2.714-2.551,5.391-3.836,8.087c-5.011-1.764-9.797-4.089-14.745-6.007
		c-1.547-0.562-2.922-1.447-4.161-2.514c1.411-2.517,2.47-5.202,3.501-7.89c13.976-34.267,29.335-67.942,44.307-101.784
		c1.583-3.601,3.103-7.219,4.559-10.863c3.781-7.526,6.947-15.333,10.276-23.059C230.847,361.374,233.272,356.435,234.945,351.197z"
		/>
	<path fill="#73C69B" d="M292.297,347.208c2.521,4.098,3.854,8.765,5.779,13.144c4.505,11.507,9.309,22.913,13.461,34.556
		c-6.694-11.832-12.447-24.197-19.413-35.866C292.169,355.096,292.188,351.152,292.297,347.208z"/>
	<path fill="#73C69B" d="M331.482,394.373c3.111,4.369,5.5,9.189,8.332,13.741c10.076,17.032,20.271,33.994,30.222,51.107
		c-1.229,0.869-2.46,1.737-3.683,2.614c-1.563,1.095-3.129,2.181-4.693,3.274c-8.631-20.777-17.739-41.357-26.794-61.955
		C333.546,400.298,332.215,397.439,331.482,394.373z"/>
</g>
<g id="_x23_ed2290ff">
	<path fill="#ED2290" d="M339.244,43.917c4.632,1.565,9.072,3.664,13.613,5.473c0.67,0.289,2,0.85,2.66,1.139
		c-5.14,12.646-10.203,25.32-15.287,37.993c-8.91,22.217-17.242,44.678-27.119,66.487c-4.887,11.479-10.276,22.759-14.7,34.419
		c0.1-0.796,0.172-1.592,0.243-2.379c1.91-4.324,2.959-8.946,4.479-13.415c9.77-29.996,19.295-60.074,28.957-90.106
		c1.066-3.338,2.396-6.622,2.776-10.14c-2.634-0.1-5.273-0.126-7.906-0.253C331.012,63.375,335.057,53.614,339.244,43.917z"/>
	<path fill="#ED2290" d="M209.354,152.151c5.645,13.551,11.669,26.947,17.432,40.453c5.373,12.194,10.303,24.578,15.803,36.717
		c-5.853-11.361-11.742-22.696-17.151-34.284C220.182,180.709,214.112,166.661,209.354,152.151z"/>
	<path fill="#ED2290" d="M405.279,187.439c14.519-7.644,28.766-15.785,42.985-23.962c2.795,3.375,5.816,6.549,8.666,9.878
		c1.483,1.827,3.238,3.446,4.496,5.455c0.832,1.212-0.896,1.709-1.646,2.162c-20.264,10.321-40.408,20.851-60.653,31.181
		c-13.668,7.155-27.606,13.804-41.095,21.276c-1.041,0.452-2.09,0.905-3.112,1.384c1.438-2.198,3.319-4.034,5.337-5.699
		C375.211,215.165,390.091,201.135,405.279,187.439z"/>
	<path fill="#ED2290" d="M38.197,179.37c0.552-1.483,1.339-2.867,2.415-4.034c2.714,1.23,5.473,2.37,8.241,3.474
		c36.989,15.007,73.208,31.823,109.79,47.771c12.339,5.536,24.741,10.928,37.215,16.129c5.961,4.596,11.615,9.571,17.323,14.464
		c0.76,1.158,1.448,2.343,2.153,3.546c-4.812-1.665-9.272-4.125-13.894-6.224c-42.019-20.136-82.236-43.981-125.304-61.919
		c-4.188,2.632-7.246,6.585-10.258,10.421c-7.961-3.066-15.768-6.567-23.882-9.236c-0.57,1.357-1.14,2.714-1.7,4.08
		c-2.723-1.185-5.418-2.442-8.078-3.745C33.973,189.095,36.279,184.309,38.197,179.37z"/>
	<path fill="#ED2290" d="M178.363,308.654c4.279-2.379,9.227-1.72,13.904-2.072c-13.008,4.922-25.853,10.268-38.934,14.972
		C161.909,317.718,169.978,312.869,178.363,308.654z"/>
	<path fill="#ED2290" d="M383.887,333.395c22.806,6.93,45.663,13.724,68.748,19.666c3.962,0.969,7.869,2.298,11.959,2.659
		c0.135-1.492,0.271-2.983,0.416-4.478c0.461-0.036,1.374-0.108,1.826-0.146c10.955,4.567,22.027,8.848,33,13.389
		c2.795,1.148,5.627,2.216,8.422,3.383c-0.063,0.407-0.189,1.203-0.253,1.609c-1.366,3.356-3.076,6.576-4.405,9.96
		c-1.573,4.135-4.649,7.454-6.367,11.524c-2.741-1.131-5.5-2.199-8.286-3.166c1.854-3.202,4.143-6.188,5.372-9.716
		C457.809,362.459,420.848,347.904,383.887,333.395z"/>
	<path fill="#ED2290" d="M191.941,395.413c11.941-12.456,23.628-25.166,36.002-37.196c-3.084,10.447-6.413,20.814-9.489,31.271
		c-1.456,3.646-2.976,7.264-4.559,10.863c-14.971,33.842-30.331,67.519-44.307,101.784c-2.189-1.401-4.406-2.75-6.622-4.089
		c-4.731-2.958-9.444-5.935-14.057-9.063c10.764-23.953,21.882-47.743,32.881-71.58
		C185.256,410.113,188.694,402.795,191.941,395.413z"/>
</g>
<g id="_x23_ecbf59ff">
	<path fill="#ECBF59" d="M192.818,49.525c5.491-1.266,10.973-2.659,16.554-3.473c4.098,11.379,8.458,22.668,12.583,34.04
		c5.047,13.37,9.616,26.93,14.908,40.208c2.098,18.915,3.79,37.875,5.228,56.854C226.044,134.476,211.335,91.236,192.818,49.525z"/>
	<path fill="#ECBF59" d="M331.284,229.367c1.475-2.243,3.364-4.152,5.571-5.681C335.372,225.92,333.445,227.802,331.284,229.367z"/>
	<path fill="#ECBF59" d="M40.386,357.909c0.588,2.515,1.212,5.028,1.9,7.524c-2.651,1.194-5.301,2.406-8.115,3.186
		c-0.244-2.424-1.23-4.668-1.972-6.956C34.914,360.388,37.654,359.148,40.386,357.909z"/>
	<path fill="#ECBF59" d="M220.807,455.831c7.273-17.993,14.6-35.958,21.963-53.904c-0.86,8.159-0.154,16.409-0.968,24.586
		c-0.461,4.678-0.262,9.381-0.606,14.066c-5.274,15.45-9.128,31.345-13.56,47.048c-4.188-0.082-8.332-0.76-12.501-0.986
		c-0.181,0.271-0.534,0.814-0.706,1.096c-1.882-0.77-3.809-1.395-5.744-1.963c1.221-2.912,2.434-5.835,3.41-8.839
		c0.498-0.136,1.483-0.389,1.981-0.516C215.533,469.327,218.057,462.507,220.807,455.831z"/>
	<path fill="#ECBF59" d="M361.66,465.111c1.564-1.095,3.13-2.181,4.693-3.274c1.412,3.186,2.959,6.314,4.795,9.291
		c2.182-1.547,4.261-3.221,6.242-5.021c4.033,9.733,8.395,19.366,11.786,29.346c-4.44,1.836-8.92,3.573-13.278,5.581
		C371.395,488.966,366.59,477.017,361.66,465.111z"/>
</g>
<g id="_x23_4f6ab2ff">
	<path fill="#4F6AB2" d="M165.446,58.535c0.977-0.199,1.945-0.389,2.931-0.561c13.677,31.38,27.092,62.887,40.978,94.177
		c4.758,14.509,10.828,28.558,16.083,42.886c-4.378-7.273-7.617-15.17-11.742-22.587c-14.347-27.934-28.495-55.976-43.185-83.729
		c-2.135,1.61-4.297,3.184-6.324,4.93c-3.98-9.707-8.259-19.313-11.759-29.209C156.707,62.344,161.529,61.285,165.446,58.535z"/>
	<path fill="#4F6AB2" d="M300.646,119.351c4.84-15.586,9.056-31.353,13.379-47.083c4.332-0.036,8.629,0.452,12.936,0.868
		c2.633,0.127,5.273,0.154,7.906,0.253c-0.381,3.519-1.709,6.802-2.776,10.14c-9.661,30.033-19.188,60.11-28.957,90.106
		c-1.52,4.469-2.567,9.091-4.478,13.415c-1.7-3.817-0.868-8.032-0.858-12.058c0.777-9.933,0.659-19.892,0.896-29.843
		c0.145-5.708,1.312-11.551-0.235-17.169C298.764,125.004,299.932,122.228,300.646,119.351z"/>
	<path fill="#4F6AB2" d="M492.971,177.525c2.74-1.203,5.5-2.361,8.321-3.356c1.366,3.329,2.406,6.775,3.764,10.104
		c1.964,4.469,2.552,9.372,4.405,13.886c-2.714,1.293-5.437,2.542-8.169,3.79c-0.09-0.398-0.289-1.185-0.389-1.574
		c-0.732-3.03-1.476-6.052-2.279-9.055c-47.202,18.436-93.254,39.657-139.858,59.522c-12.475,4.007-24.024,10.466-36.438,14.627
		c2.822-3.211,6.016-6.07,9.072-9.055c5.916-5.518,11.516-11.38,17.693-16.608c17.678-7.761,35.506-15.206,53.101-23.139
		C432.489,203.704,462.631,190.379,492.971,177.525z"/>
	<path fill="#4F6AB2" d="M65.878,202.998c3.012-3.835,6.069-7.789,10.258-10.421c43.067,17.938,83.285,41.783,125.304,61.919
		c4.622,2.099,9.082,4.559,13.894,6.224c2.379,1.131,4.225,3.058,5.663,5.229c-13.596-4.125-27.029-8.765-40.499-13.27
		C142.315,236.07,104.35,218.946,65.878,202.998z"/>
	<path fill="#4F6AB2" d="M192.267,306.582c5.6-0.932,11.299-0.867,16.916-1.654c3.293-0.218,6.595-0.182,9.887-0.037
		c-0.931,0.644-1.899,1.223-2.903,1.729c-36.726,13.722-74.683,23.771-111.689,36.663c-11.154,3.998-22.389,7.859-33.171,12.771
		c-1.004,4.794-0.199,9.644,0.145,14.455c-7.743,3.283-15.451,6.649-23.13,10.068c0.407,1.492,0.878,2.976,1.42,4.433
		c-2.768,0.933-5.437,2.17-8.259,2.948c-2-3.654-3.193-7.68-4.903-11.47c-0.959-2.568-2.578-5.03-2.407-7.87
		c2.814-0.778,5.464-1.99,8.115-3.186c34.302-14.454,69.119-27.625,103.874-40.933c2.415-0.913,4.803-1.917,7.173-2.948
		C166.414,316.85,179.259,311.504,192.267,306.582z"/>
	<path fill="#4F6AB2" d="M227.943,358.217c2.054-2.604,4.451-4.912,7.002-7.02c-1.673,5.236-4.098,10.177-6.215,15.232
		c-3.329,7.726-6.495,15.531-10.276,23.059C221.53,379.031,224.859,368.664,227.943,358.217z"/>
	<path fill="#4F6AB2" d="M291.861,374.933c0.263-5.3-0.055-10.602,0.263-15.893c6.966,11.669,12.719,24.034,19.413,35.866
		c14.89,37.875,28.9,76.104,44.822,113.563c-2,0.498-3.98,1.021-5.963,1.547c-6.033,1.33-12.021,2.867-18.137,3.754
		c-9.208-24.73-18.182-49.554-27.427-74.275c-4.116-11.796-8.403-23.537-12.972-35.161
		C291.998,394.526,291.003,384.721,291.861,374.933z"/>
</g>
<g id="_x23_ddc025ff">
	<path fill="#DDC025" d="M341.841,146.271c13.035-27.816,25.591-55.877,36.845-84.461c4.722,2.949,9.461,5.889,14.039,9.073
		c-10.884,24.27-22.218,48.333-33.281,72.521c-1.816,2.297-3.789,4.486-5.354,6.965c-4.369-0.063-8.549-1.574-12.699-2.804
		L341.841,146.271z"/>
	<path fill="#DDC025" d="M40.612,175.336c1.674-1.882,2.669-4.207,3.809-6.423c2.713,1.068,5.445,2.108,8.168,3.157
		c-1.321,2.198-2.515,4.478-3.736,6.74C46.085,177.706,43.326,176.566,40.612,175.336z"/>
	<path fill="#DDC025" d="M85.625,386.15c22.986-9.717,45.746-19.919,68.559-30.016c-5.79,5.328-11.624,10.62-17.341,16.029
		c-14.681,7.708-29.101,15.895-43.438,24.217c-2.551-3.049-5.21-5.989-7.879-8.92C85.553,387.136,85.607,386.477,85.625,386.15z"/>
	<path fill="#DDC025" d="M501.428,362.033c2.705,1.186,5.383,2.435,8.042,3.7c-0.487,1.238-0.968,2.497-1.465,3.744
		c0.063-0.406,0.19-1.202,0.253-1.609c-2.795-1.167-5.627-2.233-8.422-3.383C500.379,363.672,500.912,362.857,501.428,362.033z"/>
	<path fill="#DDC025" d="M205.962,492.539c0.904-2.253,1.8-4.514,2.723-6.767c1.936,0.568,3.862,1.193,5.744,1.963
		c-4.243,9.291-7.879,18.86-12.04,28.195c-4.613-1.592-9.037-3.664-13.56-5.473c3.283-7.427,6.639-14.826,9.787-22.316
		C200.969,489.744,203.339,491.372,205.962,492.539z"/>
</g>
<g id="_x23_f04927ff">
	<path fill="#F04927" d="M243.403,67.246c2.614-0.886,5.265-1.682,7.915-2.469c3.555,39.847,6.468,79.767,9.869,119.623
		c0.76,13.469,2.126,26.902,2.759,40.38c-0.1,1.827,0.543,4.062-0.995,5.455l-0.262-0.434
		c-7.418-17.323-14.148-34.944-20.598-52.647c-1.438-18.978-3.13-37.938-5.228-56.854c-1.393-16.318-3.7-32.556-5.554-48.82
		C235.334,70.051,239.396,68.73,243.403,67.246z"/>
	<path fill="#F04927" d="M436.922,100.246c2.108-2.099,4.206-4.215,6.332-6.314c0.344,0.353,1.04,1.058,1.384,1.402
		c3.501,4.288,7.302,8.304,10.946,12.465c1.547,1.783,3.085,3.583,4.459,5.509c-2.08,2.044-4.088,4.17-6.087,6.305
		c-2.163-2.985-4.37-5.935-6.595-8.874c-37.85,36.654-73.762,75.208-110.506,112.947c-2.207,1.528-4.098,3.438-5.571,5.681
		c-2.244,2.361-4.56,4.632-6.802,6.983c-5.42,4.016-9.48,9.535-14.729,13.759c5.709-12.23,11.255-24.542,17.17-36.672
		c4.007-3.375,7.336-7.427,11.056-11.09c9.84-10.367,19.963-20.471,29.679-30.955C390.896,147.827,413.701,123.829,436.922,100.246z
		"/>
	<path fill="#F04927" d="M89.117,115.841c0.696-0.651,1.393-1.293,2.098-1.926c8.757,8.476,17.405,17.069,26.233,25.473
		c16.88,16.762,34.347,32.918,51,49.924c8.395,9.905,18.155,18.562,26.649,28.386c-1.139-0.805-2.297-1.583-3.374-2.46
		c-26.323-22.57-52.729-45.03-79.214-67.41c-2.488-2.153-4.994-4.297-7.653-6.251c-1.221,2.425-2.497,4.822-3.718,7.246
		c-5.012-4.785-9.924-9.67-14.582-14.808c-2.416-2.696-5.455-4.84-7.481-7.861C82.169,122.48,85.806,119.306,89.117,115.841z"/>
	<path fill="#F04927" d="M213.181,257.174c4.604,3.428,8.757,7.427,13.397,10.819c-1.882-0.633-3.718-1.366-5.582-2.044
		c-1.438-2.171-3.284-4.098-5.663-5.229C214.628,259.517,213.94,258.332,213.181,257.174z"/>
	<path fill="#F04927" d="M57.546,273.999c7.761-0.407,15.55,0.027,23.32,0.235c45.103,1.899,89.889,8.377,135.019,9.688
		c0.154,0.01,0.471,0.036,0.625,0.045c1.122,0.797,2.244,1.594,3.383,2.379c-12.828,0.905-25.636,1.909-38.454,2.822
		c-43.104,0.073-86.189-2.145-129.293-1.811C53.521,282.801,54.48,277.753,57.546,273.999z"/>
	<path fill="#F04927" d="M211.345,331.423c7.372-3.094,14.771-6.15,22.244-8.981c-25.32,24.215-53.018,45.743-79.513,68.64
		c-13.099,11.371-26.261,22.777-38.192,35.379c0.515,4.794,3.057,9.172,5.563,13.225c-6.034,6.115-11.977,12.313-17.856,18.571
		c1.067,1.104,2.135,2.217,3.221,3.312c-2.108,1.898-4.207,3.816-6.215,5.825c-5.617-3.927-9.797-9.589-14.853-14.201l0.769-0.797
		c1.891-1.998,3.827-3.972,5.78-5.906c15.116-15.197,30.403-30.214,45.99-44.932c14.753-14.339,30.032-28.15,44.578-42.706
		C192.692,350.066,201.9,340.613,211.345,331.423z"/>
	<path fill="#F04927" d="M304.336,330.763c2.416,2.65,5.348,4.749,8.114,7.012c11.127,9.071,22.198,18.198,33.226,27.39
		c1.303,1.077,2.731,1.973,4.161,2.868c5.927,5.916,11.769,11.913,17.485,18.027c23.156,24.324,46.171,48.794,70.061,72.413
		c-2.08,1.527-4.161,3.058-6.259,4.567c-4.551,3.247-9.11,6.486-13.813,9.517c-18.245-19.402-36.229-39.052-54.229-58.672
		c-9.271-9.77-18.236-19.818-27.546-29.553c-5.192-5.763-10.421-11.497-16.038-16.835
		C314.105,355.395,309.203,343.082,304.336,330.763z"/>
	<path fill="#F04927" d="M260.708,359.528c1.447-3.43,2.994-6.813,4.495-10.223c-0.09,17.061,0.073,34.148-0.85,51.19
		c-1.212-9.752-1.936-19.548-2.949-29.317C261.105,367.308,260.319,363.427,260.708,359.528z"/>
	<path fill="#F04927" d="M292.007,467.926c0.39,5.083,1.076,10.141,1.854,15.178c-0.57,0.398-1.141,0.807-1.701,1.214
		C292.251,478.853,292.079,473.389,292.007,467.926z"/>
</g>
<g id="_x23_6e2c91ff">
	<path fill="#6E2C91" d="M401.932,110.188c7.328-7.635,15.019-14.881,22.625-22.235c3.5,3.374,6.901,6.847,10.375,10.258
		c0.498,0.506,1.492,1.529,1.99,2.035c-23.221,23.583-46.025,47.582-69.265,71.146c-10.23,9.489-20.218,19.241-30.259,28.929
		c0.119-2.94,2.769-4.722,4.396-6.884c22.532-26.369,45.102-52.729,67.319-79.36C406.754,112.72,404.394,111.363,401.932,110.188z"
		/>
	<path fill="#6E2C91" d="M83.101,109.337c0.398-0.443,1.194-1.33,1.592-1.773c2.253,2.036,4.406,4.179,6.522,6.351
		c-0.705,0.633-1.402,1.275-2.098,1.926C87.136,113.652,85.118,111.49,83.101,109.337z"/>
	<path fill="#6E2C91" d="M262.002,152.404c0.289-6.151-0.345-12.348,0.688-18.444c0.615,33.307,1.212,66.604,1.51,99.912
		c-0.434-0.995-1.013-1.945-1.239-3.003l-0.009-0.633c1.538-1.393,0.896-3.628,0.995-5.455c-0.633-13.478-1.999-26.912-2.759-40.38
		C261.966,173.762,261.595,163.069,262.002,152.404z"/>
	<path fill="#6E2C91" d="M432.137,245.821c15.73-1.456,31.398-3.609,47.094-5.428c1.547,4.08,2.83,8.25,4.27,12.366
		c0.851,2.551,1.638,5.12,2.406,7.699c-2.614,0.208-5.237,0.461-7.844,0.705c-0.705-0.099-2.099-0.289-2.804-0.38
		c-0.263-1.284-0.524-2.56-0.787-3.844c-32.937,3.926-65.583,10.52-98.764,12.257c-2.406,0.063-4.784,0.443-7.092,1.131
		c-1.021-0.091-2.035-0.208-3.048-0.317c20.76-8.195,41.801-15.667,62.705-23.483C429.522,246.156,430.825,245.912,432.137,245.821z
		"/>
	<path fill="#6E2C91" d="M155.314,272.823c7.228-0.633,14.438-1.438,21.665-2.017c3.419,0.986,6.803,2.117,10.186,3.239
		c-6.486,0.515-12.972-0.299-19.466-0.073C163.573,273.746,159.231,274.506,155.314,272.823z"/>
	<path fill="#6E2C91" d="M154.184,356.136c15.306-6.812,30.62-13.604,46.08-20.063c-4.695,8.357-12.511,14.536-17.405,22.776
		c-14.546,14.556-29.824,28.367-44.578,42.706c-15.586,14.718-30.874,29.733-45.99,44.932c-1.529-2.08-3.049-4.161-4.559-6.242
		c-3.274-4.549-6.513-9.127-9.525-13.849c19.376-18.255,39.061-36.185,58.635-54.23C142.56,366.756,148.394,361.464,154.184,356.136
		z"/>
	<path fill="#6E2C91" d="M431.124,463.04c2.098-1.511,4.179-3.04,6.259-4.567c2.054,1.973,4.135,3.944,5.917,6.188
		c-2.091,1.304-3.854,3.04-5.844,4.479C435.384,467.065,433.258,465.048,431.124,463.04z"/>
</g>
<g id="_x23_8fa1c9ff">
	<path fill="#8FA1C9" d="M103.716,90.739c2.488,1.782,4.65,3.953,6.821,6.097c7.001,7.047,14.455,13.632,21.131,20.996
		c25.355,25.618,49.354,52.529,73.986,78.835c9.372,10.249,18.933,20.326,28.693,30.213c3.745,3.691,7.201,7.725,11.453,10.873
		c2.895,4.36,7.101,7.572,10.755,11.253c6.975,6.423,13.678,13.162,21.004,19.195c0-1.447-0.009-2.895-0.026-4.342
		c0.832-43.981-1.177-87.999,0.633-131.971c2.396-0.362,4.795-0.715,7.191-1.049c4.342-1.004,9.281-0.272,13.099-2.859
		c1.547,5.618,0.38,11.461,0.235,17.169c-0.235,9.951-0.117,19.91-0.896,29.843c-0.01,4.025-0.842,8.241,0.858,12.058
		c-0.072,0.787-0.146,1.583-0.244,2.379c-2.605,10.367-1.066,21.14-2.344,31.661c-0.071,4.55-1.058,9.309,0.562,13.687
		c-2.44,5.961-1.438,12.511-2.062,18.752c-0.508,4.867-0.599,9.761-0.77,14.646c4.694-4.867,9.498-9.634,14.184-14.519
		c5.492-5.771,11.588-11.027,16.5-17.305c2.242-2.352,4.559-4.623,6.803-6.983c2.162-1.565,4.088-3.446,5.572-5.681
		c36.742-37.739,72.655-76.293,110.505-112.947c2.225,2.939,4.432,5.889,6.595,8.874c3.237,4.55,6.458,9.118,9.498,13.795
		c-19.178,18.236-38.943,35.849-58.175,54.031c-15.188,13.696-30.068,27.726-45.021,41.674c-2.019,1.665-3.897,3.501-5.337,5.699
		c-2.227,1.312-4.134,3.058-5.826,4.993c-6.179,5.229-11.777,11.09-17.693,16.608c-3.058,2.985-6.25,5.844-9.072,9.055
		c12.412-4.161,23.963-10.62,36.438-14.627c-11.832,5.057-23.592,10.285-35.424,15.333c-4.749,1.999-8.259,5.961-11.688,9.652
		c20.271-0.534,40.524-2.479,60.635-5.102c-1.23-0.136-2.451-0.271-3.673-0.398c2.308-0.688,4.686-1.067,7.092-1.131
		c33.181-1.737,65.827-8.331,98.764-12.257c0.263,1.284,0.524,2.56,0.787,3.844c0.705,0.091,2.099,0.281,2.804,0.38
		c-0.822,0.434-1.637,0.896-2.441,1.357c0.615,2.732,1.267,5.464,1.937,8.187c0.426,1.827,0.668,3.69,0.896,5.554
		c-27.526,4.206-55.226,7.11-82.914,9.915c-26.378,2.514-52.792,4.758-79.08,8.061c-4.124,0.353-8.24,0.795-12.311,1.563
		c5.889,6.485,11.688,13.089,18.074,19.114c8.438,9.189,17.357,17.965,26.396,26.576c6.241,6.612,13.106,12.602,19.747,18.807
		c1.267,1.538,2.623,3.004,4.089,4.36c17.812,17.079,35.604,34.157,53.117,51.534c9.056,9.146,18.109,18.291,26.894,27.697
		c2.071,2.198,4.17,4.389,5.897,6.886c-2.632,2.947-5.545,5.616-8.367,8.376c-2.099,1.989-3.862,4.505-6.693,5.509
		c-1.782-2.242-3.862-4.215-5.917-6.188c-23.89-23.619-46.902-48.089-70.061-72.413c-5.717-6.114-11.561-12.111-17.485-18.027
		c-9.597-10.802-19.974-20.904-30.104-31.209c-6.883-6.812-13.596-13.805-20.724-20.354c-1.847-2.008-3.81-3.897-5.854-5.689
		c-0.199,12.148-1.166,24.271-0.858,36.429c-0.109,3.944-0.128,7.888-0.173,11.832c-0.315,5.291,0,10.593-0.263,15.893
		c-0.858,9.788,0.137,19.595,0,29.399c-0.344,6.495-0.252,12.973-0.025,19.467c-0.824,10.249,0.37,20.489,0.135,30.748
		c0.02,4.459-0.027,8.918,0.036,13.379c0.072,5.463,0.244,10.927,0.153,16.392c-0.027,3.338-0.01,6.685,0.027,10.021
		c0,2.289-0.045,4.577-0.092,6.875c-2.73-0.299-5.453-0.715-8.141-1.275c-6.541-1.52-13.47-2.813-19.068-6.685
		c-0.498-18.942,0.94-37.894,2.343-56.781c2.831-36.293,7.346-72.521,7.58-108.958c0.082-4.885,0.154-9.777-0.046-14.653
		c-3.282,2.405-6.024,5.428-9.019,8.158c-4.622,4.271-9.407,8.377-13.551,13.126c-6.069,5.328-11.904,10.981-17.25,17.053
		c-2.551,2.106-4.948,4.414-7.002,7.02c-12.374,12.03-24.062,24.74-36.002,37.196c-17.476,18.02-34.609,36.365-52.339,54.14
		c-4.875,5.5-10.285,10.466-15.586,15.541c-2.352,2.107-4.179,4.903-6.957,6.468c-3.627-3.103-6.757-6.747-10.249-9.995
		c-1.086-1.095-2.153-2.207-3.221-3.312c5.88-6.26,11.823-12.456,17.856-18.571c29.924-30.304,61.458-58.941,91.653-88.966
		c11.488-10.729,22.054-22.38,33.054-33.588c4.93-5.726,10.701-10.773,14.971-17.033c-7.011,0.497-13.994,1.295-20.978,2.09
		c-10.339,0.588-20.643,1.863-30.964,2.741c-5.617,0.787-11.316,0.724-16.916,1.654c-4.677,0.354-9.625-0.307-13.904,2.072
		c-1.329-0.661-2.795-0.832-4.251-0.589c-20.806,1.863-41.657,3.401-62.38,5.942c-4.903-0.063-9.743,0.751-14.601,1.269
		c-11.569,1.238-23.112,2.759-34.655,4.215c-1.673-4.152-2.967-8.432-4.432-12.655c-0.814-2.461-1.583-4.931-2.352-7.392
		c41.892-3.689,83.819-6.938,125.747-10.275c12.818-0.913,25.626-1.917,38.454-2.822c-1.14-0.785-2.262-1.582-3.383-2.379
		c3.69,0.198,7.092,2.253,10.846,1.863c12.484-0.913,24.976-1.639,37.459-2.561c-0.986-1.112-1.972-2.207-3.021-3.239
		c-13.768-13.641-27.3-27.536-41.611-40.606c-7.417-8.323-15.848-15.677-23.736-23.547c-8.114-7.87-16.328-15.641-24.297-23.655
		c-1.131-1.104-2.434-1.999-3.7-2.913c-16.653-17.006-34.121-33.162-51-49.924c-8.829-8.404-17.477-16.997-26.233-25.473
		c-2.116-2.171-4.269-4.315-6.522-6.351c2.099-2.307,4.243-4.568,6.568-6.658c3.41-0.561,5.454-3.456,7.616-5.834
		C100.533,93.679,102.125,92.204,103.716,90.739z"/>
</g>
<g id="_x23_9877b7ff">
	<path fill="#9877B7" d="M91.261,100.906c2.496-1.882,4.088-6.016,7.616-5.834C96.715,97.451,94.67,100.345,91.261,100.906z"/>
</g>
<g id="_x23_4ec3c7ff">
	<path fill="#4EC3C7" d="M456.932,173.355c9.787-3.962,19.422-8.386,29.417-11.778c1.827,4.387,3.609,8.802,5.455,13.189
		c0.38,0.922,0.77,1.836,1.167,2.759c-30.34,12.854-60.48,26.179-90.775,39.142c-13.008,5.165-26.17,9.914-39.15,15.143
		c-1.638,0.66-3.338,1.122-5.011,1.619c13.487-7.472,27.427-14.121,41.095-21.276c20.245-10.33,40.391-20.86,60.653-31.181
		c0.75-0.452,2.479-0.95,1.646-2.162C460.17,176.801,458.415,175.182,456.932,173.355z"/>
	<path fill="#4EC3C7" d="M158.643,226.581c9.471,3.383,19.241,5.844,28.793,8.956c2.931,2.252,5.68,4.704,8.421,7.173
		C183.384,237.508,170.982,232.117,158.643,226.581z"/>
	<path fill="#4EC3C7" d="M362.582,307.152c1.665-0.207,3.348-0.39,5.029-0.189c8.105,0.932,16.274,0.507,24.406,0.841
		c8.448,0.843,16.951,0.688,25.438,0.896c-1.521,0.244-3.03,0.471-4.541,0.697c5.934-0.554,11.914-0.102,17.855,0.135
		c15.785,4.949,31.77,9.235,47.735,13.567c0.027,4.37-0.813,8.687-0.896,13.045c-0.081,2.623-0.163,5.247-0.264,7.88
		c-3.572-0.452-6.883-1.937-10.384-2.659c0.252-1.592,0.497-3.175,0.724-4.758c-25.085-6.957-50.494-12.71-75.588-19.64
		C382.141,314.082,372.227,310.961,362.582,307.152z"/>
	<path fill="#4EC3C7" d="M111.731,314.009c20.724-2.541,41.575-4.079,62.38-5.942c1.456-0.243,2.922-0.072,4.251,0.589
		c-8.385,4.215-16.454,9.063-25.03,12.898c-2.37,1.031-4.758,2.035-7.173,2.948c-34.755,13.308-69.572,26.479-103.874,40.933
		c-0.688-2.495-1.312-5.011-1.9-7.524c-1.221-5.491-2.605-10.964-3.419-16.536C61.879,332.255,86.692,322.813,111.731,314.009z"/>
	<path fill="#4EC3C7" d="M350.396,510.016c1.981-0.524,3.963-1.049,5.963-1.547c1.013,2.435,2.406,4.785,2.586,7.49
		c1.104,0.072,2.217,0.136,3.33,0.198l-0.325,0.806c-3.247-0.543-6.388,0.371-9.363,1.592c-1.293-2.687-2.532-5.399-3.745-8.112
		C349.23,510.332,350.009,510.124,350.396,510.016z"/>
</g>
<g id="_x23_acdee0ff">
	<path fill="#ACDEE0" d="M337.398,200.321c10.041-9.688,20.027-19.44,30.259-28.929c-9.716,10.484-19.839,20.588-29.679,30.955
		c-3.72,3.664-7.049,7.716-11.056,11.09c0.761-1.854,1.558-3.69,2.505-5.445C332.343,205.712,334.875,203.007,337.398,200.321z"/>
	<path fill="#ACDEE0" d="M31.132,247.558c8.576,0.163,17.169,0.109,25.745,0.525c7.309,0.886,14.682,0.298,22.009,0.931
		c7.806,1.032,15.74,0.091,23.546,1.185c2.361,0.353,4.759,0.208,7.074-0.361c22.579,6.685,45.048,13.759,67.473,20.968
		c-7.228,0.579-14.437,1.384-21.665,2.017c-3.139,0.027-6.232,0.615-9.362,0.733c-39.721-0.859-79.423-2.343-119.153-2.135
		c0.461-2.533,0.896-5.065,1.294-7.607C28.979,258.377,29.802,252.913,31.132,247.558z"/>
	<path fill="#ACDEE0" d="M483.499,252.759c10.511-0.949,21.005,0.498,31.517,0.208c0.28,4.84,0.1,9.688,0.153,14.537
		c0.009,0.724,0.026,2.162,0.026,2.886c-12.547,0.09-25.093,0.253-37.64,0.316c-0.67-2.723-1.32-5.455-1.937-8.187
		c0.806-0.461,1.619-0.923,2.441-1.357c2.605-0.244,5.229-0.497,7.844-0.705C485.137,257.879,484.35,255.31,483.499,252.759z"/>
	<path fill="#ACDEE0" d="M348.616,341.49c20.887,9.39,41.62,19.113,62.453,28.604l-1.068,0.452
		c11.254,9.625,23.086,18.571,34.79,27.646c0.706,0.507,1.502,1.339,0.86,2.242c-1.512,3.564-3.438,6.938-5.065,10.448
		c-1.268,2.479-2.561,4.938-3.809,7.426c-2.822-2.151-5.52-4.459-8.188-6.793c0.822-1.329,1.583-2.705,2.343-4.062
		c-20.851-15.739-41.846-31.263-62.569-47.156C361.725,354.092,354.857,348.104,348.616,341.49z"/>
	<path fill="#ACDEE0" d="M254.819,522.689c2.505,0.389,5.011,0.786,7.517,1.192c0.127,2.786,0.136,5.581,0.118,8.377
		c-2.406-0.271-4.831-0.234-7.219-0.643C254.467,528.731,254.981,525.646,254.819,522.689z"/>
</g>
<g id="_x23_ecc05cff">
	<path fill="#ECC05C" d="M491.804,174.766c2.776-0.887,5.519-1.891,8.224-3.003c0.425,0.796,0.85,1.601,1.266,2.406
		c-2.821,0.995-5.581,2.153-8.321,3.356C492.572,176.602,492.184,175.688,491.804,174.766z"/>
</g>
<g id="_x23_fab89cff">
	<path fill="#FAB89C" d="M515.169,267.504c2.985,0.082,5.961,0.181,8.946,0.299v2.479c-2.978-0.027-5.952-0.018-8.92,0.109
		C515.195,269.666,515.178,268.228,515.169,267.504z"/>
</g>
<g id="_x23_edba54ff">
	<path fill="#EDBA54" d="M209.183,304.928c10.321-0.878,20.625-2.152,30.964-2.742c-2.379,0.859-4.686,1.929-7.02,2.924
		c-4.686-0.092-9.372-0.108-14.058-0.219C215.777,304.746,212.476,304.71,209.183,304.928z"/>
</g>
</svg>
