<svg xmlns="http://www.w3.org/2000/svg" xmlns:xlink="http://www.w3.org/1999/xlink" width="560" height="560" viewBox="0 0 560 560"><defs><symbol id="a" overflow="visible"><path d="M173.672 0v-26.719H56.375V-237.53H26.063V0zm0 0"/></symbol><symbol id="b" overflow="visible"><path d="M157.047 0v-170.734H130v94.171c0 34.86-18.234 57.672-46.594 57.672-21.5 0-35.187-13.047-35.187-33.562v-118.281H21.172v129.03c0 28.345 21.187 46.595 54.422 46.595 25.094 0 41.047-8.797 57.015-31.282V0zm0 0"/></symbol><symbol id="c" overflow="visible"><path d="M174.313-.656v-20.516c-2.922.64-4.235.64-5.86.64-9.453 0-14.656-4.89-14.656-13.359v-95.14c0-30.297-22.156-46.594-64.188-46.594-41.39 0-66.796 15.969-68.437 55.39h27.375c2.281-20.843 14.656-30.296 40.078-30.296 24.438 0 38.125 9.125 38.125 25.406v7.172c0 11.406-6.844 16.297-28.344 18.906-38.453 4.875-44.312 6.188-54.75 10.422-19.875 8.14-29.968 23.453-29.968 44.313 0 30.953 21.5 49.203 56.046 49.203 21.829 0 43-9.125 57.985-25.094C130.656-7.172 142.39 2.28 155.75 2.28c5.531 0 9.766-.656 18.563-2.937zM126.75-58.97c0 24.438-24.766 40.078-51.156 40.078-21.188 0-33.563-7.5-33.563-26.078 0-17.922 12.063-25.734 41.063-29.968 28.672-3.907 34.531-5.22 43.656-9.454zm0 0"/></symbol></defs><path d="M478.225 279.452c0-108.102-87.633-195.735-195.735-195.735-108.101 0-195.734 87.633-195.734 195.735 0 108.101 87.633 195.734 195.734 195.734 108.102 0 195.735-87.633 195.735-195.734" fill="#00007f"/><path d="M420.896 198.376c0-31.661-25.668-57.33-57.33-57.33-31.661 0-57.33 25.669-57.33 57.33 0 31.662 25.669 57.33 57.33 57.33 31.662 0 57.33-25.668 57.33-57.33" fill="#fff"/><g fill="#fff" transform="matrix(.54064 0 0 .54064 5.68 101.039)"><use height="100%" width="100%" y="511.019" x="240.254" xlink:href="#a"/><use height="100%" width="100%" y="511.019" x="421.418" xlink:href="#b"/><use height="100%" width="100%" y="511.019" x="602.583" xlink:href="#c"/></g><path d="M507.971 164.562a253.068 253.068 0 0 1 27.583 114.89c0 139.763-113.3 253.064-253.064 253.064-139.763 0-253.064-113.301-253.064-253.064 0-139.763 113.301-253.064 253.064-253.064A253.07 253.07 0 0 1 420.32 67.215" fill="none" stroke="#7f7f7f" stroke-width="5.871564719999999" stroke-miterlimit="10" stroke-dasharray="408.475"/></svg>