# chain link: capsule along x, tips at -/+0.75, radius 0.3
v -0.7500 0.0000 0.0000
v -0.7500 0.0000 0.0000
v -0.7500 0.0000 0.0000
v -0.7500 0.0000 0.0000
v -0.7500 -0.0000 0.0000
v -0.7500 -0.0000 0.0000
v -0.7500 -0.0000 0.0000
v -0.7500 -0.0000 -0.0000
v -0.7500 -0.0000 -0.0000
v -0.7500 -0.0000 -0.0000
v -0.7500 0.0000 -0.0000
v -0.7500 0.0000 -0.0000
v -0.7272 0.1148 0.0000
v -0.7272 0.0994 0.0574
v -0.7272 0.0574 0.0994
v -0.7272 0.0000 0.1148
v -0.7272 -0.0574 0.0994
v -0.7272 -0.0994 0.0574
v -0.7272 -0.1148 0.0000
v -0.7272 -0.0994 -0.0574
v -0.7272 -0.0574 -0.0994
v -0.7272 -0.0000 -0.1148
v -0.7272 0.0574 -0.0994
v -0.7272 0.0994 -0.0574
v -0.6621 0.2121 0.0000
v -0.6621 0.1837 0.1061
v -0.6621 0.1061 0.1837
v -0.6621 0.0000 0.2121
v -0.6621 -0.1061 0.1837
v -0.6621 -0.1837 0.1061
v -0.6621 -0.2121 0.0000
v -0.6621 -0.1837 -0.1061
v -0.6621 -0.1061 -0.1837
v -0.6621 -0.0000 -0.2121
v -0.6621 0.1061 -0.1837
v -0.6621 0.1837 -0.1061
v -0.5648 0.2772 0.0000
v -0.5648 0.2400 0.1386
v -0.5648 0.1386 0.2400
v -0.5648 0.0000 0.2772
v -0.5648 -0.1386 0.2400
v -0.5648 -0.2400 0.1386
v -0.5648 -0.2772 0.0000
v -0.5648 -0.2400 -0.1386
v -0.5648 -0.1386 -0.2400
v -0.5648 -0.0000 -0.2772
v -0.5648 0.1386 -0.2400
v -0.5648 0.2400 -0.1386
v -0.4500 0.3000 0.0000
v -0.4500 0.2598 0.1500
v -0.4500 0.1500 0.2598
v -0.4500 0.0000 0.3000
v -0.4500 -0.1500 0.2598
v -0.4500 -0.2598 0.1500
v -0.4500 -0.3000 0.0000
v -0.4500 -0.2598 -0.1500
v -0.4500 -0.1500 -0.2598
v -0.4500 -0.0000 -0.3000
v -0.4500 0.1500 -0.2598
v -0.4500 0.2598 -0.1500
v 0.4500 0.3000 0.0000
v 0.4500 0.2598 0.1500
v 0.4500 0.1500 0.2598
v 0.4500 0.0000 0.3000
v 0.4500 -0.1500 0.2598
v 0.4500 -0.2598 0.1500
v 0.4500 -0.3000 0.0000
v 0.4500 -0.2598 -0.1500
v 0.4500 -0.1500 -0.2598
v 0.4500 -0.0000 -0.3000
v 0.4500 0.1500 -0.2598
v 0.4500 0.2598 -0.1500
v 0.5648 0.2772 0.0000
v 0.5648 0.2400 0.1386
v 0.5648 0.1386 0.2400
v 0.5648 0.0000 0.2772
v 0.5648 -0.1386 0.2400
v 0.5648 -0.2400 0.1386
v 0.5648 -0.2772 0.0000
v 0.5648 -0.2400 -0.1386
v 0.5648 -0.1386 -0.2400
v 0.5648 -0.0000 -0.2772
v 0.5648 0.1386 -0.2400
v 0.5648 0.2400 -0.1386
v 0.6621 0.2121 0.0000
v 0.6621 0.1837 0.1061
v 0.6621 0.1061 0.1837
v 0.6621 0.0000 0.2121
v 0.6621 -0.1061 0.1837
v 0.6621 -0.1837 0.1061
v 0.6621 -0.2121 0.0000
v 0.6621 -0.1837 -0.1061
v 0.6621 -0.1061 -0.1837
v 0.6621 -0.0000 -0.2121
v 0.6621 0.1061 -0.1837
v 0.6621 0.1837 -0.1061
v 0.7272 0.1148 0.0000
v 0.7272 0.0994 0.0574
v 0.7272 0.0574 0.0994
v 0.7272 0.0000 0.1148
v 0.7272 -0.0574 0.0994
v 0.7272 -0.0994 0.0574
v 0.7272 -0.1148 0.0000
v 0.7272 -0.0994 -0.0574
v 0.7272 -0.0574 -0.0994
v 0.7272 -0.0000 -0.1148
v 0.7272 0.0574 -0.0994
v 0.7272 0.0994 -0.0574
v 0.7500 0.0000 0.0000
v 0.7500 0.0000 0.0000
v 0.7500 0.0000 0.0000
v 0.7500 0.0000 0.0000
v 0.7500 -0.0000 0.0000
v 0.7500 -0.0000 0.0000
v 0.7500 -0.0000 0.0000
v 0.7500 -0.0000 -0.0000
v 0.7500 -0.0000 -0.0000
v 0.7500 -0.0000 -0.0000
v 0.7500 0.0000 -0.0000
v 0.7500 0.0000 -0.0000
f 1 2 13
f 2 14 13
f 2 3 14
f 3 15 14
f 3 4 15
f 4 16 15
f 4 5 16
f 5 17 16
f 5 6 17
f 6 18 17
f 6 7 18
f 7 19 18
f 7 8 19
f 8 20 19
f 8 9 20
f 9 21 20
f 9 10 21
f 10 22 21
f 10 11 22
f 11 23 22
f 11 12 23
f 12 24 23
f 12 1 24
f 1 13 24
f 13 14 25
f 14 26 25
f 14 15 26
f 15 27 26
f 15 16 27
f 16 28 27
f 16 17 28
f 17 29 28
f 17 18 29
f 18 30 29
f 18 19 30
f 19 31 30
f 19 20 31
f 20 32 31
f 20 21 32
f 21 33 32
f 21 22 33
f 22 34 33
f 22 23 34
f 23 35 34
f 23 24 35
f 24 36 35
f 24 13 36
f 13 25 36
f 25 26 37
f 26 38 37
f 26 27 38
f 27 39 38
f 27 28 39
f 28 40 39
f 28 29 40
f 29 41 40
f 29 30 41
f 30 42 41
f 30 31 42
f 31 43 42
f 31 32 43
f 32 44 43
f 32 33 44
f 33 45 44
f 33 34 45
f 34 46 45
f 34 35 46
f 35 47 46
f 35 36 47
f 36 48 47
f 36 25 48
f 25 37 48
f 37 38 49
f 38 50 49
f 38 39 50
f 39 51 50
f 39 40 51
f 40 52 51
f 40 41 52
f 41 53 52
f 41 42 53
f 42 54 53
f 42 43 54
f 43 55 54
f 43 44 55
f 44 56 55
f 44 45 56
f 45 57 56
f 45 46 57
f 46 58 57
f 46 47 58
f 47 59 58
f 47 48 59
f 48 60 59
f 48 37 60
f 37 49 60
f 49 50 61
f 50 62 61
f 50 51 62
f 51 63 62
f 51 52 63
f 52 64 63
f 52 53 64
f 53 65 64
f 53 54 65
f 54 66 65
f 54 55 66
f 55 67 66
f 55 56 67
f 56 68 67
f 56 57 68
f 57 69 68
f 57 58 69
f 58 70 69
f 58 59 70
f 59 71 70
f 59 60 71
f 60 72 71
f 60 49 72
f 49 61 72
f 61 62 73
f 62 74 73
f 62 63 74
f 63 75 74
f 63 64 75
f 64 76 75
f 64 65 76
f 65 77 76
f 65 66 77
f 66 78 77
f 66 67 78
f 67 79 78
f 67 68 79
f 68 80 79
f 68 69 80
f 69 81 80
f 69 70 81
f 70 82 81
f 70 71 82
f 71 83 82
f 71 72 83
f 72 84 83
f 72 61 84
f 61 73 84
f 73 74 85
f 74 86 85
f 74 75 86
f 75 87 86
f 75 76 87
f 76 88 87
f 76 77 88
f 77 89 88
f 77 78 89
f 78 90 89
f 78 79 90
f 79 91 90
f 79 80 91
f 80 92 91
f 80 81 92
f 81 93 92
f 81 82 93
f 82 94 93
f 82 83 94
f 83 95 94
f 83 84 95
f 84 96 95
f 84 73 96
f 73 85 96
f 85 86 97
f 86 98 97
f 86 87 98
f 87 99 98
f 87 88 99
f 88 100 99
f 88 89 100
f 89 101 100
f 89 90 101
f 90 102 101
f 90 91 102
f 91 103 102
f 91 92 103
f 92 104 103
f 92 93 104
f 93 105 104
f 93 94 105
f 94 106 105
f 94 95 106
f 95 107 106
f 95 96 107
f 96 108 107
f 96 85 108
f 85 97 108
f 97 98 109
f 98 110 109
f 98 99 110
f 99 111 110
f 99 100 111
f 100 112 111
f 100 101 112
f 101 113 112
f 101 102 113
f 102 114 113
f 102 103 114
f 103 115 114
f 103 104 115
f 104 116 115
f 104 105 116
f 105 117 116
f 105 106 117
f 106 118 117
f 106 107 118
f 107 119 118
f 107 108 119
f 108 120 119
f 108 97 120
f 97 109 120
