# T-handle (wing-nut proportions) for the Dzhanibekov exhibit; cm; origin at its centre of mass
v -5.00000 1.76482 0.00000
v -5.00000 1.75229 0.11126
v -5.00000 1.71531 0.21694
v -5.00000 1.65574 0.31174
v -5.00000 1.57657 0.39092
v -5.00000 1.48176 0.45048
v -5.00000 1.37608 0.48746
v -5.00000 1.26482 0.50000
v -5.00000 1.15356 0.48746
v -5.00000 1.04788 0.45048
v -5.00000 0.95308 0.39092
v -5.00000 0.87391 0.31174
v -5.00000 0.81434 0.21694
v -5.00000 0.77736 0.11126
v -5.00000 0.76482 0.00000
v -5.00000 0.77736 -0.11126
v -5.00000 0.81434 -0.21694
v -5.00000 0.87391 -0.31174
v -5.00000 0.95308 -0.39092
v -5.00000 1.04788 -0.45048
v -5.00000 1.15356 -0.48746
v -5.00000 1.26482 -0.50000
v -5.00000 1.37608 -0.48746
v -5.00000 1.48176 -0.45048
v -5.00000 1.57657 -0.39092
v -5.00000 1.65574 -0.31174
v -5.00000 1.71531 -0.21694
v -5.00000 1.75229 -0.11126
v 5.00000 1.76482 0.00000
v 5.00000 1.75229 0.11126
v 5.00000 1.71531 0.21694
v 5.00000 1.65574 0.31174
v 5.00000 1.57657 0.39092
v 5.00000 1.48176 0.45048
v 5.00000 1.37608 0.48746
v 5.00000 1.26482 0.50000
v 5.00000 1.15356 0.48746
v 5.00000 1.04788 0.45048
v 5.00000 0.95308 0.39092
v 5.00000 0.87391 0.31174
v 5.00000 0.81434 0.21694
v 5.00000 0.77736 0.11126
v 5.00000 0.76482 0.00000
v 5.00000 0.77736 -0.11126
v 5.00000 0.81434 -0.21694
v 5.00000 0.87391 -0.31174
v 5.00000 0.95308 -0.39092
v 5.00000 1.04788 -0.45048
v 5.00000 1.15356 -0.48746
v 5.00000 1.26482 -0.50000
v 5.00000 1.37608 -0.48746
v 5.00000 1.48176 -0.45048
v 5.00000 1.57657 -0.39092
v 5.00000 1.65574 -0.31174
v 5.00000 1.71531 -0.21694
v 5.00000 1.75229 -0.11126
v -5.00000 1.26482 0.00000
v 5.00000 1.26482 0.00000
v 0.00000 -3.23518 0.80000
v 0.17802 -3.23518 0.77994
v 0.34711 -3.23518 0.72078
v 0.49879 -3.23518 0.62547
v 0.62547 -3.23518 0.49879
v 0.72078 -3.23518 0.34711
v 0.77994 -3.23518 0.17802
v 0.80000 -3.23518 0.00000
v 0.77994 -3.23518 -0.17802
v 0.72078 -3.23518 -0.34711
v 0.62547 -3.23518 -0.49879
v 0.49879 -3.23518 -0.62547
v 0.34711 -3.23518 -0.72078
v 0.17802 -3.23518 -0.77994
v 0.00000 -3.23518 -0.80000
v -0.17802 -3.23518 -0.77994
v -0.34711 -3.23518 -0.72078
v -0.49879 -3.23518 -0.62547
v -0.62547 -3.23518 -0.49879
v -0.72078 -3.23518 -0.34711
v -0.77994 -3.23518 -0.17802
v -0.80000 -3.23518 -0.00000
v -0.77994 -3.23518 0.17802
v -0.72078 -3.23518 0.34711
v -0.62547 -3.23518 0.49879
v -0.49879 -3.23518 0.62547
v -0.34711 -3.23518 0.72078
v -0.17802 -3.23518 0.77994
v 0.00000 0.76482 0.80000
v 0.17802 0.76482 0.77994
v 0.34711 0.76482 0.72078
v 0.49879 0.76482 0.62547
v 0.62547 0.76482 0.49879
v 0.72078 0.76482 0.34711
v 0.77994 0.76482 0.17802
v 0.80000 0.76482 0.00000
v 0.77994 0.76482 -0.17802
v 0.72078 0.76482 -0.34711
v 0.62547 0.76482 -0.49879
v 0.49879 0.76482 -0.62547
v 0.34711 0.76482 -0.72078
v 0.17802 0.76482 -0.77994
v 0.00000 0.76482 -0.80000
v -0.17802 0.76482 -0.77994
v -0.34711 0.76482 -0.72078
v -0.49879 0.76482 -0.62547
v -0.62547 0.76482 -0.49879
v -0.72078 0.76482 -0.34711
v -0.77994 0.76482 -0.17802
v -0.80000 0.76482 -0.00000
v -0.77994 0.76482 0.17802
v -0.72078 0.76482 0.34711
v -0.62547 0.76482 0.49879
v -0.49879 0.76482 0.62547
v -0.34711 0.76482 0.72078
v -0.17802 0.76482 0.77994
v 0.00000 -3.23518 0.00000
v 0.00000 0.76482 0.00000
f 1 2 30
f 1 30 29
f 57 2 1
f 58 29 30
f 2 3 31
f 2 31 30
f 57 3 2
f 58 30 31
f 3 4 32
f 3 32 31
f 57 4 3
f 58 31 32
f 4 5 33
f 4 33 32
f 57 5 4
f 58 32 33
f 5 6 34
f 5 34 33
f 57 6 5
f 58 33 34
f 6 7 35
f 6 35 34
f 57 7 6
f 58 34 35
f 7 8 36
f 7 36 35
f 57 8 7
f 58 35 36
f 8 9 37
f 8 37 36
f 57 9 8
f 58 36 37
f 9 10 38
f 9 38 37
f 57 10 9
f 58 37 38
f 10 11 39
f 10 39 38
f 57 11 10
f 58 38 39
f 11 12 40
f 11 40 39
f 57 12 11
f 58 39 40
f 12 13 41
f 12 41 40
f 57 13 12
f 58 40 41
f 13 14 42
f 13 42 41
f 57 14 13
f 58 41 42
f 14 15 43
f 14 43 42
f 57 15 14
f 58 42 43
f 15 16 44
f 15 44 43
f 57 16 15
f 58 43 44
f 16 17 45
f 16 45 44
f 57 17 16
f 58 44 45
f 17 18 46
f 17 46 45
f 57 18 17
f 58 45 46
f 18 19 47
f 18 47 46
f 57 19 18
f 58 46 47
f 19 20 48
f 19 48 47
f 57 20 19
f 58 47 48
f 20 21 49
f 20 49 48
f 57 21 20
f 58 48 49
f 21 22 50
f 21 50 49
f 57 22 21
f 58 49 50
f 22 23 51
f 22 51 50
f 57 23 22
f 58 50 51
f 23 24 52
f 23 52 51
f 57 24 23
f 58 51 52
f 24 25 53
f 24 53 52
f 57 25 24
f 58 52 53
f 25 26 54
f 25 54 53
f 57 26 25
f 58 53 54
f 26 27 55
f 26 55 54
f 57 27 26
f 58 54 55
f 27 28 56
f 27 56 55
f 57 28 27
f 58 55 56
f 28 1 29
f 28 29 56
f 57 1 28
f 58 56 29
f 59 60 88
f 59 88 87
f 115 60 59
f 116 87 88
f 60 61 89
f 60 89 88
f 115 61 60
f 116 88 89
f 61 62 90
f 61 90 89
f 115 62 61
f 116 89 90
f 62 63 91
f 62 91 90
f 115 63 62
f 116 90 91
f 63 64 92
f 63 92 91
f 115 64 63
f 116 91 92
f 64 65 93
f 64 93 92
f 115 65 64
f 116 92 93
f 65 66 94
f 65 94 93
f 115 66 65
f 116 93 94
f 66 67 95
f 66 95 94
f 115 67 66
f 116 94 95
f 67 68 96
f 67 96 95
f 115 68 67
f 116 95 96
f 68 69 97
f 68 97 96
f 115 69 68
f 116 96 97
f 69 70 98
f 69 98 97
f 115 70 69
f 116 97 98
f 70 71 99
f 70 99 98
f 115 71 70
f 116 98 99
f 71 72 100
f 71 100 99
f 115 72 71
f 116 99 100
f 72 73 101
f 72 101 100
f 115 73 72
f 116 100 101
f 73 74 102
f 73 102 101
f 115 74 73
f 116 101 102
f 74 75 103
f 74 103 102
f 115 75 74
f 116 102 103
f 75 76 104
f 75 104 103
f 115 76 75
f 116 103 104
f 76 77 105
f 76 105 104
f 115 77 76
f 116 104 105
f 77 78 106
f 77 106 105
f 115 78 77
f 116 105 106
f 78 79 107
f 78 107 106
f 115 79 78
f 116 106 107
f 79 80 108
f 79 108 107
f 115 80 79
f 116 107 108
f 80 81 109
f 80 109 108
f 115 81 80
f 116 108 109
f 81 82 110
f 81 110 109
f 115 82 81
f 116 109 110
f 82 83 111
f 82 111 110
f 115 83 82
f 116 110 111
f 83 84 112
f 83 112 111
f 115 84 83
f 116 111 112
f 84 85 113
f 84 113 112
f 115 85 84
f 116 112 113
f 85 86 114
f 85 114 113
f 115 86 85
f 116 113 114
f 86 59 87
f 86 87 114
f 115 59 86
f 116 114 87
