# generated by make_meshes.py
v 1.73000 2.29579 0.00000
v 1.73000 2.27615 0.29966
v 1.73000 2.21757 0.59420
v 1.73000 2.12104 0.87856
v 1.73000 1.98822 1.14790
v 1.73000 1.82138 1.39759
v 1.73000 1.62337 1.62337
v 1.73000 1.39759 1.82138
v 1.73000 1.14790 1.98822
v 1.73000 0.87856 2.12104
v 1.73000 0.59420 2.21757
v 1.73000 0.29966 2.27615
v 1.73000 0.00000 2.29579
v 1.73000 -0.29966 2.27615
v 1.73000 -0.59420 2.21757
v 1.73000 -0.87856 2.12104
v 1.73000 -1.14790 1.98822
v 1.73000 -1.39759 1.82138
v 1.73000 -1.62337 1.62337
v 1.73000 -1.82138 1.39759
v 1.73000 -1.98822 1.14790
v 1.73000 -2.12104 0.87856
v 1.73000 -2.21757 0.59420
v 1.73000 -2.27615 0.29966
v 1.73000 -2.29579 0.00000
v 1.73000 -2.27615 -0.29966
v 1.73000 -2.21757 -0.59420
v 1.73000 -2.12104 -0.87856
v 1.73000 -1.98822 -1.14790
v 1.73000 -1.82138 -1.39759
v 1.73000 -1.62337 -1.62337
v 1.73000 -1.39759 -1.82138
v 1.73000 -1.14790 -1.98822
v 1.73000 -0.87856 -2.12104
v 1.73000 -0.59420 -2.21757
v 1.73000 -0.29966 -2.27615
v 1.73000 -0.00000 -2.29579
v 1.73000 0.29966 -2.27615
v 1.73000 0.59420 -2.21757
v 1.73000 0.87856 -2.12104
v 1.73000 1.14790 -1.98822
v 1.73000 1.39759 -1.82138
v 1.73000 1.62337 -1.62337
v 1.73000 1.82138 -1.39759
v 1.73000 1.98822 -1.14790
v 1.73000 2.12104 -0.87856
v 1.73000 2.21757 -0.59420
v 1.73000 2.27615 -0.29966
v 1.47338 2.46835 0.00000
v 1.47338 2.44723 0.32218
v 1.47338 2.38424 0.63886
v 1.47338 2.28046 0.94460
v 1.47338 2.13765 1.23417
v 1.47338 1.95827 1.50264
v 1.47338 1.74539 1.74539
v 1.47338 1.50264 1.95827
v 1.47338 1.23417 2.13765
v 1.47338 0.94460 2.28046
v 1.47338 0.63886 2.38424
v 1.47338 0.32218 2.44723
v 1.47338 0.00000 2.46835
v 1.47338 -0.32218 2.44723
v 1.47338 -0.63886 2.38424
v 1.47338 -0.94460 2.28046
v 1.47338 -1.23417 2.13765
v 1.47338 -1.50264 1.95827
v 1.47338 -1.74539 1.74539
v 1.47338 -1.95827 1.50264
v 1.47338 -2.13765 1.23417
v 1.47338 -2.28046 0.94460
v 1.47338 -2.38424 0.63886
v 1.47338 -2.44723 0.32218
v 1.47338 -2.46835 0.00000
v 1.47338 -2.44723 -0.32218
v 1.47338 -2.38424 -0.63886
v 1.47338 -2.28046 -0.94460
v 1.47338 -2.13765 -1.23417
v 1.47338 -1.95827 -1.50264
v 1.47338 -1.74539 -1.74539
v 1.47338 -1.50264 -1.95827
v 1.47338 -1.23417 -2.13765
v 1.47338 -0.94460 -2.28046
v 1.47338 -0.63886 -2.38424
v 1.47338 -0.32218 -2.44723
v 1.47338 -0.00000 -2.46835
v 1.47338 0.32218 -2.44723
v 1.47338 0.63886 -2.38424
v 1.47338 0.94460 -2.28046
v 1.47338 1.23417 -2.13765
v 1.47338 1.50264 -1.95827
v 1.47338 1.74539 -1.74539
v 1.47338 1.95827 -1.50264
v 1.47338 2.13765 -1.23417
v 1.47338 2.28046 -0.94460
v 1.47338 2.38424 -0.63886
v 1.47338 2.44723 -0.32218
v 1.19970 2.61234 0.00000
v 1.19970 2.58999 0.34098
v 1.19970 2.52332 0.67612
v 1.19970 2.41348 0.99970
v 1.19970 2.26235 1.30617
v 1.19970 2.07251 1.59029
v 1.19970 1.84720 1.84720
v 1.19970 1.59029 2.07251
v 1.19970 1.30617 2.26235
v 1.19970 0.99970 2.41348
v 1.19970 0.67612 2.52332
v 1.19970 0.34098 2.58999
v 1.19970 0.00000 2.61234
v 1.19970 -0.34098 2.58999
v 1.19970 -0.67612 2.52332
v 1.19970 -0.99970 2.41348
v 1.19970 -1.30617 2.26235
v 1.19970 -1.59029 2.07251
v 1.19970 -1.84720 1.84720
v 1.19970 -2.07251 1.59029
v 1.19970 -2.26235 1.30617
v 1.19970 -2.41348 0.99970
v 1.19970 -2.52332 0.67612
v 1.19970 -2.58999 0.34098
v 1.19970 -2.61234 0.00000
v 1.19970 -2.58999 -0.34098
v 1.19970 -2.52332 -0.67612
v 1.19970 -2.41348 -0.99970
v 1.19970 -2.26235 -1.30617
v 1.19970 -2.07251 -1.59029
v 1.19970 -1.84720 -1.84720
v 1.19970 -1.59029 -2.07251
v 1.19970 -1.30617 -2.26235
v 1.19970 -0.99970 -2.41348
v 1.19970 -0.67612 -2.52332
v 1.19970 -0.34098 -2.58999
v 1.19970 -0.00000 -2.61234
v 1.19970 0.34098 -2.58999
v 1.19970 0.67612 -2.52332
v 1.19970 0.99970 -2.41348
v 1.19970 1.30617 -2.26235
v 1.19970 1.59029 -2.07251
v 1.19970 1.84720 -1.84720
v 1.19970 2.07251 -1.59029
v 1.19970 2.26235 -1.30617
v 1.19970 2.41348 -0.99970
v 1.19970 2.52332 -0.67612
v 1.19970 2.58999 -0.34098
v 0.91214 2.72609 0.00000
v 0.91214 2.70277 0.35583
v 0.91214 2.63320 0.70557
v 0.91214 2.51858 1.04323
v 0.91214 2.36087 1.36305
v 0.91214 2.16276 1.65954
v 0.91214 1.92764 1.92764
v 0.91214 1.65954 2.16276
v 0.91214 1.36305 2.36087
v 0.91214 1.04323 2.51858
v 0.91214 0.70557 2.63320
v 0.91214 0.35583 2.70277
v 0.91214 0.00000 2.72609
v 0.91214 -0.35583 2.70277
v 0.91214 -0.70557 2.63320
v 0.91214 -1.04323 2.51858
v 0.91214 -1.36305 2.36087
v 0.91214 -1.65954 2.16276
v 0.91214 -1.92764 1.92764
v 0.91214 -2.16276 1.65954
v 0.91214 -2.36087 1.36305
v 0.91214 -2.51858 1.04323
v 0.91214 -2.63320 0.70557
v 0.91214 -2.70277 0.35583
v 0.91214 -2.72609 0.00000
v 0.91214 -2.70277 -0.35583
v 0.91214 -2.63320 -0.70557
v 0.91214 -2.51858 -1.04323
v 0.91214 -2.36087 -1.36305
v 0.91214 -2.16276 -1.65954
v 0.91214 -1.92764 -1.92764
v 0.91214 -1.65954 -2.16276
v 0.91214 -1.36305 -2.36087
v 0.91214 -1.04323 -2.51858
v 0.91214 -0.70557 -2.63320
v 0.91214 -0.35583 -2.70277
v 0.91214 -0.00000 -2.72609
v 0.91214 0.35583 -2.70277
v 0.91214 0.70557 -2.63320
v 0.91214 1.04323 -2.51858
v 0.91214 1.36305 -2.36087
v 0.91214 1.65954 -2.16276
v 0.91214 1.92764 -1.92764
v 0.91214 2.16276 -1.65954
v 0.91214 2.36087 -1.36305
v 0.91214 2.51858 -1.04323
v 0.91214 2.63320 -0.70557
v 0.91214 2.70277 -0.35583
v 0.61402 2.80830 0.00000
v 0.61402 2.78428 0.36656
v 0.61402 2.71261 0.72684
v 0.61402 2.59453 1.07469
v 0.61402 2.43206 1.40415
v 0.61402 2.22798 1.70959
v 0.61402 1.98577 1.98577
v 0.61402 1.70959 2.22798
v 0.61402 1.40415 2.43206
v 0.61402 1.07469 2.59453
v 0.61402 0.72684 2.71261
v 0.61402 0.36656 2.78428
v 0.61402 0.00000 2.80830
v 0.61402 -0.36656 2.78428
v 0.61402 -0.72684 2.71261
v 0.61402 -1.07469 2.59453
v 0.61402 -1.40415 2.43206
v 0.61402 -1.70959 2.22798
v 0.61402 -1.98577 1.98577
v 0.61402 -2.22798 1.70959
v 0.61402 -2.43206 1.40415
v 0.61402 -2.59453 1.07469
v 0.61402 -2.71261 0.72684
v 0.61402 -2.78428 0.36656
v 0.61402 -2.80830 0.00000
v 0.61402 -2.78428 -0.36656
v 0.61402 -2.71261 -0.72684
v 0.61402 -2.59453 -1.07469
v 0.61402 -2.43206 -1.40415
v 0.61402 -2.22798 -1.70959
v 0.61402 -1.98577 -1.98577
v 0.61402 -1.70959 -2.22798
v 0.61402 -1.40415 -2.43206
v 0.61402 -1.07469 -2.59453
v 0.61402 -0.72684 -2.71261
v 0.61402 -0.36656 -2.78428
v 0.61402 -0.00000 -2.80830
v 0.61402 0.36656 -2.78428
v 0.61402 0.72684 -2.71261
v 0.61402 1.07469 -2.59453
v 0.61402 1.40415 -2.43206
v 0.61402 1.70959 -2.22798
v 0.61402 1.98577 -1.98577
v 0.61402 2.22798 -1.70959
v 0.61402 2.43206 -1.40415
v 0.61402 2.59453 -1.07469
v 0.61402 2.71261 -0.72684
v 0.61402 2.78428 -0.36656
v 0.30880 2.85801 0.00000
v 0.30880 2.83356 0.37305
v 0.30880 2.76063 0.73971
v 0.30880 2.64046 1.09371
v 0.30880 2.47511 1.42901
v 0.30880 2.26741 1.73985
v 0.30880 2.02092 2.02092
v 0.30880 1.73985 2.26741
v 0.30880 1.42901 2.47511
v 0.30880 1.09371 2.64046
v 0.30880 0.73971 2.76063
v 0.30880 0.37305 2.83356
v 0.30880 0.00000 2.85801
v 0.30880 -0.37305 2.83356
v 0.30880 -0.73971 2.76063
v 0.30880 -1.09371 2.64046
v 0.30880 -1.42901 2.47511
v 0.30880 -1.73985 2.26741
v 0.30880 -2.02092 2.02092
v 0.30880 -2.26741 1.73985
v 0.30880 -2.47511 1.42901
v 0.30880 -2.64046 1.09371
v 0.30880 -2.76063 0.73971
v 0.30880 -2.83356 0.37305
v 0.30880 -2.85801 0.00000
v 0.30880 -2.83356 -0.37305
v 0.30880 -2.76063 -0.73971
v 0.30880 -2.64046 -1.09371
v 0.30880 -2.47511 -1.42901
v 0.30880 -2.26741 -1.73985
v 0.30880 -2.02092 -2.02092
v 0.30880 -1.73985 -2.26741
v 0.30880 -1.42901 -2.47511
v 0.30880 -1.09371 -2.64046
v 0.30880 -0.73971 -2.76063
v 0.30880 -0.37305 -2.83356
v 0.30880 -0.00000 -2.85801
v 0.30880 0.37305 -2.83356
v 0.30880 0.73971 -2.76063
v 0.30880 1.09371 -2.64046
v 0.30880 1.42901 -2.47511
v 0.30880 1.73985 -2.26741
v 0.30880 2.02092 -2.02092
v 0.30880 2.26741 -1.73985
v 0.30880 2.47511 -1.42901
v 0.30880 2.64046 -1.09371
v 0.30880 2.76063 -0.73971
v 0.30880 2.83356 -0.37305
v 0.00000 2.87465 0.00000
v 0.00000 2.85005 0.37522
v 0.00000 2.77669 0.74401
v 0.00000 2.65583 1.10008
v 0.00000 2.48952 1.43732
v 0.00000 2.28061 1.74997
v 0.00000 2.03268 2.03268
v 0.00000 1.74997 2.28061
v 0.00000 1.43732 2.48952
v 0.00000 1.10008 2.65583
v 0.00000 0.74401 2.77669
v 0.00000 0.37522 2.85005
v 0.00000 0.00000 2.87465
v 0.00000 -0.37522 2.85005
v 0.00000 -0.74401 2.77669
v 0.00000 -1.10008 2.65583
v 0.00000 -1.43732 2.48952
v 0.00000 -1.74997 2.28061
v 0.00000 -2.03268 2.03268
v 0.00000 -2.28061 1.74997
v 0.00000 -2.48952 1.43732
v 0.00000 -2.65583 1.10008
v 0.00000 -2.77669 0.74401
v 0.00000 -2.85005 0.37522
v 0.00000 -2.87465 0.00000
v 0.00000 -2.85005 -0.37522
v 0.00000 -2.77669 -0.74401
v 0.00000 -2.65583 -1.10008
v 0.00000 -2.48952 -1.43732
v 0.00000 -2.28061 -1.74997
v 0.00000 -2.03268 -2.03268
v 0.00000 -1.74997 -2.28061
v 0.00000 -1.43732 -2.48952
v 0.00000 -1.10008 -2.65583
v 0.00000 -0.74401 -2.77669
v 0.00000 -0.37522 -2.85005
v 0.00000 -0.00000 -2.87465
v 0.00000 0.37522 -2.85005
v 0.00000 0.74401 -2.77669
v 0.00000 1.10008 -2.65583
v 0.00000 1.43732 -2.48952
v 0.00000 1.74997 -2.28061
v 0.00000 2.03268 -2.03268
v 0.00000 2.28061 -1.74997
v 0.00000 2.48952 -1.43732
v 0.00000 2.65583 -1.10008
v 0.00000 2.77669 -0.74401
v 0.00000 2.85005 -0.37522
v -0.30880 2.85801 0.00000
v -0.30880 2.83356 0.37305
v -0.30880 2.76063 0.73971
v -0.30880 2.64046 1.09371
v -0.30880 2.47511 1.42901
v -0.30880 2.26741 1.73985
v -0.30880 2.02092 2.02092
v -0.30880 1.73985 2.26741
v -0.30880 1.42901 2.47511
v -0.30880 1.09371 2.64046
v -0.30880 0.73971 2.76063
v -0.30880 0.37305 2.83356
v -0.30880 0.00000 2.85801
v -0.30880 -0.37305 2.83356
v -0.30880 -0.73971 2.76063
v -0.30880 -1.09371 2.64046
v -0.30880 -1.42901 2.47511
v -0.30880 -1.73985 2.26741
v -0.30880 -2.02092 2.02092
v -0.30880 -2.26741 1.73985
v -0.30880 -2.47511 1.42901
v -0.30880 -2.64046 1.09371
v -0.30880 -2.76063 0.73971
v -0.30880 -2.83356 0.37305
v -0.30880 -2.85801 0.00000
v -0.30880 -2.83356 -0.37305
v -0.30880 -2.76063 -0.73971
v -0.30880 -2.64046 -1.09371
v -0.30880 -2.47511 -1.42901
v -0.30880 -2.26741 -1.73985
v -0.30880 -2.02092 -2.02092
v -0.30880 -1.73985 -2.26741
v -0.30880 -1.42901 -2.47511
v -0.30880 -1.09371 -2.64046
v -0.30880 -0.73971 -2.76063
v -0.30880 -0.37305 -2.83356
v -0.30880 -0.00000 -2.85801
v -0.30880 0.37305 -2.83356
v -0.30880 0.73971 -2.76063
v -0.30880 1.09371 -2.64046
v -0.30880 1.42901 -2.47511
v -0.30880 1.73985 -2.26741
v -0.30880 2.02092 -2.02092
v -0.30880 2.26741 -1.73985
v -0.30880 2.47511 -1.42901
v -0.30880 2.64046 -1.09371
v -0.30880 2.76063 -0.73971
v -0.30880 2.83356 -0.37305
v -0.61402 2.80830 0.00000
v -0.61402 2.78428 0.36656
v -0.61402 2.71261 0.72684
v -0.61402 2.59453 1.07469
v -0.61402 2.43206 1.40415
v -0.61402 2.22798 1.70959
v -0.61402 1.98577 1.98577
v -0.61402 1.70959 2.22798
v -0.61402 1.40415 2.43206
v -0.61402 1.07469 2.59453
v -0.61402 0.72684 2.71261
v -0.61402 0.36656 2.78428
v -0.61402 0.00000 2.80830
v -0.61402 -0.36656 2.78428
v -0.61402 -0.72684 2.71261
v -0.61402 -1.07469 2.59453
v -0.61402 -1.40415 2.43206
v -0.61402 -1.70959 2.22798
v -0.61402 -1.98577 1.98577
v -0.61402 -2.22798 1.70959
v -0.61402 -2.43206 1.40415
v -0.61402 -2.59453 1.07469
v -0.61402 -2.71261 0.72684
v -0.61402 -2.78428 0.36656
v -0.61402 -2.80830 0.00000
v -0.61402 -2.78428 -0.36656
v -0.61402 -2.71261 -0.72684
v -0.61402 -2.59453 -1.07469
v -0.61402 -2.43206 -1.40415
v -0.61402 -2.22798 -1.70959
v -0.61402 -1.98577 -1.98577
v -0.61402 -1.70959 -2.22798
v -0.61402 -1.40415 -2.43206
v -0.61402 -1.07469 -2.59453
v -0.61402 -0.72684 -2.71261
v -0.61402 -0.36656 -2.78428
v -0.61402 -0.00000 -2.80830
v -0.61402 0.36656 -2.78428
v -0.61402 0.72684 -2.71261
v -0.61402 1.07469 -2.59453
v -0.61402 1.40415 -2.43206
v -0.61402 1.70959 -2.22798
v -0.61402 1.98577 -1.98577
v -0.61402 2.22798 -1.70959
v -0.61402 2.43206 -1.40415
v -0.61402 2.59453 -1.07469
v -0.61402 2.71261 -0.72684
v -0.61402 2.78428 -0.36656
v -0.91214 2.72609 0.00000
v -0.91214 2.70277 0.35583
v -0.91214 2.63320 0.70557
v -0.91214 2.51858 1.04323
v -0.91214 2.36087 1.36305
v -0.91214 2.16276 1.65954
v -0.91214 1.92764 1.92764
v -0.91214 1.65954 2.16276
v -0.91214 1.36305 2.36087
v -0.91214 1.04323 2.51858
v -0.91214 0.70557 2.63320
v -0.91214 0.35583 2.70277
v -0.91214 0.00000 2.72609
v -0.91214 -0.35583 2.70277
v -0.91214 -0.70557 2.63320
v -0.91214 -1.04323 2.51858
v -0.91214 -1.36305 2.36087
v -0.91214 -1.65954 2.16276
v -0.91214 -1.92764 1.92764
v -0.91214 -2.16276 1.65954
v -0.91214 -2.36087 1.36305
v -0.91214 -2.51858 1.04323
v -0.91214 -2.63320 0.70557
v -0.91214 -2.70277 0.35583
v -0.91214 -2.72609 0.00000
v -0.91214 -2.70277 -0.35583
v -0.91214 -2.63320 -0.70557
v -0.91214 -2.51858 -1.04323
v -0.91214 -2.36087 -1.36305
v -0.91214 -2.16276 -1.65954
v -0.91214 -1.92764 -1.92764
v -0.91214 -1.65954 -2.16276
v -0.91214 -1.36305 -2.36087
v -0.91214 -1.04323 -2.51858
v -0.91214 -0.70557 -2.63320
v -0.91214 -0.35583 -2.70277
v -0.91214 -0.00000 -2.72609
v -0.91214 0.35583 -2.70277
v -0.91214 0.70557 -2.63320
v -0.91214 1.04323 -2.51858
v -0.91214 1.36305 -2.36087
v -0.91214 1.65954 -2.16276
v -0.91214 1.92764 -1.92764
v -0.91214 2.16276 -1.65954
v -0.91214 2.36087 -1.36305
v -0.91214 2.51858 -1.04323
v -0.91214 2.63320 -0.70557
v -0.91214 2.70277 -0.35583
v -1.19970 2.61234 0.00000
v -1.19970 2.58999 0.34098
v -1.19970 2.52332 0.67612
v -1.19970 2.41348 0.99970
v -1.19970 2.26235 1.30617
v -1.19970 2.07251 1.59029
v -1.19970 1.84720 1.84720
v -1.19970 1.59029 2.07251
v -1.19970 1.30617 2.26235
v -1.19970 0.99970 2.41348
v -1.19970 0.67612 2.52332
v -1.19970 0.34098 2.58999
v -1.19970 0.00000 2.61234
v -1.19970 -0.34098 2.58999
v -1.19970 -0.67612 2.52332
v -1.19970 -0.99970 2.41348
v -1.19970 -1.30617 2.26235
v -1.19970 -1.59029 2.07251
v -1.19970 -1.84720 1.84720
v -1.19970 -2.07251 1.59029
v -1.19970 -2.26235 1.30617
v -1.19970 -2.41348 0.99970
v -1.19970 -2.52332 0.67612
v -1.19970 -2.58999 0.34098
v -1.19970 -2.61234 0.00000
v -1.19970 -2.58999 -0.34098
v -1.19970 -2.52332 -0.67612
v -1.19970 -2.41348 -0.99970
v -1.19970 -2.26235 -1.30617
v -1.19970 -2.07251 -1.59029
v -1.19970 -1.84720 -1.84720
v -1.19970 -1.59029 -2.07251
v -1.19970 -1.30617 -2.26235
v -1.19970 -0.99970 -2.41348
v -1.19970 -0.67612 -2.52332
v -1.19970 -0.34098 -2.58999
v -1.19970 -0.00000 -2.61234
v -1.19970 0.34098 -2.58999
v -1.19970 0.67612 -2.52332
v -1.19970 0.99970 -2.41348
v -1.19970 1.30617 -2.26235
v -1.19970 1.59029 -2.07251
v -1.19970 1.84720 -1.84720
v -1.19970 2.07251 -1.59029
v -1.19970 2.26235 -1.30617
v -1.19970 2.41348 -0.99970
v -1.19970 2.52332 -0.67612
v -1.19970 2.58999 -0.34098
v -1.47338 2.46835 0.00000
v -1.47338 2.44723 0.32218
v -1.47338 2.38424 0.63886
v -1.47338 2.28046 0.94460
v -1.47338 2.13765 1.23417
v -1.47338 1.95827 1.50264
v -1.47338 1.74539 1.74539
v -1.47338 1.50264 1.95827
v -1.47338 1.23417 2.13765
v -1.47338 0.94460 2.28046
v -1.47338 0.63886 2.38424
v -1.47338 0.32218 2.44723
v -1.47338 0.00000 2.46835
v -1.47338 -0.32218 2.44723
v -1.47338 -0.63886 2.38424
v -1.47338 -0.94460 2.28046
v -1.47338 -1.23417 2.13765
v -1.47338 -1.50264 1.95827
v -1.47338 -1.74539 1.74539
v -1.47338 -1.95827 1.50264
v -1.47338 -2.13765 1.23417
v -1.47338 -2.28046 0.94460
v -1.47338 -2.38424 0.63886
v -1.47338 -2.44723 0.32218
v -1.47338 -2.46835 0.00000
v -1.47338 -2.44723 -0.32218
v -1.47338 -2.38424 -0.63886
v -1.47338 -2.28046 -0.94460
v -1.47338 -2.13765 -1.23417
v -1.47338 -1.95827 -1.50264
v -1.47338 -1.74539 -1.74539
v -1.47338 -1.50264 -1.95827
v -1.47338 -1.23417 -2.13765
v -1.47338 -0.94460 -2.28046
v -1.47338 -0.63886 -2.38424
v -1.47338 -0.32218 -2.44723
v -1.47338 -0.00000 -2.46835
v -1.47338 0.32218 -2.44723
v -1.47338 0.63886 -2.38424
v -1.47338 0.94460 -2.28046
v -1.47338 1.23417 -2.13765
v -1.47338 1.50264 -1.95827
v -1.47338 1.74539 -1.74539
v -1.47338 1.95827 -1.50264
v -1.47338 2.13765 -1.23417
v -1.47338 2.28046 -0.94460
v -1.47338 2.38424 -0.63886
v -1.47338 2.44723 -0.32218
v -1.73000 2.29579 0.00000
v -1.73000 2.27615 0.29966
v -1.73000 2.21757 0.59420
v -1.73000 2.12104 0.87856
v -1.73000 1.98822 1.14790
v -1.73000 1.82138 1.39759
v -1.73000 1.62337 1.62337
v -1.73000 1.39759 1.82138
v -1.73000 1.14790 1.98822
v -1.73000 0.87856 2.12104
v -1.73000 0.59420 2.21757
v -1.73000 0.29966 2.27615
v -1.73000 0.00000 2.29579
v -1.73000 -0.29966 2.27615
v -1.73000 -0.59420 2.21757
v -1.73000 -0.87856 2.12104
v -1.73000 -1.14790 1.98822
v -1.73000 -1.39759 1.82138
v -1.73000 -1.62337 1.62337
v -1.73000 -1.82138 1.39759
v -1.73000 -1.98822 1.14790
v -1.73000 -2.12104 0.87856
v -1.73000 -2.21757 0.59420
v -1.73000 -2.27615 0.29966
v -1.73000 -2.29579 0.00000
v -1.73000 -2.27615 -0.29966
v -1.73000 -2.21757 -0.59420
v -1.73000 -2.12104 -0.87856
v -1.73000 -1.98822 -1.14790
v -1.73000 -1.82138 -1.39759
v -1.73000 -1.62337 -1.62337
v -1.73000 -1.39759 -1.82138
v -1.73000 -1.14790 -1.98822
v -1.73000 -0.87856 -2.12104
v -1.73000 -0.59420 -2.21757
v -1.73000 -0.29966 -2.27615
v -1.73000 -0.00000 -2.29579
v -1.73000 0.29966 -2.27615
v -1.73000 0.59420 -2.21757
v -1.73000 0.87856 -2.12104
v -1.73000 1.14790 -1.98822
v -1.73000 1.39759 -1.82138
v -1.73000 1.62337 -1.62337
v -1.73000 1.82138 -1.39759
v -1.73000 1.98822 -1.14790
v -1.73000 2.12104 -0.87856
v -1.73000 2.21757 -0.59420
v -1.73000 2.27615 -0.29966
vn 0.60182 0.79864 0.00000
vn 0.60182 0.79180 0.10424
vn 0.60182 0.77142 0.20670
vn 0.60182 0.73784 0.30562
vn 0.60182 0.69164 0.39932
vn 0.60182 0.63360 0.48618
vn 0.60182 0.56472 0.56472
vn 0.60182 0.48618 0.63360
vn 0.60182 0.39932 0.69164
vn 0.60182 0.30562 0.73784
vn 0.60182 0.20670 0.77142
vn 0.60182 0.10424 0.79180
vn 0.60182 0.00000 0.79864
vn 0.60182 -0.10424 0.79180
vn 0.60182 -0.20670 0.77142
vn 0.60182 -0.30562 0.73784
vn 0.60182 -0.39932 0.69164
vn 0.60182 -0.48618 0.63360
vn 0.60182 -0.56472 0.56472
vn 0.60182 -0.63360 0.48618
vn 0.60182 -0.69164 0.39932
vn 0.60182 -0.73784 0.30562
vn 0.60182 -0.77142 0.20670
vn 0.60182 -0.79180 0.10424
vn 0.60182 -0.79864 0.00000
vn 0.60182 -0.79180 -0.10424
vn 0.60182 -0.77142 -0.20670
vn 0.60182 -0.73784 -0.30562
vn 0.60182 -0.69164 -0.39932
vn 0.60182 -0.63360 -0.48618
vn 0.60182 -0.56472 -0.56472
vn 0.60182 -0.48618 -0.63360
vn 0.60182 -0.39932 -0.69164
vn 0.60182 -0.30562 -0.73784
vn 0.60182 -0.20670 -0.77142
vn 0.60182 -0.10424 -0.79180
vn 0.60182 -0.00000 -0.79864
vn 0.60182 0.10424 -0.79180
vn 0.60182 0.20670 -0.77142
vn 0.60182 0.30562 -0.73784
vn 0.60182 0.39932 -0.69164
vn 0.60182 0.48618 -0.63360
vn 0.60182 0.56472 -0.56472
vn 0.60182 0.63360 -0.48618
vn 0.60182 0.69164 -0.39932
vn 0.60182 0.73784 -0.30562
vn 0.60182 0.77142 -0.20670
vn 0.60182 0.79180 -0.10424
vn 0.51254 0.85866 0.00000
vn 0.51254 0.85132 0.11208
vn 0.51254 0.82940 0.22224
vn 0.51254 0.79330 0.32860
vn 0.51254 0.74362 0.42933
vn 0.51254 0.68122 0.52272
vn 0.51254 0.60717 0.60717
vn 0.51254 0.52272 0.68122
vn 0.51254 0.42933 0.74362
vn 0.51254 0.32860 0.79330
vn 0.51254 0.22224 0.82940
vn 0.51254 0.11208 0.85132
vn 0.51254 0.00000 0.85866
vn 0.51254 -0.11208 0.85132
vn 0.51254 -0.22224 0.82940
vn 0.51254 -0.32860 0.79330
vn 0.51254 -0.42933 0.74362
vn 0.51254 -0.52272 0.68122
vn 0.51254 -0.60717 0.60717
vn 0.51254 -0.68122 0.52272
vn 0.51254 -0.74362 0.42933
vn 0.51254 -0.79330 0.32860
vn 0.51254 -0.82940 0.22224
vn 0.51254 -0.85132 0.11208
vn 0.51254 -0.85866 0.00000
vn 0.51254 -0.85132 -0.11208
vn 0.51254 -0.82940 -0.22224
vn 0.51254 -0.79330 -0.32860
vn 0.51254 -0.74362 -0.42933
vn 0.51254 -0.68122 -0.52272
vn 0.51254 -0.60717 -0.60717
vn 0.51254 -0.52272 -0.68122
vn 0.51254 -0.42933 -0.74362
vn 0.51254 -0.32860 -0.79330
vn 0.51254 -0.22224 -0.82940
vn 0.51254 -0.11208 -0.85132
vn 0.51254 -0.00000 -0.85866
vn 0.51254 0.11208 -0.85132
vn 0.51254 0.22224 -0.82940
vn 0.51254 0.32860 -0.79330
vn 0.51254 0.42933 -0.74362
vn 0.51254 0.52272 -0.68122
vn 0.51254 0.60717 -0.60717
vn 0.51254 0.68122 -0.52272
vn 0.51254 0.74362 -0.42933
vn 0.51254 0.79330 -0.32860
vn 0.51254 0.82940 -0.22224
vn 0.51254 0.85132 -0.11208
vn 0.41734 0.90875 0.00000
vn 0.41734 0.90098 0.11862
vn 0.41734 0.87779 0.23520
vn 0.41734 0.83958 0.34776
vn 0.41734 0.78700 0.45438
vn 0.41734 0.72096 0.55321
vn 0.41734 0.64258 0.64258
vn 0.41734 0.55321 0.72096
vn 0.41734 0.45438 0.78700
vn 0.41734 0.34776 0.83958
vn 0.41734 0.23520 0.87779
vn 0.41734 0.11862 0.90098
vn 0.41734 0.00000 0.90875
vn 0.41734 -0.11862 0.90098
vn 0.41734 -0.23520 0.87779
vn 0.41734 -0.34776 0.83958
vn 0.41734 -0.45438 0.78700
vn 0.41734 -0.55321 0.72096
vn 0.41734 -0.64258 0.64258
vn 0.41734 -0.72096 0.55321
vn 0.41734 -0.78700 0.45438
vn 0.41734 -0.83958 0.34776
vn 0.41734 -0.87779 0.23520
vn 0.41734 -0.90098 0.11862
vn 0.41734 -0.90875 0.00000
vn 0.41734 -0.90098 -0.11862
vn 0.41734 -0.87779 -0.23520
vn 0.41734 -0.83958 -0.34776
vn 0.41734 -0.78700 -0.45438
vn 0.41734 -0.72096 -0.55321
vn 0.41734 -0.64258 -0.64258
vn 0.41734 -0.55321 -0.72096
vn 0.41734 -0.45438 -0.78700
vn 0.41734 -0.34776 -0.83958
vn 0.41734 -0.23520 -0.87779
vn 0.41734 -0.11862 -0.90098
vn 0.41734 -0.00000 -0.90875
vn 0.41734 0.11862 -0.90098
vn 0.41734 0.23520 -0.87779
vn 0.41734 0.34776 -0.83958
vn 0.41734 0.45438 -0.78700
vn 0.41734 0.55321 -0.72096
vn 0.41734 0.64258 -0.64258
vn 0.41734 0.72096 -0.55321
vn 0.41734 0.78700 -0.45438
vn 0.41734 0.83958 -0.34776
vn 0.41734 0.87779 -0.23520
vn 0.41734 0.90098 -0.11862
vn 0.31730 0.94832 0.00000
vn 0.31730 0.94021 0.12378
vn 0.31730 0.91601 0.24544
vn 0.31730 0.87614 0.36291
vn 0.31730 0.82127 0.47416
vn 0.31730 0.75236 0.57730
vn 0.31730 0.67057 0.67057
vn 0.31730 0.57730 0.75236
vn 0.31730 0.47416 0.82127
vn 0.31730 0.36291 0.87614
vn 0.31730 0.24544 0.91601
vn 0.31730 0.12378 0.94021
vn 0.31730 0.00000 0.94832
vn 0.31730 -0.12378 0.94021
vn 0.31730 -0.24544 0.91601
vn 0.31730 -0.36291 0.87614
vn 0.31730 -0.47416 0.82127
vn 0.31730 -0.57730 0.75236
vn 0.31730 -0.67057 0.67057
vn 0.31730 -0.75236 0.57730
vn 0.31730 -0.82127 0.47416
vn 0.31730 -0.87614 0.36291
vn 0.31730 -0.91601 0.24544
vn 0.31730 -0.94021 0.12378
vn 0.31730 -0.94832 0.00000
vn 0.31730 -0.94021 -0.12378
vn 0.31730 -0.91601 -0.24544
vn 0.31730 -0.87614 -0.36291
vn 0.31730 -0.82127 -0.47416
vn 0.31730 -0.75236 -0.57730
vn 0.31730 -0.67057 -0.67057
vn 0.31730 -0.57730 -0.75236
vn 0.31730 -0.47416 -0.82127
vn 0.31730 -0.36291 -0.87614
vn 0.31730 -0.24544 -0.91601
vn 0.31730 -0.12378 -0.94021
vn 0.31730 -0.00000 -0.94832
vn 0.31730 0.12378 -0.94021
vn 0.31730 0.24544 -0.91601
vn 0.31730 0.36291 -0.87614
vn 0.31730 0.47416 -0.82127
vn 0.31730 0.57730 -0.75236
vn 0.31730 0.67057 -0.67057
vn 0.31730 0.75236 -0.57730
vn 0.31730 0.82127 -0.47416
vn 0.31730 0.87614 -0.36291
vn 0.31730 0.91601 -0.24544
vn 0.31730 0.94021 -0.12378
vn 0.21360 0.97692 0.00000
vn 0.21360 0.96856 0.12751
vn 0.21360 0.94363 0.25285
vn 0.21360 0.90256 0.37385
vn 0.21360 0.84604 0.48846
vn 0.21360 0.77504 0.59471
vn 0.21360 0.69079 0.69079
vn 0.21360 0.59471 0.77504
vn 0.21360 0.48846 0.84604
vn 0.21360 0.37385 0.90256
vn 0.21360 0.25285 0.94363
vn 0.21360 0.12751 0.96856
vn 0.21360 0.00000 0.97692
vn 0.21360 -0.12751 0.96856
vn 0.21360 -0.25285 0.94363
vn 0.21360 -0.37385 0.90256
vn 0.21360 -0.48846 0.84604
vn 0.21360 -0.59471 0.77504
vn 0.21360 -0.69079 0.69079
vn 0.21360 -0.77504 0.59471
vn 0.21360 -0.84604 0.48846
vn 0.21360 -0.90256 0.37385
vn 0.21360 -0.94363 0.25285
vn 0.21360 -0.96856 0.12751
vn 0.21360 -0.97692 0.00000
vn 0.21360 -0.96856 -0.12751
vn 0.21360 -0.94363 -0.25285
vn 0.21360 -0.90256 -0.37385
vn 0.21360 -0.84604 -0.48846
vn 0.21360 -0.77504 -0.59471
vn 0.21360 -0.69079 -0.69079
vn 0.21360 -0.59471 -0.77504
vn 0.21360 -0.48846 -0.84604
vn 0.21360 -0.37385 -0.90256
vn 0.21360 -0.25285 -0.94363
vn 0.21360 -0.12751 -0.96856
vn 0.21360 -0.00000 -0.97692
vn 0.21360 0.12751 -0.96856
vn 0.21360 0.25285 -0.94363
vn 0.21360 0.37385 -0.90256
vn 0.21360 0.48846 -0.84604
vn 0.21360 0.59471 -0.77504
vn 0.21360 0.69079 -0.69079
vn 0.21360 0.77504 -0.59471
vn 0.21360 0.84604 -0.48846
vn 0.21360 0.90256 -0.37385
vn 0.21360 0.94363 -0.25285
vn 0.21360 0.96856 -0.12751
vn 0.10742 0.99421 0.00000
vn 0.10742 0.98571 0.12977
vn 0.10742 0.96034 0.25732
vn 0.10742 0.91853 0.38047
vn 0.10742 0.86101 0.49711
vn 0.10742 0.78876 0.60524
vn 0.10742 0.70302 0.70302
vn 0.10742 0.60524 0.78876
vn 0.10742 0.49711 0.86101
vn 0.10742 0.38047 0.91853
vn 0.10742 0.25732 0.96034
vn 0.10742 0.12977 0.98571
vn 0.10742 0.00000 0.99421
vn 0.10742 -0.12977 0.98571
vn 0.10742 -0.25732 0.96034
vn 0.10742 -0.38047 0.91853
vn 0.10742 -0.49711 0.86101
vn 0.10742 -0.60524 0.78876
vn 0.10742 -0.70302 0.70302
vn 0.10742 -0.78876 0.60524
vn 0.10742 -0.86101 0.49711
vn 0.10742 -0.91853 0.38047
vn 0.10742 -0.96034 0.25732
vn 0.10742 -0.98571 0.12977
vn 0.10742 -0.99421 0.00000
vn 0.10742 -0.98571 -0.12977
vn 0.10742 -0.96034 -0.25732
vn 0.10742 -0.91853 -0.38047
vn 0.10742 -0.86101 -0.49711
vn 0.10742 -0.78876 -0.60524
vn 0.10742 -0.70302 -0.70302
vn 0.10742 -0.60524 -0.78876
vn 0.10742 -0.49711 -0.86101
vn 0.10742 -0.38047 -0.91853
vn 0.10742 -0.25732 -0.96034
vn 0.10742 -0.12977 -0.98571
vn 0.10742 -0.00000 -0.99421
vn 0.10742 0.12977 -0.98571
vn 0.10742 0.25732 -0.96034
vn 0.10742 0.38047 -0.91853
vn 0.10742 0.49711 -0.86101
vn 0.10742 0.60524 -0.78876
vn 0.10742 0.70302 -0.70302
vn 0.10742 0.78876 -0.60524
vn 0.10742 0.86101 -0.49711
vn 0.10742 0.91853 -0.38047
vn 0.10742 0.96034 -0.25732
vn 0.10742 0.98571 -0.12977
vn 0.00000 1.00000 0.00000
vn 0.00000 0.99144 0.13053
vn 0.00000 0.96593 0.25882
vn 0.00000 0.92388 0.38268
vn 0.00000 0.86603 0.50000
vn 0.00000 0.79335 0.60876
vn 0.00000 0.70711 0.70711
vn 0.00000 0.60876 0.79335
vn 0.00000 0.50000 0.86603
vn 0.00000 0.38268 0.92388
vn 0.00000 0.25882 0.96593
vn 0.00000 0.13053 0.99144
vn 0.00000 0.00000 1.00000
vn 0.00000 -0.13053 0.99144
vn 0.00000 -0.25882 0.96593
vn 0.00000 -0.38268 0.92388
vn 0.00000 -0.50000 0.86603
vn 0.00000 -0.60876 0.79335
vn 0.00000 -0.70711 0.70711
vn 0.00000 -0.79335 0.60876
vn 0.00000 -0.86603 0.50000
vn 0.00000 -0.92388 0.38268
vn 0.00000 -0.96593 0.25882
vn 0.00000 -0.99144 0.13053
vn 0.00000 -1.00000 0.00000
vn 0.00000 -0.99144 -0.13053
vn 0.00000 -0.96593 -0.25882
vn 0.00000 -0.92388 -0.38268
vn 0.00000 -0.86603 -0.50000
vn 0.00000 -0.79335 -0.60876
vn 0.00000 -0.70711 -0.70711
vn 0.00000 -0.60876 -0.79335
vn 0.00000 -0.50000 -0.86603
vn 0.00000 -0.38268 -0.92388
vn 0.00000 -0.25882 -0.96593
vn 0.00000 -0.13053 -0.99144
vn 0.00000 -0.00000 -1.00000
vn 0.00000 0.13053 -0.99144
vn 0.00000 0.25882 -0.96593
vn 0.00000 0.38268 -0.92388
vn 0.00000 0.50000 -0.86603
vn 0.00000 0.60876 -0.79335
vn 0.00000 0.70711 -0.70711
vn 0.00000 0.79335 -0.60876
vn 0.00000 0.86603 -0.50000
vn 0.00000 0.92388 -0.38268
vn 0.00000 0.96593 -0.25882
vn 0.00000 0.99144 -0.13053
vn -0.10742 0.99421 0.00000
vn -0.10742 0.98571 0.12977
vn -0.10742 0.96034 0.25732
vn -0.10742 0.91853 0.38047
vn -0.10742 0.86101 0.49711
vn -0.10742 0.78876 0.60524
vn -0.10742 0.70302 0.70302
vn -0.10742 0.60524 0.78876
vn -0.10742 0.49711 0.86101
vn -0.10742 0.38047 0.91853
vn -0.10742 0.25732 0.96034
vn -0.10742 0.12977 0.98571
vn -0.10742 0.00000 0.99421
vn -0.10742 -0.12977 0.98571
vn -0.10742 -0.25732 0.96034
vn -0.10742 -0.38047 0.91853
vn -0.10742 -0.49711 0.86101
vn -0.10742 -0.60524 0.78876
vn -0.10742 -0.70302 0.70302
vn -0.10742 -0.78876 0.60524
vn -0.10742 -0.86101 0.49711
vn -0.10742 -0.91853 0.38047
vn -0.10742 -0.96034 0.25732
vn -0.10742 -0.98571 0.12977
vn -0.10742 -0.99421 0.00000
vn -0.10742 -0.98571 -0.12977
vn -0.10742 -0.96034 -0.25732
vn -0.10742 -0.91853 -0.38047
vn -0.10742 -0.86101 -0.49711
vn -0.10742 -0.78876 -0.60524
vn -0.10742 -0.70302 -0.70302
vn -0.10742 -0.60524 -0.78876
vn -0.10742 -0.49711 -0.86101
vn -0.10742 -0.38047 -0.91853
vn -0.10742 -0.25732 -0.96034
vn -0.10742 -0.12977 -0.98571
vn -0.10742 -0.00000 -0.99421
vn -0.10742 0.12977 -0.98571
vn -0.10742 0.25732 -0.96034
vn -0.10742 0.38047 -0.91853
vn -0.10742 0.49711 -0.86101
vn -0.10742 0.60524 -0.78876
vn -0.10742 0.70302 -0.70302
vn -0.10742 0.78876 -0.60524
vn -0.10742 0.86101 -0.49711
vn -0.10742 0.91853 -0.38047
vn -0.10742 0.96034 -0.25732
vn -0.10742 0.98571 -0.12977
vn -0.21360 0.97692 0.00000
vn -0.21360 0.96856 0.12751
vn -0.21360 0.94363 0.25285
vn -0.21360 0.90256 0.37385
vn -0.21360 0.84604 0.48846
vn -0.21360 0.77504 0.59471
vn -0.21360 0.69079 0.69079
vn -0.21360 0.59471 0.77504
vn -0.21360 0.48846 0.84604
vn -0.21360 0.37385 0.90256
vn -0.21360 0.25285 0.94363
vn -0.21360 0.12751 0.96856
vn -0.21360 0.00000 0.97692
vn -0.21360 -0.12751 0.96856
vn -0.21360 -0.25285 0.94363
vn -0.21360 -0.37385 0.90256
vn -0.21360 -0.48846 0.84604
vn -0.21360 -0.59471 0.77504
vn -0.21360 -0.69079 0.69079
vn -0.21360 -0.77504 0.59471
vn -0.21360 -0.84604 0.48846
vn -0.21360 -0.90256 0.37385
vn -0.21360 -0.94363 0.25285
vn -0.21360 -0.96856 0.12751
vn -0.21360 -0.97692 0.00000
vn -0.21360 -0.96856 -0.12751
vn -0.21360 -0.94363 -0.25285
vn -0.21360 -0.90256 -0.37385
vn -0.21360 -0.84604 -0.48846
vn -0.21360 -0.77504 -0.59471
vn -0.21360 -0.69079 -0.69079
vn -0.21360 -0.59471 -0.77504
vn -0.21360 -0.48846 -0.84604
vn -0.21360 -0.37385 -0.90256
vn -0.21360 -0.25285 -0.94363
vn -0.21360 -0.12751 -0.96856
vn -0.21360 -0.00000 -0.97692
vn -0.21360 0.12751 -0.96856
vn -0.21360 0.25285 -0.94363
vn -0.21360 0.37385 -0.90256
vn -0.21360 0.48846 -0.84604
vn -0.21360 0.59471 -0.77504
vn -0.21360 0.69079 -0.69079
vn -0.21360 0.77504 -0.59471
vn -0.21360 0.84604 -0.48846
vn -0.21360 0.90256 -0.37385
vn -0.21360 0.94363 -0.25285
vn -0.21360 0.96856 -0.12751
vn -0.31730 0.94832 0.00000
vn -0.31730 0.94021 0.12378
vn -0.31730 0.91601 0.24544
vn -0.31730 0.87614 0.36291
vn -0.31730 0.82127 0.47416
vn -0.31730 0.75236 0.57730
vn -0.31730 0.67057 0.67057
vn -0.31730 0.57730 0.75236
vn -0.31730 0.47416 0.82127
vn -0.31730 0.36291 0.87614
vn -0.31730 0.24544 0.91601
vn -0.31730 0.12378 0.94021
vn -0.31730 0.00000 0.94832
vn -0.31730 -0.12378 0.94021
vn -0.31730 -0.24544 0.91601
vn -0.31730 -0.36291 0.87614
vn -0.31730 -0.47416 0.82127
vn -0.31730 -0.57730 0.75236
vn -0.31730 -0.67057 0.67057
vn -0.31730 -0.75236 0.57730
vn -0.31730 -0.82127 0.47416
vn -0.31730 -0.87614 0.36291
vn -0.31730 -0.91601 0.24544
vn -0.31730 -0.94021 0.12378
vn -0.31730 -0.94832 0.00000
vn -0.31730 -0.94021 -0.12378
vn -0.31730 -0.91601 -0.24544
vn -0.31730 -0.87614 -0.36291
vn -0.31730 -0.82127 -0.47416
vn -0.31730 -0.75236 -0.57730
vn -0.31730 -0.67057 -0.67057
vn -0.31730 -0.57730 -0.75236
vn -0.31730 -0.47416 -0.82127
vn -0.31730 -0.36291 -0.87614
vn -0.31730 -0.24544 -0.91601
vn -0.31730 -0.12378 -0.94021
vn -0.31730 -0.00000 -0.94832
vn -0.31730 0.12378 -0.94021
vn -0.31730 0.24544 -0.91601
vn -0.31730 0.36291 -0.87614
vn -0.31730 0.47416 -0.82127
vn -0.31730 0.57730 -0.75236
vn -0.31730 0.67057 -0.67057
vn -0.31730 0.75236 -0.57730
vn -0.31730 0.82127 -0.47416
vn -0.31730 0.87614 -0.36291
vn -0.31730 0.91601 -0.24544
vn -0.31730 0.94021 -0.12378
vn -0.41734 0.90875 0.00000
vn -0.41734 0.90098 0.11862
vn -0.41734 0.87779 0.23520
vn -0.41734 0.83958 0.34776
vn -0.41734 0.78700 0.45438
vn -0.41734 0.72096 0.55321
vn -0.41734 0.64258 0.64258
vn -0.41734 0.55321 0.72096
vn -0.41734 0.45438 0.78700
vn -0.41734 0.34776 0.83958
vn -0.41734 0.23520 0.87779
vn -0.41734 0.11862 0.90098
vn -0.41734 0.00000 0.90875
vn -0.41734 -0.11862 0.90098
vn -0.41734 -0.23520 0.87779
vn -0.41734 -0.34776 0.83958
vn -0.41734 -0.45438 0.78700
vn -0.41734 -0.55321 0.72096
vn -0.41734 -0.64258 0.64258
vn -0.41734 -0.72096 0.55321
vn -0.41734 -0.78700 0.45438
vn -0.41734 -0.83958 0.34776
vn -0.41734 -0.87779 0.23520
vn -0.41734 -0.90098 0.11862
vn -0.41734 -0.90875 0.00000
vn -0.41734 -0.90098 -0.11862
vn -0.41734 -0.87779 -0.23520
vn -0.41734 -0.83958 -0.34776
vn -0.41734 -0.78700 -0.45438
vn -0.41734 -0.72096 -0.55321
vn -0.41734 -0.64258 -0.64258
vn -0.41734 -0.55321 -0.72096
vn -0.41734 -0.45438 -0.78700
vn -0.41734 -0.34776 -0.83958
vn -0.41734 -0.23520 -0.87779
vn -0.41734 -0.11862 -0.90098
vn -0.41734 -0.00000 -0.90875
vn -0.41734 0.11862 -0.90098
vn -0.41734 0.23520 -0.87779
vn -0.41734 0.34776 -0.83958
vn -0.41734 0.45438 -0.78700
vn -0.41734 0.55321 -0.72096
vn -0.41734 0.64258 -0.64258
vn -0.41734 0.72096 -0.55321
vn -0.41734 0.78700 -0.45438
vn -0.41734 0.83958 -0.34776
vn -0.41734 0.87779 -0.23520
vn -0.41734 0.90098 -0.11862
vn -0.51254 0.85866 0.00000
vn -0.51254 0.85132 0.11208
vn -0.51254 0.82940 0.22224
vn -0.51254 0.79330 0.32860
vn -0.51254 0.74362 0.42933
vn -0.51254 0.68122 0.52272
vn -0.51254 0.60717 0.60717
vn -0.51254 0.52272 0.68122
vn -0.51254 0.42933 0.74362
vn -0.51254 0.32860 0.79330
vn -0.51254 0.22224 0.82940
vn -0.51254 0.11208 0.85132
vn -0.51254 0.00000 0.85866
vn -0.51254 -0.11208 0.85132
vn -0.51254 -0.22224 0.82940
vn -0.51254 -0.32860 0.79330
vn -0.51254 -0.42933 0.74362
vn -0.51254 -0.52272 0.68122
vn -0.51254 -0.60717 0.60717
vn -0.51254 -0.68122 0.52272
vn -0.51254 -0.74362 0.42933
vn -0.51254 -0.79330 0.32860
vn -0.51254 -0.82940 0.22224
vn -0.51254 -0.85132 0.11208
vn -0.51254 -0.85866 0.00000
vn -0.51254 -0.85132 -0.11208
vn -0.51254 -0.82940 -0.22224
vn -0.51254 -0.79330 -0.32860
vn -0.51254 -0.74362 -0.42933
vn -0.51254 -0.68122 -0.52272
vn -0.51254 -0.60717 -0.60717
vn -0.51254 -0.52272 -0.68122
vn -0.51254 -0.42933 -0.74362
vn -0.51254 -0.32860 -0.79330
vn -0.51254 -0.22224 -0.82940
vn -0.51254 -0.11208 -0.85132
vn -0.51254 -0.00000 -0.85866
vn -0.51254 0.11208 -0.85132
vn -0.51254 0.22224 -0.82940
vn -0.51254 0.32860 -0.79330
vn -0.51254 0.42933 -0.74362
vn -0.51254 0.52272 -0.68122
vn -0.51254 0.60717 -0.60717
vn -0.51254 0.68122 -0.52272
vn -0.51254 0.74362 -0.42933
vn -0.51254 0.79330 -0.32860
vn -0.51254 0.82940 -0.22224
vn -0.51254 0.85132 -0.11208
vn -0.60182 0.79864 0.00000
vn -0.60182 0.79180 0.10424
vn -0.60182 0.77142 0.20670
vn -0.60182 0.73784 0.30562
vn -0.60182 0.69164 0.39932
vn -0.60182 0.63360 0.48618
vn -0.60182 0.56472 0.56472
vn -0.60182 0.48618 0.63360
vn -0.60182 0.39932 0.69164
vn -0.60182 0.30562 0.73784
vn -0.60182 0.20670 0.77142
vn -0.60182 0.10424 0.79180
vn -0.60182 0.00000 0.79864
vn -0.60182 -0.10424 0.79180
vn -0.60182 -0.20670 0.77142
vn -0.60182 -0.30562 0.73784
vn -0.60182 -0.39932 0.69164
vn -0.60182 -0.48618 0.63360
vn -0.60182 -0.56472 0.56472
vn -0.60182 -0.63360 0.48618
vn -0.60182 -0.69164 0.39932
vn -0.60182 -0.73784 0.30562
vn -0.60182 -0.77142 0.20670
vn -0.60182 -0.79180 0.10424
vn -0.60182 -0.79864 0.00000
vn -0.60182 -0.79180 -0.10424
vn -0.60182 -0.77142 -0.20670
vn -0.60182 -0.73784 -0.30562
vn -0.60182 -0.69164 -0.39932
vn -0.60182 -0.63360 -0.48618
vn -0.60182 -0.56472 -0.56472
vn -0.60182 -0.48618 -0.63360
vn -0.60182 -0.39932 -0.69164
vn -0.60182 -0.30562 -0.73784
vn -0.60182 -0.20670 -0.77142
vn -0.60182 -0.10424 -0.79180
vn -0.60182 -0.00000 -0.79864
vn -0.60182 0.10424 -0.79180
vn -0.60182 0.20670 -0.77142
vn -0.60182 0.30562 -0.73784
vn -0.60182 0.39932 -0.69164
vn -0.60182 0.48618 -0.63360
vn -0.60182 0.56472 -0.56472
vn -0.60182 0.63360 -0.48618
vn -0.60182 0.69164 -0.39932
vn -0.60182 0.73784 -0.30562
vn -0.60182 0.77142 -0.20670
vn -0.60182 0.79180 -0.10424
f 1//1 49//49 2//2
f 2//2 49//49 50//50
f 2//2 50//50 3//3
f 3//3 50//50 51//51
f 3//3 51//51 4//4
f 4//4 51//51 52//52
f 4//4 52//52 5//5
f 5//5 52//52 53//53
f 5//5 53//53 6//6
f 6//6 53//53 54//54
f 6//6 54//54 7//7
f 7//7 54//54 55//55
f 7//7 55//55 8//8
f 8//8 55//55 56//56
f 8//8 56//56 9//9
f 9//9 56//56 57//57
f 9//9 57//57 10//10
f 10//10 57//57 58//58
f 10//10 58//58 11//11
f 11//11 58//58 59//59
f 11//11 59//59 12//12
f 12//12 59//59 60//60
f 12//12 60//60 13//13
f 13//13 60//60 61//61
f 13//13 61//61 14//14
f 14//14 61//61 62//62
f 14//14 62//62 15//15
f 15//15 62//62 63//63
f 15//15 63//63 16//16
f 16//16 63//63 64//64
f 16//16 64//64 17//17
f 17//17 64//64 65//65
f 17//17 65//65 18//18
f 18//18 65//65 66//66
f 18//18 66//66 19//19
f 19//19 66//66 67//67
f 19//19 67//67 20//20
f 20//20 67//67 68//68
f 20//20 68//68 21//21
f 21//21 68//68 69//69
f 21//21 69//69 22//22
f 22//22 69//69 70//70
f 22//22 70//70 23//23
f 23//23 70//70 71//71
f 23//23 71//71 24//24
f 24//24 71//71 72//72
f 24//24 72//72 25//25
f 25//25 72//72 73//73
f 25//25 73//73 26//26
f 26//26 73//73 74//74
f 26//26 74//74 27//27
f 27//27 74//74 75//75
f 27//27 75//75 28//28
f 28//28 75//75 76//76
f 28//28 76//76 29//29
f 29//29 76//76 77//77
f 29//29 77//77 30//30
f 30//30 77//77 78//78
f 30//30 78//78 31//31
f 31//31 78//78 79//79
f 31//31 79//79 32//32
f 32//32 79//79 80//80
f 32//32 80//80 33//33
f 33//33 80//80 81//81
f 33//33 81//81 34//34
f 34//34 81//81 82//82
f 34//34 82//82 35//35
f 35//35 82//82 83//83
f 35//35 83//83 36//36
f 36//36 83//83 84//84
f 36//36 84//84 37//37
f 37//37 84//84 85//85
f 37//37 85//85 38//38
f 38//38 85//85 86//86
f 38//38 86//86 39//39
f 39//39 86//86 87//87
f 39//39 87//87 40//40
f 40//40 87//87 88//88
f 40//40 88//88 41//41
f 41//41 88//88 89//89
f 41//41 89//89 42//42
f 42//42 89//89 90//90
f 42//42 90//90 43//43
f 43//43 90//90 91//91
f 43//43 91//91 44//44
f 44//44 91//91 92//92
f 44//44 92//92 45//45
f 45//45 92//92 93//93
f 45//45 93//93 46//46
f 46//46 93//93 94//94
f 46//46 94//94 47//47
f 47//47 94//94 95//95
f 47//47 95//95 48//48
f 48//48 95//95 96//96
f 48//48 96//96 1//1
f 1//1 96//96 49//49
f 49//49 97//97 50//50
f 50//50 97//97 98//98
f 50//50 98//98 51//51
f 51//51 98//98 99//99
f 51//51 99//99 52//52
f 52//52 99//99 100//100
f 52//52 100//100 53//53
f 53//53 100//100 101//101
f 53//53 101//101 54//54
f 54//54 101//101 102//102
f 54//54 102//102 55//55
f 55//55 102//102 103//103
f 55//55 103//103 56//56
f 56//56 103//103 104//104
f 56//56 104//104 57//57
f 57//57 104//104 105//105
f 57//57 105//105 58//58
f 58//58 105//105 106//106
f 58//58 106//106 59//59
f 59//59 106//106 107//107
f 59//59 107//107 60//60
f 60//60 107//107 108//108
f 60//60 108//108 61//61
f 61//61 108//108 109//109
f 61//61 109//109 62//62
f 62//62 109//109 110//110
f 62//62 110//110 63//63
f 63//63 110//110 111//111
f 63//63 111//111 64//64
f 64//64 111//111 112//112
f 64//64 112//112 65//65
f 65//65 112//112 113//113
f 65//65 113//113 66//66
f 66//66 113//113 114//114
f 66//66 114//114 67//67
f 67//67 114//114 115//115
f 67//67 115//115 68//68
f 68//68 115//115 116//116
f 68//68 116//116 69//69
f 69//69 116//116 117//117
f 69//69 117//117 70//70
f 70//70 117//117 118//118
f 70//70 118//118 71//71
f 71//71 118//118 119//119
f 71//71 119//119 72//72
f 72//72 119//119 120//120
f 72//72 120//120 73//73
f 73//73 120//120 121//121
f 73//73 121//121 74//74
f 74//74 121//121 122//122
f 74//74 122//122 75//75
f 75//75 122//122 123//123
f 75//75 123//123 76//76
f 76//76 123//123 124//124
f 76//76 124//124 77//77
f 77//77 124//124 125//125
f 77//77 125//125 78//78
f 78//78 125//125 126//126
f 78//78 126//126 79//79
f 79//79 126//126 127//127
f 79//79 127//127 80//80
f 80//80 127//127 128//128
f 80//80 128//128 81//81
f 81//81 128//128 129//129
f 81//81 129//129 82//82
f 82//82 129//129 130//130
f 82//82 130//130 83//83
f 83//83 130//130 131//131
f 83//83 131//131 84//84
f 84//84 131//131 132//132
f 84//84 132//132 85//85
f 85//85 132//132 133//133
f 85//85 133//133 86//86
f 86//86 133//133 134//134
f 86//86 134//134 87//87
f 87//87 134//134 135//135
f 87//87 135//135 88//88
f 88//88 135//135 136//136
f 88//88 136//136 89//89
f 89//89 136//136 137//137
f 89//89 137//137 90//90
f 90//90 137//137 138//138
f 90//90 138//138 91//91
f 91//91 138//138 139//139
f 91//91 139//139 92//92
f 92//92 139//139 140//140
f 92//92 140//140 93//93
f 93//93 140//140 141//141
f 93//93 141//141 94//94
f 94//94 141//141 142//142
f 94//94 142//142 95//95
f 95//95 142//142 143//143
f 95//95 143//143 96//96
f 96//96 143//143 144//144
f 96//96 144//144 49//49
f 49//49 144//144 97//97
f 97//97 145//145 98//98
f 98//98 145//145 146//146
f 98//98 146//146 99//99
f 99//99 146//146 147//147
f 99//99 147//147 100//100
f 100//100 147//147 148//148
f 100//100 148//148 101//101
f 101//101 148//148 149//149
f 101//101 149//149 102//102
f 102//102 149//149 150//150
f 102//102 150//150 103//103
f 103//103 150//150 151//151
f 103//103 151//151 104//104
f 104//104 151//151 152//152
f 104//104 152//152 105//105
f 105//105 152//152 153//153
f 105//105 153//153 106//106
f 106//106 153//153 154//154
f 106//106 154//154 107//107
f 107//107 154//154 155//155
f 107//107 155//155 108//108
f 108//108 155//155 156//156
f 108//108 156//156 109//109
f 109//109 156//156 157//157
f 109//109 157//157 110//110
f 110//110 157//157 158//158
f 110//110 158//158 111//111
f 111//111 158//158 159//159
f 111//111 159//159 112//112
f 112//112 159//159 160//160
f 112//112 160//160 113//113
f 113//113 160//160 161//161
f 113//113 161//161 114//114
f 114//114 161//161 162//162
f 114//114 162//162 115//115
f 115//115 162//162 163//163
f 115//115 163//163 116//116
f 116//116 163//163 164//164
f 116//116 164//164 117//117
f 117//117 164//164 165//165
f 117//117 165//165 118//118
f 118//118 165//165 166//166
f 118//118 166//166 119//119
f 119//119 166//166 167//167
f 119//119 167//167 120//120
f 120//120 167//167 168//168
f 120//120 168//168 121//121
f 121//121 168//168 169//169
f 121//121 169//169 122//122
f 122//122 169//169 170//170
f 122//122 170//170 123//123
f 123//123 170//170 171//171
f 123//123 171//171 124//124
f 124//124 171//171 172//172
f 124//124 172//172 125//125
f 125//125 172//172 173//173
f 125//125 173//173 126//126
f 126//126 173//173 174//174
f 126//126 174//174 127//127
f 127//127 174//174 175//175
f 127//127 175//175 128//128
f 128//128 175//175 176//176
f 128//128 176//176 129//129
f 129//129 176//176 177//177
f 129//129 177//177 130//130
f 130//130 177//177 178//178
f 130//130 178//178 131//131
f 131//131 178//178 179//179
f 131//131 179//179 132//132
f 132//132 179//179 180//180
f 132//132 180//180 133//133
f 133//133 180//180 181//181
f 133//133 181//181 134//134
f 134//134 181//181 182//182
f 134//134 182//182 135//135
f 135//135 182//182 183//183
f 135//135 183//183 136//136
f 136//136 183//183 184//184
f 136//136 184//184 137//137
f 137//137 184//184 185//185
f 137//137 185//185 138//138
f 138//138 185//185 186//186
f 138//138 186//186 139//139
f 139//139 186//186 187//187
f 139//139 187//187 140//140
f 140//140 187//187 188//188
f 140//140 188//188 141//141
f 141//141 188//188 189//189
f 141//141 189//189 142//142
f 142//142 189//189 190//190
f 142//142 190//190 143//143
f 143//143 190//190 191//191
f 143//143 191//191 144//144
f 144//144 191//191 192//192
f 144//144 192//192 97//97
f 97//97 192//192 145//145
f 145//145 193//193 146//146
f 146//146 193//193 194//194
f 146//146 194//194 147//147
f 147//147 194//194 195//195
f 147//147 195//195 148//148
f 148//148 195//195 196//196
f 148//148 196//196 149//149
f 149//149 196//196 197//197
f 149//149 197//197 150//150
f 150//150 197//197 198//198
f 150//150 198//198 151//151
f 151//151 198//198 199//199
f 151//151 199//199 152//152
f 152//152 199//199 200//200
f 152//152 200//200 153//153
f 153//153 200//200 201//201
f 153//153 201//201 154//154
f 154//154 201//201 202//202
f 154//154 202//202 155//155
f 155//155 202//202 203//203
f 155//155 203//203 156//156
f 156//156 203//203 204//204
f 156//156 204//204 157//157
f 157//157 204//204 205//205
f 157//157 205//205 158//158
f 158//158 205//205 206//206
f 158//158 206//206 159//159
f 159//159 206//206 207//207
f 159//159 207//207 160//160
f 160//160 207//207 208//208
f 160//160 208//208 161//161
f 161//161 208//208 209//209
f 161//161 209//209 162//162
f 162//162 209//209 210//210
f 162//162 210//210 163//163
f 163//163 210//210 211//211
f 163//163 211//211 164//164
f 164//164 211//211 212//212
f 164//164 212//212 165//165
f 165//165 212//212 213//213
f 165//165 213//213 166//166
f 166//166 213//213 214//214
f 166//166 214//214 167//167
f 167//167 214//214 215//215
f 167//167 215//215 168//168
f 168//168 215//215 216//216
f 168//168 216//216 169//169
f 169//169 216//216 217//217
f 169//169 217//217 170//170
f 170//170 217//217 218//218
f 170//170 218//218 171//171
f 171//171 218//218 219//219
f 171//171 219//219 172//172
f 172//172 219//219 220//220
f 172//172 220//220 173//173
f 173//173 220//220 221//221
f 173//173 221//221 174//174
f 174//174 221//221 222//222
f 174//174 222//222 175//175
f 175//175 222//222 223//223
f 175//175 223//223 176//176
f 176//176 223//223 224//224
f 176//176 224//224 177//177
f 177//177 224//224 225//225
f 177//177 225//225 178//178
f 178//178 225//225 226//226
f 178//178 226//226 179//179
f 179//179 226//226 227//227
f 179//179 227//227 180//180
f 180//180 227//227 228//228
f 180//180 228//228 181//181
f 181//181 228//228 229//229
f 181//181 229//229 182//182
f 182//182 229//229 230//230
f 182//182 230//230 183//183
f 183//183 230//230 231//231
f 183//183 231//231 184//184
f 184//184 231//231 232//232
f 184//184 232//232 185//185
f 185//185 232//232 233//233
f 185//185 233//233 186//186
f 186//186 233//233 234//234
f 186//186 234//234 187//187
f 187//187 234//234 235//235
f 187//187 235//235 188//188
f 188//188 235//235 236//236
f 188//188 236//236 189//189
f 189//189 236//236 237//237
f 189//189 237//237 190//190
f 190//190 237//237 238//238
f 190//190 238//238 191//191
f 191//191 238//238 239//239
f 191//191 239//239 192//192
f 192//192 239//239 240//240
f 192//192 240//240 145//145
f 145//145 240//240 193//193
f 193//193 241//241 194//194
f 194//194 241//241 242//242
f 194//194 242//242 195//195
f 195//195 242//242 243//243
f 195//195 243//243 196//196
f 196//196 243//243 244//244
f 196//196 244//244 197//197
f 197//197 244//244 245//245
f 197//197 245//245 198//198
f 198//198 245//245 246//246
f 198//198 246//246 199//199
f 199//199 246//246 247//247
f 199//199 247//247 200//200
f 200//200 247//247 248//248
f 200//200 248//248 201//201
f 201//201 248//248 249//249
f 201//201 249//249 202//202
f 202//202 249//249 250//250
f 202//202 250//250 203//203
f 203//203 250//250 251//251
f 203//203 251//251 204//204
f 204//204 251//251 252//252
f 204//204 252//252 205//205
f 205//205 252//252 253//253
f 205//205 253//253 206//206
f 206//206 253//253 254//254
f 206//206 254//254 207//207
f 207//207 254//254 255//255
f 207//207 255//255 208//208
f 208//208 255//255 256//256
f 208//208 256//256 209//209
f 209//209 256//256 257//257
f 209//209 257//257 210//210
f 210//210 257//257 258//258
f 210//210 258//258 211//211
f 211//211 258//258 259//259
f 211//211 259//259 212//212
f 212//212 259//259 260//260
f 212//212 260//260 213//213
f 213//213 260//260 261//261
f 213//213 261//261 214//214
f 214//214 261//261 262//262
f 214//214 262//262 215//215
f 215//215 262//262 263//263
f 215//215 263//263 216//216
f 216//216 263//263 264//264
f 216//216 264//264 217//217
f 217//217 264//264 265//265
f 217//217 265//265 218//218
f 218//218 265//265 266//266
f 218//218 266//266 219//219
f 219//219 266//266 267//267
f 219//219 267//267 220//220
f 220//220 267//267 268//268
f 220//220 268//268 221//221
f 221//221 268//268 269//269
f 221//221 269//269 222//222
f 222//222 269//269 270//270
f 222//222 270//270 223//223
f 223//223 270//270 271//271
f 223//223 271//271 224//224
f 224//224 271//271 272//272
f 224//224 272//272 225//225
f 225//225 272//272 273//273
f 225//225 273//273 226//226
f 226//226 273//273 274//274
f 226//226 274//274 227//227
f 227//227 274//274 275//275
f 227//227 275//275 228//228
f 228//228 275//275 276//276
f 228//228 276//276 229//229
f 229//229 276//276 277//277
f 229//229 277//277 230//230
f 230//230 277//277 278//278
f 230//230 278//278 231//231
f 231//231 278//278 279//279
f 231//231 279//279 232//232
f 232//232 279//279 280//280
f 232//232 280//280 233//233
f 233//233 280//280 281//281
f 233//233 281//281 234//234
f 234//234 281//281 282//282
f 234//234 282//282 235//235
f 235//235 282//282 283//283
f 235//235 283//283 236//236
f 236//236 283//283 284//284
f 236//236 284//284 237//237
f 237//237 284//284 285//285
f 237//237 285//285 238//238
f 238//238 285//285 286//286
f 238//238 286//286 239//239
f 239//239 286//286 287//287
f 239//239 287//287 240//240
f 240//240 287//287 288//288
f 240//240 288//288 193//193
f 193//193 288//288 241//241
f 241//241 289//289 242//242
f 242//242 289//289 290//290
f 242//242 290//290 243//243
f 243//243 290//290 291//291
f 243//243 291//291 244//244
f 244//244 291//291 292//292
f 244//244 292//292 245//245
f 245//245 292//292 293//293
f 245//245 293//293 246//246
f 246//246 293//293 294//294
f 246//246 294//294 247//247
f 247//247 294//294 295//295
f 247//247 295//295 248//248
f 248//248 295//295 296//296
f 248//248 296//296 249//249
f 249//249 296//296 297//297
f 249//249 297//297 250//250
f 250//250 297//297 298//298
f 250//250 298//298 251//251
f 251//251 298//298 299//299
f 251//251 299//299 252//252
f 252//252 299//299 300//300
f 252//252 300//300 253//253
f 253//253 300//300 301//301
f 253//253 301//301 254//254
f 254//254 301//301 302//302
f 254//254 302//302 255//255
f 255//255 302//302 303//303
f 255//255 303//303 256//256
f 256//256 303//303 304//304
f 256//256 304//304 257//257
f 257//257 304//304 305//305
f 257//257 305//305 258//258
f 258//258 305//305 306//306
f 258//258 306//306 259//259
f 259//259 306//306 307//307
f 259//259 307//307 260//260
f 260//260 307//307 308//308
f 260//260 308//308 261//261
f 261//261 308//308 309//309
f 261//261 309//309 262//262
f 262//262 309//309 310//310
f 262//262 310//310 263//263
f 263//263 310//310 311//311
f 263//263 311//311 264//264
f 264//264 311//311 312//312
f 264//264 312//312 265//265
f 265//265 312//312 313//313
f 265//265 313//313 266//266
f 266//266 313//313 314//314
f 266//266 314//314 267//267
f 267//267 314//314 315//315
f 267//267 315//315 268//268
f 268//268 315//315 316//316
f 268//268 316//316 269//269
f 269//269 316//316 317//317
f 269//269 317//317 270//270
f 270//270 317//317 318//318
f 270//270 318//318 271//271
f 271//271 318//318 319//319
f 271//271 319//319 272//272
f 272//272 319//319 320//320
f 272//272 320//320 273//273
f 273//273 320//320 321//321
f 273//273 321//321 274//274
f 274//274 321//321 322//322
f 274//274 322//322 275//275
f 275//275 322//322 323//323
f 275//275 323//323 276//276
f 276//276 323//323 324//324
f 276//276 324//324 277//277
f 277//277 324//324 325//325
f 277//277 325//325 278//278
f 278//278 325//325 326//326
f 278//278 326//326 279//279
f 279//279 326//326 327//327
f 279//279 327//327 280//280
f 280//280 327//327 328//328
f 280//280 328//328 281//281
f 281//281 328//328 329//329
f 281//281 329//329 282//282
f 282//282 329//329 330//330
f 282//282 330//330 283//283
f 283//283 330//330 331//331
f 283//283 331//331 284//284
f 284//284 331//331 332//332
f 284//284 332//332 285//285
f 285//285 332//332 333//333
f 285//285 333//333 286//286
f 286//286 333//333 334//334
f 286//286 334//334 287//287
f 287//287 334//334 335//335
f 287//287 335//335 288//288
f 288//288 335//335 336//336
f 288//288 336//336 241//241
f 241//241 336//336 289//289
f 289//289 337//337 290//290
f 290//290 337//337 338//338
f 290//290 338//338 291//291
f 291//291 338//338 339//339
f 291//291 339//339 292//292
f 292//292 339//339 340//340
f 292//292 340//340 293//293
f 293//293 340//340 341//341
f 293//293 341//341 294//294
f 294//294 341//341 342//342
f 294//294 342//342 295//295
f 295//295 342//342 343//343
f 295//295 343//343 296//296
f 296//296 343//343 344//344
f 296//296 344//344 297//297
f 297//297 344//344 345//345
f 297//297 345//345 298//298
f 298//298 345//345 346//346
f 298//298 346//346 299//299
f 299//299 346//346 347//347
f 299//299 347//347 300//300
f 300//300 347//347 348//348
f 300//300 348//348 301//301
f 301//301 348//348 349//349
f 301//301 349//349 302//302
f 302//302 349//349 350//350
f 302//302 350//350 303//303
f 303//303 350//350 351//351
f 303//303 351//351 304//304
f 304//304 351//351 352//352
f 304//304 352//352 305//305
f 305//305 352//352 353//353
f 305//305 353//353 306//306
f 306//306 353//353 354//354
f 306//306 354//354 307//307
f 307//307 354//354 355//355
f 307//307 355//355 308//308
f 308//308 355//355 356//356
f 308//308 356//356 309//309
f 309//309 356//356 357//357
f 309//309 357//357 310//310
f 310//310 357//357 358//358
f 310//310 358//358 311//311
f 311//311 358//358 359//359
f 311//311 359//359 312//312
f 312//312 359//359 360//360
f 312//312 360//360 313//313
f 313//313 360//360 361//361
f 313//313 361//361 314//314
f 314//314 361//361 362//362
f 314//314 362//362 315//315
f 315//315 362//362 363//363
f 315//315 363//363 316//316
f 316//316 363//363 364//364
f 316//316 364//364 317//317
f 317//317 364//364 365//365
f 317//317 365//365 318//318
f 318//318 365//365 366//366
f 318//318 366//366 319//319
f 319//319 366//366 367//367
f 319//319 367//367 320//320
f 320//320 367//367 368//368
f 320//320 368//368 321//321
f 321//321 368//368 369//369
f 321//321 369//369 322//322
f 322//322 369//369 370//370
f 322//322 370//370 323//323
f 323//323 370//370 371//371
f 323//323 371//371 324//324
f 324//324 371//371 372//372
f 324//324 372//372 325//325
f 325//325 372//372 373//373
f 325//325 373//373 326//326
f 326//326 373//373 374//374
f 326//326 374//374 327//327
f 327//327 374//374 375//375
f 327//327 375//375 328//328
f 328//328 375//375 376//376
f 328//328 376//376 329//329
f 329//329 376//376 377//377
f 329//329 377//377 330//330
f 330//330 377//377 378//378
f 330//330 378//378 331//331
f 331//331 378//378 379//379
f 331//331 379//379 332//332
f 332//332 379//379 380//380
f 332//332 380//380 333//333
f 333//333 380//380 381//381
f 333//333 381//381 334//334
f 334//334 381//381 382//382
f 334//334 382//382 335//335
f 335//335 382//382 383//383
f 335//335 383//383 336//336
f 336//336 383//383 384//384
f 336//336 384//384 289//289
f 289//289 384//384 337//337
f 337//337 385//385 338//338
f 338//338 385//385 386//386
f 338//338 386//386 339//339
f 339//339 386//386 387//387
f 339//339 387//387 340//340
f 340//340 387//387 388//388
f 340//340 388//388 341//341
f 341//341 388//388 389//389
f 341//341 389//389 342//342
f 342//342 389//389 390//390
f 342//342 390//390 343//343
f 343//343 390//390 391//391
f 343//343 391//391 344//344
f 344//344 391//391 392//392
f 344//344 392//392 345//345
f 345//345 392//392 393//393
f 345//345 393//393 346//346
f 346//346 393//393 394//394
f 346//346 394//394 347//347
f 347//347 394//394 395//395
f 347//347 395//395 348//348
f 348//348 395//395 396//396
f 348//348 396//396 349//349
f 349//349 396//396 397//397
f 349//349 397//397 350//350
f 350//350 397//397 398//398
f 350//350 398//398 351//351
f 351//351 398//398 399//399
f 351//351 399//399 352//352
f 352//352 399//399 400//400
f 352//352 400//400 353//353
f 353//353 400//400 401//401
f 353//353 401//401 354//354
f 354//354 401//401 402//402
f 354//354 402//402 355//355
f 355//355 402//402 403//403
f 355//355 403//403 356//356
f 356//356 403//403 404//404
f 356//356 404//404 357//357
f 357//357 404//404 405//405
f 357//357 405//405 358//358
f 358//358 405//405 406//406
f 358//358 406//406 359//359
f 359//359 406//406 407//407
f 359//359 407//407 360//360
f 360//360 407//407 408//408
f 360//360 408//408 361//361
f 361//361 408//408 409//409
f 361//361 409//409 362//362
f 362//362 409//409 410//410
f 362//362 410//410 363//363
f 363//363 410//410 411//411
f 363//363 411//411 364//364
f 364//364 411//411 412//412
f 364//364 412//412 365//365
f 365//365 412//412 413//413
f 365//365 413//413 366//366
f 366//366 413//413 414//414
f 366//366 414//414 367//367
f 367//367 414//414 415//415
f 367//367 415//415 368//368
f 368//368 415//415 416//416
f 368//368 416//416 369//369
f 369//369 416//416 417//417
f 369//369 417//417 370//370
f 370//370 417//417 418//418
f 370//370 418//418 371//371
f 371//371 418//418 419//419
f 371//371 419//419 372//372
f 372//372 419//419 420//420
f 372//372 420//420 373//373
f 373//373 420//420 421//421
f 373//373 421//421 374//374
f 374//374 421//421 422//422
f 374//374 422//422 375//375
f 375//375 422//422 423//423
f 375//375 423//423 376//376
f 376//376 423//423 424//424
f 376//376 424//424 377//377
f 377//377 424//424 425//425
f 377//377 425//425 378//378
f 378//378 425//425 426//426
f 378//378 426//426 379//379
f 379//379 426//426 427//427
f 379//379 427//427 380//380
f 380//380 427//427 428//428
f 380//380 428//428 381//381
f 381//381 428//428 429//429
f 381//381 429//429 382//382
f 382//382 429//429 430//430
f 382//382 430//430 383//383
f 383//383 430//430 431//431
f 383//383 431//431 384//384
f 384//384 431//431 432//432
f 384//384 432//432 337//337
f 337//337 432//432 385//385
f 385//385 433//433 386//386
f 386//386 433//433 434//434
f 386//386 434//434 387//387
f 387//387 434//434 435//435
f 387//387 435//435 388//388
f 388//388 435//435 436//436
f 388//388 436//436 389//389
f 389//389 436//436 437//437
f 389//389 437//437 390//390
f 390//390 437//437 438//438
f 390//390 438//438 391//391
f 391//391 438//438 439//439
f 391//391 439//439 392//392
f 392//392 439//439 440//440
f 392//392 440//440 393//393
f 393//393 440//440 441//441
f 393//393 441//441 394//394
f 394//394 441//441 442//442
f 394//394 442//442 395//395
f 395//395 442//442 443//443
f 395//395 443//443 396//396
f 396//396 443//443 444//444
f 396//396 444//444 397//397
f 397//397 444//444 445//445
f 397//397 445//445 398//398
f 398//398 445//445 446//446
f 398//398 446//446 399//399
f 399//399 446//446 447//447
f 399//399 447//447 400//400
f 400//400 447//447 448//448
f 400//400 448//448 401//401
f 401//401 448//448 449//449
f 401//401 449//449 402//402
f 402//402 449//449 450//450
f 402//402 450//450 403//403
f 403//403 450//450 451//451
f 403//403 451//451 404//404
f 404//404 451//451 452//452
f 404//404 452//452 405//405
f 405//405 452//452 453//453
f 405//405 453//453 406//406
f 406//406 453//453 454//454
f 406//406 454//454 407//407
f 407//407 454//454 455//455
f 407//407 455//455 408//408
f 408//408 455//455 456//456
f 408//408 456//456 409//409
f 409//409 456//456 457//457
f 409//409 457//457 410//410
f 410//410 457//457 458//458
f 410//410 458//458 411//411
f 411//411 458//458 459//459
f 411//411 459//459 412//412
f 412//412 459//459 460//460
f 412//412 460//460 413//413
f 413//413 460//460 461//461
f 413//413 461//461 414//414
f 414//414 461//461 462//462
f 414//414 462//462 415//415
f 415//415 462//462 463//463
f 415//415 463//463 416//416
f 416//416 463//463 464//464
f 416//416 464//464 417//417
f 417//417 464//464 465//465
f 417//417 465//465 418//418
f 418//418 465//465 466//466
f 418//418 466//466 419//419
f 419//419 466//466 467//467
f 419//419 467//467 420//420
f 420//420 467//467 468//468
f 420//420 468//468 421//421
f 421//421 468//468 469//469
f 421//421 469//469 422//422
f 422//422 469//469 470//470
f 422//422 470//470 423//423
f 423//423 470//470 471//471
f 423//423 471//471 424//424
f 424//424 471//471 472//472
f 424//424 472//472 425//425
f 425//425 472//472 473//473
f 425//425 473//473 426//426
f 426//426 473//473 474//474
f 426//426 474//474 427//427
f 427//427 474//474 475//475
f 427//427 475//475 428//428
f 428//428 475//475 476//476
f 428//428 476//476 429//429
f 429//429 476//476 477//477
f 429//429 477//477 430//430
f 430//430 477//477 478//478
f 430//430 478//478 431//431
f 431//431 478//478 479//479
f 431//431 479//479 432//432
f 432//432 479//479 480//480
f 432//432 480//480 385//385
f 385//385 480//480 433//433
f 433//433 481//481 434//434
f 434//434 481//481 482//482
f 434//434 482//482 435//435
f 435//435 482//482 483//483
f 435//435 483//483 436//436
f 436//436 483//483 484//484
f 436//436 484//484 437//437
f 437//437 484//484 485//485
f 437//437 485//485 438//438
f 438//438 485//485 486//486
f 438//438 486//486 439//439
f 439//439 486//486 487//487
f 439//439 487//487 440//440
f 440//440 487//487 488//488
f 440//440 488//488 441//441
f 441//441 488//488 489//489
f 441//441 489//489 442//442
f 442//442 489//489 490//490
f 442//442 490//490 443//443
f 443//443 490//490 491//491
f 443//443 491//491 444//444
f 444//444 491//491 492//492
f 444//444 492//492 445//445
f 445//445 492//492 493//493
f 445//445 493//493 446//446
f 446//446 493//493 494//494
f 446//446 494//494 447//447
f 447//447 494//494 495//495
f 447//447 495//495 448//448
f 448//448 495//495 496//496
f 448//448 496//496 449//449
f 449//449 496//496 497//497
f 449//449 497//497 450//450
f 450//450 497//497 498//498
f 450//450 498//498 451//451
f 451//451 498//498 499//499
f 451//451 499//499 452//452
f 452//452 499//499 500//500
f 452//452 500//500 453//453
f 453//453 500//500 501//501
f 453//453 501//501 454//454
f 454//454 501//501 502//502
f 454//454 502//502 455//455
f 455//455 502//502 503//503
f 455//455 503//503 456//456
f 456//456 503//503 504//504
f 456//456 504//504 457//457
f 457//457 504//504 505//505
f 457//457 505//505 458//458
f 458//458 505//505 506//506
f 458//458 506//506 459//459
f 459//459 506//506 507//507
f 459//459 507//507 460//460
f 460//460 507//507 508//508
f 460//460 508//508 461//461
f 461//461 508//508 509//509
f 461//461 509//509 462//462
f 462//462 509//509 510//510
f 462//462 510//510 463//463
f 463//463 510//510 511//511
f 463//463 511//511 464//464
f 464//464 511//511 512//512
f 464//464 512//512 465//465
f 465//465 512//512 513//513
f 465//465 513//513 466//466
f 466//466 513//513 514//514
f 466//466 514//514 467//467
f 467//467 514//514 515//515
f 467//467 515//515 468//468
f 468//468 515//515 516//516
f 468//468 516//516 469//469
f 469//469 516//516 517//517
f 469//469 517//517 470//470
f 470//470 517//517 518//518
f 470//470 518//518 471//471
f 471//471 518//518 519//519
f 471//471 519//519 472//472
f 472//472 519//519 520//520
f 472//472 520//520 473//473
f 473//473 520//520 521//521
f 473//473 521//521 474//474
f 474//474 521//521 522//522
f 474//474 522//522 475//475
f 475//475 522//522 523//523
f 475//475 523//523 476//476
f 476//476 523//523 524//524
f 476//476 524//524 477//477
f 477//477 524//524 525//525
f 477//477 525//525 478//478
f 478//478 525//525 526//526
f 478//478 526//526 479//479
f 479//479 526//526 527//527
f 479//479 527//527 480//480
f 480//480 527//527 528//528
f 480//480 528//528 433//433
f 433//433 528//528 481//481
f 481//481 529//529 482//482
f 482//482 529//529 530//530
f 482//482 530//530 483//483
f 483//483 530//530 531//531
f 483//483 531//531 484//484
f 484//484 531//531 532//532
f 484//484 532//532 485//485
f 485//485 532//532 533//533
f 485//485 533//533 486//486
f 486//486 533//533 534//534
f 486//486 534//534 487//487
f 487//487 534//534 535//535
f 487//487 535//535 488//488
f 488//488 535//535 536//536
f 488//488 536//536 489//489
f 489//489 536//536 537//537
f 489//489 537//537 490//490
f 490//490 537//537 538//538
f 490//490 538//538 491//491
f 491//491 538//538 539//539
f 491//491 539//539 492//492
f 492//492 539//539 540//540
f 492//492 540//540 493//493
f 493//493 540//540 541//541
f 493//493 541//541 494//494
f 494//494 541//541 542//542
f 494//494 542//542 495//495
f 495//495 542//542 543//543
f 495//495 543//543 496//496
f 496//496 543//543 544//544
f 496//496 544//544 497//497
f 497//497 544//544 545//545
f 497//497 545//545 498//498
f 498//498 545//545 546//546
f 498//498 546//546 499//499
f 499//499 546//546 547//547
f 499//499 547//547 500//500
f 500//500 547//547 548//548
f 500//500 548//548 501//501
f 501//501 548//548 549//549
f 501//501 549//549 502//502
f 502//502 549//549 550//550
f 502//502 550//550 503//503
f 503//503 550//550 551//551
f 503//503 551//551 504//504
f 504//504 551//551 552//552
f 504//504 552//552 505//505
f 505//505 552//552 553//553
f 505//505 553//553 506//506
f 506//506 553//553 554//554
f 506//506 554//554 507//507
f 507//507 554//554 555//555
f 507//507 555//555 508//508
f 508//508 555//555 556//556
f 508//508 556//556 509//509
f 509//509 556//556 557//557
f 509//509 557//557 510//510
f 510//510 557//557 558//558
f 510//510 558//558 511//511
f 511//511 558//558 559//559
f 511//511 559//559 512//512
f 512//512 559//559 560//560
f 512//512 560//560 513//513
f 513//513 560//560 561//561
f 513//513 561//561 514//514
f 514//514 561//561 562//562
f 514//514 562//562 515//515
f 515//515 562//562 563//563
f 515//515 563//563 516//516
f 516//516 563//563 564//564
f 516//516 564//564 517//517
f 517//517 564//564 565//565
f 517//517 565//565 518//518
f 518//518 565//565 566//566
f 518//518 566//566 519//519
f 519//519 566//566 567//567
f 519//519 567//567 520//520
f 520//520 567//567 568//568
f 520//520 568//568 521//521
f 521//521 568//568 569//569
f 521//521 569//569 522//522
f 522//522 569//569 570//570
f 522//522 570//570 523//523
f 523//523 570//570 571//571
f 523//523 571//571 524//524
f 524//524 571//571 572//572
f 524//524 572//572 525//525
f 525//525 572//572 573//573
f 525//525 573//573 526//526
f 526//526 573//573 574//574
f 526//526 574//574 527//527
f 527//527 574//574 575//575
f 527//527 575//575 528//528
f 528//528 575//575 576//576
f 528//528 576//576 481//481
f 481//481 576//576 529//529
f 529//529 577//577 530//530
f 530//530 577//577 578//578
f 530//530 578//578 531//531
f 531//531 578//578 579//579
f 531//531 579//579 532//532
f 532//532 579//579 580//580
f 532//532 580//580 533//533
f 533//533 580//580 581//581
f 533//533 581//581 534//534
f 534//534 581//581 582//582
f 534//534 582//582 535//535
f 535//535 582//582 583//583
f 535//535 583//583 536//536
f 536//536 583//583 584//584
f 536//536 584//584 537//537
f 537//537 584//584 585//585
f 537//537 585//585 538//538
f 538//538 585//585 586//586
f 538//538 586//586 539//539
f 539//539 586//586 587//587
f 539//539 587//587 540//540
f 540//540 587//587 588//588
f 540//540 588//588 541//541
f 541//541 588//588 589//589
f 541//541 589//589 542//542
f 542//542 589//589 590//590
f 542//542 590//590 543//543
f 543//543 590//590 591//591
f 543//543 591//591 544//544
f 544//544 591//591 592//592
f 544//544 592//592 545//545
f 545//545 592//592 593//593
f 545//545 593//593 546//546
f 546//546 593//593 594//594
f 546//546 594//594 547//547
f 547//547 594//594 595//595
f 547//547 595//595 548//548
f 548//548 595//595 596//596
f 548//548 596//596 549//549
f 549//549 596//596 597//597
f 549//549 597//597 550//550
f 550//550 597//597 598//598
f 550//550 598//598 551//551
f 551//551 598//598 599//599
f 551//551 599//599 552//552
f 552//552 599//599 600//600
f 552//552 600//600 553//553
f 553//553 600//600 601//601
f 553//553 601//601 554//554
f 554//554 601//601 602//602
f 554//554 602//602 555//555
f 555//555 602//602 603//603
f 555//555 603//603 556//556
f 556//556 603//603 604//604
f 556//556 604//604 557//557
f 557//557 604//604 605//605
f 557//557 605//605 558//558
f 558//558 605//605 606//606
f 558//558 606//606 559//559
f 559//559 606//606 607//607
f 559//559 607//607 560//560
f 560//560 607//607 608//608
f 560//560 608//608 561//561
f 561//561 608//608 609//609
f 561//561 609//609 562//562
f 562//562 609//609 610//610
f 562//562 610//610 563//563
f 563//563 610//610 611//611
f 563//563 611//611 564//564
f 564//564 611//611 612//612
f 564//564 612//612 565//565
f 565//565 612//612 613//613
f 565//565 613//613 566//566
f 566//566 613//613 614//614
f 566//566 614//614 567//567
f 567//567 614//614 615//615
f 567//567 615//615 568//568
f 568//568 615//615 616//616
f 568//568 616//616 569//569
f 569//569 616//616 617//617
f 569//569 617//617 570//570
f 570//570 617//617 618//618
f 570//570 618//618 571//571
f 571//571 618//618 619//619
f 571//571 619//619 572//572
f 572//572 619//619 620//620
f 572//572 620//620 573//573
f 573//573 620//620 621//621
f 573//573 621//621 574//574
f 574//574 621//621 622//622
f 574//574 622//622 575//575
f 575//575 622//622 623//623
f 575//575 623//623 576//576
f 576//576 623//623 624//624
f 576//576 624//624 529//529
f 529//529 624//624 577//577
