# Bille (reconstructed): carbon tubes drawn at r=3 mm (real 0.5 mm) + tungsten-carbide wedge; cm; COM at origin; principal axes
v -28.55558 10.61051 -0.50449
v -28.60776 10.43608 -0.53956
v -28.64001 10.31349 -0.67487
v -28.64001 10.28956 -0.85873
v -28.60776 10.37342 -1.02091
v -28.55558 10.53306 -1.09947
v -28.50340 10.70748 -1.06440
v -28.47116 10.83008 -0.92909
v -28.47116 10.85401 -0.74523
v -28.50340 10.77014 -0.58305
v 5.81043 0.05392 0.86968
v 5.75825 -0.12051 0.83461
v 5.72600 -0.24310 0.69930
v 5.72600 -0.26704 0.51544
v 5.75825 -0.18317 0.35326
v 5.81043 -0.02353 0.27470
v 5.86260 0.15089 0.30977
v 5.89485 0.27348 0.44508
v 5.89485 0.29742 0.62894
v 5.86260 0.21355 0.79112
v -28.55558 10.57922 -0.50207
v -28.65213 10.43029 -0.55569
v -28.71181 10.33541 -0.70339
v -28.71181 10.33081 -0.88874
v -28.65213 10.41826 -1.04095
v -28.55558 10.56435 -1.10189
v -28.45903 10.71328 -1.04827
v -28.39936 10.80816 -0.90058
v -28.39936 10.81275 -0.71522
v -28.45903 10.72531 -0.56301
v -7.38944 -3.26667 -0.15875
v -7.48599 -3.41559 -0.21237
v -7.54566 -3.51048 -0.36006
v -7.54566 -3.51507 -0.54541
v -7.48599 -3.42763 -0.69763
v -7.38944 -3.28154 -0.75856
v -7.29289 -3.13261 -0.70494
v -7.23321 -3.03773 -0.55725
v -7.23321 -3.03313 -0.37190
v -7.29289 -3.12058 -0.21968
v -28.55558 10.33013 -0.62421
v -28.61564 10.27804 -0.79171
v -28.65276 10.33814 -0.96313
v -28.65276 10.48749 -1.07300
v -28.61564 10.66904 -1.07935
v -28.55558 10.81344 -0.97976
v -28.49552 10.86553 -0.81226
v -28.45840 10.80542 -0.64083
v -28.45840 10.65607 -0.53096
v -28.49552 10.47453 -0.52461
v 18.45492 0.23857 -14.34183
v 18.39486 0.18648 -14.50933
v 18.35774 0.24658 -14.68075
v 18.35774 0.39593 -14.79062
v 18.39486 0.57748 -14.79698
v 18.45492 0.72188 -14.69738
v 18.51498 0.77397 -14.52988
v 18.55210 0.71386 -14.35846
v 18.55210 0.56451 -14.24859
v 18.51498 0.38297 -14.24223
v 5.81043 -0.07452 0.85846
v 5.76587 0.10542 0.85481
v 5.73834 0.25089 0.74321
v 5.73834 0.30634 0.56629
v 5.76587 0.25058 0.39162
v 5.81043 0.10491 0.28592
v 5.85498 -0.07503 0.28957
v 5.88252 -0.22051 0.40117
v 5.88252 -0.27596 0.57810
v 5.85498 -0.22020 0.75277
v -7.38944 -3.36382 -0.17238
v -7.43399 -3.18388 -0.17603
v -7.46153 -3.03840 -0.28764
v -7.46153 -2.98295 -0.46456
v -7.43399 -3.03872 -0.63923
v -7.38944 -3.18439 -0.74493
v -7.34488 -3.36433 -0.74128
v -7.31735 -3.50981 -0.62967
v -7.31735 -3.56525 -0.45275
v -7.34488 -3.50949 -0.27808
v 5.81043 -0.28467 0.56295
v 5.67524 -0.22391 0.45156
v 5.59168 -0.07183 0.38624
v 5.59168 0.11349 0.39195
v 5.67524 0.26127 0.46651
v 5.81043 0.31505 0.58143
v 5.94562 0.25429 0.69283
v 6.02917 0.10221 0.75815
v 6.02917 -0.08311 0.75244
v 5.94562 -0.23089 0.67788
v 18.45492 0.18036 -14.52884
v 18.31973 0.24112 -14.64024
v 18.23618 0.39320 -14.70556
v 18.23618 0.57853 -14.69985
v 18.31973 0.72630 -14.62529
v 18.45492 0.78008 -14.51037
v 18.59011 0.71933 -14.39897
v 18.67366 0.56724 -14.33365
v 18.67366 0.38192 -14.33936
v 18.59011 0.23415 -14.41392
v -7.38944 -3.56395 -0.53605
v -7.47596 -3.46896 -0.66971
v -7.52943 -3.29954 -0.72277
v -7.52943 -3.12040 -0.67494
v -7.47596 -2.99998 -0.54449
v -7.38944 -2.98426 -0.38127
v -7.30291 -3.07925 -0.24760
v -7.24944 -3.24867 -0.19455
v -7.24944 -3.42780 -0.24238
v -7.30291 -3.54823 -0.37282
v 18.45492 0.19038 -14.59699
v 18.36840 0.28537 -14.73066
v 18.31492 0.45479 -14.78371
v 18.31492 0.63392 -14.73588
v 18.36840 0.75435 -14.60544
v 18.45492 0.77007 -14.44221
v 18.54144 0.67508 -14.30855
v 18.59492 0.50566 -14.25550
v 18.59492 0.32652 -14.30332
v 18.54144 0.20610 -14.43377
v -28.55558 11.05178 -0.80198
v -28.55558 11.05178 -0.80198
v -28.55558 11.05178 -0.80198
v -28.55558 11.05178 -0.80198
v -28.55558 11.05178 -0.80198
v -28.55558 11.05178 -0.80198
v -28.55558 11.05178 -0.80198
v -28.55558 11.05178 -0.80198
v -28.55558 11.05178 -0.80198
v -28.55558 11.05178 -0.80198
v -28.55558 11.05178 -0.80198
v -28.55558 11.05178 -0.80198
v -28.55558 11.05178 -0.80198
v -28.55558 11.05178 -0.80198
v -28.55558 11.05178 -0.80198
v -28.55558 11.05178 -0.80198
v -28.37189 11.01525 -0.80198
v -28.38588 11.01525 -0.73169
v -28.42569 11.01525 -0.67209
v -28.48529 11.01525 -0.63228
v -28.55558 11.01525 -0.61829
v -28.62588 11.01525 -0.63228
v -28.68547 11.01525 -0.67209
v -28.72529 11.01525 -0.73169
v -28.73927 11.01525 -0.80198
v -28.72529 11.01525 -0.87228
v -28.68547 11.01525 -0.93187
v -28.62588 11.01525 -0.97169
v -28.55558 11.01525 -0.98567
v -28.48529 11.01525 -0.97169
v -28.42569 11.01525 -0.93187
v -28.38588 11.01525 -0.87228
v -28.21617 10.91119 -0.80198
v -28.24201 10.91119 -0.67209
v -28.31558 10.91119 -0.56198
v -28.42569 10.91119 -0.48841
v -28.55558 10.91119 -0.46257
v -28.68547 10.91119 -0.48841
v -28.79558 10.91119 -0.56198
v -28.86916 10.91119 -0.67209
v -28.89499 10.91119 -0.80198
v -28.86916 10.91119 -0.93187
v -28.79558 10.91119 -1.04198
v -28.68547 10.91119 -1.11556
v -28.55558 10.91119 -1.14139
v -28.42569 10.91119 -1.11556
v -28.31558 10.91119 -1.04198
v -28.24201 10.91119 -0.93187
v -28.11212 10.75547 -0.80198
v -28.14588 10.75547 -0.63228
v -28.24201 10.75547 -0.48841
v -28.38588 10.75547 -0.39228
v -28.55558 10.75547 -0.35852
v -28.72529 10.75547 -0.39228
v -28.86916 10.75547 -0.48841
v -28.96529 10.75547 -0.63228
v -28.99904 10.75547 -0.80198
v -28.96529 10.75547 -0.97169
v -28.86916 10.75547 -1.11556
v -28.72529 10.75547 -1.21169
v -28.55558 10.75547 -1.24544
v -28.38588 10.75547 -1.21169
v -28.24201 10.75547 -1.11556
v -28.14588 10.75547 -0.97169
v -28.07558 10.57178 -0.80198
v -28.11212 10.57178 -0.61829
v -28.21617 10.57178 -0.46257
v -28.37189 10.57178 -0.35852
v -28.55558 10.57178 -0.32198
v -28.73927 10.57178 -0.35852
v -28.89499 10.57178 -0.46257
v -28.99904 10.57178 -0.61829
v -29.03558 10.57178 -0.80198
v -28.99904 10.57178 -0.98567
v -28.89499 10.57178 -1.14139
v -28.73927 10.57178 -1.24544
v -28.55558 10.57178 -1.28198
v -28.37189 10.57178 -1.24544
v -28.21617 10.57178 -1.14139
v -28.11212 10.57178 -0.98567
v -28.11212 10.38810 -0.80198
v -28.14588 10.38810 -0.63228
v -28.24201 10.38810 -0.48841
v -28.38588 10.38810 -0.39228
v -28.55558 10.38810 -0.35852
v -28.72529 10.38810 -0.39228
v -28.86916 10.38810 -0.48841
v -28.96529 10.38810 -0.63228
v -28.99904 10.38810 -0.80198
v -28.96529 10.38810 -0.97169
v -28.86916 10.38810 -1.11556
v -28.72529 10.38810 -1.21169
v -28.55558 10.38810 -1.24544
v -28.38588 10.38810 -1.21169
v -28.24201 10.38810 -1.11556
v -28.14588 10.38810 -0.97169
v -28.21617 10.23237 -0.80198
v -28.24201 10.23237 -0.67209
v -28.31558 10.23237 -0.56198
v -28.42569 10.23237 -0.48841
v -28.55558 10.23237 -0.46257
v -28.68547 10.23237 -0.48841
v -28.79558 10.23237 -0.56198
v -28.86916 10.23237 -0.67209
v -28.89499 10.23237 -0.80198
v -28.86916 10.23237 -0.93187
v -28.79558 10.23237 -1.04198
v -28.68547 10.23237 -1.11556
v -28.55558 10.23237 -1.14139
v -28.42569 10.23237 -1.11556
v -28.31558 10.23237 -1.04198
v -28.24201 10.23237 -0.93187
v -28.37189 10.12832 -0.80198
v -28.38588 10.12832 -0.73169
v -28.42569 10.12832 -0.67209
v -28.48529 10.12832 -0.63228
v -28.55558 10.12832 -0.61829
v -28.62588 10.12832 -0.63228
v -28.68547 10.12832 -0.67209
v -28.72529 10.12832 -0.73169
v -28.73927 10.12832 -0.80198
v -28.72529 10.12832 -0.87228
v -28.68547 10.12832 -0.93187
v -28.62588 10.12832 -0.97169
v -28.55558 10.12832 -0.98567
v -28.48529 10.12832 -0.97169
v -28.42569 10.12832 -0.93187
v -28.38588 10.12832 -0.87228
v -28.55558 10.09178 -0.80198
v -28.55558 10.09178 -0.80198
v -28.55558 10.09178 -0.80198
v -28.55558 10.09178 -0.80198
v -28.55558 10.09178 -0.80198
v -28.55558 10.09178 -0.80198
v -28.55558 10.09178 -0.80198
v -28.55558 10.09178 -0.80198
v -28.55558 10.09178 -0.80198
v -28.55558 10.09178 -0.80198
v -28.55558 10.09178 -0.80198
v -28.55558 10.09178 -0.80198
v -28.55558 10.09178 -0.80198
v -28.55558 10.09178 -0.80198
v -28.55558 10.09178 -0.80198
v -28.55558 10.09178 -0.80198
v 5.81043 0.49519 0.57219
v 5.81043 0.49519 0.57219
v 5.81043 0.49519 0.57219
v 5.81043 0.49519 0.57219
v 5.81043 0.49519 0.57219
v 5.81043 0.49519 0.57219
v 5.81043 0.49519 0.57219
v 5.81043 0.49519 0.57219
v 5.81043 0.49519 0.57219
v 5.81043 0.49519 0.57219
v 5.81043 0.49519 0.57219
v 5.81043 0.49519 0.57219
v 5.81043 0.49519 0.57219
v 5.81043 0.49519 0.57219
v 5.81043 0.49519 0.57219
v 5.81043 0.49519 0.57219
v 5.99411 0.45865 0.57219
v 5.98013 0.45865 0.64249
v 5.94031 0.45865 0.70208
v 5.88072 0.45865 0.74190
v 5.81043 0.45865 0.75588
v 5.74013 0.45865 0.74190
v 5.68054 0.45865 0.70208
v 5.64072 0.45865 0.64249
v 5.62674 0.45865 0.57219
v 5.64072 0.45865 0.50190
v 5.68054 0.45865 0.44231
v 5.74013 0.45865 0.40249
v 5.81043 0.45865 0.38850
v 5.88072 0.45865 0.40249
v 5.94031 0.45865 0.44231
v 5.98013 0.45865 0.50190
v 6.14984 0.35460 0.57219
v 6.12400 0.35460 0.70208
v 6.05043 0.35460 0.81219
v 5.94031 0.35460 0.88577
v 5.81043 0.35460 0.91160
v 5.68054 0.35460 0.88577
v 5.57043 0.35460 0.81219
v 5.49685 0.35460 0.70208
v 5.47102 0.35460 0.57219
v 5.49685 0.35460 0.44231
v 5.57043 0.35460 0.33219
v 5.68054 0.35460 0.25862
v 5.81043 0.35460 0.23278
v 5.94031 0.35460 0.25862
v 6.05043 0.35460 0.33219
v 6.12400 0.35460 0.44231
v 6.25389 0.19888 0.57219
v 6.22013 0.19888 0.74190
v 6.12400 0.19888 0.88577
v 5.98013 0.19888 0.98190
v 5.81043 0.19888 1.01565
v 5.64072 0.19888 0.98190
v 5.49685 0.19888 0.88577
v 5.40072 0.19888 0.74190
v 5.36696 0.19888 0.57219
v 5.40072 0.19888 0.40249
v 5.49685 0.19888 0.25862
v 5.64072 0.19888 0.16249
v 5.81043 0.19888 0.12873
v 5.98013 0.19888 0.16249
v 6.12400 0.19888 0.25862
v 6.22013 0.19888 0.40249
v 6.29043 0.01519 0.57219
v 6.25389 0.01519 0.75588
v 6.14984 0.01519 0.91160
v 5.99411 0.01519 1.01565
v 5.81043 0.01519 1.05219
v 5.62674 0.01519 1.01565
v 5.47102 0.01519 0.91160
v 5.36696 0.01519 0.75588
v 5.33043 0.01519 0.57219
v 5.36696 0.01519 0.38850
v 5.47102 0.01519 0.23278
v 5.62674 0.01519 0.12873
v 5.81043 0.01519 0.09219
v 5.99411 0.01519 0.12873
v 6.14984 0.01519 0.23278
v 6.25389 0.01519 0.38850
v 6.25389 -0.16850 0.57219
v 6.22013 -0.16850 0.74190
v 6.12400 -0.16850 0.88577
v 5.98013 -0.16850 0.98190
v 5.81043 -0.16850 1.01565
v 5.64072 -0.16850 0.98190
v 5.49685 -0.16850 0.88577
v 5.40072 -0.16850 0.74190
v 5.36696 -0.16850 0.57219
v 5.40072 -0.16850 0.40249
v 5.49685 -0.16850 0.25862
v 5.64072 -0.16850 0.16249
v 5.81043 -0.16850 0.12873
v 5.98013 -0.16850 0.16249
v 6.12400 -0.16850 0.25862
v 6.22013 -0.16850 0.40249
v 6.14984 -0.32422 0.57219
v 6.12400 -0.32422 0.70208
v 6.05043 -0.32422 0.81219
v 5.94031 -0.32422 0.88577
v 5.81043 -0.32422 0.91160
v 5.68054 -0.32422 0.88577
v 5.57043 -0.32422 0.81219
v 5.49685 -0.32422 0.70208
v 5.47102 -0.32422 0.57219
v 5.49685 -0.32422 0.44231
v 5.57043 -0.32422 0.33219
v 5.68054 -0.32422 0.25862
v 5.81043 -0.32422 0.23278
v 5.94031 -0.32422 0.25862
v 6.05043 -0.32422 0.33219
v 6.12400 -0.32422 0.44231
v 5.99411 -0.42827 0.57219
v 5.98013 -0.42827 0.64249
v 5.94031 -0.42827 0.70208
v 5.88072 -0.42827 0.74190
v 5.81043 -0.42827 0.75588
v 5.74013 -0.42827 0.74190
v 5.68054 -0.42827 0.70208
v 5.64072 -0.42827 0.64249
v 5.62674 -0.42827 0.57219
v 5.64072 -0.42827 0.50190
v 5.68054 -0.42827 0.44231
v 5.74013 -0.42827 0.40249
v 5.81043 -0.42827 0.38850
v 5.88072 -0.42827 0.40249
v 5.94031 -0.42827 0.44231
v 5.98013 -0.42827 0.50190
v 5.81043 -0.46481 0.57219
v 5.81043 -0.46481 0.57219
v 5.81043 -0.46481 0.57219
v 5.81043 -0.46481 0.57219
v 5.81043 -0.46481 0.57219
v 5.81043 -0.46481 0.57219
v 5.81043 -0.46481 0.57219
v 5.81043 -0.46481 0.57219
v 5.81043 -0.46481 0.57219
v 5.81043 -0.46481 0.57219
v 5.81043 -0.46481 0.57219
v 5.81043 -0.46481 0.57219
v 5.81043 -0.46481 0.57219
v 5.81043 -0.46481 0.57219
v 5.81043 -0.46481 0.57219
v 5.81043 -0.46481 0.57219
v -7.38944 -2.79410 -0.45866
v -7.38944 -2.79410 -0.45866
v -7.38944 -2.79410 -0.45866
v -7.38944 -2.79410 -0.45866
v -7.38944 -2.79410 -0.45866
v -7.38944 -2.79410 -0.45866
v -7.38944 -2.79410 -0.45866
v -7.38944 -2.79410 -0.45866
v -7.38944 -2.79410 -0.45866
v -7.38944 -2.79410 -0.45866
v -7.38944 -2.79410 -0.45866
v -7.38944 -2.79410 -0.45866
v -7.38944 -2.79410 -0.45866
v -7.38944 -2.79410 -0.45866
v -7.38944 -2.79410 -0.45866
v -7.38944 -2.79410 -0.45866
v -7.20575 -2.83064 -0.45866
v -7.21973 -2.83064 -0.38836
v -7.25955 -2.83064 -0.32877
v -7.31914 -2.83064 -0.28895
v -7.38944 -2.83064 -0.27497
v -7.45973 -2.83064 -0.28895
v -7.51932 -2.83064 -0.32877
v -7.55914 -2.83064 -0.38836
v -7.57313 -2.83064 -0.45866
v -7.55914 -2.83064 -0.52895
v -7.51932 -2.83064 -0.58854
v -7.45973 -2.83064 -0.62836
v -7.38944 -2.83064 -0.64234
v -7.31914 -2.83064 -0.62836
v -7.25955 -2.83064 -0.58854
v -7.21973 -2.83064 -0.52895
v -7.05003 -2.93469 -0.45866
v -7.07586 -2.93469 -0.32877
v -7.14944 -2.93469 -0.21866
v -7.25955 -2.93469 -0.14508
v -7.38944 -2.93469 -0.11924
v -7.51932 -2.93469 -0.14508
v -7.62944 -2.93469 -0.21866
v -7.70301 -2.93469 -0.32877
v -7.72885 -2.93469 -0.45866
v -7.70301 -2.93469 -0.58854
v -7.62944 -2.93469 -0.69866
v -7.51932 -2.93469 -0.77223
v -7.38944 -2.93469 -0.79807
v -7.25955 -2.93469 -0.77223
v -7.14944 -2.93469 -0.69866
v -7.07586 -2.93469 -0.58854
v -6.94597 -3.09042 -0.45866
v -6.97973 -3.09042 -0.28895
v -7.07586 -3.09042 -0.14508
v -7.21973 -3.09042 -0.04895
v -7.38944 -3.09042 -0.01519
v -7.55914 -3.09042 -0.04895
v -7.70301 -3.09042 -0.14508
v -7.79914 -3.09042 -0.28895
v -7.83290 -3.09042 -0.45866
v -7.79914 -3.09042 -0.62836
v -7.70301 -3.09042 -0.77223
v -7.55914 -3.09042 -0.86836
v -7.38944 -3.09042 -0.90212
v -7.21973 -3.09042 -0.86836
v -7.07586 -3.09042 -0.77223
v -6.97973 -3.09042 -0.62836
v -6.90944 -3.27410 -0.45866
v -6.94597 -3.27410 -0.27497
v -7.05003 -3.27410 -0.11924
v -7.20575 -3.27410 -0.01519
v -7.38944 -3.27410 0.02134
v -7.57313 -3.27410 -0.01519
v -7.72885 -3.27410 -0.11924
v -7.83290 -3.27410 -0.27497
v -7.86944 -3.27410 -0.45866
v -7.83290 -3.27410 -0.64234
v -7.72885 -3.27410 -0.79807
v -7.57313 -3.27410 -0.90212
v -7.38944 -3.27410 -0.93866
v -7.20575 -3.27410 -0.90212
v -7.05003 -3.27410 -0.79807
v -6.94597 -3.27410 -0.64234
v -6.94597 -3.45779 -0.45866
v -6.97973 -3.45779 -0.28895
v -7.07586 -3.45779 -0.14508
v -7.21973 -3.45779 -0.04895
v -7.38944 -3.45779 -0.01519
v -7.55914 -3.45779 -0.04895
v -7.70301 -3.45779 -0.14508
v -7.79914 -3.45779 -0.28895
v -7.83290 -3.45779 -0.45866
v -7.79914 -3.45779 -0.62836
v -7.70301 -3.45779 -0.77223
v -7.55914 -3.45779 -0.86836
v -7.38944 -3.45779 -0.90212
v -7.21973 -3.45779 -0.86836
v -7.07586 -3.45779 -0.77223
v -6.97973 -3.45779 -0.62836
v -7.05003 -3.61351 -0.45866
v -7.07586 -3.61351 -0.32877
v -7.14944 -3.61351 -0.21866
v -7.25955 -3.61351 -0.14508
v -7.38944 -3.61351 -0.11924
v -7.51932 -3.61351 -0.14508
v -7.62944 -3.61351 -0.21866
v -7.70301 -3.61351 -0.32877
v -7.72885 -3.61351 -0.45866
v -7.70301 -3.61351 -0.58854
v -7.62944 -3.61351 -0.69866
v -7.51932 -3.61351 -0.77223
v -7.38944 -3.61351 -0.79807
v -7.25955 -3.61351 -0.77223
v -7.14944 -3.61351 -0.69866
v -7.07586 -3.61351 -0.58854
v -7.20575 -3.71757 -0.45866
v -7.21973 -3.71757 -0.38836
v -7.25955 -3.71757 -0.32877
v -7.31914 -3.71757 -0.28895
v -7.38944 -3.71757 -0.27497
v -7.45973 -3.71757 -0.28895
v -7.51932 -3.71757 -0.32877
v -7.55914 -3.71757 -0.38836
v -7.57313 -3.71757 -0.45866
v -7.55914 -3.71757 -0.52895
v -7.51932 -3.71757 -0.58854
v -7.45973 -3.71757 -0.62836
v -7.38944 -3.71757 -0.64234
v -7.31914 -3.71757 -0.62836
v -7.25955 -3.71757 -0.58854
v -7.21973 -3.71757 -0.52895
v -7.38944 -3.75410 -0.45866
v -7.38944 -3.75410 -0.45866
v -7.38944 -3.75410 -0.45866
v -7.38944 -3.75410 -0.45866
v -7.38944 -3.75410 -0.45866
v -7.38944 -3.75410 -0.45866
v -7.38944 -3.75410 -0.45866
v -7.38944 -3.75410 -0.45866
v -7.38944 -3.75410 -0.45866
v -7.38944 -3.75410 -0.45866
v -7.38944 -3.75410 -0.45866
v -7.38944 -3.75410 -0.45866
v -7.38944 -3.75410 -0.45866
v -7.38944 -3.75410 -0.45866
v -7.38944 -3.75410 -0.45866
v -7.38944 -3.75410 -0.45866
v 18.45492 0.96022 -14.51960
v 18.45492 0.96022 -14.51960
v 18.45492 0.96022 -14.51960
v 18.45492 0.96022 -14.51960
v 18.45492 0.96022 -14.51960
v 18.45492 0.96022 -14.51960
v 18.45492 0.96022 -14.51960
v 18.45492 0.96022 -14.51960
v 18.45492 0.96022 -14.51960
v 18.45492 0.96022 -14.51960
v 18.45492 0.96022 -14.51960
v 18.45492 0.96022 -14.51960
v 18.45492 0.96022 -14.51960
v 18.45492 0.96022 -14.51960
v 18.45492 0.96022 -14.51960
v 18.45492 0.96022 -14.51960
v 18.63861 0.92368 -14.51960
v 18.62463 0.92368 -14.44931
v 18.58481 0.92368 -14.38972
v 18.52521 0.92368 -14.34990
v 18.45492 0.92368 -14.33592
v 18.38463 0.92368 -14.34990
v 18.32503 0.92368 -14.38972
v 18.28521 0.92368 -14.44931
v 18.27123 0.92368 -14.51960
v 18.28521 0.92368 -14.58990
v 18.32503 0.92368 -14.64949
v 18.38463 0.92368 -14.68931
v 18.45492 0.92368 -14.70329
v 18.52521 0.92368 -14.68931
v 18.58481 0.92368 -14.64949
v 18.62463 0.92368 -14.58990
v 18.79433 0.81963 -14.51960
v 18.76850 0.81963 -14.38972
v 18.69492 0.81963 -14.27960
v 18.58481 0.81963 -14.20603
v 18.45492 0.81963 -14.18019
v 18.32503 0.81963 -14.20603
v 18.21492 0.81963 -14.27960
v 18.14135 0.81963 -14.38972
v 18.11551 0.81963 -14.51960
v 18.14135 0.81963 -14.64949
v 18.21492 0.81963 -14.75960
v 18.32503 0.81963 -14.83318
v 18.45492 0.81963 -14.85902
v 18.58481 0.81963 -14.83318
v 18.69492 0.81963 -14.75960
v 18.76850 0.81963 -14.64949
v 18.89838 0.66391 -14.51960
v 18.86463 0.66391 -14.34990
v 18.76850 0.66391 -14.20603
v 18.62463 0.66391 -14.10990
v 18.45492 0.66391 -14.07614
v 18.28521 0.66391 -14.10990
v 18.14135 0.66391 -14.20603
v 18.04521 0.66391 -14.34990
v 18.01146 0.66391 -14.51960
v 18.04521 0.66391 -14.68931
v 18.14135 0.66391 -14.83318
v 18.28521 0.66391 -14.92931
v 18.45492 0.66391 -14.96307
v 18.62463 0.66391 -14.92931
v 18.76850 0.66391 -14.83318
v 18.86463 0.66391 -14.68931
v 18.93492 0.48022 -14.51960
v 18.89838 0.48022 -14.33592
v 18.79433 0.48022 -14.18019
v 18.63861 0.48022 -14.07614
v 18.45492 0.48022 -14.03960
v 18.27123 0.48022 -14.07614
v 18.11551 0.48022 -14.18019
v 18.01146 0.48022 -14.33592
v 17.97492 0.48022 -14.51960
v 18.01146 0.48022 -14.70329
v 18.11551 0.48022 -14.85902
v 18.27123 0.48022 -14.96307
v 18.45492 0.48022 -14.99960
v 18.63861 0.48022 -14.96307
v 18.79433 0.48022 -14.85902
v 18.89838 0.48022 -14.70329
v 18.89838 0.29653 -14.51960
v 18.86463 0.29653 -14.34990
v 18.76850 0.29653 -14.20603
v 18.62463 0.29653 -14.10990
v 18.45492 0.29653 -14.07614
v 18.28521 0.29653 -14.10990
v 18.14135 0.29653 -14.20603
v 18.04521 0.29653 -14.34990
v 18.01146 0.29653 -14.51960
v 18.04521 0.29653 -14.68931
v 18.14135 0.29653 -14.83318
v 18.28521 0.29653 -14.92931
v 18.45492 0.29653 -14.96307
v 18.62463 0.29653 -14.92931
v 18.76850 0.29653 -14.83318
v 18.86463 0.29653 -14.68931
v 18.79433 0.14081 -14.51960
v 18.76850 0.14081 -14.38972
v 18.69492 0.14081 -14.27960
v 18.58481 0.14081 -14.20603
v 18.45492 0.14081 -14.18019
v 18.32503 0.14081 -14.20603
v 18.21492 0.14081 -14.27960
v 18.14135 0.14081 -14.38972
v 18.11551 0.14081 -14.51960
v 18.14135 0.14081 -14.64949
v 18.21492 0.14081 -14.75960
v 18.32503 0.14081 -14.83318
v 18.45492 0.14081 -14.85902
v 18.58481 0.14081 -14.83318
v 18.69492 0.14081 -14.75960
v 18.76850 0.14081 -14.64949
v 18.63861 0.03676 -14.51960
v 18.62463 0.03676 -14.44931
v 18.58481 0.03676 -14.38972
v 18.52521 0.03676 -14.34990
v 18.45492 0.03676 -14.33592
v 18.38463 0.03676 -14.34990
v 18.32503 0.03676 -14.38972
v 18.28521 0.03676 -14.44931
v 18.27123 0.03676 -14.51960
v 18.28521 0.03676 -14.58990
v 18.32503 0.03676 -14.64949
v 18.38463 0.03676 -14.68931
v 18.45492 0.03676 -14.70329
v 18.52521 0.03676 -14.68931
v 18.58481 0.03676 -14.64949
v 18.62463 0.03676 -14.58990
v 18.45492 0.00022 -14.51960
v 18.45492 0.00022 -14.51960
v 18.45492 0.00022 -14.51960
v 18.45492 0.00022 -14.51960
v 18.45492 0.00022 -14.51960
v 18.45492 0.00022 -14.51960
v 18.45492 0.00022 -14.51960
v 18.45492 0.00022 -14.51960
v 18.45492 0.00022 -14.51960
v 18.45492 0.00022 -14.51960
v 18.45492 0.00022 -14.51960
v 18.45492 0.00022 -14.51960
v 18.45492 0.00022 -14.51960
v 18.45492 0.00022 -14.51960
v 18.45492 0.00022 -14.51960
v 18.45492 0.00022 -14.51960
v 5.81043 0.01519 0.57219
v 6.33790 0.03459 -0.05738
v -4.36078 3.13960 0.16548
v -7.37244 -3.27163 -0.46790
v -7.38944 -3.27410 -0.45866
v -7.52313 -3.18665 -0.46082
v -7.38944 -3.27410 -0.45866
v 5.81043 0.01519 0.57219
v -4.36078 3.13960 0.16548
v -7.38944 -3.27410 -0.45866
v -4.36078 3.13960 0.16548
v -7.52313 -3.18665 -0.46082
v -7.37244 -3.27163 -0.46790
v -7.52313 -3.18665 -0.46082
v -4.36078 3.13960 0.16548
v -7.37244 -3.27163 -0.46790
v -4.36078 3.13960 0.16548
v 6.33790 0.03459 -0.05738
v -7.37244 -3.27163 -0.46790
v 5.81043 0.01519 0.57219
v -7.38944 -3.27410 -0.45866
v -7.37244 -3.27163 -0.46790
v 6.33790 0.03459 -0.05738
v 5.81043 0.01519 0.57219
f 1 2 12
f 1 12 11
f 2 3 13
f 2 13 12
f 3 4 14
f 3 14 13
f 4 5 15
f 4 15 14
f 5 6 16
f 5 16 15
f 6 7 17
f 6 17 16
f 7 8 18
f 7 18 17
f 8 9 19
f 8 19 18
f 9 10 20
f 9 20 19
f 10 1 11
f 10 11 20
f 21 22 32
f 21 32 31
f 22 23 33
f 22 33 32
f 23 24 34
f 23 34 33
f 24 25 35
f 24 35 34
f 25 26 36
f 25 36 35
f 26 27 37
f 26 37 36
f 27 28 38
f 27 38 37
f 28 29 39
f 28 39 38
f 29 30 40
f 29 40 39
f 30 21 31
f 30 31 40
f 41 42 52
f 41 52 51
f 42 43 53
f 42 53 52
f 43 44 54
f 43 54 53
f 44 45 55
f 44 55 54
f 45 46 56
f 45 56 55
f 46 47 57
f 46 57 56
f 47 48 58
f 47 58 57
f 48 49 59
f 48 59 58
f 49 50 60
f 49 60 59
f 50 41 51
f 50 51 60
f 61 62 72
f 61 72 71
f 62 63 73
f 62 73 72
f 63 64 74
f 63 74 73
f 64 65 75
f 64 75 74
f 65 66 76
f 65 76 75
f 66 67 77
f 66 77 76
f 67 68 78
f 67 78 77
f 68 69 79
f 68 79 78
f 69 70 80
f 69 80 79
f 70 61 71
f 70 71 80
f 81 82 92
f 81 92 91
f 82 83 93
f 82 93 92
f 83 84 94
f 83 94 93
f 84 85 95
f 84 95 94
f 85 86 96
f 85 96 95
f 86 87 97
f 86 97 96
f 87 88 98
f 87 98 97
f 88 89 99
f 88 99 98
f 89 90 100
f 89 100 99
f 90 81 91
f 90 91 100
f 101 102 112
f 101 112 111
f 102 103 113
f 102 113 112
f 103 104 114
f 103 114 113
f 104 105 115
f 104 115 114
f 105 106 116
f 105 116 115
f 106 107 117
f 106 117 116
f 107 108 118
f 107 118 117
f 108 109 119
f 108 119 118
f 109 110 120
f 109 120 119
f 110 101 111
f 110 111 120
f 121 137 138
f 121 138 122
f 122 138 139
f 122 139 123
f 123 139 140
f 123 140 124
f 124 140 141
f 124 141 125
f 125 141 142
f 125 142 126
f 126 142 143
f 126 143 127
f 127 143 144
f 127 144 128
f 128 144 145
f 128 145 129
f 129 145 146
f 129 146 130
f 130 146 147
f 130 147 131
f 131 147 148
f 131 148 132
f 132 148 149
f 132 149 133
f 133 149 150
f 133 150 134
f 134 150 151
f 134 151 135
f 135 151 152
f 135 152 136
f 136 152 137
f 136 137 121
f 137 153 154
f 137 154 138
f 138 154 155
f 138 155 139
f 139 155 156
f 139 156 140
f 140 156 157
f 140 157 141
f 141 157 158
f 141 158 142
f 142 158 159
f 142 159 143
f 143 159 160
f 143 160 144
f 144 160 161
f 144 161 145
f 145 161 162
f 145 162 146
f 146 162 163
f 146 163 147
f 147 163 164
f 147 164 148
f 148 164 165
f 148 165 149
f 149 165 166
f 149 166 150
f 150 166 167
f 150 167 151
f 151 167 168
f 151 168 152
f 152 168 153
f 152 153 137
f 153 169 170
f 153 170 154
f 154 170 171
f 154 171 155
f 155 171 172
f 155 172 156
f 156 172 173
f 156 173 157
f 157 173 174
f 157 174 158
f 158 174 175
f 158 175 159
f 159 175 176
f 159 176 160
f 160 176 177
f 160 177 161
f 161 177 178
f 161 178 162
f 162 178 179
f 162 179 163
f 163 179 180
f 163 180 164
f 164 180 181
f 164 181 165
f 165 181 182
f 165 182 166
f 166 182 183
f 166 183 167
f 167 183 184
f 167 184 168
f 168 184 169
f 168 169 153
f 169 185 186
f 169 186 170
f 170 186 187
f 170 187 171
f 171 187 188
f 171 188 172
f 172 188 189
f 172 189 173
f 173 189 190
f 173 190 174
f 174 190 191
f 174 191 175
f 175 191 192
f 175 192 176
f 176 192 193
f 176 193 177
f 177 193 194
f 177 194 178
f 178 194 195
f 178 195 179
f 179 195 196
f 179 196 180
f 180 196 197
f 180 197 181
f 181 197 198
f 181 198 182
f 182 198 199
f 182 199 183
f 183 199 200
f 183 200 184
f 184 200 185
f 184 185 169
f 185 201 202
f 185 202 186
f 186 202 203
f 186 203 187
f 187 203 204
f 187 204 188
f 188 204 205
f 188 205 189
f 189 205 206
f 189 206 190
f 190 206 207
f 190 207 191
f 191 207 208
f 191 208 192
f 192 208 209
f 192 209 193
f 193 209 210
f 193 210 194
f 194 210 211
f 194 211 195
f 195 211 212
f 195 212 196
f 196 212 213
f 196 213 197
f 197 213 214
f 197 214 198
f 198 214 215
f 198 215 199
f 199 215 216
f 199 216 200
f 200 216 201
f 200 201 185
f 201 217 218
f 201 218 202
f 202 218 219
f 202 219 203
f 203 219 220
f 203 220 204
f 204 220 221
f 204 221 205
f 205 221 222
f 205 222 206
f 206 222 223
f 206 223 207
f 207 223 224
f 207 224 208
f 208 224 225
f 208 225 209
f 209 225 226
f 209 226 210
f 210 226 227
f 210 227 211
f 211 227 228
f 211 228 212
f 212 228 229
f 212 229 213
f 213 229 230
f 213 230 214
f 214 230 231
f 214 231 215
f 215 231 232
f 215 232 216
f 216 232 217
f 216 217 201
f 217 233 234
f 217 234 218
f 218 234 235
f 218 235 219
f 219 235 236
f 219 236 220
f 220 236 237
f 220 237 221
f 221 237 238
f 221 238 222
f 222 238 239
f 222 239 223
f 223 239 240
f 223 240 224
f 224 240 241
f 224 241 225
f 225 241 242
f 225 242 226
f 226 242 243
f 226 243 227
f 227 243 244
f 227 244 228
f 228 244 245
f 228 245 229
f 229 245 246
f 229 246 230
f 230 246 247
f 230 247 231
f 231 247 248
f 231 248 232
f 232 248 233
f 232 233 217
f 233 249 250
f 233 250 234
f 234 250 251
f 234 251 235
f 235 251 252
f 235 252 236
f 236 252 253
f 236 253 237
f 237 253 254
f 237 254 238
f 238 254 255
f 238 255 239
f 239 255 256
f 239 256 240
f 240 256 257
f 240 257 241
f 241 257 258
f 241 258 242
f 242 258 259
f 242 259 243
f 243 259 260
f 243 260 244
f 244 260 261
f 244 261 245
f 245 261 262
f 245 262 246
f 246 262 263
f 246 263 247
f 247 263 264
f 247 264 248
f 248 264 249
f 248 249 233
f 265 281 282
f 265 282 266
f 266 282 283
f 266 283 267
f 267 283 284
f 267 284 268
f 268 284 285
f 268 285 269
f 269 285 286
f 269 286 270
f 270 286 287
f 270 287 271
f 271 287 288
f 271 288 272
f 272 288 289
f 272 289 273
f 273 289 290
f 273 290 274
f 274 290 291
f 274 291 275
f 275 291 292
f 275 292 276
f 276 292 293
f 276 293 277
f 277 293 294
f 277 294 278
f 278 294 295
f 278 295 279
f 279 295 296
f 279 296 280
f 280 296 281
f 280 281 265
f 281 297 298
f 281 298 282
f 282 298 299
f 282 299 283
f 283 299 300
f 283 300 284
f 284 300 301
f 284 301 285
f 285 301 302
f 285 302 286
f 286 302 303
f 286 303 287
f 287 303 304
f 287 304 288
f 288 304 305
f 288 305 289
f 289 305 306
f 289 306 290
f 290 306 307
f 290 307 291
f 291 307 308
f 291 308 292
f 292 308 309
f 292 309 293
f 293 309 310
f 293 310 294
f 294 310 311
f 294 311 295
f 295 311 312
f 295 312 296
f 296 312 297
f 296 297 281
f 297 313 314
f 297 314 298
f 298 314 315
f 298 315 299
f 299 315 316
f 299 316 300
f 300 316 317
f 300 317 301
f 301 317 318
f 301 318 302
f 302 318 319
f 302 319 303
f 303 319 320
f 303 320 304
f 304 320 321
f 304 321 305
f 305 321 322
f 305 322 306
f 306 322 323
f 306 323 307
f 307 323 324
f 307 324 308
f 308 324 325
f 308 325 309
f 309 325 326
f 309 326 310
f 310 326 327
f 310 327 311
f 311 327 328
f 311 328 312
f 312 328 313
f 312 313 297
f 313 329 330
f 313 330 314
f 314 330 331
f 314 331 315
f 315 331 332
f 315 332 316
f 316 332 333
f 316 333 317
f 317 333 334
f 317 334 318
f 318 334 335
f 318 335 319
f 319 335 336
f 319 336 320
f 320 336 337
f 320 337 321
f 321 337 338
f 321 338 322
f 322 338 339
f 322 339 323
f 323 339 340
f 323 340 324
f 324 340 341
f 324 341 325
f 325 341 342
f 325 342 326
f 326 342 343
f 326 343 327
f 327 343 344
f 327 344 328
f 328 344 329
f 328 329 313
f 329 345 346
f 329 346 330
f 330 346 347
f 330 347 331
f 331 347 348
f 331 348 332
f 332 348 349
f 332 349 333
f 333 349 350
f 333 350 334
f 334 350 351
f 334 351 335
f 335 351 352
f 335 352 336
f 336 352 353
f 336 353 337
f 337 353 354
f 337 354 338
f 338 354 355
f 338 355 339
f 339 355 356
f 339 356 340
f 340 356 357
f 340 357 341
f 341 357 358
f 341 358 342
f 342 358 359
f 342 359 343
f 343 359 360
f 343 360 344
f 344 360 345
f 344 345 329
f 345 361 362
f 345 362 346
f 346 362 363
f 346 363 347
f 347 363 364
f 347 364 348
f 348 364 365
f 348 365 349
f 349 365 366
f 349 366 350
f 350 366 367
f 350 367 351
f 351 367 368
f 351 368 352
f 352 368 369
f 352 369 353
f 353 369 370
f 353 370 354
f 354 370 371
f 354 371 355
f 355 371 372
f 355 372 356
f 356 372 373
f 356 373 357
f 357 373 374
f 357 374 358
f 358 374 375
f 358 375 359
f 359 375 376
f 359 376 360
f 360 376 361
f 360 361 345
f 361 377 378
f 361 378 362
f 362 378 379
f 362 379 363
f 363 379 380
f 363 380 364
f 364 380 381
f 364 381 365
f 365 381 382
f 365 382 366
f 366 382 383
f 366 383 367
f 367 383 384
f 367 384 368
f 368 384 385
f 368 385 369
f 369 385 386
f 369 386 370
f 370 386 387
f 370 387 371
f 371 387 388
f 371 388 372
f 372 388 389
f 372 389 373
f 373 389 390
f 373 390 374
f 374 390 391
f 374 391 375
f 375 391 392
f 375 392 376
f 376 392 377
f 376 377 361
f 377 393 394
f 377 394 378
f 378 394 395
f 378 395 379
f 379 395 396
f 379 396 380
f 380 396 397
f 380 397 381
f 381 397 398
f 381 398 382
f 382 398 399
f 382 399 383
f 383 399 400
f 383 400 384
f 384 400 401
f 384 401 385
f 385 401 402
f 385 402 386
f 386 402 403
f 386 403 387
f 387 403 404
f 387 404 388
f 388 404 405
f 388 405 389
f 389 405 406
f 389 406 390
f 390 406 407
f 390 407 391
f 391 407 408
f 391 408 392
f 392 408 393
f 392 393 377
f 409 425 426
f 409 426 410
f 410 426 427
f 410 427 411
f 411 427 428
f 411 428 412
f 412 428 429
f 412 429 413
f 413 429 430
f 413 430 414
f 414 430 431
f 414 431 415
f 415 431 432
f 415 432 416
f 416 432 433
f 416 433 417
f 417 433 434
f 417 434 418
f 418 434 435
f 418 435 419
f 419 435 436
f 419 436 420
f 420 436 437
f 420 437 421
f 421 437 438
f 421 438 422
f 422 438 439
f 422 439 423
f 423 439 440
f 423 440 424
f 424 440 425
f 424 425 409
f 425 441 442
f 425 442 426
f 426 442 443
f 426 443 427
f 427 443 444
f 427 444 428
f 428 444 445
f 428 445 429
f 429 445 446
f 429 446 430
f 430 446 447
f 430 447 431
f 431 447 448
f 431 448 432
f 432 448 449
f 432 449 433
f 433 449 450
f 433 450 434
f 434 450 451
f 434 451 435
f 435 451 452
f 435 452 436
f 436 452 453
f 436 453 437
f 437 453 454
f 437 454 438
f 438 454 455
f 438 455 439
f 439 455 456
f 439 456 440
f 440 456 441
f 440 441 425
f 441 457 458
f 441 458 442
f 442 458 459
f 442 459 443
f 443 459 460
f 443 460 444
f 444 460 461
f 444 461 445
f 445 461 462
f 445 462 446
f 446 462 463
f 446 463 447
f 447 463 464
f 447 464 448
f 448 464 465
f 448 465 449
f 449 465 466
f 449 466 450
f 450 466 467
f 450 467 451
f 451 467 468
f 451 468 452
f 452 468 469
f 452 469 453
f 453 469 470
f 453 470 454
f 454 470 471
f 454 471 455
f 455 471 472
f 455 472 456
f 456 472 457
f 456 457 441
f 457 473 474
f 457 474 458
f 458 474 475
f 458 475 459
f 459 475 476
f 459 476 460
f 460 476 477
f 460 477 461
f 461 477 478
f 461 478 462
f 462 478 479
f 462 479 463
f 463 479 480
f 463 480 464
f 464 480 481
f 464 481 465
f 465 481 482
f 465 482 466
f 466 482 483
f 466 483 467
f 467 483 484
f 467 484 468
f 468 484 485
f 468 485 469
f 469 485 486
f 469 486 470
f 470 486 487
f 470 487 471
f 471 487 488
f 471 488 472
f 472 488 473
f 472 473 457
f 473 489 490
f 473 490 474
f 474 490 491
f 474 491 475
f 475 491 492
f 475 492 476
f 476 492 493
f 476 493 477
f 477 493 494
f 477 494 478
f 478 494 495
f 478 495 479
f 479 495 496
f 479 496 480
f 480 496 497
f 480 497 481
f 481 497 498
f 481 498 482
f 482 498 499
f 482 499 483
f 483 499 500
f 483 500 484
f 484 500 501
f 484 501 485
f 485 501 502
f 485 502 486
f 486 502 503
f 486 503 487
f 487 503 504
f 487 504 488
f 488 504 489
f 488 489 473
f 489 505 506
f 489 506 490
f 490 506 507
f 490 507 491
f 491 507 508
f 491 508 492
f 492 508 509
f 492 509 493
f 493 509 510
f 493 510 494
f 494 510 511
f 494 511 495
f 495 511 512
f 495 512 496
f 496 512 513
f 496 513 497
f 497 513 514
f 497 514 498
f 498 514 515
f 498 515 499
f 499 515 516
f 499 516 500
f 500 516 517
f 500 517 501
f 501 517 518
f 501 518 502
f 502 518 519
f 502 519 503
f 503 519 520
f 503 520 504
f 504 520 505
f 504 505 489
f 505 521 522
f 505 522 506
f 506 522 523
f 506 523 507
f 507 523 524
f 507 524 508
f 508 524 525
f 508 525 509
f 509 525 526
f 509 526 510
f 510 526 527
f 510 527 511
f 511 527 528
f 511 528 512
f 512 528 529
f 512 529 513
f 513 529 530
f 513 530 514
f 514 530 531
f 514 531 515
f 515 531 532
f 515 532 516
f 516 532 533
f 516 533 517
f 517 533 534
f 517 534 518
f 518 534 535
f 518 535 519
f 519 535 536
f 519 536 520
f 520 536 521
f 520 521 505
f 521 537 538
f 521 538 522
f 522 538 539
f 522 539 523
f 523 539 540
f 523 540 524
f 524 540 541
f 524 541 525
f 525 541 542
f 525 542 526
f 526 542 543
f 526 543 527
f 527 543 544
f 527 544 528
f 528 544 545
f 528 545 529
f 529 545 546
f 529 546 530
f 530 546 547
f 530 547 531
f 531 547 548
f 531 548 532
f 532 548 549
f 532 549 533
f 533 549 550
f 533 550 534
f 534 550 551
f 534 551 535
f 535 551 552
f 535 552 536
f 536 552 537
f 536 537 521
f 553 569 570
f 553 570 554
f 554 570 571
f 554 571 555
f 555 571 572
f 555 572 556
f 556 572 573
f 556 573 557
f 557 573 574
f 557 574 558
f 558 574 575
f 558 575 559
f 559 575 576
f 559 576 560
f 560 576 577
f 560 577 561
f 561 577 578
f 561 578 562
f 562 578 579
f 562 579 563
f 563 579 580
f 563 580 564
f 564 580 581
f 564 581 565
f 565 581 582
f 565 582 566
f 566 582 583
f 566 583 567
f 567 583 584
f 567 584 568
f 568 584 569
f 568 569 553
f 569 585 586
f 569 586 570
f 570 586 587
f 570 587 571
f 571 587 588
f 571 588 572
f 572 588 589
f 572 589 573
f 573 589 590
f 573 590 574
f 574 590 591
f 574 591 575
f 575 591 592
f 575 592 576
f 576 592 593
f 576 593 577
f 577 593 594
f 577 594 578
f 578 594 595
f 578 595 579
f 579 595 596
f 579 596 580
f 580 596 597
f 580 597 581
f 581 597 598
f 581 598 582
f 582 598 599
f 582 599 583
f 583 599 600
f 583 600 584
f 584 600 585
f 584 585 569
f 585 601 602
f 585 602 586
f 586 602 603
f 586 603 587
f 587 603 604
f 587 604 588
f 588 604 605
f 588 605 589
f 589 605 606
f 589 606 590
f 590 606 607
f 590 607 591
f 591 607 608
f 591 608 592
f 592 608 609
f 592 609 593
f 593 609 610
f 593 610 594
f 594 610 611
f 594 611 595
f 595 611 612
f 595 612 596
f 596 612 613
f 596 613 597
f 597 613 614
f 597 614 598
f 598 614 615
f 598 615 599
f 599 615 616
f 599 616 600
f 600 616 601
f 600 601 585
f 601 617 618
f 601 618 602
f 602 618 619
f 602 619 603
f 603 619 620
f 603 620 604
f 604 620 621
f 604 621 605
f 605 621 622
f 605 622 606
f 606 622 623
f 606 623 607
f 607 623 624
f 607 624 608
f 608 624 625
f 608 625 609
f 609 625 626
f 609 626 610
f 610 626 627
f 610 627 611
f 611 627 628
f 611 628 612
f 612 628 629
f 612 629 613
f 613 629 630
f 613 630 614
f 614 630 631
f 614 631 615
f 615 631 632
f 615 632 616
f 616 632 617
f 616 617 601
f 617 633 634
f 617 634 618
f 618 634 635
f 618 635 619
f 619 635 636
f 619 636 620
f 620 636 637
f 620 637 621
f 621 637 638
f 621 638 622
f 622 638 639
f 622 639 623
f 623 639 640
f 623 640 624
f 624 640 641
f 624 641 625
f 625 641 642
f 625 642 626
f 626 642 643
f 626 643 627
f 627 643 644
f 627 644 628
f 628 644 645
f 628 645 629
f 629 645 646
f 629 646 630
f 630 646 647
f 630 647 631
f 631 647 648
f 631 648 632
f 632 648 633
f 632 633 617
f 633 649 650
f 633 650 634
f 634 650 651
f 634 651 635
f 635 651 652
f 635 652 636
f 636 652 653
f 636 653 637
f 637 653 654
f 637 654 638
f 638 654 655
f 638 655 639
f 639 655 656
f 639 656 640
f 640 656 657
f 640 657 641
f 641 657 658
f 641 658 642
f 642 658 659
f 642 659 643
f 643 659 660
f 643 660 644
f 644 660 661
f 644 661 645
f 645 661 662
f 645 662 646
f 646 662 663
f 646 663 647
f 647 663 664
f 647 664 648
f 648 664 649
f 648 649 633
f 649 665 666
f 649 666 650
f 650 666 667
f 650 667 651
f 651 667 668
f 651 668 652
f 652 668 669
f 652 669 653
f 653 669 670
f 653 670 654
f 654 670 671
f 654 671 655
f 655 671 672
f 655 672 656
f 656 672 673
f 656 673 657
f 657 673 674
f 657 674 658
f 658 674 675
f 658 675 659
f 659 675 676
f 659 676 660
f 660 676 677
f 660 677 661
f 661 677 678
f 661 678 662
f 662 678 679
f 662 679 663
f 663 679 680
f 663 680 664
f 664 680 665
f 664 665 649
f 665 681 682
f 665 682 666
f 666 682 683
f 666 683 667
f 667 683 684
f 667 684 668
f 668 684 685
f 668 685 669
f 669 685 686
f 669 686 670
f 670 686 687
f 670 687 671
f 671 687 688
f 671 688 672
f 672 688 689
f 672 689 673
f 673 689 690
f 673 690 674
f 674 690 691
f 674 691 675
f 675 691 692
f 675 692 676
f 676 692 693
f 676 693 677
f 677 693 694
f 677 694 678
f 678 694 695
f 678 695 679
f 679 695 696
f 679 696 680
f 680 696 681
f 680 681 665
f 697 698 699
f 700 701 702
f 703 704 705
f 706 707 708
f 709 710 711
f 712 713 714
f 715 716 717
f 718 719 720
