# 21-vertex mono-monostatic polyhedron, closed faces (flat), cm, COM at origin
v 2.69394 -0.00000 1.11899
v 0.83247 2.56209 1.11899
v 0.00000 -0.00000 7.82205
v 0.83247 -2.56209 1.11899
v 0.00000 -0.00000 7.82205
v -2.17944 -1.58346 1.11899
v 2.69394 -0.00000 1.11899
v 0.00000 -0.00000 7.82205
v 0.83247 -2.56209 1.11899
v 0.00000 -0.00000 7.82205
v -2.17944 1.58346 1.11899
v -2.17944 -1.58346 1.11899
v 0.00000 -0.00000 7.82205
v 0.83247 2.56209 1.11899
v -2.17944 1.58346 1.11899
v 0.61212 -1.88392 -0.48702
v 0.83247 -2.56209 1.11899
v -2.17944 -1.58346 1.11899
v -1.60255 -1.16432 -0.48702
v 2.69394 -0.00000 1.11899
v 1.98087 -0.00000 -0.48702
v 0.61212 1.88392 -0.48702
v 0.83247 2.56209 1.11899
v 1.98087 -0.00000 -0.48702
v 2.69394 -0.00000 1.11899
v 0.83247 -2.56209 1.11899
v 0.61212 -1.88392 -0.48702
v 0.83247 2.56209 1.11899
v 0.61212 1.88392 -0.48702
v -1.60255 1.16432 -0.48702
v -2.17944 1.58346 1.11899
v -1.60255 1.16432 -0.48702
v -1.60255 -1.16432 -0.48702
v -2.17944 -1.58346 1.11899
v -2.17944 1.58346 1.11899
v 1.21393 -0.00000 -1.01843
v 1.98087 -0.00000 -0.48702
v 0.61212 -1.88392 -0.48702
v 0.37513 -1.15452 -1.01843
v 1.98087 -0.00000 -0.48702
v 1.21393 -0.00000 -1.01843
v 0.37513 1.15452 -1.01843
v 0.61212 1.88392 -0.48702
v 0.61212 1.88392 -0.48702
v 0.37513 1.15452 -1.01843
v -0.98209 0.71353 -1.01843
v -1.60255 1.16432 -0.48702
v 0.37513 -1.15452 -1.01843
v 0.61212 -1.88392 -0.48702
v -1.60255 -1.16432 -0.48702
v -0.98209 -0.71353 -1.01843
v -0.98209 0.71353 -1.01843
v -0.98209 -0.71353 -1.01843
v -1.60255 -1.16432 -0.48702
v -1.60255 1.16432 -0.48702
v 1.21393 -0.00000 -1.01843
v 0.52228 -0.00000 -1.17795
v 0.16139 0.49671 -1.17795
v 0.37513 1.15452 -1.01843
v 1.21393 -0.00000 -1.01843
v 0.37513 -1.15452 -1.01843
v 0.16139 -0.49671 -1.17795
v 0.52228 -0.00000 -1.17795
v 0.37513 1.15452 -1.01843
v 0.16139 0.49671 -1.17795
v -0.42253 0.30699 -1.17795
v -0.98209 0.71353 -1.01843
v 0.16139 0.49671 -1.17795
v 0.52228 -0.00000 -1.17795
v 0.16139 -0.49671 -1.17795
v -0.42253 -0.30699 -1.17795
v -0.42253 0.30699 -1.17795
v 0.16139 -0.49671 -1.17795
v 0.37513 -1.15452 -1.01843
v -0.98209 -0.71353 -1.01843
v -0.42253 -0.30699 -1.17795
v -0.42253 0.30699 -1.17795
v -0.42253 -0.30699 -1.17795
v -0.98209 -0.71353 -1.01843
v -0.98209 0.71353 -1.01843
f 1 2 3
f 4 5 6
f 7 8 9
f 10 11 12
f 13 14 15
f 16 17 18
f 16 18 19
f 20 21 22
f 20 22 23
f 24 25 26
f 24 26 27
f 28 29 30
f 28 30 31
f 32 33 34
f 32 34 35
f 36 37 38
f 36 38 39
f 40 41 42
f 40 42 43
f 44 45 46
f 44 46 47
f 48 49 50
f 48 50 51
f 52 53 54
f 52 54 55
f 56 57 58
f 56 58 59
f 60 61 62
f 60 62 63
f 64 65 66
f 64 66 67
f 68 69 70
f 68 70 71
f 68 71 72
f 73 74 75
f 73 75 76
f 77 78 79
f 77 79 80
