# 26-vertex mono-monostatic polyhedron (Conway (5,5)-spiral), shell + corner weights, cm, COM at origin
v 2.98152 -0.00000 1.54577
v 0.92134 2.83560 1.54577
v 0.00000 -0.00000 7.60640
v 0.92134 -2.83560 1.54577
v 0.00000 -0.00000 7.60640
v -2.41210 -1.75250 1.54577
v 2.98152 -0.00000 1.54577
v 0.00000 -0.00000 7.60640
v 0.92134 -2.83560 1.54577
v 0.00000 -0.00000 7.60640
v -2.41210 1.75250 1.54577
v -2.41210 -1.75250 1.54577
v 0.00000 -0.00000 7.60640
v 0.92134 2.83560 1.54577
v -2.41210 1.75250 1.54577
v 2.98152 -0.00000 1.54577
v 2.51865 -0.00000 -0.27373
v 0.77831 2.39538 -0.27373
v 0.92134 2.83560 1.54577
v 2.51865 -0.00000 -0.27373
v 2.98152 -0.00000 1.54577
v 0.92134 -2.83560 1.54577
v 0.77831 -2.39538 -0.27373
v 0.77831 -2.39538 -0.27373
v 0.92134 -2.83560 1.54577
v -2.41210 -1.75250 1.54577
v -2.03763 -1.48043 -0.27373
v 0.56880 -1.75060 -0.97817
v 0.77831 -2.39538 -0.27373
v -2.03763 -1.48043 -0.27373
v -1.48915 -1.08193 -0.97817
v 1.84069 -0.00000 -0.97817
v 2.51865 -0.00000 -0.27373
v 0.77831 -2.39538 -0.27373
v 0.56880 -1.75060 -0.97817
v -2.03763 1.48043 -0.27373
v -2.03763 -1.48043 -0.27373
v -2.41210 -1.75250 1.54577
v -2.41210 1.75250 1.54577
v -1.48915 1.08193 -0.97817
v -1.48915 -1.08193 -0.97817
v -2.03763 -1.48043 -0.27373
v -2.03763 1.48043 -0.27373
v 0.92134 2.83560 1.54577
v 0.77831 2.39538 -0.27373
v -2.03763 1.48043 -0.27373
v -2.41210 1.75250 1.54577
v 0.77831 2.39538 -0.27373
v 0.56880 1.75060 -0.97817
v -1.48915 1.08193 -0.97817
v -2.03763 1.48043 -0.27373
v 2.51865 -0.00000 -0.27373
v 1.84069 -0.00000 -0.97817
v 0.56880 1.75060 -0.97817
v 0.77831 2.39538 -0.27373
v 1.84069 -0.00000 -0.97817
v 1.45377 -0.00000 -1.23071
v 0.44924 1.38262 -1.23071
v 0.56880 1.75060 -0.97817
v 1.45377 -0.00000 -1.23071
v 1.84069 -0.00000 -0.97817
v 0.56880 -1.75060 -0.97817
v 0.44924 -1.38262 -1.23071
v 1.04506 -0.00000 -1.39360
v 1.45377 -0.00000 -1.23071
v 0.44924 -1.38262 -1.23071
v 0.32294 -0.99391 -1.39360
v 0.44924 -1.38262 -1.23071
v 0.56880 -1.75060 -0.97817
v -1.48915 -1.08193 -0.97817
v -1.17613 -0.85451 -1.23071
v 0.32294 -0.99391 -1.39360
v 0.44924 -1.38262 -1.23071
v -1.17613 -0.85451 -1.23071
v -0.84547 -0.61427 -1.39360
v 0.56880 1.75060 -0.97817
v 0.44924 1.38262 -1.23071
v -1.17613 0.85451 -1.23071
v -1.48915 1.08193 -0.97817
v -1.17613 0.85451 -1.23071
v -1.17613 -0.85451 -1.23071
v -1.48915 -1.08193 -0.97817
v -1.48915 1.08193 -0.97817
v -0.84547 0.61427 -1.39360
v -0.84547 -0.61427 -1.39360
v -1.17613 -0.85451 -1.23071
v -1.17613 0.85451 -1.23071
v 0.32294 0.99391 -1.39360
v 1.04506 -0.00000 -1.39360
v 0.32294 -0.99391 -1.39360
v -0.84547 -0.61427 -1.39360
v -0.84547 0.61427 -1.39360
v 1.45377 -0.00000 -1.23071
v 1.04506 -0.00000 -1.39360
v 0.32294 0.99391 -1.39360
v 0.44924 1.38262 -1.23071
v 0.44924 1.38262 -1.23071
v 0.32294 0.99391 -1.39360
v -0.84547 0.61427 -1.39360
v -1.17613 0.85451 -1.23071
f 1 2 3
f 4 5 6
f 7 8 9
f 10 11 12
f 13 14 15
f 16 17 18
f 16 18 19
f 20 21 22
f 20 22 23
f 24 25 26
f 24 26 27
f 28 29 30
f 28 30 31
f 32 33 34
f 32 34 35
f 36 37 38
f 36 38 39
f 40 41 42
f 40 42 43
f 44 45 46
f 44 46 47
f 48 49 50
f 48 50 51
f 52 53 54
f 52 54 55
f 56 57 58
f 56 58 59
f 60 61 62
f 60 62 63
f 64 65 66
f 64 66 67
f 68 69 70
f 68 70 71
f 72 73 74
f 72 74 75
f 76 77 78
f 76 78 79
f 80 81 82
f 80 82 83
f 84 85 86
f 84 86 87
f 88 89 90
f 88 90 91
f 88 91 92
f 93 94 95
f 93 95 96
f 97 98 99
f 97 99 100
