# 37-vertex mono-monostatic polyhedron (Conway (6,6)-spiral), shell + corner weights, cm, COM at origin
v -0.00000 -0.00000 7.54403
v -1.69398 2.93406 2.62815
v -3.38796 0.00000 2.62815
v 3.38796 -0.00000 2.62815
v 1.69398 2.93406 2.62815
v -0.00000 -0.00000 7.54403
v 1.69398 2.93406 2.62815
v -1.69398 2.93406 2.62815
v -0.00000 -0.00000 7.54403
v -0.00000 -0.00000 7.54403
v -3.38796 0.00000 2.62815
v -1.69398 -2.93406 2.62815
v 1.69398 -2.93406 2.62815
v 3.38796 -0.00000 2.62815
v -0.00000 -0.00000 7.54403
v 1.69398 -2.93406 2.62815
v -0.00000 -0.00000 7.54403
v -1.69398 -2.93406 2.62815
v 3.38796 -0.00000 2.62815
v 3.24187 -0.00000 0.26181
v 1.62093 2.80754 0.26181
v 1.69398 2.93406 2.62815
v 1.69398 2.93406 2.62815
v 1.62093 2.80754 0.26181
v -1.62093 2.80754 0.26181
v -1.69398 2.93406 2.62815
v -1.69398 2.93406 2.62815
v -1.62093 2.80754 0.26181
v -3.24187 0.00000 0.26181
v -3.38796 0.00000 2.62815
v -1.62093 2.80754 0.26181
v -1.25446 2.17279 -0.85171
v -2.50892 0.00000 -0.85171
v -3.24187 0.00000 0.26181
v 3.24187 -0.00000 0.26181
v 2.50892 -0.00000 -0.85171
v 1.25446 2.17279 -0.85171
v 1.62093 2.80754 0.26181
v 1.62093 2.80754 0.26181
v 1.25446 2.17279 -0.85171
v -1.25446 2.17279 -0.85171
v -1.62093 2.80754 0.26181
v -1.25446 2.17279 -0.85171
v -0.78382 1.35762 -1.40067
v -1.56764 0.00000 -1.40067
v -2.50892 0.00000 -0.85171
v 1.25446 2.17279 -0.85171
v 0.78382 1.35762 -1.40067
v -0.78382 1.35762 -1.40067
v -1.25446 2.17279 -0.85171
v 2.50892 -0.00000 -0.85171
v 1.56764 -0.00000 -1.40067
v 0.78382 1.35762 -1.40067
v 1.25446 2.17279 -0.85171
v -0.78382 1.35762 -1.40067
v -0.59549 1.03141 -1.44364
v -1.19097 0.00000 -1.44364
v -1.56764 0.00000 -1.40067
v 0.78382 1.35762 -1.40067
v 0.59549 1.03141 -1.44364
v -0.59549 1.03141 -1.44364
v -0.78382 1.35762 -1.40067
v -0.59549 1.03141 -1.44364
v -0.45683 0.79125 -1.45597
v -0.91365 -0.00000 -1.45597
v -1.19097 0.00000 -1.44364
v -0.78382 -1.35762 -1.40067
v -1.25446 -2.17279 -0.85171
v -2.50892 0.00000 -0.85171
v -1.56764 0.00000 -1.40067
v -1.62093 -2.80754 0.26181
v -1.69398 -2.93406 2.62815
v -3.38796 0.00000 2.62815
v -3.24187 0.00000 0.26181
v -1.25446 -2.17279 -0.85171
v -1.62093 -2.80754 0.26181
v -3.24187 0.00000 0.26181
v -2.50892 0.00000 -0.85171
v 0.59549 1.03141 -1.44364
v 0.45683 0.79125 -1.45597
v -0.45683 0.79125 -1.45597
v -0.59549 1.03141 -1.44364
v -0.59549 -1.03141 -1.44364
v -0.78382 -1.35762 -1.40067
v -1.56764 0.00000 -1.40067
v -1.19097 0.00000 -1.44364
v 2.50892 -0.00000 -0.85171
v 3.24187 -0.00000 0.26181
v 1.62093 -2.80754 0.26181
v 1.25446 -2.17279 -0.85171
v 3.24187 -0.00000 0.26181
v 3.38796 -0.00000 2.62815
v 1.69398 -2.93406 2.62815
v 1.62093 -2.80754 0.26181
v 1.25446 -2.17279 -0.85171
v 1.62093 -2.80754 0.26181
v -1.62093 -2.80754 0.26181
v -1.25446 -2.17279 -0.85171
v 1.62093 -2.80754 0.26181
v 1.69398 -2.93406 2.62815
v -1.69398 -2.93406 2.62815
v -1.62093 -2.80754 0.26181
v -0.45683 -0.79125 -1.45597
v -0.59549 -1.03141 -1.44364
v -1.19097 0.00000 -1.44364
v -0.91365 -0.00000 -1.45597
v 1.56764 -0.00000 -1.40067
v 2.50892 -0.00000 -0.85171
v 1.25446 -2.17279 -0.85171
v 0.78382 -1.35762 -1.40067
v 0.78382 -1.35762 -1.40067
v 1.25446 -2.17279 -0.85171
v -1.25446 -2.17279 -0.85171
v -0.78382 -1.35762 -1.40067
v 1.19097 -0.00000 -1.44364
v 0.91365 -0.00000 -1.45597
v 0.45683 0.79125 -1.45597
v 0.59549 1.03141 -1.44364
v 1.56764 -0.00000 -1.40067
v 1.19097 -0.00000 -1.44364
v 0.59549 1.03141 -1.44364
v 0.78382 1.35762 -1.40067
v 0.45683 0.79125 -1.45597
v 0.91365 -0.00000 -1.45597
v 0.45683 -0.79125 -1.45597
v -0.45683 -0.79125 -1.45597
v -0.91365 -0.00000 -1.45597
v -0.45683 0.79125 -1.45597
v 1.19097 -0.00000 -1.44364
v 1.56764 -0.00000 -1.40067
v 0.78382 -1.35762 -1.40067
v 0.59549 -1.03141 -1.44364
v 0.91365 -0.00000 -1.45597
v 1.19097 -0.00000 -1.44364
v 0.59549 -1.03141 -1.44364
v 0.45683 -0.79125 -1.45597
v 0.59549 -1.03141 -1.44364
v 0.78382 -1.35762 -1.40067
v -0.78382 -1.35762 -1.40067
v -0.59549 -1.03141 -1.44364
v 0.45683 -0.79125 -1.45597
v 0.59549 -1.03141 -1.44364
v -0.59549 -1.03141 -1.44364
v -0.45683 -0.79125 -1.45597
f 1 2 3
f 4 5 6
f 7 8 9
f 10 11 12
f 13 14 15
f 16 17 18
f 19 20 21
f 19 21 22
f 23 24 25
f 23 25 26
f 27 28 29
f 27 29 30
f 31 32 33
f 31 33 34
f 35 36 37
f 35 37 38
f 39 40 41
f 39 41 42
f 43 44 45
f 43 45 46
f 47 48 49
f 47 49 50
f 51 52 53
f 51 53 54
f 55 56 57
f 55 57 58
f 59 60 61
f 59 61 62
f 63 64 65
f 63 65 66
f 67 68 69
f 67 69 70
f 71 72 73
f 71 73 74
f 75 76 77
f 75 77 78
f 79 80 81
f 79 81 82
f 83 84 85
f 83 85 86
f 87 88 89
f 87 89 90
f 91 92 93
f 91 93 94
f 95 96 97
f 95 97 98
f 99 100 101
f 99 101 102
f 103 104 105
f 103 105 106
f 107 108 109
f 107 109 110
f 111 112 113
f 111 113 114
f 115 116 117
f 115 117 118
f 119 120 121
f 119 121 122
f 123 124 125
f 123 125 126
f 123 126 127
f 123 127 128
f 129 130 131
f 129 131 132
f 133 134 135
f 133 135 136
f 137 138 139
f 137 139 140
f 141 142 143
f 141 143 144
